<svg width="27" height="27" viewBox="0 0 27 27" fill="none" xmlns="http://www.w3.org/2000/svg">
<path d="M13.2109 26.8339C20.5071 26.8339 26.4218 20.8269 26.4218 13.417C26.4218 6.00698 20.5071 0 13.2109 0C5.91472 0 0 6.00698 0 13.417C0 20.8269 5.91472 26.8339 13.2109 26.8339Z" fill="white"/>
<path d="M14.2377 20.1253V14.0143H16.2658L16.5702 11.6218H14.2377V10.0993C14.2377 9.40749 14.4261 8.93842 15.4014 8.93842H16.6373V6.80534C16.4232 6.77651 15.6852 6.711 14.826 6.711C13.0327 6.711 11.8045 7.82209 11.8045 9.86346V11.6244H9.78418V14.017H11.8045V20.1253H14.2377Z" fill="#18161C"/>
</svg>
