<svg width="388" height="30" viewBox="0 0 388 30" fill="none" xmlns="http://www.w3.org/2000/svg">
<path d="M0.629852 7.69966V0.899658H2.76987C3.40987 0.899658 3.92984 1.07966 4.30984 1.41966C4.68985 1.75966 4.88986 2.23966 4.88986 2.81966C4.88986 3.21966 4.78984 3.55966 4.58984 3.85966C4.38984 4.15966 4.12986 4.37966 3.78986 4.51966C3.44986 4.65966 2.94984 4.71966 2.30984 4.71966H1.58984V7.65966H0.609863L0.629852 7.69966ZM2.60986 1.77966H1.60986V3.87966H2.66986C3.06986 3.87966 3.36984 3.77966 3.58984 3.59966C3.80984 3.41966 3.90985 3.13966 3.90985 2.79966C3.90985 2.09966 3.48985 1.75966 2.62985 1.75966" fill="#202020"/>
<path d="M5.79004 7.70017V0.920166H7.49005C8.17005 0.920166 8.71004 1.08017 9.13004 1.42017C9.53004 1.76017 9.73004 2.22017 9.73004 2.80017C9.73004 3.20017 9.63002 3.54017 9.43002 3.82017C9.23002 4.10017 8.95003 4.32017 8.59003 4.46017C8.81003 4.60017 9.01004 4.80017 9.23004 5.04017C9.43004 5.28017 9.73005 5.72017 10.11 6.32017C10.35 6.70017 10.53 7.00017 10.67 7.18017L11.03 7.66017H9.87003L9.57004 7.22017C9.57004 7.22017 9.55004 7.18017 9.51004 7.14017L9.33005 6.88017L9.03003 6.38017L8.71005 5.86017C8.51005 5.58017 8.33002 5.36017 8.15002 5.20017C7.99002 5.04017 7.83003 4.92017 7.69003 4.84017C7.55003 4.76017 7.33004 4.74017 7.01004 4.74017H6.75003V7.68017H5.79004V7.70017ZM7.05005 1.76017H6.75003V3.88017H7.11005C7.61005 3.88017 7.93004 3.84017 8.13004 3.76017C8.31004 3.68017 8.45005 3.54017 8.55005 3.38017C8.65005 3.22017 8.71005 3.02017 8.71005 2.80017C8.71005 2.58017 8.65005 2.40017 8.55005 2.22017C8.45005 2.04017 8.27004 1.92017 8.07004 1.86017C7.87004 1.78017 7.53005 1.76017 7.05005 1.76017Z" fill="#202020"/>
<path d="M14.4701 0.81958C15.5101 0.81958 16.3901 1.15958 17.0901 1.81958C17.7901 2.47958 18.1301 3.31958 18.1301 4.31958C18.1301 5.31958 17.7701 6.13958 17.0701 6.79958C16.3701 7.45958 15.4901 7.77958 14.4101 7.77958C13.3301 7.77958 12.5301 7.45958 11.8501 6.79958C11.1701 6.13958 10.8301 5.31958 10.8301 4.33958C10.8301 3.35958 11.1701 2.49958 11.8501 1.81958C12.5301 1.13958 13.4101 0.81958 14.4501 0.81958M14.4901 1.73958C13.7101 1.73958 13.0701 1.97958 12.5701 2.45958C12.0701 2.93958 11.8301 3.55958 11.8301 4.31958C11.8301 5.07958 12.0901 5.65958 12.5901 6.13958C13.0901 6.61958 13.7101 6.85958 14.4701 6.85958C15.2301 6.85958 15.8501 6.61958 16.3701 6.11958C16.8701 5.61958 17.1301 4.99958 17.1301 4.27958C17.1301 3.55958 16.8701 2.95958 16.3701 2.45958C15.8701 1.95958 15.2501 1.71958 14.5101 1.71958" fill="#202020"/>
<path d="M22.9899 4.35962H25.2699V7.23962C24.4299 7.59962 23.6099 7.77962 22.7899 7.77962C21.6699 7.77962 20.7699 7.45962 20.1099 6.79962C19.4299 6.13962 19.1099 5.33962 19.1099 4.37962C19.1099 3.35962 19.4498 2.51962 20.1498 1.85962C20.8498 1.17962 21.7099 0.859619 22.7699 0.859619C23.1499 0.859619 23.5099 0.899619 23.8499 0.979619C24.1899 1.05962 24.6298 1.21962 25.1498 1.43962V2.41962C24.3498 1.95962 23.5298 1.71962 22.7498 1.71962C22.0098 1.71962 21.3898 1.97962 20.8698 2.47962C20.3698 2.97962 20.1099 3.59962 20.1099 4.33962C20.1099 5.07962 20.3698 5.73962 20.8698 6.21962C21.3698 6.69962 22.0299 6.95962 22.8299 6.95962C23.2099 6.95962 23.6899 6.87962 24.2299 6.69962H24.3299V5.25962H23.0298V4.39962L22.9899 4.35962Z" fill="#202020"/>
<path d="M26.71 7.70017V0.920166H28.4099C29.0899 0.920166 29.63 1.08017 30.05 1.42017C30.45 1.76017 30.6499 2.22017 30.6499 2.80017C30.6499 3.20017 30.5499 3.54017 30.3499 3.82017C30.1499 4.10017 29.8699 4.32017 29.5099 4.46017C29.7299 4.60017 29.9299 4.80017 30.1499 5.04017C30.3499 5.28017 30.6499 5.72017 31.0299 6.32017C31.2699 6.70017 31.4499 7.00017 31.5899 7.18017L31.95 7.66017H30.7899L30.49 7.22017C30.49 7.22017 30.4699 7.18017 30.4299 7.14017L30.2499 6.88017L29.95 6.38017L29.6299 5.86017C29.4299 5.58017 29.2499 5.36017 29.0699 5.20017C28.9099 5.04017 28.75 4.92017 28.61 4.84017C28.47 4.76017 28.2499 4.74017 27.9299 4.74017H27.67V7.68017H26.71V7.70017ZM27.9699 1.76017H27.67V3.88017H28.0299C28.5299 3.88017 28.85 3.84017 29.05 3.76017C29.23 3.68017 29.3699 3.54017 29.4699 3.38017C29.5699 3.22017 29.6299 3.02017 29.6299 2.80017C29.6299 2.58017 29.5699 2.40017 29.4699 2.22017C29.3699 2.04017 29.19 1.92017 28.99 1.86017C28.79 1.78017 28.4499 1.76017 27.9699 1.76017Z" fill="#202020"/>
<path d="M34.8297 0.880127H35.5097L38.5497 7.70013H37.5497L36.6497 5.70013H33.7697L32.9297 7.70013H31.9297L34.8297 0.880127ZM36.2497 4.82013L35.1497 2.36013L34.1297 4.82013H36.2297H36.2497Z" fill="#202020"/>
<path d="M44.69 0.920166H45.59V7.70017H44.61V2.42017L42.53 5.04017H42.35L40.25 2.42017V7.70017H39.27V0.920166H40.19L42.45 3.70017L44.69 0.920166Z" fill="#202020"/>
<path d="M49.2096 0.880127H49.8896L52.9296 7.70013H51.9296L51.0296 5.70013H48.1496L47.3096 7.70013H46.3096L49.2096 0.880127ZM50.6296 4.82013L49.5296 2.36013L48.5096 4.82013H50.6096H50.6296Z" fill="#202020"/>
<path d="M60.2697 0.920166H61.4697L58.5297 4.14017L62.1897 7.70017H60.8697L57.4097 4.34017V7.70017H56.4497V0.920166H57.4097V4.02017L60.2697 0.920166Z" fill="#202020"/>
<path d="M63.9097 0.920166H62.9497V7.70017H63.9097V0.920166Z" fill="#202020"/>
<path d="M64.8496 0.899658H70.5096V1.77966H68.1496V7.69966H67.1696V1.77966H64.8496V0.899658Z" fill="#202020"/>
<path d="M74.1899 7.68017V0.920166H76.4699C77.3899 0.920166 78.1099 1.06017 78.6499 1.34017C79.1899 1.62017 79.6099 2.02017 79.9299 2.56017C80.2499 3.10017 80.4099 3.68017 80.4099 4.32017C80.4099 4.78017 80.3299 5.20017 80.1499 5.62017C79.9699 6.04017 79.7299 6.40017 79.4099 6.72017C79.0899 7.04017 78.69 7.28017 78.27 7.46017C78.01 7.56017 77.7699 7.62017 77.5699 7.66017C77.3499 7.70017 76.9499 7.72017 76.3499 7.72017H74.21L74.1899 7.68017ZM76.3699 1.78017H75.1499V6.82017H76.39C76.87 6.82017 77.2499 6.78017 77.5099 6.72017C77.7699 6.66017 78.0099 6.56017 78.1899 6.46017C78.3699 6.36017 78.5299 6.24017 78.6899 6.08017C79.1699 5.60017 79.4099 4.98017 79.4099 4.24017C79.4099 3.50017 79.17 2.92017 78.67 2.46017C78.49 2.28017 78.29 2.14017 78.05 2.04017C77.81 1.94017 77.59 1.86017 77.39 1.82017C77.17 1.78017 76.8499 1.76017 76.3699 1.76017" fill="#202020"/>
<path d="M82.6099 0.920166H81.6499V7.70017H82.6099V0.920166Z" fill="#202020"/>
<path d="M87.7697 4.35962H90.0497V7.23962C89.2097 7.59962 88.3896 7.77962 87.5696 7.77962C86.4496 7.77962 85.5496 7.45962 84.8896 6.79962C84.2096 6.13962 83.8896 5.33962 83.8896 4.37962C83.8896 3.35962 84.2296 2.51962 84.9296 1.85962C85.6296 1.17962 86.4897 0.859619 87.5497 0.859619C87.9297 0.859619 88.2896 0.899619 88.6296 0.979619C88.9696 1.05962 89.4096 1.21962 89.9296 1.43962V2.41962C89.1296 1.95962 88.3096 1.71962 87.5296 1.71962C86.7896 1.71962 86.1696 1.97962 85.6496 2.47962C85.1496 2.97962 84.8896 3.59962 84.8896 4.33962C84.8896 5.07962 85.1496 5.73962 85.6496 6.21962C86.1496 6.69962 86.8096 6.95962 87.6096 6.95962C87.9896 6.95962 88.4696 6.87962 89.0096 6.69962H89.1096V5.25962H87.8096V4.39962L87.7697 4.35962Z" fill="#202020"/>
<path d="M92.4297 0.920166H91.4697V7.70017H92.4297V0.920166Z" fill="#202020"/>
<path d="M93.3701 0.899658H99.0301V1.77966H96.6701V7.69966H95.6901V1.77966H93.3701V0.899658Z" fill="#202020"/>
<path d="M101.11 0.880127H101.79L104.83 7.70013H103.83L102.93 5.70013H100.05L99.21 7.70013H98.21L101.11 0.880127ZM102.53 4.82013L101.43 2.36013L100.41 4.82013H102.51H102.53Z" fill="#202020"/>
<path d="M105.57 0.920166H106.55V6.80017H109.59V7.70017H105.57V0.920166Z" fill="#202020"/>
<path d="M119.03 6.11958V7.17958C118.31 7.55958 117.49 7.75958 116.57 7.75958C115.81 7.75958 115.17 7.59958 114.65 7.29958C114.13 6.99958 113.71 6.57958 113.39 6.03958C113.09 5.49958 112.93 4.93958 112.93 4.29958C112.93 3.31958 113.29 2.47958 113.99 1.81958C114.69 1.13958 115.57 0.81958 116.59 0.81958C117.31 0.81958 118.09 0.99958 118.97 1.37958V2.43958C118.17 1.97958 117.41 1.75958 116.65 1.75958C115.89 1.75958 115.23 1.99958 114.71 2.49958C114.19 2.97958 113.95 3.59958 113.95 4.33958C113.95 5.07958 114.21 5.69958 114.71 6.17958C115.21 6.65958 115.85 6.89958 116.65 6.89958C117.45 6.89958 118.27 6.63958 119.05 6.13958" fill="#202020"/>
<path d="M123.55 0.81958C124.59 0.81958 125.47 1.15958 126.17 1.81958C126.87 2.47958 127.21 3.31958 127.21 4.31958C127.21 5.31958 126.85 6.13958 126.15 6.79958C125.45 7.45958 124.57 7.77958 123.49 7.77958C122.41 7.77958 121.61 7.45958 120.93 6.79958C120.25 6.13958 119.91 5.31958 119.91 4.33958C119.91 3.35958 120.25 2.49958 120.93 1.81958C121.61 1.13958 122.49 0.81958 123.53 0.81958M123.57 1.73958C122.79 1.73958 122.15 1.97958 121.65 2.45958C121.15 2.93958 120.91 3.55958 120.91 4.31958C120.91 5.07958 121.17 5.65958 121.67 6.13958C122.17 6.61958 122.79 6.85958 123.55 6.85958C124.31 6.85958 124.93 6.61958 125.45 6.11958C125.95 5.61958 126.21 4.99958 126.21 4.27958C126.21 3.55958 125.95 2.95958 125.45 2.45958C124.95 1.95958 124.33 1.71958 123.59 1.71958" fill="#202020"/>
<path d="M128.41 0.920166H132.03V1.78017H129.39V3.68017H132.03V4.54017H129.39V7.70017H128.41V0.920166Z" fill="#202020"/>
<path d="M134.03 0.920166H133.07V7.70017H134.03V0.920166Z" fill="#202020"/>
<path d="M140.93 0.920166H141.85V7.70017H141.01L136.49 2.48017V7.70017H135.57V0.920166H136.37L140.93 6.18017V0.920166Z" fill="#202020"/>
<path d="M145.47 0.880127H146.15L149.19 7.70013H148.19L147.29 5.70013H144.41L143.57 7.70013H142.57L145.47 0.880127ZM146.89 4.82013L145.79 2.36013L144.77 4.82013H146.87H146.89Z" fill="#202020"/>
<path d="M155.31 0.920166H156.23V7.70017H155.39L150.87 2.48017V7.70017H149.95V0.920166H150.73L155.31 6.18017V0.920166Z" fill="#202020"/>
<path d="M163.51 6.11958V7.17958C162.79 7.55958 161.97 7.75958 161.05 7.75958C160.29 7.75958 159.65 7.59958 159.13 7.29958C158.61 6.99958 158.19 6.57958 157.87 6.03958C157.57 5.49958 157.41 4.93958 157.41 4.29958C157.41 3.31958 157.77 2.47958 158.47 1.81958C159.17 1.13958 160.05 0.81958 161.07 0.81958C161.79 0.81958 162.57 0.99958 163.45 1.37958V2.43958C162.65 1.97958 161.89 1.75958 161.13 1.75958C160.37 1.75958 159.71 1.99958 159.19 2.49958C158.67 2.97958 158.43 3.59958 158.43 4.33958C158.43 5.07958 158.69 5.69958 159.19 6.17958C159.69 6.65958 160.33 6.89958 161.13 6.89958C161.93 6.89958 162.75 6.63958 163.53 6.13958" fill="#202020"/>
<path d="M165.67 0.920166H164.71V7.70017H165.67V0.920166Z" fill="#202020"/>
<path d="M169.35 0.880127H170.03L173.07 7.70013H172.07L171.17 5.70013H168.29L167.45 7.70013H166.45L169.35 0.880127ZM170.77 4.82013L169.67 2.36013L168.65 4.82013H170.75H170.77Z" fill="#202020"/>
<path d="M173.83 7.68017V0.920166H176.11C177.03 0.920166 177.75 1.06017 178.29 1.34017C178.83 1.62017 179.25 2.02017 179.57 2.56017C179.89 3.10017 180.05 3.68017 180.05 4.32017C180.05 4.78017 179.97 5.20017 179.79 5.62017C179.61 6.04017 179.37 6.40017 179.05 6.72017C178.73 7.04017 178.33 7.28017 177.91 7.46017C177.65 7.56017 177.41 7.62017 177.21 7.66017C176.99 7.70017 176.59 7.72017 175.99 7.72017H173.85L173.83 7.68017ZM176.01 1.78017H174.79V6.82017H176.03C176.51 6.82017 176.89 6.78017 177.15 6.72017C177.41 6.66017 177.65 6.56017 177.83 6.46017C178.01 6.36017 178.17 6.24017 178.33 6.08017C178.81 5.60017 179.05 4.98017 179.05 4.24017C179.05 3.50017 178.81 2.92017 178.31 2.46017C178.13 2.28017 177.93 2.14017 177.69 2.04017C177.45 1.94017 177.23 1.86017 177.03 1.82017C176.81 1.78017 176.49 1.76017 176.01 1.76017" fill="#202020"/>
<path d="M184.59 0.81958C185.63 0.81958 186.51 1.15958 187.21 1.81958C187.91 2.47958 188.25 3.31958 188.25 4.31958C188.25 5.31958 187.89 6.13958 187.19 6.79958C186.49 7.45958 185.61 7.77958 184.53 7.77958C183.45 7.77958 182.65 7.45958 181.97 6.79958C181.29 6.13958 180.95 5.31958 180.95 4.33958C180.95 3.35958 181.29 2.49958 181.97 1.81958C182.65 1.15958 183.53 0.81958 184.57 0.81958M184.61 1.73958C183.83 1.73958 183.19 1.97958 182.69 2.45958C182.19 2.93958 181.95 3.55958 181.95 4.31958C181.95 5.07958 182.21 5.65958 182.71 6.13958C183.21 6.61958 183.83 6.85958 184.59 6.85958C185.35 6.85958 185.97 6.61958 186.49 6.11958C186.99 5.61958 187.25 4.99958 187.25 4.27958C187.25 3.55958 186.99 2.95958 186.49 2.45958C185.99 1.95958 185.37 1.71958 184.63 1.71958" fill="#202020"/>
<path d="M192.13 7.69966V0.899658H194.27C194.91 0.899658 195.43 1.07966 195.81 1.41966C196.19 1.75966 196.39 2.23966 196.39 2.81966C196.39 3.21966 196.29 3.55966 196.09 3.85966C195.89 4.15966 195.63 4.37966 195.29 4.51966C194.95 4.65966 194.45 4.71966 193.81 4.71966H193.09V7.65966H192.11L192.13 7.69966ZM194.11 1.77966H193.11V3.87966H194.17C194.57 3.87966 194.87 3.77966 195.09 3.59966C195.31 3.41966 195.41 3.13966 195.41 2.79966C195.41 2.09966 194.99 1.75966 194.13 1.75966" fill="#202020"/>
<path d="M200.57 0.81958C201.61 0.81958 202.49 1.15958 203.19 1.81958C203.89 2.47958 204.23 3.31958 204.23 4.31958C204.23 5.31958 203.87 6.13958 203.17 6.79958C202.47 7.45958 201.59 7.77958 200.51 7.77958C199.43 7.77958 198.63 7.45958 197.95 6.79958C197.27 6.13958 196.93 5.31958 196.93 4.33958C196.93 3.35958 197.27 2.49958 197.95 1.81958C198.63 1.15958 199.51 0.81958 200.55 0.81958M200.59 1.73958C199.81 1.73958 199.17 1.97958 198.67 2.45958C198.17 2.93958 197.93 3.55958 197.93 4.31958C197.93 5.07958 198.19 5.65958 198.69 6.13958C199.19 6.61958 199.81 6.85958 200.57 6.85958C201.33 6.85958 201.95 6.61958 202.47 6.11958C202.97 5.61958 203.23 4.99958 203.23 4.27958C203.23 3.55958 202.97 2.95958 202.47 2.45958C201.97 1.95958 201.35 1.71958 200.61 1.71958" fill="#202020"/>
<path d="M205.45 7.70017V0.920166H207.15C207.83 0.920166 208.37 1.08017 208.79 1.42017C209.19 1.76017 209.39 2.22017 209.39 2.80017C209.39 3.20017 209.29 3.54017 209.09 3.82017C208.89 4.10017 208.61 4.32017 208.25 4.46017C208.47 4.60017 208.67 4.80017 208.89 5.04017C209.09 5.28017 209.39 5.72017 209.77 6.32017C210.01 6.70017 210.19 7.00017 210.33 7.18017L210.69 7.66017H209.53L209.23 7.22017C209.23 7.22017 209.21 7.18017 209.17 7.14017L208.99 6.88017L208.69 6.38017L208.37 5.86017C208.17 5.58017 207.99 5.36017 207.81 5.20017C207.65 5.04017 207.49 4.92017 207.35 4.84017C207.21 4.76017 206.99 4.74017 206.67 4.74017H206.41V7.68017H205.45V7.70017ZM206.71 1.76017H206.41V3.88017H206.77C207.27 3.88017 207.59 3.84017 207.79 3.76017C207.97 3.68017 208.11 3.54017 208.21 3.38017C208.31 3.22017 208.37 3.02017 208.37 2.80017C208.37 2.58017 208.31 2.40017 208.21 2.22017C208.09 2.04017 207.93 1.92017 207.73 1.86017C207.53 1.78017 207.19 1.76017 206.71 1.76017Z" fill="#202020"/>
<path d="M214.19 0.920166H215.15V6.80017H218.21V7.70017H214.19V0.920166Z" fill="#202020"/>
<path d="M222.37 0.81958C223.41 0.81958 224.29 1.15958 224.99 1.81958C225.69 2.47958 226.03 3.31958 226.03 4.31958C226.03 5.31958 225.67 6.13958 224.97 6.79958C224.27 7.45958 223.39 7.77958 222.31 7.77958C221.23 7.77958 220.43 7.45958 219.75 6.79958C219.07 6.13958 218.73 5.31958 218.73 4.33958C218.73 3.35958 219.07 2.49958 219.75 1.81958C220.43 1.15958 221.31 0.81958 222.35 0.81958M222.39 1.73958C221.61 1.73958 220.97 1.97958 220.47 2.45958C219.97 2.93958 219.73 3.55958 219.73 4.31958C219.73 5.07958 219.99 5.65958 220.49 6.13958C220.99 6.61958 221.61 6.85958 222.37 6.85958C223.13 6.85958 223.75 6.61958 224.27 6.11958C224.77 5.61958 225.03 4.99958 225.03 4.27958C225.03 3.55958 224.77 2.95958 224.27 2.45958C223.77 1.95958 223.15 1.71958 222.41 1.71958" fill="#202020"/>
<path d="M228.91 4.86009L228.17 4.42009C227.71 4.14009 227.37 3.86009 227.19 3.58009C226.99 3.30009 226.89 3.00009 226.89 2.64009C226.89 2.10009 227.07 1.68009 227.45 1.34009C227.83 1.00009 228.31 0.840088 228.89 0.840088C229.47 0.840088 229.97 1.00009 230.45 1.32009V2.40009C229.97 1.94009 229.43 1.70009 228.87 1.70009C228.55 1.70009 228.29 1.78009 228.09 1.92009C227.89 2.06009 227.79 2.26009 227.79 2.48009C227.79 2.68009 227.87 2.88009 228.01 3.04009C228.17 3.22009 228.41 3.40009 228.73 3.60009L229.47 4.04009C230.29 4.54009 230.71 5.16009 230.71 5.92009C230.71 6.46009 230.53 6.90009 230.17 7.24009C229.81 7.58009 229.33 7.74009 228.75 7.74009C228.09 7.74009 227.47 7.54009 226.93 7.12009V5.88009C227.45 6.54009 228.07 6.88009 228.75 6.88009C229.05 6.88009 229.31 6.80009 229.51 6.62009C229.71 6.46009 229.81 6.24009 229.81 5.98009C229.81 5.56009 229.51 5.18009 228.91 4.80009" fill="#202020"/>
<path d="M234.55 0.920166H238.15V1.78017H235.51V3.68017H238.15V4.54017H235.51V7.70017H234.55V0.920166Z" fill="#202020"/>
<path d="M242.53 0.81958C243.57 0.81958 244.45 1.15958 245.15 1.81958C245.85 2.47958 246.19 3.31958 246.19 4.31958C246.19 5.31958 245.83 6.13958 245.13 6.79958C244.43 7.45958 243.55 7.77958 242.47 7.77958C241.39 7.77958 240.59 7.45958 239.91 6.79958C239.23 6.13958 238.89 5.31958 238.89 4.33958C238.89 3.35958 239.23 2.49958 239.91 1.81958C240.59 1.15958 241.47 0.81958 242.51 0.81958M242.55 1.73958C241.77 1.73958 241.13 1.97958 240.63 2.45958C240.13 2.93958 239.89 3.55958 239.89 4.31958C239.89 5.07958 240.15 5.65958 240.65 6.13958C241.15 6.61958 241.77 6.85958 242.53 6.85958C243.29 6.85958 243.91 6.61958 244.43 6.11958C244.93 5.61958 245.19 4.99958 245.19 4.27958C245.19 3.55958 244.93 2.95958 244.43 2.45958C243.93 1.95958 243.31 1.71958 242.57 1.71958" fill="#202020"/>
<path d="M252.75 0.920166H253.67V7.70017H252.83L248.31 2.48017V7.70017H247.39V0.920166H248.19L252.75 6.18017V0.920166Z" fill="#202020"/>
<path d="M255.13 7.68017V0.920166H257.41C258.33 0.920166 259.05 1.06017 259.59 1.34017C260.13 1.62017 260.55 2.02017 260.87 2.56017C261.19 3.10017 261.35 3.68017 261.35 4.32017C261.35 4.78017 261.27 5.20017 261.09 5.62017C260.91 6.04017 260.67 6.40017 260.35 6.72017C260.03 7.04017 259.63 7.28017 259.21 7.46017C258.95 7.56017 258.71 7.62017 258.51 7.66017C258.29 7.70017 257.89 7.72017 257.29 7.72017H255.15L255.13 7.68017ZM257.31 1.78017H256.09V6.82017H257.33C257.81 6.82017 258.19 6.78017 258.45 6.72017C258.71 6.66017 258.95 6.56017 259.13 6.46017C259.31 6.36017 259.47 6.24017 259.63 6.08017C260.11 5.60017 260.35 4.98017 260.35 4.24017C260.35 3.50017 260.11 2.92017 259.61 2.46017C259.43 2.28017 259.23 2.14017 258.99 2.04017C258.75 1.94017 258.53 1.86017 258.33 1.82017C258.11 1.78017 257.79 1.76017 257.31 1.76017" fill="#202020"/>
<path d="M265.89 0.81958C266.93 0.81958 267.81 1.15958 268.51 1.81958C269.21 2.47958 269.55 3.31958 269.55 4.31958C269.55 5.31958 269.19 6.13958 268.49 6.79958C267.79 7.45958 266.91 7.77958 265.83 7.77958C264.75 7.77958 263.95 7.45958 263.27 6.79958C262.59 6.13958 262.25 5.31958 262.25 4.33958C262.25 3.35958 262.59 2.49958 263.27 1.81958C263.95 1.15958 264.83 0.81958 265.87 0.81958M265.91 1.73958C265.13 1.73958 264.49 1.97958 263.99 2.45958C263.49 2.93958 263.25 3.55958 263.25 4.31958C263.25 5.07958 263.51 5.65958 264.01 6.13958C264.51 6.61958 265.13 6.85958 265.89 6.85958C266.65 6.85958 267.27 6.61958 267.79 6.11958C268.29 5.61958 268.55 4.99958 268.55 4.27958C268.55 3.55958 268.29 2.95958 267.79 2.45958C267.29 1.95958 266.67 1.71958 265.93 1.71958" fill="#202020"/>
<path d="M272.41 4.86009L271.67 4.42009C271.21 4.14009 270.87 3.86009 270.69 3.58009C270.49 3.30009 270.39 3.00009 270.39 2.64009C270.39 2.10009 270.57 1.68009 270.95 1.34009C271.33 1.00009 271.81 0.840088 272.39 0.840088C272.97 0.840088 273.47 1.00009 273.95 1.32009V2.40009C273.47 1.94009 272.93 1.70009 272.37 1.70009C272.05 1.70009 271.79 1.78009 271.59 1.92009C271.39 2.06009 271.29 2.26009 271.29 2.48009C271.29 2.68009 271.37 2.88009 271.51 3.04009C271.67 3.22009 271.91 3.40009 272.23 3.60009L272.97 4.04009C273.79 4.54009 274.21 5.16009 274.21 5.92009C274.21 6.46009 274.03 6.90009 273.67 7.24009C273.31 7.58009 272.83 7.74009 272.25 7.74009C271.59 7.74009 270.97 7.54009 270.43 7.12009V5.88009C270.95 6.54009 271.57 6.88009 272.25 6.88009C272.55 6.88009 272.81 6.80009 273.01 6.62009C273.21 6.46009 273.31 6.24009 273.31 5.98009C273.31 5.56009 273.01 5.18009 272.41 4.80009" fill="#202020"/>
<path d="M283.43 0.920166H284.35V7.70017H283.51L278.99 2.48017V7.70017H278.07V0.920166H278.87L283.43 6.18017V0.920166Z" fill="#202020"/>
<path d="M285.81 0.920166H289.65V1.78017H286.77V3.84017H289.55V4.72017H286.77V6.82017H289.73V7.68017H285.81V0.920166Z" fill="#202020"/>
<path d="M295.67 0.920166H296.85L294.13 4.18017L297.03 7.70017H295.87L293.55 4.88017L291.23 7.70017H290.05L292.95 4.18017L290.25 0.920166H291.43L293.55 3.50017L295.67 0.920166Z" fill="#202020"/>
<path d="M297.21 0.899658H302.87V1.77966H300.51V7.69966H299.55V1.77966H297.21V0.899658Z" fill="#202020"/>
<path d="M310.21 4.35962H312.49V7.23962C311.65 7.59962 310.83 7.77962 310.01 7.77962C308.89 7.77962 307.99 7.45962 307.33 6.79962C306.65 6.13962 306.33 5.33962 306.33 4.37962C306.33 3.35962 306.67 2.51962 307.37 1.85962C308.07 1.17962 308.93 0.859619 309.99 0.859619C310.37 0.859619 310.73 0.899619 311.07 0.979619C311.41 1.05962 311.85 1.21962 312.37 1.43962V2.41962C311.57 1.95962 310.75 1.71962 309.97 1.71962C309.23 1.71962 308.61 1.97962 308.09 2.47962C307.59 2.97962 307.33 3.59962 307.33 4.33962C307.33 5.07962 307.59 5.73962 308.09 6.21962C308.59 6.69962 309.25 6.95962 310.05 6.95962C310.43 6.95962 310.91 6.87962 311.45 6.69962H311.55V5.25962H310.25V4.39962L310.21 4.35962Z" fill="#202020"/>
<path d="M313.91 0.920166H317.75V1.78017H314.87V3.84017H317.65V4.72017H314.87V6.82017H317.83V7.68017H313.91V0.920166Z" fill="#202020"/>
<path d="M324.25 0.920166H325.17V7.70017H324.33L319.81 2.48017V7.70017H318.89V0.920166H319.69L324.25 6.18017V0.920166Z" fill="#202020"/>
<path d="M326.63 0.920166H330.47V1.78017H327.59V3.84017H330.37V4.72017H327.59V6.82017H330.55V7.68017H326.63V0.920166Z" fill="#202020"/>
<path d="M331.61 7.70017V0.920166H333.31C333.99 0.920166 334.53 1.08017 334.95 1.42017C335.35 1.76017 335.55 2.22017 335.55 2.80017C335.55 3.20017 335.45 3.54017 335.25 3.82017C335.05 4.10017 334.77 4.32017 334.41 4.46017C334.63 4.60017 334.83 4.80017 335.05 5.04017C335.25 5.28017 335.55 5.72017 335.93 6.32017C336.17 6.70017 336.35 7.00017 336.49 7.18017L336.85 7.66017H335.69L335.39 7.22017C335.39 7.22017 335.37 7.18017 335.33 7.14017L335.15 6.88017L334.85 6.38017L334.53 5.86017C334.33 5.58017 334.15 5.36017 333.97 5.20017C333.81 5.04017 333.65 4.92017 333.51 4.84017C333.37 4.76017 333.15 4.74017 332.83 4.74017H332.57V7.68017H331.61V7.70017ZM332.87 1.76017H332.57V3.88017H332.93C333.43 3.88017 333.75 3.84017 333.95 3.76017C334.13 3.68017 334.27 3.54017 334.37 3.38017C334.47 3.22017 334.53 3.02017 334.53 2.80017C334.53 2.58017 334.47 2.40017 334.37 2.22017C334.25 2.04017 334.09 1.92017 333.89 1.86017C333.69 1.78017 333.35 1.76017 332.87 1.76017Z" fill="#202020"/>
<path d="M339.75 0.880127H340.43L343.47 7.70013H342.47L341.57 5.70013H338.69L337.85 7.70013H336.85L339.75 0.880127ZM341.17 4.82013L340.07 2.36013L339.05 4.82013H341.15H341.17Z" fill="#202020"/>
<path d="M342.63 0.899658H348.29V1.77966H345.93V7.69966H344.95V1.77966H342.63V0.899658Z" fill="#202020"/>
<path d="M350.19 0.920166H349.23V7.70017H350.19V0.920166Z" fill="#202020"/>
<path d="M355.03 0.81958C356.07 0.81958 356.95 1.15958 357.65 1.81958C358.35 2.47958 358.69 3.31958 358.69 4.31958C358.69 5.31958 358.33 6.13958 357.63 6.79958C356.93 7.45958 356.05 7.77958 354.97 7.77958C353.89 7.77958 353.09 7.45958 352.41 6.79958C351.73 6.13958 351.39 5.31958 351.39 4.33958C351.39 3.35958 351.73 2.49958 352.41 1.81958C353.09 1.15958 353.97 0.81958 355.01 0.81958M355.05 1.73958C354.27 1.73958 353.63 1.97958 353.13 2.45958C352.63 2.93958 352.39 3.55958 352.39 4.31958C352.39 5.07958 352.65 5.65958 353.15 6.13958C353.65 6.61958 354.27 6.85958 355.03 6.85958C355.79 6.85958 356.41 6.61958 356.93 6.11958C357.43 5.61958 357.69 4.99958 357.69 4.27958C357.69 3.55958 357.43 2.95958 356.93 2.45958C356.43 1.95958 355.81 1.71958 355.07 1.71958" fill="#202020"/>
<path d="M365.25 0.920166H366.17V7.70017H365.33L360.81 2.48017V7.70017H359.89V0.920166H360.69L365.25 6.18017V0.920166Z" fill="#202020"/>
<path d="M372.17 0.81958H372.71C372.31 1.41958 372.01 1.93958 371.83 2.35958C371.65 2.77958 371.51 3.27958 371.41 3.81958C371.31 4.37958 371.27 4.89958 371.27 5.41958C371.27 7.17958 371.75 8.69958 372.69 9.93958H372.15L372.01 9.75958C371.65 9.31958 371.37 8.95958 371.19 8.67958C371.01 8.39958 370.83 8.03958 370.67 7.57958C370.39 6.85958 370.25 6.11958 370.25 5.37958C370.25 4.63958 370.39 3.87958 370.67 3.17958C370.95 2.47958 371.45 1.67958 372.15 0.81958" fill="#202020"/>
<path d="M373.59 0.920166H377.43V1.78017H374.57V3.84017H377.33V4.72017H374.57V6.82017H377.53V7.68017H373.59V0.920166Z" fill="#202020"/>
<path d="M383.27 0.920166H384.25V4.76017C384.25 5.28017 384.21 5.68017 384.13 5.94017C384.05 6.20017 383.97 6.42017 383.85 6.60017C383.73 6.78017 383.61 6.94017 383.45 7.08017C382.91 7.54017 382.21 7.78017 381.35 7.78017C380.49 7.78017 379.77 7.56017 379.23 7.10017C379.07 6.96017 378.93 6.80017 378.83 6.62017C378.71 6.44017 378.63 6.22017 378.55 5.98017C378.47 5.72017 378.45 5.32017 378.45 4.78017V0.920166H379.43V4.76017C379.43 5.40017 379.51 5.84017 379.65 6.08017C379.79 6.32017 380.01 6.52017 380.31 6.68017C380.61 6.84017 380.95 6.90017 381.37 6.90017C381.95 6.90017 382.41 6.74017 382.77 6.44017C382.97 6.28017 383.09 6.08017 383.19 5.86017C383.27 5.64017 383.31 5.26017 383.31 4.74017V0.920166H383.27Z" fill="#202020"/>
<path d="M385.51 9.96005H384.97C385.39 9.32005 385.69 8.78005 385.87 8.34005C386.05 7.90005 386.17 7.42005 386.27 6.88005C386.35 6.36005 386.41 5.84005 386.41 5.36005C386.41 4.80005 386.35 4.26005 386.25 3.72005C386.15 3.20005 385.99 2.70005 385.79 2.22005C385.59 1.74005 385.31 1.28005 384.97 0.800049H385.51L385.65 0.980049C386.01 1.42005 386.29 1.76005 386.45 2.04005C386.63 2.32005 386.81 2.68005 386.97 3.14005C387.25 3.86005 387.39 4.60005 387.39 5.36005C387.39 6.12005 387.27 6.80005 387.01 7.46005C386.89 7.80005 386.73 8.14005 386.53 8.46005C386.33 8.80005 385.99 9.28005 385.49 9.92005" fill="#202020"/>
<path d="M81.25 19.4604V12.7004H83.53C84.45 12.7004 85.17 12.8404 85.71 13.1204C86.25 13.4004 86.67 13.8004 86.99 14.3404C87.31 14.8804 87.47 15.4604 87.47 16.1004C87.47 16.5604 87.39 16.9804 87.21 17.4004C87.03 17.8204 86.79 18.1804 86.47 18.5004C86.15 18.8204 85.75 19.0604 85.33 19.2404C85.07 19.3404 84.83 19.4004 84.63 19.4404C84.41 19.4804 84.01 19.5004 83.41 19.5004H81.27L81.25 19.4604ZM83.43 13.5604H82.21V18.6004H83.45C83.93 18.6004 84.31 18.5604 84.57 18.5004C84.83 18.4404 85.07 18.3404 85.25 18.2404C85.43 18.1404 85.59 18.0204 85.75 17.8604C86.23 17.3804 86.47 16.7604 86.47 16.0204C86.47 15.2804 86.23 14.7004 85.73 14.2404C85.55 14.0604 85.35 13.9204 85.11 13.8204C84.87 13.7204 84.65 13.6404 84.45 13.6004C84.23 13.5604 83.91 13.5404 83.43 13.5404" fill="#202020"/>
<path d="M88.6899 12.7004H92.5299V13.5604H89.67V15.6404H92.4299V16.5004H89.67V18.6004H92.6299V19.4604H88.6899V12.7004Z" fill="#202020"/>
<path d="M93.6499 12.7004H94.6299V18.6004H97.6699V19.4804H93.6499V12.7004Z" fill="#202020"/>
<path d="M106.67 12.7004H107.57V19.4804H106.61V14.2004L104.53 16.8204H104.35L102.23 14.2004V19.4804H101.27V12.7004H102.19L104.43 15.4804L106.67 12.7004Z" fill="#202020"/>
<path d="M109.03 12.7004H112.87V13.5604H110.01V15.6404H112.79V16.5004H110.01V18.6004H112.97V19.4604H109.03V12.7004Z" fill="#202020"/>
<path d="M119.85 17.8999V18.9599C119.13 19.3399 118.31 19.5399 117.39 19.5399C116.63 19.5399 115.99 19.3799 115.47 19.0799C114.95 18.7799 114.53 18.3599 114.21 17.8199C113.91 17.2799 113.75 16.7199 113.75 16.0799C113.75 15.0999 114.11 14.2599 114.81 13.5999C115.51 12.9199 116.39 12.5999 117.41 12.5999C118.13 12.5999 118.91 12.7799 119.79 13.1599V14.1999C118.99 13.7399 118.23 13.5199 117.47 13.5199C116.71 13.5199 116.05 13.7599 115.53 14.2599C115.01 14.7399 114.77 15.3599 114.77 16.0999C114.77 16.8399 115.03 17.4599 115.53 17.9399C116.03 18.4199 116.67 18.6599 117.47 18.6599C118.27 18.6599 119.09 18.3999 119.87 17.8999" fill="#202020"/>
<path d="M123.45 12.6604H124.13L127.17 19.4804H126.17L125.27 17.4804H122.39L121.55 19.4804H120.55L123.45 12.6604ZM124.87 16.6004L123.77 14.1404L122.75 16.6004H124.85H124.87Z" fill="#202020"/>
<path d="M133.29 12.7004H134.21V19.4804H133.37L128.85 14.2604V19.4804H127.93V12.7004H128.71L133.29 17.9604V12.7004Z" fill="#202020"/>
<path d="M136.63 12.7004H135.67V19.4804H136.63V12.7004Z" fill="#202020"/>
<path d="M139.81 16.6404L139.07 16.2004C138.61 15.9204 138.27 15.6404 138.09 15.3604C137.89 15.0804 137.79 14.7804 137.79 14.4204C137.79 13.8804 137.97 13.4604 138.35 13.1204C138.73 12.7804 139.21 12.6204 139.79 12.6204C140.37 12.6204 140.87 12.7804 141.35 13.1004V14.2004C140.87 13.7404 140.33 13.5004 139.77 13.5004C139.45 13.5004 139.19 13.5804 138.99 13.7204C138.79 13.8604 138.69 14.0604 138.69 14.2804C138.69 14.4804 138.77 14.6804 138.91 14.8404C139.07 15.0204 139.31 15.2004 139.63 15.4004L140.37 15.8404C141.19 16.3404 141.61 16.9604 141.61 17.7204C141.61 18.2604 141.43 18.7004 141.07 19.0404C140.71 19.3804 140.23 19.5404 139.65 19.5404C138.99 19.5404 138.37 19.3404 137.83 18.9204V17.6804C138.35 18.3404 138.97 18.6804 139.65 18.6804C139.95 18.6804 140.21 18.6004 140.41 18.4204C140.61 18.2604 140.71 18.0404 140.71 17.7804C140.71 17.3604 140.41 16.9804 139.81 16.6004" fill="#202020"/>
<path d="M148.07 12.7004H148.99V19.4804H148.01V14.2004L145.93 16.8204H145.75L143.63 14.2004V19.4804H142.67V12.7004H143.59L145.83 15.4804L148.07 12.7004Z" fill="#202020"/>
<path d="M153.77 12.5999C154.81 12.5999 155.69 12.9399 156.39 13.5999C157.09 14.2599 157.43 15.0999 157.43 16.0999C157.43 17.0999 157.07 17.9199 156.37 18.5799C155.67 19.2399 154.79 19.5599 153.71 19.5599C152.63 19.5599 151.83 19.2399 151.15 18.5799C150.47 17.9199 150.13 17.0999 150.13 16.1199C150.13 15.1399 150.47 14.2799 151.15 13.5999C151.83 12.9199 152.71 12.5999 153.75 12.5999M153.79 13.5199C153.01 13.5199 152.37 13.7599 151.87 14.2399C151.37 14.7199 151.13 15.3399 151.13 16.0999C151.13 16.8599 151.39 17.4399 151.89 17.9199C152.39 18.3999 153.01 18.6399 153.77 18.6399C154.53 18.6399 155.15 18.3999 155.67 17.8999C156.17 17.3999 156.43 16.7799 156.43 16.0599C156.43 15.3399 156.17 14.7399 155.67 14.2399C155.17 13.7399 154.55 13.4999 153.81 13.4999" fill="#202020"/>
<path d="M161.39 19.4604V12.7004H163.67C164.59 12.7004 165.31 12.8404 165.85 13.1204C166.39 13.4004 166.81 13.8004 167.13 14.3404C167.45 14.8804 167.61 15.4604 167.61 16.1004C167.61 16.5604 167.53 16.9804 167.35 17.4004C167.17 17.8204 166.93 18.1804 166.61 18.5004C166.29 18.8204 165.89 19.0604 165.47 19.2404C165.21 19.3404 164.97 19.4004 164.77 19.4404C164.55 19.4804 164.15 19.5004 163.55 19.5004H161.41L161.39 19.4604ZM163.57 13.5604H162.35V18.6004H163.59C164.07 18.6004 164.45 18.5604 164.71 18.5004C164.97 18.4404 165.21 18.3404 165.39 18.2404C165.57 18.1404 165.73 18.0204 165.89 17.8604C166.37 17.3804 166.61 16.7604 166.61 16.0204C166.61 15.2804 166.37 14.7004 165.87 14.2404C165.69 14.0604 165.49 13.9204 165.25 13.8204C165.01 13.7204 164.79 13.6404 164.59 13.6004C164.37 13.5604 164.05 13.5404 163.57 13.5404" fill="#202020"/>
<path d="M168.83 12.7004H172.67V13.5604H169.79V15.6404H172.57V16.5004H169.79V18.6004H172.75V19.4604H168.83V12.7004Z" fill="#202020"/>
<path d="M176.57 19.4804V12.7004H178.27C178.95 12.7004 179.49 12.8604 179.91 13.2004C180.31 13.5404 180.51 14.0004 180.51 14.5804C180.51 14.9804 180.41 15.3204 180.21 15.6004C180.01 15.8804 179.73 16.1004 179.37 16.2404C179.59 16.3804 179.79 16.5804 180.01 16.8204C180.21 17.0604 180.51 17.5004 180.89 18.1004C181.13 18.4804 181.31 18.7804 181.45 18.9604L181.81 19.4404H180.65L180.35 19.0004C180.35 19.0004 180.33 18.9604 180.29 18.9204L180.11 18.6604L179.81 18.1604L179.49 17.6404C179.29 17.3604 179.11 17.1404 178.93 16.9804C178.77 16.8204 178.61 16.7004 178.47 16.6204C178.33 16.5404 178.11 16.5204 177.79 16.5204H177.53V19.4604H176.57V19.4804ZM177.83 13.5404H177.53V15.6804H177.89C178.39 15.6804 178.71 15.6404 178.91 15.5604C179.09 15.4804 179.23 15.3404 179.33 15.1804C179.43 15.0204 179.49 14.8204 179.49 14.6004C179.49 14.3804 179.43 14.2004 179.33 14.0204C179.23 13.8404 179.05 13.7204 178.85 13.6604C178.65 13.5804 178.31 13.5604 177.83 13.5604" fill="#202020"/>
<path d="M182.55 12.7004H186.39V13.5604H183.51V15.6404H186.29V16.5004H183.51V18.6004H186.47V19.4604H182.55V12.7004Z" fill="#202020"/>
<path d="M193.35 17.8999V18.9599C192.63 19.3399 191.81 19.5399 190.89 19.5399C190.13 19.5399 189.49 19.3799 188.97 19.0799C188.45 18.7799 188.03 18.3599 187.71 17.8199C187.41 17.2799 187.25 16.7199 187.25 16.0799C187.25 15.0999 187.61 14.2599 188.31 13.5999C189.01 12.9199 189.89 12.5999 190.91 12.5999C191.63 12.5999 192.41 12.7799 193.29 13.1599V14.1999C192.49 13.7399 191.73 13.5199 190.97 13.5199C190.21 13.5199 189.55 13.7599 189.03 14.2599C188.51 14.7399 188.27 15.3599 188.27 16.0999C188.27 16.8399 188.53 17.4599 189.03 17.9399C189.53 18.4199 190.17 18.6599 190.97 18.6599C191.77 18.6599 192.59 18.3999 193.37 17.8999" fill="#202020"/>
<path d="M199.25 12.7004H200.23V16.5404C200.23 17.0604 200.19 17.4604 200.11 17.7204C200.03 17.9804 199.95 18.2004 199.83 18.3804C199.71 18.5604 199.59 18.7204 199.43 18.8604C198.89 19.3204 198.19 19.5604 197.33 19.5604C196.47 19.5604 195.75 19.3404 195.21 18.8804C195.05 18.7404 194.91 18.5804 194.81 18.4004C194.69 18.2204 194.61 18.0004 194.53 17.7604C194.45 17.5004 194.43 17.1004 194.43 16.5604V12.7204H195.41V16.5604C195.41 17.2004 195.49 17.6404 195.63 17.8804C195.77 18.1204 195.99 18.3204 196.29 18.4804C196.59 18.6404 196.93 18.7004 197.35 18.7004C197.93 18.7004 198.39 18.5404 198.75 18.2404C198.95 18.0804 199.07 17.8804 199.17 17.6604C199.25 17.4404 199.29 17.0604 199.29 16.5404V12.7004H199.25Z" fill="#202020"/>
<path d="M201.51 19.4804V12.7004H203.65C204.29 12.7004 204.81 12.8804 205.19 13.2204C205.57 13.5604 205.77 14.0404 205.77 14.6204C205.77 15.0204 205.67 15.3604 205.47 15.6604C205.27 15.9604 205.01 16.1804 204.67 16.3204C204.33 16.4604 203.83 16.5204 203.19 16.5204H202.47V19.4604H201.49L201.51 19.4804ZM203.49 13.5604H202.49V15.6804H203.55C203.95 15.6804 204.25 15.5804 204.47 15.4004C204.69 15.2204 204.79 14.9404 204.79 14.6004C204.79 13.9004 204.37 13.5604 203.51 13.5604" fill="#202020"/>
<path d="M206.63 12.7004H210.47V13.5604H207.59V15.6404H210.37V16.5004H207.59V18.6004H210.57V19.4604H206.63V12.7004Z" fill="#202020"/>
<path d="M211.63 19.4804V12.7004H213.33C214.01 12.7004 214.55 12.8604 214.97 13.2004C215.37 13.5404 215.57 14.0004 215.57 14.5804C215.57 14.9804 215.47 15.3204 215.27 15.6004C215.07 15.8804 214.79 16.1004 214.43 16.2404C214.65 16.3804 214.85 16.5804 215.07 16.8204C215.27 17.0604 215.57 17.5004 215.95 18.1004C216.19 18.4804 216.37 18.7804 216.51 18.9604L216.87 19.4404H215.71L215.41 19.0004C215.41 19.0004 215.39 18.9604 215.35 18.9204L215.17 18.6604L214.87 18.1604L214.55 17.6404C214.35 17.3604 214.17 17.1404 213.99 16.9804C213.83 16.8204 213.67 16.7004 213.53 16.6204C213.39 16.5404 213.17 16.5204 212.85 16.5204H212.59V19.4604H211.63V19.4804ZM212.89 13.5404H212.59V15.6804H212.95C213.45 15.6804 213.77 15.6404 213.97 15.5604C214.15 15.4804 214.29 15.3404 214.39 15.1804C214.49 15.0204 214.55 14.8204 214.55 14.6004C214.55 14.3804 214.49 14.2004 214.39 14.0204C214.27 13.8404 214.11 13.7204 213.91 13.6604C213.71 13.5804 213.37 13.5604 212.89 13.5604" fill="#202020"/>
<path d="M219.75 12.6604H220.43L223.47 19.4804H222.47L221.57 17.4804H218.69L217.85 19.4804H216.85L219.75 12.6604ZM221.17 16.6004L220.07 14.1404L219.05 16.6004H221.15H221.17Z" fill="#202020"/>
<path d="M229.65 17.8999V18.9599C228.93 19.3399 228.11 19.5399 227.19 19.5399C226.43 19.5399 225.79 19.3799 225.27 19.0799C224.75 18.7799 224.33 18.3599 224.01 17.8199C223.71 17.2799 223.55 16.7199 223.55 16.0799C223.55 15.0999 223.91 14.2599 224.61 13.5999C225.31 12.9199 226.19 12.5999 227.21 12.5999C227.93 12.5999 228.71 12.7799 229.59 13.1599V14.1999C228.79 13.7399 228.03 13.5199 227.27 13.5199C226.51 13.5199 225.85 13.7599 225.33 14.2599C224.81 14.7399 224.57 15.3599 224.57 16.0999C224.57 16.8399 224.83 17.4599 225.33 17.9399C225.83 18.4199 226.47 18.6599 227.27 18.6599C228.07 18.6599 228.89 18.3999 229.67 17.8999" fill="#202020"/>
<path d="M231.81 12.7004H230.85V19.4804H231.81V12.7004Z" fill="#202020"/>
<path d="M236.65 12.6C237.69 12.6 238.57 12.94 239.27 13.6C239.97 14.26 240.31 15.1 240.31 16.1C240.31 17.1 239.95 17.92 239.25 18.58C238.55 19.24 237.67 19.56 236.59 19.56C235.51 19.56 234.71 19.24 234.03 18.58C233.35 17.92 233.01 17.1 233.01 16.12C233.01 15.14 233.35 14.28 234.03 13.6C234.71 12.94 235.59 12.6 236.63 12.6M236.67 13.52C235.89 13.52 235.25 13.76 234.75 14.24C234.25 14.72 234.01 15.34 234.01 16.1C234.01 16.86 234.25 17.44 234.77 17.92C235.27 18.4 235.89 18.64 236.65 18.64C237.41 18.64 238.03 18.4 238.55 17.9C239.05 17.4 239.31 16.78 239.31 16.06C239.31 15.34 239.05 14.74 238.55 14.24C238.05 13.76 237.43 13.5 236.69 13.5M237.65 10.72L236.55 12.18H236.01L236.67 10.72H237.65Z" fill="#202020"/>
<path d="M246.89 12.7004H247.81V19.4804H246.97L242.45 14.2604V19.4804H241.53V12.7004H242.31L246.89 17.9604V12.7004Z" fill="#202020"/>
<path d="M254.61 12.7004H255.77L253.27 15.9004V19.4804H252.29V15.9004L249.79 12.7004H250.95L252.77 15.0404L254.61 12.7004Z" fill="#202020"/>
<path d="M259.31 19.4804V12.7004H261.01C261.69 12.7004 262.23 12.8604 262.65 13.2004C263.05 13.5404 263.25 14.0004 263.25 14.5804C263.25 14.9804 263.15 15.3204 262.95 15.6004C262.75 15.8804 262.47 16.1004 262.11 16.2404C262.33 16.3804 262.53 16.5804 262.75 16.8204C262.95 17.0604 263.25 17.5004 263.63 18.1004C263.87 18.4804 264.05 18.7804 264.19 18.9604L264.55 19.4404H263.39L263.09 19.0004C263.09 19.0004 263.07 18.9604 263.03 18.9204L262.85 18.6604L262.55 18.1604L262.23 17.6404C262.03 17.3604 261.85 17.1404 261.67 16.9804C261.51 16.8204 261.35 16.7004 261.21 16.6204C261.07 16.5404 260.85 16.5204 260.53 16.5204H260.27V19.4604H259.31V19.4804ZM260.57 13.5404H260.27V15.6804H260.63C261.13 15.6804 261.45 15.6404 261.65 15.5604C261.83 15.4804 261.97 15.3404 262.07 15.1804C262.17 15.0204 262.23 14.8204 262.23 14.6004C262.23 14.3804 262.17 14.2004 262.07 14.0204C261.95 13.8404 261.79 13.7204 261.59 13.6604C261.39 13.5804 261.05 13.5604 260.57 13.5604" fill="#202020"/>
<path d="M265.29 12.7004H269.13V13.5604H266.25V15.6404H269.03V16.5004H266.25V18.6004H269.21V19.4604H265.29V12.7004Z" fill="#202020"/>
<path d="M271.93 16.6404L271.19 16.2004C270.73 15.9204 270.39 15.6404 270.21 15.3604C270.01 15.0804 269.91 14.7804 269.91 14.4204C269.91 13.8804 270.09 13.4604 270.47 13.1204C270.85 12.7804 271.33 12.6204 271.91 12.6204C272.49 12.6204 272.99 12.7804 273.47 13.1004V14.2004C272.99 13.7404 272.45 13.5004 271.89 13.5004C271.57 13.5004 271.31 13.5804 271.11 13.7204C270.91 13.8604 270.81 14.0604 270.81 14.2804C270.81 14.4804 270.89 14.6804 271.03 14.8404C271.19 15.0204 271.43 15.2004 271.75 15.4004L272.49 15.8404C273.31 16.3404 273.73 16.9604 273.73 17.7204C273.73 18.2604 273.55 18.7004 273.19 19.0404C272.83 19.3804 272.35 19.5404 271.77 19.5404C271.11 19.5404 270.49 19.3404 269.95 18.9204V17.6804C270.47 18.3404 271.09 18.6804 271.77 18.6804C272.07 18.6804 272.33 18.6004 272.53 18.4204C272.73 18.2604 272.83 18.0404 272.83 17.7804C272.83 17.3604 272.53 16.9804 271.93 16.6004" fill="#202020"/>
<path d="M275.77 12.7004H274.81V19.4804H275.77V12.7004Z" fill="#202020"/>
<path d="M277.27 12.7004H278.25V18.6004H281.29V19.4804H277.27V12.7004Z" fill="#202020"/>
<path d="M282.15 12.7004H285.99V13.5604H283.11V15.6404H285.89V16.5004H283.11V18.6004H286.07V19.4604H282.15V12.7004Z" fill="#202020"/>
<path d="M292.49 12.7004H293.41V19.4804H292.59L288.05 14.2604V19.4804H287.15V12.7004H287.93L292.49 17.9604V12.7004Z" fill="#202020"/>
<path d="M300.69 17.8999V18.9599C299.97 19.3399 299.15 19.5399 298.23 19.5399C297.47 19.5399 296.83 19.3799 296.31 19.0799C295.79 18.7799 295.37 18.3599 295.05 17.8199C294.75 17.2799 294.59 16.7199 294.59 16.0799C294.59 15.0999 294.95 14.2599 295.65 13.5999C296.35 12.9199 297.23 12.5999 298.25 12.5999C298.97 12.5999 299.75 12.7799 300.63 13.1599V14.1999C299.83 13.7399 299.07 13.5199 298.31 13.5199C297.55 13.5199 296.89 13.7599 296.37 14.2599C295.85 14.7399 295.61 15.3599 295.61 16.0999C295.61 16.8399 295.87 17.4599 296.37 17.9399C296.87 18.4199 297.51 18.6599 298.31 18.6599C299.11 18.6599 299.93 18.3999 300.71 17.8999" fill="#202020"/>
<path d="M302.87 12.7004H301.91V19.4804H302.87V12.7004Z" fill="#202020"/>
<path d="M306.55 12.6604H307.23L310.27 19.4804H309.27L308.37 17.4804H305.49L304.65 19.4804H303.65L306.55 12.6604ZM307.97 16.6004L306.87 14.1404L305.85 16.6004H307.95H307.97Z" fill="#202020"/>
<path d="M266.43 28.9397H124.31V29.6997H266.43V28.9397Z" fill="#202020"/>
</svg>
