<svg width="388" height="30" viewBox="0 0 388 30" fill="none" xmlns="http://www.w3.org/2000/svg">
<path d="M0.724091 7.16462V0.364624H2.86411C3.50411 0.364624 4.02408 0.544624 4.40408 0.884624C4.78408 1.22462 4.9841 1.70462 4.9841 2.28462C4.9841 2.68462 4.88408 3.02462 4.68408 3.32462C4.48408 3.62462 4.22409 3.84462 3.88409 3.98462C3.54409 4.12462 3.04408 4.18462 2.40408 4.18462H1.68408V7.12462H0.704102L0.724091 7.16462ZM2.7041 1.24462H1.7041V3.34462H2.7641C3.1641 3.34462 3.46408 3.24462 3.68408 3.06462C3.90408 2.88462 4.00409 2.60462 4.00409 2.26462C4.00409 1.56462 3.58409 1.22462 2.72409 1.22462" fill="white"/>
<path d="M5.88379 7.16513V0.385132H7.5838C8.2638 0.385132 8.80379 0.545132 9.22379 0.885132C9.62379 1.22513 9.82379 1.68513 9.82379 2.26513C9.82379 2.66513 9.72377 3.00513 9.52377 3.28513C9.32377 3.56513 9.04378 3.78513 8.68378 3.92513C8.90378 4.06513 9.10379 4.26513 9.32379 4.50513C9.52379 4.74513 9.8238 5.18513 10.2038 5.78513C10.4438 6.16513 10.6238 6.46513 10.7638 6.64513L11.1238 7.12513H9.96378L9.66379 6.68513C9.66379 6.68513 9.64379 6.64513 9.60379 6.60513L9.4238 6.34513L9.12378 5.84513L8.8038 5.32513C8.6038 5.04513 8.42377 4.82513 8.24377 4.66513C8.08377 4.50513 7.92378 4.38513 7.78378 4.30513C7.64378 4.22513 7.42379 4.20513 7.10379 4.20513H6.84378V7.14513H5.88379V7.16513ZM7.1438 1.22513H6.84378V3.34513H7.2038C7.7038 3.34513 8.02379 3.30513 8.22379 3.22513C8.40379 3.14513 8.5438 3.00513 8.6438 2.84513C8.7438 2.68513 8.8038 2.48513 8.8038 2.26513C8.8038 2.04513 8.7438 1.86513 8.6438 1.68513C8.5438 1.50513 8.36379 1.38513 8.16379 1.32513C7.96379 1.24513 7.6238 1.22513 7.1438 1.22513Z" fill="white"/>
<path d="M14.5638 0.284546C15.6038 0.284546 16.4838 0.624546 17.1838 1.28455C17.8838 1.94455 18.2238 2.78455 18.2238 3.78455C18.2238 4.78455 17.8638 5.60455 17.1638 6.26455C16.4638 6.92455 15.5838 7.24455 14.5038 7.24455C13.4238 7.24455 12.6238 6.92455 11.9438 6.26455C11.2638 5.60455 10.9238 4.78455 10.9238 3.80455C10.9238 2.82455 11.2638 1.96455 11.9438 1.28455C12.6238 0.604546 13.5038 0.284546 14.5438 0.284546M14.5838 1.20455C13.8038 1.20455 13.1638 1.44455 12.6638 1.92455C12.1638 2.40455 11.9238 3.02455 11.9238 3.78455C11.9238 4.54455 12.1838 5.12455 12.6838 5.60455C13.1838 6.08455 13.8038 6.32455 14.5638 6.32455C15.3238 6.32455 15.9438 6.08455 16.4638 5.58455C16.9638 5.08455 17.2238 4.46455 17.2238 3.74455C17.2238 3.02455 16.9638 2.42455 16.4638 1.92455C15.9638 1.42455 15.3438 1.18455 14.6038 1.18455" fill="white"/>
<path d="M23.0841 3.82458H25.3641V6.70459C24.5241 7.06459 23.7041 7.24459 22.8841 7.24459C21.7641 7.24459 20.8641 6.92458 20.2041 6.26459C19.5241 5.60459 19.2041 4.80458 19.2041 3.84458C19.2041 2.82458 19.5441 1.98458 20.2441 1.32458C20.9441 0.644585 21.8041 0.324585 22.8641 0.324585C23.2441 0.324585 23.6041 0.364585 23.9441 0.444585C24.2841 0.524585 24.7241 0.684585 25.2441 0.904585V1.88459C24.4441 1.42458 23.6241 1.18458 22.8441 1.18458C22.1041 1.18458 21.4841 1.44458 20.9641 1.94458C20.4641 2.44458 20.2041 3.06458 20.2041 3.80458C20.2041 4.54459 20.4641 5.20459 20.9641 5.68459C21.4641 6.16459 22.1241 6.42458 22.9241 6.42458C23.3041 6.42458 23.7841 6.34458 24.3241 6.16459H24.4241V4.72459H23.1241V3.86458L23.0841 3.82458Z" fill="white"/>
<path d="M26.8037 7.16513V0.385132H28.5037C29.1837 0.385132 29.7237 0.545132 30.1437 0.885132C30.5437 1.22513 30.7437 1.68513 30.7437 2.26513C30.7437 2.66513 30.6437 3.00513 30.4437 3.28513C30.2437 3.56513 29.9637 3.78513 29.6037 3.92513C29.8237 4.06513 30.0237 4.26513 30.2437 4.50513C30.4437 4.74513 30.7437 5.18513 31.1237 5.78513C31.3637 6.16513 31.5437 6.46513 31.6837 6.64513L32.0437 7.12513H30.8837L30.5837 6.68513C30.5837 6.68513 30.5637 6.64513 30.5237 6.60513L30.3437 6.34513L30.0437 5.84513L29.7237 5.32513C29.5237 5.04513 29.3437 4.82513 29.1637 4.66513C29.0037 4.50513 28.8437 4.38513 28.7037 4.30513C28.5637 4.22513 28.3437 4.20513 28.0237 4.20513H27.7637V7.14513H26.8037V7.16513ZM28.0637 1.22513H27.7637V3.34513H28.1237C28.6237 3.34513 28.9437 3.30513 29.1437 3.22513C29.3237 3.14513 29.4637 3.00513 29.5637 2.84513C29.6637 2.68513 29.7237 2.48513 29.7237 2.26513C29.7237 2.04513 29.6637 1.86513 29.5637 1.68513C29.4637 1.50513 29.2837 1.38513 29.0837 1.32513C28.8837 1.24513 28.5437 1.22513 28.0637 1.22513Z" fill="white"/>
<path d="M34.9244 0.345093H35.6044L38.6444 7.16509H37.6444L36.7444 5.16509H33.8644L33.0244 7.16509H32.0244L34.9244 0.345093ZM36.3444 4.28509L35.2444 1.82509L34.2244 4.28509H36.3244H36.3444Z" fill="white"/>
<path d="M44.7842 0.385132H45.6842V7.16513H44.7043V1.88513L42.6242 4.50513H42.4442L40.3442 1.88513V7.16513H39.3643V0.385132H40.2842L42.5443 3.16513L44.7842 0.385132Z" fill="white"/>
<path d="M49.3043 0.345093H49.9843L53.0243 7.16509H52.0243L51.1243 5.16509H48.2443L47.4043 7.16509H46.4043L49.3043 0.345093ZM50.7243 4.28509L49.6243 1.82509L48.6043 4.28509H50.7043H50.7243Z" fill="white"/>
<path d="M60.364 0.385132H61.5639L58.6239 3.60513L62.2839 7.16513H60.9639L57.5039 3.80513V7.16513H56.5439V0.385132H57.5039V3.48513L60.364 0.385132Z" fill="white"/>
<path d="M64.0039 0.385132H63.0439V7.16513H64.0039V0.385132Z" fill="white"/>
<path d="M64.9443 0.364624H70.6043V1.24462H68.2443V7.16462H67.2643V1.24462H64.9443V0.364624Z" fill="white"/>
<path d="M74.2842 7.14513V0.385132H76.5642C77.4842 0.385132 78.2042 0.525132 78.7442 0.805132C79.2842 1.08513 79.7042 1.48513 80.0242 2.02513C80.3442 2.56513 80.5042 3.14513 80.5042 3.78513C80.5042 4.24513 80.4242 4.66513 80.2442 5.08513C80.0642 5.50513 79.8242 5.86513 79.5042 6.18513C79.1842 6.50513 78.7842 6.74513 78.3642 6.92513C78.1042 7.02513 77.8642 7.08513 77.6642 7.12513C77.4442 7.16513 77.0442 7.18513 76.4442 7.18513H74.3042L74.2842 7.14513ZM76.4642 1.24513H75.2442V6.28513H76.4842C76.9642 6.28513 77.3442 6.24513 77.6042 6.18513C77.8642 6.12513 78.1042 6.02513 78.2842 5.92513C78.4642 5.82513 78.6242 5.70513 78.7842 5.54513C79.2642 5.06513 79.5042 4.44513 79.5042 3.70513C79.5042 2.96513 79.2642 2.38513 78.7642 1.92513C78.5842 1.74513 78.3842 1.60513 78.1442 1.50513C77.9042 1.40513 77.6842 1.32513 77.4842 1.28513C77.2642 1.24513 76.9442 1.22513 76.4642 1.22513" fill="white"/>
<path d="M82.7042 0.385132H81.7441V7.16513H82.7042V0.385132Z" fill="white"/>
<path d="M87.8644 3.82458H90.1444V6.70459C89.3044 7.06459 88.4844 7.24459 87.6644 7.24459C86.5444 7.24459 85.6444 6.92458 84.9844 6.26459C84.3044 5.60459 83.9844 4.80458 83.9844 3.84458C83.9844 2.82458 84.3244 1.98458 85.0244 1.32458C85.7244 0.644585 86.5844 0.324585 87.6444 0.324585C88.0244 0.324585 88.3844 0.364585 88.7244 0.444585C89.0644 0.524585 89.5044 0.684585 90.0244 0.904585V1.88459C89.2244 1.42458 88.4044 1.18458 87.6244 1.18458C86.8844 1.18458 86.2644 1.44458 85.7444 1.94458C85.2444 2.44458 84.9844 3.06458 84.9844 3.80458C84.9844 4.54459 85.2444 5.20459 85.7444 5.68459C86.2444 6.16459 86.9044 6.42458 87.7044 6.42458C88.0844 6.42458 88.5644 6.34458 89.1044 6.16459H89.2044V4.72459H87.9044V3.86458L87.8644 3.82458Z" fill="white"/>
<path d="M92.5244 0.385132H91.5645V7.16513H92.5244V0.385132Z" fill="white"/>
<path d="M93.4639 0.364624H99.1239V1.24462H96.7639V7.16462H95.7839V1.24462H93.4639V0.364624Z" fill="white"/>
<path d="M101.204 0.345093H101.884L104.924 7.16509H103.924L103.024 5.16509H100.144L99.3037 7.16509H98.3037L101.204 0.345093ZM102.624 4.28509L101.524 1.82509L100.504 4.28509H102.604H102.624Z" fill="white"/>
<path d="M105.664 0.385132H106.644V6.26513H109.684V7.16513H105.664V0.385132Z" fill="white"/>
<path d="M119.124 5.58455V6.64455C118.404 7.02455 117.584 7.22455 116.664 7.22455C115.904 7.22455 115.264 7.06455 114.744 6.76455C114.224 6.46455 113.804 6.04455 113.484 5.50455C113.184 4.96455 113.024 4.40455 113.024 3.76455C113.024 2.78455 113.384 1.94455 114.084 1.28455C114.784 0.604546 115.664 0.284546 116.684 0.284546C117.404 0.284546 118.184 0.464546 119.064 0.844546V1.90455C118.264 1.44455 117.504 1.22455 116.744 1.22455C115.984 1.22455 115.324 1.46455 114.804 1.96455C114.284 2.44455 114.044 3.06455 114.044 3.80455C114.044 4.54455 114.304 5.16455 114.804 5.64455C115.304 6.12455 115.944 6.36455 116.744 6.36455C117.544 6.36455 118.364 6.10455 119.144 5.60455" fill="white"/>
<path d="M123.644 0.284546C124.684 0.284546 125.564 0.624546 126.264 1.28455C126.964 1.94455 127.304 2.78455 127.304 3.78455C127.304 4.78455 126.944 5.60455 126.244 6.26455C125.544 6.92455 124.664 7.24455 123.584 7.24455C122.504 7.24455 121.704 6.92455 121.024 6.26455C120.344 5.60455 120.004 4.78455 120.004 3.80455C120.004 2.82455 120.344 1.96455 121.024 1.28455C121.704 0.604546 122.584 0.284546 123.624 0.284546M123.664 1.20455C122.884 1.20455 122.244 1.44455 121.744 1.92455C121.244 2.40455 121.004 3.02455 121.004 3.78455C121.004 4.54455 121.264 5.12455 121.764 5.60455C122.264 6.08455 122.884 6.32455 123.644 6.32455C124.404 6.32455 125.024 6.08455 125.544 5.58455C126.044 5.08455 126.304 4.46455 126.304 3.74455C126.304 3.02455 126.044 2.42455 125.544 1.92455C125.044 1.42455 124.424 1.18455 123.684 1.18455" fill="white"/>
<path d="M128.504 0.385132H132.124V1.24513H129.484V3.14513H132.124V4.00513H129.484V7.16513H128.504V0.385132Z" fill="white"/>
<path d="M134.124 0.385132H133.164V7.16513H134.124V0.385132Z" fill="white"/>
<path d="M141.024 0.385132H141.944V7.16513H141.104L136.584 1.94513V7.16513H135.664V0.385132H136.464L141.024 5.64513V0.385132Z" fill="white"/>
<path d="M145.564 0.345093H146.244L149.284 7.16509H148.284L147.384 5.16509H144.504L143.664 7.16509H142.664L145.564 0.345093ZM146.984 4.28509L145.884 1.82509L144.864 4.28509H146.964H146.984Z" fill="white"/>
<path d="M155.404 0.385132H156.324V7.16513H155.484L150.964 1.94513V7.16513H150.044V0.385132H150.824L155.404 5.64513V0.385132Z" fill="white"/>
<path d="M163.604 5.58455V6.64455C162.884 7.02455 162.064 7.22455 161.144 7.22455C160.384 7.22455 159.744 7.06455 159.224 6.76455C158.704 6.46455 158.284 6.04455 157.964 5.50455C157.664 4.96455 157.504 4.40455 157.504 3.76455C157.504 2.78455 157.864 1.94455 158.564 1.28455C159.264 0.604546 160.144 0.284546 161.164 0.284546C161.884 0.284546 162.664 0.464546 163.544 0.844546V1.90455C162.744 1.44455 161.984 1.22455 161.224 1.22455C160.464 1.22455 159.804 1.46455 159.284 1.96455C158.764 2.44455 158.524 3.06455 158.524 3.80455C158.524 4.54455 158.784 5.16455 159.284 5.64455C159.784 6.12455 160.424 6.36455 161.224 6.36455C162.024 6.36455 162.844 6.10455 163.624 5.60455" fill="white"/>
<path d="M165.764 0.385132H164.804V7.16513H165.764V0.385132Z" fill="white"/>
<path d="M169.444 0.345093H170.124L173.164 7.16509H172.164L171.264 5.16509H168.384L167.544 7.16509H166.544L169.444 0.345093ZM170.864 4.28509L169.764 1.82509L168.744 4.28509H170.844H170.864Z" fill="white"/>
<path d="M173.924 7.14513V0.385132H176.204C177.124 0.385132 177.844 0.525132 178.384 0.805132C178.924 1.08513 179.344 1.48513 179.664 2.02513C179.984 2.56513 180.144 3.14513 180.144 3.78513C180.144 4.24513 180.064 4.66513 179.884 5.08513C179.704 5.50513 179.464 5.86513 179.144 6.18513C178.824 6.50513 178.424 6.74513 178.004 6.92513C177.744 7.02513 177.504 7.08513 177.304 7.12513C177.084 7.16513 176.684 7.18513 176.084 7.18513H173.944L173.924 7.14513ZM176.104 1.24513H174.884V6.28513H176.124C176.604 6.28513 176.984 6.24513 177.244 6.18513C177.504 6.12513 177.744 6.02513 177.924 5.92513C178.104 5.82513 178.264 5.70513 178.424 5.54513C178.904 5.06513 179.144 4.44513 179.144 3.70513C179.144 2.96513 178.904 2.38513 178.404 1.92513C178.224 1.74513 178.024 1.60513 177.784 1.50513C177.544 1.40513 177.324 1.32513 177.124 1.28513C176.904 1.24513 176.584 1.22513 176.104 1.22513" fill="white"/>
<path d="M184.684 0.284546C185.724 0.284546 186.604 0.624546 187.304 1.28455C188.004 1.94455 188.344 2.78455 188.344 3.78455C188.344 4.78455 187.984 5.60455 187.284 6.26455C186.584 6.92455 185.704 7.24455 184.624 7.24455C183.544 7.24455 182.744 6.92455 182.064 6.26455C181.384 5.60455 181.044 4.78455 181.044 3.80455C181.044 2.82455 181.384 1.96455 182.064 1.28455C182.744 0.624546 183.624 0.284546 184.664 0.284546M184.704 1.20455C183.924 1.20455 183.284 1.44455 182.784 1.92455C182.284 2.40455 182.044 3.02455 182.044 3.78455C182.044 4.54455 182.304 5.12455 182.804 5.60455C183.304 6.08455 183.924 6.32455 184.684 6.32455C185.444 6.32455 186.064 6.08455 186.584 5.58455C187.084 5.08455 187.344 4.46455 187.344 3.74455C187.344 3.02455 187.084 2.42455 186.584 1.92455C186.084 1.42455 185.464 1.18455 184.724 1.18455" fill="white"/>
<path d="M192.224 7.16462V0.364624H194.364C195.004 0.364624 195.524 0.544624 195.904 0.884624C196.284 1.22462 196.484 1.70462 196.484 2.28462C196.484 2.68462 196.384 3.02462 196.184 3.32462C195.984 3.62462 195.724 3.84462 195.384 3.98462C195.044 4.12462 194.544 4.18462 193.904 4.18462H193.184V7.12462H192.204L192.224 7.16462ZM194.204 1.24462H193.204V3.34462H194.264C194.664 3.34462 194.964 3.24462 195.184 3.06462C195.404 2.88462 195.504 2.60462 195.504 2.26462C195.504 1.56462 195.084 1.22462 194.224 1.22462" fill="white"/>
<path d="M200.664 0.284546C201.704 0.284546 202.584 0.624546 203.284 1.28455C203.984 1.94455 204.324 2.78455 204.324 3.78455C204.324 4.78455 203.964 5.60455 203.264 6.26455C202.564 6.92455 201.684 7.24455 200.604 7.24455C199.524 7.24455 198.724 6.92455 198.044 6.26455C197.364 5.60455 197.024 4.78455 197.024 3.80455C197.024 2.82455 197.364 1.96455 198.044 1.28455C198.724 0.624546 199.604 0.284546 200.644 0.284546M200.684 1.20455C199.904 1.20455 199.264 1.44455 198.764 1.92455C198.264 2.40455 198.024 3.02455 198.024 3.78455C198.024 4.54455 198.284 5.12455 198.784 5.60455C199.284 6.08455 199.904 6.32455 200.664 6.32455C201.424 6.32455 202.044 6.08455 202.564 5.58455C203.064 5.08455 203.324 4.46455 203.324 3.74455C203.324 3.02455 203.064 2.42455 202.564 1.92455C202.064 1.42455 201.444 1.18455 200.704 1.18455" fill="white"/>
<path d="M205.544 7.16513V0.385132H207.244C207.924 0.385132 208.464 0.545132 208.884 0.885132C209.284 1.22513 209.484 1.68513 209.484 2.26513C209.484 2.66513 209.384 3.00513 209.184 3.28513C208.984 3.56513 208.704 3.78513 208.344 3.92513C208.564 4.06513 208.764 4.26513 208.984 4.50513C209.184 4.74513 209.484 5.18513 209.864 5.78513C210.104 6.16513 210.284 6.46513 210.424 6.64513L210.784 7.12513H209.624L209.324 6.68513C209.324 6.68513 209.304 6.64513 209.264 6.60513L209.084 6.34513L208.784 5.84513L208.464 5.32513C208.264 5.04513 208.084 4.82513 207.904 4.66513C207.744 4.50513 207.584 4.38513 207.444 4.30513C207.304 4.22513 207.084 4.20513 206.764 4.20513H206.504V7.14513H205.544V7.16513ZM206.804 1.22513H206.504V3.34513H206.864C207.364 3.34513 207.684 3.30513 207.884 3.22513C208.064 3.14513 208.204 3.00513 208.304 2.84513C208.404 2.68513 208.464 2.48513 208.464 2.26513C208.464 2.04513 208.404 1.86513 208.304 1.68513C208.184 1.50513 208.024 1.38513 207.824 1.32513C207.624 1.24513 207.284 1.22513 206.804 1.22513Z" fill="white"/>
<path d="M214.284 0.385132H215.244V6.26513H218.304V7.16513H214.284V0.385132Z" fill="white"/>
<path d="M222.464 0.284546C223.504 0.284546 224.384 0.624546 225.084 1.28455C225.784 1.94455 226.124 2.78455 226.124 3.78455C226.124 4.78455 225.764 5.60455 225.064 6.26455C224.364 6.92455 223.484 7.24455 222.404 7.24455C221.324 7.24455 220.524 6.92455 219.844 6.26455C219.164 5.60455 218.824 4.78455 218.824 3.80455C218.824 2.82455 219.164 1.96455 219.844 1.28455C220.524 0.624546 221.404 0.284546 222.444 0.284546M222.484 1.20455C221.704 1.20455 221.064 1.44455 220.564 1.92455C220.064 2.40455 219.824 3.02455 219.824 3.78455C219.824 4.54455 220.084 5.12455 220.584 5.60455C221.084 6.08455 221.704 6.32455 222.464 6.32455C223.224 6.32455 223.844 6.08455 224.364 5.58455C224.864 5.08455 225.124 4.46455 225.124 3.74455C225.124 3.02455 224.864 2.42455 224.364 1.92455C223.864 1.42455 223.244 1.18455 222.504 1.18455" fill="white"/>
<path d="M229.004 4.32505L228.264 3.88505C227.804 3.60505 227.464 3.32505 227.284 3.04505C227.084 2.76505 226.984 2.46505 226.984 2.10505C226.984 1.56505 227.164 1.14505 227.544 0.805054C227.924 0.465054 228.404 0.305054 228.984 0.305054C229.564 0.305054 230.064 0.465054 230.544 0.785054V1.86505C230.064 1.40505 229.524 1.16505 228.964 1.16505C228.644 1.16505 228.384 1.24505 228.184 1.38505C227.984 1.52505 227.884 1.72505 227.884 1.94505C227.884 2.14505 227.964 2.34505 228.104 2.50505C228.264 2.68505 228.504 2.86505 228.824 3.06505L229.564 3.50505C230.384 4.00505 230.804 4.62505 230.804 5.38505C230.804 5.92505 230.624 6.36505 230.264 6.70505C229.904 7.04505 229.424 7.20505 228.844 7.20505C228.184 7.20505 227.564 7.00505 227.024 6.58505V5.34505C227.544 6.00505 228.164 6.34505 228.844 6.34505C229.144 6.34505 229.404 6.26505 229.604 6.08505C229.804 5.92505 229.904 5.70505 229.904 5.44505C229.904 5.02505 229.604 4.64505 229.004 4.26505" fill="white"/>
<path d="M234.645 0.385132H238.245V1.24513H235.605V3.14513H238.245V4.00513H235.605V7.16513H234.645V0.385132Z" fill="white"/>
<path d="M242.624 0.284546C243.664 0.284546 244.544 0.624546 245.244 1.28455C245.944 1.94455 246.284 2.78455 246.284 3.78455C246.284 4.78455 245.924 5.60455 245.224 6.26455C244.524 6.92455 243.644 7.24455 242.564 7.24455C241.484 7.24455 240.684 6.92455 240.004 6.26455C239.324 5.60455 238.984 4.78455 238.984 3.80455C238.984 2.82455 239.324 1.96455 240.004 1.28455C240.684 0.624546 241.564 0.284546 242.604 0.284546M242.644 1.20455C241.864 1.20455 241.224 1.44455 240.724 1.92455C240.224 2.40455 239.984 3.02455 239.984 3.78455C239.984 4.54455 240.244 5.12455 240.744 5.60455C241.244 6.08455 241.864 6.32455 242.624 6.32455C243.384 6.32455 244.004 6.08455 244.524 5.58455C245.024 5.08455 245.284 4.46455 245.284 3.74455C245.284 3.02455 245.024 2.42455 244.524 1.92455C244.024 1.42455 243.404 1.18455 242.664 1.18455" fill="white"/>
<path d="M252.844 0.385132H253.764V7.16513H252.924L248.404 1.94513V7.16513H247.484V0.385132H248.284L252.844 5.64513V0.385132Z" fill="white"/>
<path d="M255.225 7.14513V0.385132H257.505C258.425 0.385132 259.145 0.525132 259.685 0.805132C260.225 1.08513 260.645 1.48513 260.965 2.02513C261.285 2.56513 261.445 3.14513 261.445 3.78513C261.445 4.24513 261.365 4.66513 261.185 5.08513C261.005 5.50513 260.765 5.86513 260.445 6.18513C260.125 6.50513 259.725 6.74513 259.305 6.92513C259.045 7.02513 258.805 7.08513 258.605 7.12513C258.385 7.16513 257.985 7.18513 257.385 7.18513H255.245L255.225 7.14513ZM257.405 1.24513H256.185V6.28513H257.425C257.905 6.28513 258.285 6.24513 258.545 6.18513C258.805 6.12513 259.045 6.02513 259.225 5.92513C259.405 5.82513 259.565 5.70513 259.725 5.54513C260.205 5.06513 260.445 4.44513 260.445 3.70513C260.445 2.96513 260.205 2.38513 259.705 1.92513C259.525 1.74513 259.325 1.60513 259.085 1.50513C258.845 1.40513 258.625 1.32513 258.425 1.28513C258.205 1.24513 257.885 1.22513 257.405 1.22513" fill="white"/>
<path d="M265.984 0.284546C267.024 0.284546 267.904 0.624546 268.604 1.28455C269.304 1.94455 269.644 2.78455 269.644 3.78455C269.644 4.78455 269.284 5.60455 268.584 6.26455C267.884 6.92455 267.004 7.24455 265.924 7.24455C264.844 7.24455 264.044 6.92455 263.364 6.26455C262.684 5.60455 262.344 4.78455 262.344 3.80455C262.344 2.82455 262.684 1.96455 263.364 1.28455C264.044 0.624546 264.924 0.284546 265.964 0.284546M266.004 1.20455C265.224 1.20455 264.584 1.44455 264.084 1.92455C263.584 2.40455 263.344 3.02455 263.344 3.78455C263.344 4.54455 263.604 5.12455 264.104 5.60455C264.604 6.08455 265.224 6.32455 265.984 6.32455C266.744 6.32455 267.364 6.08455 267.884 5.58455C268.384 5.08455 268.644 4.46455 268.644 3.74455C268.644 3.02455 268.384 2.42455 267.884 1.92455C267.384 1.42455 266.764 1.18455 266.024 1.18455" fill="white"/>
<path d="M272.504 4.32505L271.764 3.88505C271.304 3.60505 270.964 3.32505 270.784 3.04505C270.584 2.76505 270.484 2.46505 270.484 2.10505C270.484 1.56505 270.664 1.14505 271.044 0.805054C271.424 0.465054 271.904 0.305054 272.484 0.305054C273.064 0.305054 273.564 0.465054 274.044 0.785054V1.86505C273.564 1.40505 273.024 1.16505 272.464 1.16505C272.144 1.16505 271.884 1.24505 271.684 1.38505C271.484 1.52505 271.384 1.72505 271.384 1.94505C271.384 2.14505 271.464 2.34505 271.604 2.50505C271.764 2.68505 272.004 2.86505 272.324 3.06505L273.064 3.50505C273.884 4.00505 274.304 4.62505 274.304 5.38505C274.304 5.92505 274.124 6.36505 273.764 6.70505C273.404 7.04505 272.924 7.20505 272.344 7.20505C271.684 7.20505 271.064 7.00505 270.524 6.58505V5.34505C271.044 6.00505 271.664 6.34505 272.344 6.34505C272.644 6.34505 272.904 6.26505 273.104 6.08505C273.304 5.92505 273.404 5.70505 273.404 5.44505C273.404 5.02505 273.104 4.64505 272.504 4.26505" fill="white"/>
<path d="M283.524 0.385132H284.444V7.16513H283.604L279.084 1.94513V7.16513H278.164V0.385132H278.964L283.524 5.64513V0.385132Z" fill="white"/>
<path d="M285.904 0.385132H289.744V1.24513H286.864V3.30513H289.644V4.18513H286.864V6.28513H289.824V7.14513H285.904V0.385132Z" fill="white"/>
<path d="M295.765 0.385132H296.945L294.225 3.64513L297.125 7.16513H295.965L293.645 4.34513L291.325 7.16513H290.145L293.045 3.64513L290.345 0.385132H291.525L293.645 2.96513L295.765 0.385132Z" fill="white"/>
<path d="M297.304 0.364624H302.964V1.24462H300.604V7.16462H299.644V1.24462H297.304V0.364624Z" fill="white"/>
<path d="M310.304 3.82458H312.584V6.70459C311.744 7.06459 310.924 7.24459 310.104 7.24459C308.984 7.24459 308.084 6.92458 307.424 6.26459C306.744 5.60459 306.424 4.80458 306.424 3.84458C306.424 2.82458 306.764 1.98458 307.464 1.32458C308.164 0.644585 309.024 0.324585 310.084 0.324585C310.464 0.324585 310.824 0.364585 311.164 0.444585C311.504 0.524585 311.944 0.684585 312.464 0.904585V1.88459C311.664 1.42458 310.844 1.18458 310.064 1.18458C309.324 1.18458 308.704 1.44458 308.184 1.94458C307.684 2.44458 307.424 3.06458 307.424 3.80458C307.424 4.54459 307.684 5.20459 308.184 5.68459C308.684 6.16459 309.344 6.42458 310.144 6.42458C310.524 6.42458 311.004 6.34458 311.544 6.16459H311.644V4.72459H310.344V3.86458L310.304 3.82458Z" fill="white"/>
<path d="M314.004 0.385132H317.844V1.24513H314.964V3.30513H317.744V4.18513H314.964V6.28513H317.924V7.14513H314.004V0.385132Z" fill="white"/>
<path d="M324.344 0.385132H325.264V7.16513H324.424L319.904 1.94513V7.16513H318.984V0.385132H319.784L324.344 5.64513V0.385132Z" fill="white"/>
<path d="M326.725 0.385132H330.565V1.24513H327.685V3.30513H330.465V4.18513H327.685V6.28513H330.645V7.14513H326.725V0.385132Z" fill="white"/>
<path d="M331.704 7.16513V0.385132H333.404C334.084 0.385132 334.624 0.545132 335.044 0.885132C335.444 1.22513 335.644 1.68513 335.644 2.26513C335.644 2.66513 335.544 3.00513 335.344 3.28513C335.144 3.56513 334.864 3.78513 334.504 3.92513C334.724 4.06513 334.924 4.26513 335.144 4.50513C335.344 4.74513 335.644 5.18513 336.024 5.78513C336.264 6.16513 336.444 6.46513 336.584 6.64513L336.944 7.12513H335.784L335.484 6.68513C335.484 6.68513 335.464 6.64513 335.424 6.60513L335.244 6.34513L334.944 5.84513L334.624 5.32513C334.424 5.04513 334.244 4.82513 334.064 4.66513C333.904 4.50513 333.744 4.38513 333.604 4.30513C333.464 4.22513 333.244 4.20513 332.924 4.20513H332.664V7.14513H331.704V7.16513ZM332.964 1.22513H332.664V3.34513H333.024C333.524 3.34513 333.844 3.30513 334.044 3.22513C334.224 3.14513 334.364 3.00513 334.464 2.84513C334.564 2.68513 334.624 2.48513 334.624 2.26513C334.624 2.04513 334.564 1.86513 334.464 1.68513C334.344 1.50513 334.184 1.38513 333.984 1.32513C333.784 1.24513 333.444 1.22513 332.964 1.22513Z" fill="white"/>
<path d="M339.844 0.345093H340.524L343.564 7.16509H342.564L341.664 5.16509H338.784L337.944 7.16509H336.944L339.844 0.345093ZM341.264 4.28509L340.164 1.82509L339.144 4.28509H341.244H341.264Z" fill="white"/>
<path d="M342.725 0.364624H348.385V1.24462H346.025V7.16462H345.045V1.24462H342.725V0.364624Z" fill="white"/>
<path d="M350.284 0.385132H349.324V7.16513H350.284V0.385132Z" fill="white"/>
<path d="M355.124 0.284546C356.164 0.284546 357.044 0.624546 357.744 1.28455C358.444 1.94455 358.784 2.78455 358.784 3.78455C358.784 4.78455 358.424 5.60455 357.724 6.26455C357.024 6.92455 356.144 7.24455 355.064 7.24455C353.984 7.24455 353.184 6.92455 352.504 6.26455C351.824 5.60455 351.484 4.78455 351.484 3.80455C351.484 2.82455 351.824 1.96455 352.504 1.28455C353.184 0.624546 354.064 0.284546 355.104 0.284546M355.144 1.20455C354.364 1.20455 353.724 1.44455 353.224 1.92455C352.724 2.40455 352.484 3.02455 352.484 3.78455C352.484 4.54455 352.744 5.12455 353.244 5.60455C353.744 6.08455 354.364 6.32455 355.124 6.32455C355.884 6.32455 356.504 6.08455 357.024 5.58455C357.524 5.08455 357.784 4.46455 357.784 3.74455C357.784 3.02455 357.524 2.42455 357.024 1.92455C356.524 1.42455 355.904 1.18455 355.164 1.18455" fill="white"/>
<path d="M365.344 0.385132H366.264V7.16513H365.424L360.904 1.94513V7.16513H359.984V0.385132H360.784L365.344 5.64513V0.385132Z" fill="white"/>
<path d="M372.264 0.284546H372.804C372.404 0.884546 372.104 1.40455 371.924 1.82455C371.744 2.24455 371.604 2.74455 371.504 3.28455C371.404 3.84455 371.364 4.36455 371.364 4.88455C371.364 6.64455 371.844 8.16455 372.784 9.40455H372.244L372.104 9.22455C371.744 8.78455 371.464 8.42455 371.284 8.14455C371.104 7.86455 370.924 7.50455 370.764 7.04455C370.484 6.32455 370.344 5.58455 370.344 4.84455C370.344 4.10455 370.484 3.34455 370.764 2.64455C371.044 1.94455 371.544 1.14455 372.244 0.284546" fill="white"/>
<path d="M373.684 0.385132H377.524V1.24513H374.664V3.30513H377.424V4.18513H374.664V6.28513H377.624V7.14513H373.684V0.385132Z" fill="white"/>
<path d="M383.364 0.385132H384.344V4.22513C384.344 4.74513 384.304 5.14513 384.224 5.40513C384.144 5.66513 384.064 5.88513 383.944 6.06513C383.824 6.24513 383.704 6.40513 383.544 6.54513C383.004 7.00513 382.304 7.24513 381.444 7.24513C380.584 7.24513 379.864 7.02513 379.324 6.56513C379.164 6.42513 379.024 6.26513 378.924 6.08513C378.804 5.90513 378.724 5.68513 378.644 5.44513C378.564 5.18513 378.544 4.78513 378.544 4.24513V0.385132H379.524V4.22513C379.524 4.86513 379.604 5.30513 379.744 5.54513C379.884 5.78513 380.104 5.98513 380.404 6.14513C380.704 6.30513 381.044 6.36513 381.464 6.36513C382.044 6.36513 382.504 6.20513 382.864 5.90513C383.064 5.74513 383.184 5.54513 383.284 5.32513C383.364 5.10513 383.404 4.72513 383.404 4.20513V0.385132H383.364Z" fill="white"/>
<path d="M385.604 9.42502H385.064C385.484 8.78502 385.784 8.24501 385.964 7.80501C386.144 7.36501 386.264 6.88501 386.364 6.34501C386.444 5.82501 386.504 5.30501 386.504 4.82501C386.504 4.26501 386.444 3.72501 386.344 3.18501C386.244 2.66501 386.084 2.16501 385.884 1.68501C385.684 1.20501 385.404 0.745015 385.064 0.265015H385.604L385.744 0.445015C386.104 0.885015 386.384 1.22501 386.544 1.50501C386.724 1.78501 386.904 2.14501 387.064 2.60501C387.344 3.32501 387.484 4.06501 387.484 4.82501C387.484 5.58501 387.364 6.26501 387.104 6.92501C386.984 7.26501 386.824 7.60501 386.624 7.92501C386.424 8.26501 386.084 8.74502 385.584 9.38502" fill="white"/>
<path d="M81.3438 18.9254V12.1654H83.6237C84.5437 12.1654 85.2638 12.3054 85.8038 12.5854C86.3438 12.8654 86.7638 13.2654 87.0838 13.8054C87.4038 14.3454 87.5638 14.9254 87.5638 15.5654C87.5638 16.0254 87.4838 16.4454 87.3038 16.8654C87.1238 17.2854 86.8838 17.6454 86.5638 17.9654C86.2438 18.2854 85.8438 18.5254 85.4238 18.7054C85.1638 18.8054 84.9238 18.8654 84.7238 18.9054C84.5038 18.9454 84.1038 18.9654 83.5038 18.9654H81.3638L81.3438 18.9254ZM83.5237 13.0254H82.3038V18.0654H83.5438C84.0238 18.0654 84.4038 18.0254 84.6638 17.9654C84.9238 17.9054 85.1637 17.8054 85.3438 17.7054C85.5237 17.6054 85.6838 17.4854 85.8438 17.3254C86.3238 16.8454 86.5638 16.2254 86.5638 15.4854C86.5638 14.7454 86.3238 14.1654 85.8238 13.7054C85.6438 13.5254 85.4438 13.3854 85.2038 13.2854C84.9638 13.1854 84.7438 13.1054 84.5438 13.0654C84.3238 13.0254 84.0037 13.0054 83.5237 13.0054" fill="white"/>
<path d="M88.7842 12.1654H92.6242V13.0254H89.7642V15.1054H92.5242V15.9654H89.7642V18.0654H92.7242V18.9254H88.7842V12.1654Z" fill="white"/>
<path d="M93.7441 12.1654H94.7242V18.0654H97.7642V18.9454H93.7441V12.1654Z" fill="white"/>
<path d="M106.764 12.1654H107.664V18.9454H106.704V13.6654L104.624 16.2854H104.444L102.324 13.6654V18.9454H101.364V12.1654H102.284L104.524 14.9454L106.764 12.1654Z" fill="white"/>
<path d="M109.124 12.1654H112.964V13.0254H110.104V15.1054H112.884V15.9654H110.104V18.0654H113.064V18.9254H109.124V12.1654Z" fill="white"/>
<path d="M119.944 17.3648V18.4248C119.224 18.8048 118.404 19.0048 117.484 19.0048C116.724 19.0048 116.084 18.8448 115.564 18.5448C115.044 18.2448 114.624 17.8248 114.304 17.2848C114.004 16.7448 113.844 16.1848 113.844 15.5448C113.844 14.5648 114.204 13.7248 114.904 13.0648C115.604 12.3848 116.484 12.0648 117.504 12.0648C118.224 12.0648 119.004 12.2448 119.884 12.6248V13.6648C119.084 13.2048 118.324 12.9848 117.564 12.9848C116.804 12.9848 116.144 13.2248 115.624 13.7248C115.104 14.2048 114.864 14.8248 114.864 15.5648C114.864 16.3048 115.124 16.9248 115.624 17.4048C116.124 17.8848 116.764 18.1248 117.564 18.1248C118.364 18.1248 119.184 17.8648 119.964 17.3648" fill="white"/>
<path d="M123.545 12.1254H124.225L127.265 18.9454H126.265L125.365 16.9454H122.485L121.645 18.9454H120.645L123.545 12.1254ZM124.965 16.0654L123.865 13.6054L122.845 16.0654H124.945H124.965Z" fill="white"/>
<path d="M133.384 12.1654H134.304V18.9454H133.464L128.944 13.7254V18.9454H128.024V12.1654H128.804L133.384 17.4254V12.1654Z" fill="white"/>
<path d="M136.724 12.1654H135.764V18.9454H136.724V12.1654Z" fill="white"/>
<path d="M139.904 16.1053L139.164 15.6653C138.704 15.3853 138.364 15.1053 138.184 14.8253C137.984 14.5453 137.884 14.2453 137.884 13.8853C137.884 13.3453 138.064 12.9253 138.444 12.5853C138.824 12.2453 139.304 12.0853 139.884 12.0853C140.464 12.0853 140.964 12.2453 141.444 12.5653V13.6653C140.964 13.2053 140.424 12.9653 139.864 12.9653C139.544 12.9653 139.284 13.0453 139.084 13.1853C138.884 13.3253 138.784 13.5253 138.784 13.7453C138.784 13.9453 138.864 14.1453 139.004 14.3053C139.164 14.4853 139.404 14.6653 139.724 14.8653L140.464 15.3053C141.284 15.8053 141.704 16.4253 141.704 17.1853C141.704 17.7253 141.524 18.1653 141.164 18.5053C140.804 18.8453 140.324 19.0053 139.744 19.0053C139.084 19.0053 138.464 18.8053 137.924 18.3853V17.1453C138.444 17.8053 139.064 18.1453 139.744 18.1453C140.044 18.1453 140.304 18.0653 140.504 17.8853C140.704 17.7253 140.804 17.5053 140.804 17.2453C140.804 16.8253 140.504 16.4453 139.904 16.0653" fill="white"/>
<path d="M148.164 12.1654H149.084V18.9454H148.104V13.6654L146.024 16.2854H145.844L143.724 13.6654V18.9454H142.764V12.1654H143.684L145.924 14.9454L148.164 12.1654Z" fill="white"/>
<path d="M153.865 12.0648C154.905 12.0648 155.785 12.4048 156.485 13.0648C157.185 13.7248 157.525 14.5648 157.525 15.5648C157.525 16.5648 157.165 17.3848 156.465 18.0448C155.765 18.7048 154.885 19.0248 153.805 19.0248C152.725 19.0248 151.925 18.7048 151.245 18.0448C150.565 17.3848 150.225 16.5648 150.225 15.5848C150.225 14.6048 150.565 13.7448 151.245 13.0648C151.925 12.3848 152.805 12.0648 153.845 12.0648M153.885 12.9848C153.105 12.9848 152.465 13.2248 151.965 13.7048C151.465 14.1848 151.225 14.8048 151.225 15.5648C151.225 16.3248 151.485 16.9048 151.985 17.3848C152.485 17.8648 153.105 18.1048 153.865 18.1048C154.625 18.1048 155.245 17.8648 155.765 17.3648C156.265 16.8648 156.525 16.2448 156.525 15.5248C156.525 14.8048 156.265 14.2048 155.765 13.7048C155.265 13.2048 154.645 12.9648 153.905 12.9648" fill="white"/>
<path d="M161.484 18.9254V12.1654H163.764C164.684 12.1654 165.404 12.3054 165.944 12.5854C166.484 12.8654 166.904 13.2654 167.224 13.8054C167.544 14.3454 167.704 14.9254 167.704 15.5654C167.704 16.0254 167.624 16.4454 167.444 16.8654C167.264 17.2854 167.024 17.6454 166.704 17.9654C166.384 18.2854 165.984 18.5254 165.564 18.7054C165.304 18.8054 165.064 18.8654 164.864 18.9054C164.644 18.9454 164.244 18.9654 163.644 18.9654H161.504L161.484 18.9254ZM163.664 13.0254H162.444V18.0654H163.684C164.164 18.0654 164.544 18.0254 164.804 17.9654C165.064 17.9054 165.304 17.8054 165.484 17.7054C165.664 17.6054 165.824 17.4854 165.984 17.3254C166.464 16.8454 166.704 16.2254 166.704 15.4854C166.704 14.7454 166.464 14.1654 165.964 13.7054C165.784 13.5254 165.584 13.3854 165.344 13.2854C165.104 13.1854 164.884 13.1054 164.684 13.0654C164.464 13.0254 164.144 13.0054 163.664 13.0054" fill="white"/>
<path d="M168.924 12.1654H172.764V13.0254H169.884V15.1054H172.664V15.9654H169.884V18.0654H172.844V18.9254H168.924V12.1654Z" fill="white"/>
<path d="M176.664 18.9454V12.1654H178.364C179.044 12.1654 179.584 12.3254 180.004 12.6654C180.404 13.0054 180.604 13.4654 180.604 14.0454C180.604 14.4454 180.504 14.7854 180.304 15.0654C180.104 15.3454 179.824 15.5654 179.464 15.7054C179.684 15.8454 179.884 16.0454 180.104 16.2854C180.304 16.5254 180.604 16.9654 180.984 17.5654C181.224 17.9454 181.404 18.2454 181.544 18.4254L181.904 18.9054H180.744L180.444 18.4654C180.444 18.4654 180.424 18.4254 180.384 18.3854L180.204 18.1254L179.904 17.6254L179.584 17.1054C179.384 16.8254 179.204 16.6054 179.024 16.4454C178.864 16.2854 178.704 16.1654 178.564 16.0854C178.424 16.0054 178.204 15.9854 177.884 15.9854H177.624V18.9254H176.664V18.9454ZM177.924 13.0054H177.624V15.1454H177.984C178.484 15.1454 178.804 15.1054 179.004 15.0254C179.184 14.9454 179.324 14.8054 179.424 14.6454C179.524 14.4854 179.584 14.2854 179.584 14.0654C179.584 13.8454 179.524 13.6654 179.424 13.4854C179.324 13.3054 179.144 13.1854 178.944 13.1254C178.744 13.0454 178.404 13.0254 177.924 13.0254" fill="white"/>
<path d="M182.645 12.1654H186.485V13.0254H183.605V15.1054H186.385V15.9654H183.605V18.0654H186.565V18.9254H182.645V12.1654Z" fill="white"/>
<path d="M193.444 17.3648V18.4248C192.724 18.8048 191.904 19.0048 190.984 19.0048C190.224 19.0048 189.584 18.8448 189.064 18.5448C188.544 18.2448 188.124 17.8248 187.804 17.2848C187.504 16.7448 187.344 16.1848 187.344 15.5448C187.344 14.5648 187.704 13.7248 188.404 13.0648C189.104 12.3848 189.984 12.0648 191.004 12.0648C191.724 12.0648 192.504 12.2448 193.384 12.6248V13.6648C192.584 13.2048 191.824 12.9848 191.064 12.9848C190.304 12.9848 189.644 13.2248 189.124 13.7248C188.604 14.2048 188.364 14.8248 188.364 15.5648C188.364 16.3048 188.624 16.9248 189.124 17.4048C189.624 17.8848 190.264 18.1248 191.064 18.1248C191.864 18.1248 192.684 17.8648 193.464 17.3648" fill="white"/>
<path d="M199.344 12.1654H200.324V16.0054C200.324 16.5254 200.284 16.9254 200.204 17.1854C200.124 17.4454 200.044 17.6654 199.924 17.8454C199.804 18.0254 199.684 18.1854 199.524 18.3254C198.984 18.7854 198.284 19.0254 197.424 19.0254C196.564 19.0254 195.844 18.8054 195.304 18.3454C195.144 18.2054 195.004 18.0454 194.904 17.8654C194.784 17.6854 194.704 17.4654 194.624 17.2254C194.544 16.9654 194.524 16.5654 194.524 16.0254V12.1854H195.504V16.0254C195.504 16.6654 195.584 17.1054 195.724 17.3454C195.864 17.5854 196.084 17.7854 196.384 17.9454C196.684 18.1054 197.024 18.1654 197.444 18.1654C198.024 18.1654 198.484 18.0054 198.844 17.7054C199.044 17.5454 199.164 17.3454 199.264 17.1254C199.344 16.9054 199.384 16.5254 199.384 16.0054V12.1654H199.344Z" fill="white"/>
<path d="M201.604 18.9454V12.1654H203.744C204.384 12.1654 204.904 12.3454 205.284 12.6854C205.664 13.0254 205.864 13.5054 205.864 14.0854C205.864 14.4854 205.764 14.8254 205.564 15.1254C205.364 15.4254 205.104 15.6454 204.764 15.7854C204.424 15.9254 203.924 15.9854 203.284 15.9854H202.564V18.9254H201.584L201.604 18.9454ZM203.584 13.0254H202.584V15.1454H203.644C204.044 15.1454 204.344 15.0454 204.564 14.8654C204.784 14.6854 204.884 14.4054 204.884 14.0654C204.884 13.3654 204.464 13.0254 203.604 13.0254" fill="white"/>
<path d="M206.725 12.1654H210.565V13.0254H207.685V15.1054H210.465V15.9654H207.685V18.0654H210.665V18.9254H206.725V12.1654Z" fill="white"/>
<path d="M211.725 18.9454V12.1654H213.425C214.105 12.1654 214.645 12.3254 215.065 12.6654C215.465 13.0054 215.665 13.4654 215.665 14.0454C215.665 14.4454 215.565 14.7854 215.365 15.0654C215.165 15.3454 214.885 15.5654 214.525 15.7054C214.745 15.8454 214.945 16.0454 215.165 16.2854C215.365 16.5254 215.665 16.9654 216.045 17.5654C216.285 17.9454 216.465 18.2454 216.605 18.4254L216.965 18.9054H215.805L215.505 18.4654C215.505 18.4654 215.485 18.4254 215.445 18.3854L215.265 18.1254L214.965 17.6254L214.645 17.1054C214.445 16.8254 214.265 16.6054 214.085 16.4454C213.925 16.2854 213.765 16.1654 213.625 16.0854C213.485 16.0054 213.265 15.9854 212.945 15.9854H212.685V18.9254H211.725V18.9454ZM212.985 13.0054H212.685V15.1454H213.045C213.545 15.1454 213.865 15.1054 214.065 15.0254C214.245 14.9454 214.385 14.8054 214.485 14.6454C214.585 14.4854 214.645 14.2854 214.645 14.0654C214.645 13.8454 214.585 13.6654 214.485 13.4854C214.365 13.3054 214.205 13.1854 214.005 13.1254C213.805 13.0454 213.465 13.0254 212.985 13.0254" fill="white"/>
<path d="M219.844 12.1254H220.524L223.564 18.9454H222.564L221.664 16.9454H218.784L217.944 18.9454H216.944L219.844 12.1254ZM221.264 16.0654L220.164 13.6054L219.144 16.0654H221.244H221.264Z" fill="white"/>
<path d="M229.745 17.3648V18.4248C229.025 18.8048 228.205 19.0048 227.285 19.0048C226.525 19.0048 225.885 18.8448 225.365 18.5448C224.845 18.2448 224.425 17.8248 224.105 17.2848C223.805 16.7448 223.645 16.1848 223.645 15.5448C223.645 14.5648 224.005 13.7248 224.705 13.0648C225.405 12.3848 226.285 12.0648 227.305 12.0648C228.025 12.0648 228.805 12.2448 229.685 12.6248V13.6648C228.885 13.2048 228.125 12.9848 227.365 12.9848C226.605 12.9848 225.945 13.2248 225.425 13.7248C224.905 14.2048 224.665 14.8248 224.665 15.5648C224.665 16.3048 224.925 16.9248 225.425 17.4048C225.925 17.8848 226.565 18.1248 227.365 18.1248C228.165 18.1248 228.985 17.8648 229.765 17.3648" fill="white"/>
<path d="M231.904 12.1654H230.944V18.9454H231.904V12.1654Z" fill="white"/>
<path d="M236.745 12.0649C237.785 12.0649 238.665 12.4049 239.365 13.0649C240.065 13.7249 240.404 14.5649 240.404 15.5649C240.404 16.5649 240.044 17.3849 239.344 18.0449C238.644 18.7049 237.765 19.0249 236.685 19.0249C235.605 19.0249 234.805 18.7049 234.125 18.0449C233.445 17.3849 233.104 16.5649 233.104 15.5849C233.104 14.6049 233.445 13.7449 234.125 13.0649C234.805 12.4049 235.684 12.0649 236.724 12.0649M236.764 12.9849C235.984 12.9849 235.344 13.2249 234.844 13.7049C234.344 14.1849 234.104 14.8049 234.104 15.5649C234.104 16.3249 234.345 16.9049 234.865 17.3849C235.365 17.8649 235.985 18.1049 236.745 18.1049C237.505 18.1049 238.124 17.8649 238.644 17.3649C239.144 16.8649 239.404 16.2449 239.404 15.5249C239.404 14.8049 239.144 14.2049 238.644 13.7049C238.144 13.2249 237.524 12.9649 236.784 12.9649M237.745 10.1849L236.644 11.6449H236.104L236.764 10.1849H237.745Z" fill="white"/>
<path d="M246.984 12.1654H247.904V18.9454H247.064L242.544 13.7254V18.9454H241.624V12.1654H242.404L246.984 17.4254V12.1654Z" fill="white"/>
<path d="M254.704 12.1654H255.864L253.364 15.3654V18.9454H252.384V15.3654L249.884 12.1654H251.044L252.864 14.5054L254.704 12.1654Z" fill="white"/>
<path d="M259.404 18.9454V12.1654H261.104C261.784 12.1654 262.324 12.3254 262.744 12.6654C263.144 13.0054 263.344 13.4654 263.344 14.0454C263.344 14.4454 263.244 14.7854 263.044 15.0654C262.844 15.3454 262.564 15.5654 262.204 15.7054C262.424 15.8454 262.624 16.0454 262.844 16.2854C263.044 16.5254 263.344 16.9654 263.724 17.5654C263.964 17.9454 264.144 18.2454 264.284 18.4254L264.644 18.9054H263.484L263.184 18.4654C263.184 18.4654 263.164 18.4254 263.124 18.3854L262.944 18.1254L262.644 17.6254L262.324 17.1054C262.124 16.8254 261.944 16.6054 261.764 16.4454C261.604 16.2854 261.444 16.1654 261.304 16.0854C261.164 16.0054 260.944 15.9854 260.624 15.9854H260.364V18.9254H259.404V18.9454ZM260.664 13.0054H260.364V15.1454H260.724C261.224 15.1454 261.544 15.1054 261.744 15.0254C261.924 14.9454 262.064 14.8054 262.164 14.6454C262.264 14.4854 262.324 14.2854 262.324 14.0654C262.324 13.8454 262.264 13.6654 262.164 13.4854C262.044 13.3054 261.884 13.1854 261.684 13.1254C261.484 13.0454 261.144 13.0254 260.664 13.0254" fill="white"/>
<path d="M265.384 12.1654H269.224V13.0254H266.344V15.1054H269.124V15.9654H266.344V18.0654H269.304V18.9254H265.384V12.1654Z" fill="white"/>
<path d="M272.024 16.1053L271.284 15.6653C270.824 15.3853 270.484 15.1053 270.304 14.8253C270.104 14.5453 270.004 14.2453 270.004 13.8853C270.004 13.3453 270.184 12.9253 270.564 12.5853C270.944 12.2453 271.424 12.0853 272.004 12.0853C272.584 12.0853 273.084 12.2453 273.564 12.5653V13.6653C273.084 13.2053 272.544 12.9653 271.984 12.9653C271.664 12.9653 271.404 13.0453 271.204 13.1853C271.004 13.3253 270.904 13.5253 270.904 13.7453C270.904 13.9453 270.984 14.1453 271.124 14.3053C271.284 14.4853 271.524 14.6653 271.844 14.8653L272.584 15.3053C273.404 15.8053 273.824 16.4253 273.824 17.1853C273.824 17.7253 273.644 18.1653 273.284 18.5053C272.924 18.8453 272.444 19.0053 271.864 19.0053C271.204 19.0053 270.584 18.8053 270.044 18.3853V17.1453C270.564 17.8053 271.184 18.1453 271.864 18.1453C272.164 18.1453 272.424 18.0653 272.624 17.8853C272.824 17.7253 272.924 17.5053 272.924 17.2453C272.924 16.8253 272.624 16.4453 272.024 16.0653" fill="white"/>
<path d="M275.864 12.1654H274.904V18.9454H275.864V12.1654Z" fill="white"/>
<path d="M277.364 12.1654H278.344V18.0654H281.384V18.9454H277.364V12.1654Z" fill="white"/>
<path d="M282.244 12.1654H286.084V13.0254H283.204V15.1054H285.984V15.9654H283.204V18.0654H286.164V18.9254H282.244V12.1654Z" fill="white"/>
<path d="M292.584 12.1654H293.504V18.9454H292.684L288.144 13.7254V18.9454H287.244V12.1654H288.024L292.584 17.4254V12.1654Z" fill="white"/>
<path d="M300.784 17.3648V18.4248C300.064 18.8048 299.244 19.0048 298.324 19.0048C297.564 19.0048 296.924 18.8448 296.404 18.5448C295.884 18.2448 295.464 17.8248 295.144 17.2848C294.844 16.7448 294.684 16.1848 294.684 15.5448C294.684 14.5648 295.044 13.7248 295.744 13.0648C296.444 12.3848 297.324 12.0648 298.344 12.0648C299.064 12.0648 299.844 12.2448 300.724 12.6248V13.6648C299.924 13.2048 299.164 12.9848 298.404 12.9848C297.644 12.9848 296.984 13.2248 296.464 13.7248C295.944 14.2048 295.704 14.8248 295.704 15.5648C295.704 16.3048 295.964 16.9248 296.464 17.4048C296.964 17.8848 297.604 18.1248 298.404 18.1248C299.204 18.1248 300.024 17.8648 300.804 17.3648" fill="white"/>
<path d="M302.964 12.1654H302.004V18.9454H302.964V12.1654Z" fill="white"/>
<path d="M306.644 12.1254H307.324L310.364 18.9454H309.364L308.464 16.9454H305.584L304.744 18.9454H303.744L306.644 12.1254ZM308.064 16.0654L306.964 13.6054L305.944 16.0654H308.044H308.064Z" fill="white"/>
<path d="M266.524 28.4047H124.404V29.1647H266.524V28.4047Z" fill="white"/>
</svg>
