<svg width="246" height="27" viewBox="0 0 246 27" fill="none" xmlns="http://www.w3.org/2000/svg">
<path d="M9.77329 2.8703C12.4206 9.83427 15.3794 17.1408 16.6314 19.838C15.1115 19.7321 14.825 19.7072 14.3267 19.7072C13.7536 19.7072 13.2802 19.7321 12.1528 19.838C11.6544 18.1126 11.1561 16.6176 10.3962 14.5994C9.37464 14.5496 8.69568 14.5496 7.41252 14.5496C6.02346 14.5496 5.47531 14.5496 4.37279 14.5994C3.82464 15.9885 3.53188 16.7982 3.35124 17.2966C3.27649 17.5333 2.98373 18.4489 2.54148 19.838C2.06807 19.7321 1.83137 19.7072 1.43895 19.7072C1.04653 19.7072 0.703933 19.7321 6.10352e-05 19.838C2.09922 15.4902 5.66218 7.05616 7.46858 2.02939C7.99181 2.08545 8.22851 2.11036 8.53996 2.11036C8.82649 2.11036 9.03828 2.08545 9.4307 2.02939L9.76706 2.8703H9.77329ZM5.00814 13.0048C6.18541 13.0297 6.6339 13.0297 7.57447 13.0297C8.51504 13.0297 8.88255 13.0297 9.79821 13.0048C8.90747 10.5693 8.35932 9.18023 7.46858 7.00632C6.42211 9.4107 5.6871 11.1984 5.00814 13.0048Z" fill="white"/>
<path d="M20.3125 0.459683C21.0475 0.459683 21.4399 0.434767 22.2497 0.35379C22.1189 2.31591 22.013 6.16541 22.013 10.1457C22.013 14.126 22.094 17.0848 22.2497 19.8317C21.1721 19.7258 20.7859 19.7009 20.3125 19.7009C19.8391 19.7009 19.4218 19.7258 18.3504 19.8317C18.5061 17.0287 18.5871 14.0201 18.5871 10.1457C18.5871 6.2713 18.5123 2.37197 18.3504 0.35379C19.1601 0.434767 19.5837 0.459683 20.3125 0.459683Z" fill="white"/>
<path d="M29.0331 3.15684C29.0331 4.25936 28.1175 5.17502 27.0149 5.17502C25.9124 5.17502 24.9718 4.25936 24.9718 3.15684C24.9718 2.05431 25.8626 1.11374 27.0149 1.11374C28.1673 1.11374 29.0331 2.0294 29.0331 3.15684ZM27.1208 7.55448C27.7499 7.55448 28.1673 7.52956 28.9272 7.42367C28.8213 8.96845 28.7154 11.977 28.7154 13.7336C28.7154 15.8265 28.7902 18.2122 28.9272 19.8318C28.1673 19.7259 27.7499 19.7009 27.0398 19.7009C26.3297 19.7009 25.8875 19.7259 25.0217 19.8318C25.2023 17.527 25.2833 15.3282 25.2833 12.9737C25.2833 10.8247 25.2023 9.38579 25.0217 7.42367C26.0183 7.52956 26.4855 7.55448 27.1146 7.55448H27.1208Z" fill="white"/>
<path d="M41.0303 10.9057C40.7936 9.27991 39.8282 8.31442 38.3893 8.31442C36.3462 8.31442 35.1128 10.2516 35.1128 13.4159C35.1128 15.1164 35.4803 16.4058 36.1904 17.2405C36.8196 17.9693 37.891 18.4427 38.9686 18.4427C40.0462 18.4427 41.0926 18.0254 41.7965 17.2903L42.164 17.527C41.9024 18.0503 41.6906 18.6545 41.6159 19.0469C40.3825 19.7819 39.1305 20.1183 37.6356 20.1183C33.7362 20.1183 31.2509 17.6329 31.2509 13.7336C31.2509 9.83428 33.892 7.13715 38.1401 7.13715C39.8655 7.13715 41.2546 7.50465 42.4319 8.23967C41.9834 9.36711 41.647 10.3637 41.5162 10.9119H41.0428L41.0303 10.9057Z" fill="white"/>
<path d="M48.1807 3.15684C48.1807 4.25936 47.265 5.17502 46.1625 5.17502C45.06 5.17502 44.1194 4.25936 44.1194 3.15684C44.1194 2.05431 45.0101 1.11374 46.1625 1.11374C47.3148 1.11374 48.1807 2.0294 48.1807 3.15684ZM46.2684 7.55448C46.8975 7.55448 47.3148 7.52956 48.0748 7.42367C47.9689 8.96845 47.863 11.977 47.863 13.7336C47.863 15.8265 47.9377 18.2122 48.0748 19.8318C47.3148 19.7259 46.8975 19.7009 46.1874 19.7009C45.4773 19.7009 45.035 19.7259 44.1692 19.8318C44.3499 17.527 44.4308 15.3282 44.4308 12.9737C44.4308 10.8247 44.3499 9.38579 44.1692 7.42367C45.1659 7.52956 45.633 7.55448 46.2621 7.55448H46.2684Z" fill="white"/>
<path d="M51.5382 10.9306C51.5382 10.1956 51.4572 9.90903 51.1707 8.93732C52.7404 7.62924 54.1544 7.13092 56.1725 7.13092C58.1907 7.13092 59.6047 7.76004 60.2587 8.88749C60.782 9.80314 60.8318 10.2205 60.8318 13.6526V15.4092C60.8318 17.1907 60.8879 17.7388 61.0124 18.1063C61.1682 18.4738 61.6416 18.7604 62.09 18.7604C62.1648 18.7604 62.3517 18.7355 62.5074 18.7043V19.1777C61.6665 19.7259 60.9377 19.9626 60.0469 19.9626C58.7077 19.9626 57.9789 19.4393 57.4806 18.1562C56.3283 19.5951 55.4375 20.1183 54.0235 20.1183C51.8247 20.1183 50.3858 18.7853 50.3858 16.7671C50.3858 15.6957 50.7783 14.7801 51.5382 14.1759C52.0863 13.7025 52.6656 13.4658 53.9488 13.0983C55.9919 12.5501 56.0978 12.5252 56.565 12.2324C56.9574 11.9708 57.1941 11.5223 57.1941 11.0302C57.1941 9.72217 56.1725 8.75045 54.8084 8.75045C53.4443 8.75045 52.4538 9.51038 51.8746 10.9244H51.532L51.5382 10.9306ZM57.3498 13.8084C57.3498 13.5218 57.3498 13.391 57.3996 13.0235C56.5587 13.31 55.9047 13.5966 55.2756 13.9392C54.3599 14.4375 54.0422 15.0666 54.0422 16.3747C54.0422 17.6828 54.5405 18.368 55.4811 18.368C56.1352 18.368 56.7394 18.0004 57.0757 17.3962C57.2875 17.0287 57.3623 16.4557 57.3623 15.3531C57.3623 15.1725 57.3623 14.8299 57.3374 14.2818V13.8084H57.3498Z" fill="white"/>
<path d="M75.2704 11.7154V12.5813C75.2704 15.1227 75.4012 17.4772 75.6628 19.8318C74.7223 19.7259 74.2489 19.701 73.383 19.701C72.5733 19.701 72.1248 19.7259 71.2901 19.8318C71.5019 17.3713 71.5766 14.6742 71.5766 9.23008C71.5766 6.53294 71.4707 3.75483 71.2901 2.10416C72.2307 2.21005 72.729 2.23496 73.5948 2.23496C74.0433 2.23496 74.8281 2.21005 75.7687 2.16022C76.6595 2.1353 77.4194 2.10416 77.9177 2.10416C79.6182 2.10416 80.7955 2.39069 81.7174 3.04473C82.795 3.80466 83.4179 5.06291 83.4179 6.5018C83.4179 8.0715 82.7389 9.37958 81.5056 10.2205C80.9325 10.588 80.3034 10.8745 79.2569 11.1361C80.0169 12.3944 80.6958 13.4658 83.1812 17.2654L84.4643 19.2525L84.8568 19.8255C83.5736 19.7196 82.9694 19.6947 82.2655 19.6947C81.5056 19.6947 81.0322 19.7196 80.1165 19.8255C79.7739 19.1715 79.6431 18.9099 78.8583 17.5457C78.1482 16.2875 77.4194 15.0043 76.6844 13.7461C75.9805 12.4878 75.8435 12.2511 75.5071 11.703H75.2704V11.7154ZM75.9244 10.6441C78.0983 10.6441 79.3815 9.255 79.3815 6.86931C79.3815 4.77638 78.279 3.56796 76.3978 3.56796C76.3978 3.56796 76.0552 3.59288 75.3763 3.61779C75.3265 4.6954 75.2953 7.18076 75.2704 10.6067C75.5819 10.6316 75.7189 10.6316 75.9244 10.6316V10.6441Z" fill="white"/>
<path d="M86.1963 7.42368C87.168 7.52957 87.6102 7.55449 88.2144 7.55449C88.8187 7.55449 89.2111 7.52957 89.9461 7.42368C89.8402 10.0398 89.7904 12.793 89.7904 14.151C89.7904 15.7518 89.8963 16.5366 90.1828 17.0287C90.4942 17.608 91.1794 17.9693 91.9394 17.9693C92.9858 17.9693 93.7458 17.3153 94.0074 16.1629C94.188 15.4279 94.2192 14.8299 94.2192 12.9176C94.2192 10.7188 94.1942 9.25499 94.0634 7.41745C95.1099 7.52334 95.5584 7.54826 96.0505 7.54826C96.5986 7.54826 96.991 7.52334 97.807 7.41745C97.6762 10.426 97.6513 11.0801 97.6513 13.5467C97.6513 16.0134 97.6762 17.0287 97.7821 19.8318C97.153 19.7259 96.8104 19.701 96.1813 19.701C95.6331 19.701 95.1597 19.7259 94.1693 19.8068C94.2503 19.0718 94.3001 18.6296 94.3001 17.8198C93.3035 19.3646 91.9954 20.1245 90.27 20.1245C88.7003 20.1245 87.4919 19.5203 86.8129 18.3991C86.4205 17.7451 86.2897 16.9851 86.2897 15.5213V14.0575C86.3146 12.955 86.3146 12.1701 86.3146 11.5971C86.3146 10.8288 86.2897 9.58097 86.2399 7.85348L86.2149 7.43614L86.1963 7.42368Z" fill="white"/>
<path d="M104.721 3.15684C104.721 4.25936 103.805 5.17502 102.703 5.17502C101.6 5.17502 100.66 4.25936 100.66 3.15684C100.66 2.05431 101.55 1.11374 102.703 1.11374C103.855 1.11374 104.721 2.0294 104.721 3.15684ZM102.809 7.55448C103.438 7.55448 103.855 7.52956 104.615 7.42367C104.509 8.96845 104.403 11.977 104.403 13.7336C104.403 15.8265 104.478 18.2122 104.615 19.8318C103.855 19.7259 103.438 19.7009 102.728 19.7009C102.018 19.7009 101.575 19.7259 100.71 19.8318C100.89 17.527 100.971 15.3282 100.971 12.9737C100.971 10.8247 100.89 9.38579 100.71 7.42367C101.706 7.52956 102.173 7.55448 102.802 7.55448H102.809Z" fill="white"/>
<path d="M117.92 8.44519C116.163 10.7748 113.703 14.3129 111.398 17.7139L110.981 18.3181C111.373 18.343 111.716 18.343 111.847 18.343C113.08 18.343 115.622 18.2122 117.714 18.0565C117.665 18.3741 117.665 18.505 117.665 19.1839C117.665 19.4206 117.665 19.5265 117.714 19.838C116.562 19.7632 114.152 19.7071 112.009 19.7071C110.096 19.7071 107.692 19.7632 106.459 19.838V18.7666C108.682 15.7019 111.33 11.8773 113.292 8.91859H112.451C110.931 8.91859 108.944 8.99957 107.269 9.15529C107.325 8.78779 107.325 8.63206 107.325 8.31439C107.325 7.97179 107.325 7.79115 107.269 7.42365H107.923C111.666 7.50462 112.351 7.50462 113.921 7.50462C115.491 7.50462 116.251 7.47971 117.926 7.42365V8.44519H117.92Z" fill="white"/>
<path d="M133.43 10.8558C133.43 14.9919 133.536 18.3181 133.717 19.838C132.614 19.7321 132.122 19.7072 131.493 19.7072C130.864 19.7072 130.397 19.7321 129.344 19.838C129.5 18.6607 129.662 13.8707 129.662 9.83429C129.662 7.87217 129.637 6.66375 129.506 4.07251C127.307 4.09742 127.02 4.12857 124.822 4.4151C124.871 3.96661 124.896 3.76106 124.896 3.33749C124.896 2.83917 124.871 2.57756 124.822 2.10416C127.594 2.25988 129.169 2.31594 131.524 2.31594C133.879 2.31594 135.423 2.26611 138.201 2.10416C138.152 2.57756 138.12 2.83917 138.12 3.33749C138.12 3.78597 138.145 3.96661 138.201 4.4151C136.501 4.1784 135.268 4.09742 133.567 4.07251C133.461 6.76964 133.436 8.57604 133.436 10.8558H133.43Z" fill="white"/>
<path d="M150.379 13.7336C150.379 17.8198 148.1 20.1183 143.988 20.1183C139.877 20.1183 137.629 17.8385 137.629 13.6277C137.629 9.41695 139.877 7.13092 143.988 7.13092C148.1 7.13092 150.379 9.41072 150.379 13.7274V13.7336ZM141.478 13.6277C141.478 17.527 142.188 19.0718 143.995 19.0718C145.801 19.0718 146.536 17.5021 146.536 13.7025C146.536 9.90281 145.807 8.17739 143.995 8.17739C142.182 8.17739 141.478 9.72217 141.478 13.6277Z" fill="white"/>
<path d="M160.259 10.8558C159.76 10.5942 159.393 10.5132 158.926 10.5132C157.929 10.5132 157.119 11.0116 156.727 11.8774C156.465 12.4006 156.39 13.0297 156.39 14.6555C156.39 16.2813 156.44 18.0067 156.571 19.838C155.313 19.7321 155.026 19.7072 154.684 19.7072C154.235 19.7072 153.899 19.7321 152.796 19.838C152.977 18.1126 153.033 16.6176 153.033 13.6838C153.033 11.0925 153.008 10.1208 152.796 7.42368C153.712 7.50465 154.136 7.52957 154.628 7.52957C155.12 7.52957 155.518 7.50465 156.278 7.42368C156.253 8.20853 156.222 8.96846 156.222 10.6191C157.138 8.31442 158.446 7.13715 160.097 7.13715C160.228 7.13715 160.333 7.13715 160.545 7.16206C160.464 7.76627 160.439 8.10263 160.439 8.65701C160.439 9.21139 160.464 9.65364 160.545 10.6191L160.252 10.8558H160.259Z" fill="white"/>
<path d="M169.845 10.8558C169.346 10.5942 168.979 10.5132 168.512 10.5132C167.515 10.5132 166.705 11.0116 166.313 11.8774C166.051 12.4006 165.97 13.0297 165.97 14.6555C165.97 16.2813 166.02 18.0067 166.151 19.838C164.893 19.7321 164.606 19.7072 164.264 19.7072C163.815 19.7072 163.479 19.7321 162.376 19.838C162.557 18.1126 162.613 16.6176 162.613 13.6838C162.613 11.0925 162.588 10.1208 162.376 7.42368C163.292 7.50465 163.715 7.52957 164.208 7.52957C164.7 7.52957 165.098 7.50465 165.858 7.42368C165.833 8.20853 165.802 8.96846 165.802 10.6191C166.718 8.31442 168.026 7.13715 169.677 7.13715C169.807 7.13715 169.913 7.13715 170.125 7.16206C170.044 7.76627 170.019 8.10263 170.019 8.65701C170.019 9.21139 170.044 9.65364 170.125 10.6191L169.832 10.8558H169.845Z" fill="white"/>
<path d="M182.209 17.5333C181.898 18.1873 181.817 18.424 181.686 18.9472C180.347 19.7882 179.17 20.1245 177.656 20.1245C173.831 20.1245 171.452 17.6392 171.452 13.6028C171.452 9.56644 173.7 7.13715 177.295 7.13715C180.889 7.13715 182.739 9.20516 182.739 12.8429C182.739 12.9737 182.714 13.3163 182.689 13.7087C181.487 13.6277 180.253 13.6028 178.653 13.6028C178.104 13.6028 178.023 13.6028 175.588 13.6277H175.22C175.245 15.0417 175.376 15.8515 175.744 16.5865C176.348 17.8198 177.444 18.4988 178.752 18.4988C179.905 18.4988 180.901 18.1063 181.867 17.2966L182.203 17.5333H182.209ZM179.201 12.4255C179.201 11.0614 179.176 10.5942 179.045 10.0648C178.783 8.86257 178.204 8.20853 177.369 8.20853C176.086 8.20853 175.357 9.70348 175.276 12.4255H179.201Z" fill="white"/>
<path d="M194.424 8.73172C194.973 9.51657 195.184 10.1208 195.184 10.9555C195.184 12.3943 194.481 13.5965 193.222 14.2568C192.356 14.6991 191.466 14.8859 189.609 14.9856C188.85 15.0105 188.457 15.3531 188.457 15.9573C188.457 16.3747 188.694 16.6612 189.167 16.7982C189.504 16.9041 190.108 16.9539 191.914 17.01C194.53 17.091 195.06 17.1657 195.814 17.6391C196.729 18.1873 197.227 19.2587 197.227 20.7038C197.227 24.3166 194.449 26.6462 190.158 26.6462C186.283 26.6462 184.028 25.2073 184.028 22.7718C184.028 21.0713 185.05 19.9438 187.043 19.4455C185.966 18.997 185.473 18.343 185.473 17.4336C185.473 16.5677 185.922 15.8888 186.676 15.4964C186.937 15.3552 187.409 15.1642 188.09 14.9233L188.065 14.7676C185.654 14.2443 184.502 13.011 184.502 11.0489C184.502 8.50748 186.389 7.14957 189.871 7.14957C190.589 7.14957 191.769 7.25338 193.409 7.46101C194.038 7.54199 194.742 7.59182 195.427 7.59182C196 7.59182 196.449 7.56691 197.389 7.51085C197.333 7.79738 197.308 7.98425 197.308 8.24586C197.308 8.48256 197.333 8.58223 197.389 8.87499L194.431 8.74418L194.424 8.73172ZM187.672 19.9937C187.043 20.3612 186.626 21.1959 186.626 22.1676C186.626 24.1359 188.276 25.6247 190.45 25.6247C192.624 25.6247 194.038 24.2356 194.038 22.2174C194.038 20.1992 193.067 19.6511 190.008 19.6511C188.669 19.6511 188.177 19.7321 187.678 19.9937H187.672ZM188.146 11.2981C188.146 13.1044 188.694 13.9391 189.896 13.9391C191.098 13.9391 191.677 13.0235 191.677 10.9305C191.677 8.83761 191.229 8.1026 190.052 8.1026C188.694 8.1026 188.139 9.01825 188.139 11.2981H188.146Z" fill="white"/>
<path d="M206.446 10.8558C205.948 10.5942 205.58 10.5132 205.113 10.5132C204.116 10.5132 203.307 11.0116 202.914 11.8774C202.653 12.4006 202.572 13.0297 202.572 14.6555C202.572 16.2813 202.621 18.0067 202.752 19.838C201.494 19.7321 201.208 19.7072 200.865 19.7072C200.416 19.7072 200.08 19.7321 198.978 19.838C199.158 18.1126 199.214 16.6176 199.214 13.6838C199.214 11.0925 199.189 10.1208 198.978 7.42368C199.893 7.50465 200.317 7.52957 200.809 7.52957C201.301 7.52957 201.7 7.50465 202.46 7.42368C202.435 8.20853 202.403 8.96846 202.403 10.6191C203.319 8.31442 204.627 7.13715 206.278 7.13715C206.409 7.13715 206.515 7.13715 206.726 7.16206C206.645 7.76627 206.62 8.10263 206.62 8.65701C206.62 9.21139 206.645 9.65364 206.726 10.6191L206.434 10.8558H206.446Z" fill="white"/>
<path d="M220.804 13.7336C220.804 17.8198 218.524 20.1183 214.413 20.1183C210.302 20.1183 208.053 17.8385 208.053 13.6277C208.053 9.41695 210.302 7.13092 214.413 7.13092C218.524 7.13092 220.804 9.41072 220.804 13.7274V13.7336ZM211.903 13.6277C211.903 17.527 212.613 19.0718 214.419 19.0718C216.226 19.0718 216.961 17.5021 216.961 13.7025C216.961 9.90281 216.232 8.17739 214.419 8.17739C212.607 8.17739 211.903 9.72217 211.903 13.6277Z" fill="white"/>
<path d="M223.507 16.2999C224.031 17.9506 225.289 18.9971 226.728 18.9971C227.986 18.9971 228.952 18.2932 228.952 17.3215C228.952 16.5117 228.534 16.1442 226.728 15.4092C225.052 14.6991 224.398 14.3627 223.794 13.8395C223.084 13.2353 222.691 12.2698 222.691 11.1984C222.691 8.71307 224.579 7.13715 227.587 7.13715C229.238 7.13715 230.546 7.47974 231.593 8.15869C231.568 8.2895 231.487 8.50129 231.487 8.50129L231.15 9.52284C231.044 9.91526 230.914 10.3326 230.808 10.7562H230.465C229.992 9.05566 228.945 8.14001 227.506 8.14001C226.354 8.14001 225.569 8.79405 225.569 9.7097C225.569 10.3388 225.906 10.7811 226.665 11.2047C227.295 11.541 227.475 11.622 229.101 12.1701C231.325 12.9301 232.272 13.9516 232.272 15.6023C232.272 18.2745 229.911 20.1307 226.51 20.1307C225.146 20.1307 224.074 19.919 222.685 19.4269C222.866 18.9036 223.022 17.8821 223.159 16.3124H223.495L223.507 16.2999Z" fill="white"/>
<path d="M235.031 10.9306C235.031 10.1956 234.95 9.90903 234.663 8.93732C236.233 7.62924 237.647 7.13092 239.665 7.13092C241.683 7.13092 243.097 7.76004 243.751 8.88749C244.275 9.80314 244.324 10.2205 244.324 13.6526V15.4092C244.324 17.1907 244.38 17.7388 244.505 18.1063C244.661 18.4738 245.134 18.7604 245.583 18.7604C245.657 18.7604 245.844 18.7355 246 18.7043V19.1777C245.159 19.7259 244.43 19.9626 243.54 19.9626C242.2 19.9626 241.472 19.4393 240.973 18.1562C239.821 19.5951 238.93 20.1183 237.516 20.1183C235.317 20.1183 233.878 18.7853 233.878 16.7671C233.878 15.6957 234.271 14.7801 235.031 14.1759C235.579 13.7025 236.158 13.4658 237.441 13.0983C239.484 12.5501 239.59 12.5252 240.058 12.2324C240.45 11.9708 240.687 11.5223 240.687 11.0302C240.687 9.72217 239.665 8.75045 238.301 8.75045C236.937 8.75045 235.946 9.51038 235.367 10.9244H235.025L235.031 10.9306ZM240.842 13.8084C240.842 13.5218 240.842 13.391 240.892 13.0235C240.051 13.31 239.397 13.5966 238.768 13.9392C237.852 14.4375 237.535 15.0666 237.535 16.3747C237.535 17.6828 238.033 18.368 238.974 18.368C239.628 18.368 240.232 18.0004 240.568 17.3962C240.78 17.0287 240.855 16.4557 240.855 15.3531C240.855 15.1725 240.855 14.8299 240.83 14.2818V13.8084H240.842Z" fill="white"/>
</svg>
