<svg width="246" height="27" viewBox="0 0 246 27" fill="none" xmlns="http://www.w3.org/2000/svg">
<path d="M9.77323 2.51645C12.4205 9.48042 15.3793 16.787 16.6313 19.4841C15.1114 19.3782 14.8249 19.3533 14.3266 19.3533C13.7535 19.3533 13.2801 19.3782 12.1527 19.4841C11.6544 17.7587 11.1561 16.2638 10.3961 14.2456C9.37458 14.1957 8.69562 14.1957 7.41246 14.1957C6.0234 14.1957 5.47525 14.1957 4.37273 14.2456C3.82458 15.6346 3.53182 16.4444 3.35118 16.9427C3.27643 17.1794 2.98367 18.0951 2.54141 19.4841C2.06801 19.3782 1.83131 19.3533 1.43889 19.3533C1.04646 19.3533 0.703872 19.3782 0 19.4841C2.09916 15.1363 5.66212 6.7023 7.46852 1.67554C7.99175 1.7316 8.22845 1.75651 8.5399 1.75651C8.82643 1.75651 9.03822 1.7316 9.43064 1.67554L9.767 2.51645H9.77323ZM5.00808 12.651C6.18535 12.6759 6.63384 12.6759 7.57441 12.6759C8.51498 12.6759 8.88249 12.6759 9.79815 12.651C8.90741 10.2154 8.35926 8.82638 7.46852 6.65247C6.42205 9.05685 5.68704 10.8446 5.00808 12.651Z" fill="white"/>
<path d="M20.3122 0.105892C21.0472 0.105892 21.4397 0.0809764 22.2494 0C22.1186 1.96212 22.0127 5.81162 22.0127 9.79192C22.0127 13.7722 22.0937 16.731 22.2494 19.4779C21.1718 19.3721 20.7856 19.3471 20.3122 19.3471C19.8388 19.3471 19.4215 19.3721 18.3501 19.4779C18.5058 16.6749 18.5868 13.6663 18.5868 9.79192C18.5868 5.91751 18.5121 2.01818 18.3501 0C19.1599 0.0809764 19.5834 0.105892 20.3122 0.105892Z" fill="white"/>
<path d="M29.033 2.80298C29.033 3.90551 28.1173 4.82117 27.0148 4.82117C25.9123 4.82117 24.9717 3.90551 24.9717 2.80298C24.9717 1.70046 25.8624 0.759888 27.0148 0.759888C28.1671 0.759888 29.033 1.67554 29.033 2.80298ZM27.1207 7.20063C27.7498 7.20063 28.1671 7.17571 28.9271 7.06982C28.8212 8.6146 28.7153 11.6232 28.7153 13.3798C28.7153 15.4727 28.79 17.8584 28.9271 19.4779C28.1671 19.372 27.7498 19.3471 27.0397 19.3471C26.3296 19.3471 25.8873 19.372 25.0215 19.4779C25.2021 17.1732 25.2831 14.9744 25.2831 12.6198C25.2831 10.4708 25.2021 9.03194 25.0215 7.06982C26.0181 7.17571 26.4853 7.20063 27.1144 7.20063H27.1207Z" fill="white"/>
<path d="M41.0304 10.5518C40.7937 8.92609 39.8282 7.9606 38.3894 7.9606C36.3463 7.9606 35.1129 9.8978 35.1129 13.0621C35.1129 14.7626 35.4804 16.052 36.1905 16.8867C36.8197 17.6155 37.891 18.0889 38.9687 18.0889C40.0463 18.0889 41.0927 17.6715 41.7966 16.9365L42.1641 17.1732C41.9025 17.6965 41.6907 18.3007 41.616 18.6931C40.3826 19.4281 39.1306 19.7645 37.6357 19.7645C33.7363 19.7645 31.251 17.2791 31.251 13.3798C31.251 9.48046 33.8921 6.78333 38.1402 6.78333C39.8656 6.78333 41.2547 7.15083 42.432 7.88585C41.9835 9.01329 41.6471 10.0099 41.5163 10.5581H41.0429L41.0304 10.5518Z" fill="white"/>
<path d="M48.1804 2.80298C48.1804 3.90551 47.2648 4.82117 46.1622 4.82117C45.0597 4.82117 44.1191 3.90551 44.1191 2.80298C44.1191 1.70046 45.0099 0.759888 46.1622 0.759888C47.3146 0.759888 48.1804 1.67554 48.1804 2.80298ZM46.2681 7.20063C46.8973 7.20063 47.3146 7.17571 48.0745 7.06982C47.9686 8.6146 47.8627 11.6232 47.8627 13.3798C47.8627 15.4727 47.9375 17.8584 48.0745 19.4779C47.3146 19.372 46.8973 19.3471 46.1872 19.3471C45.4771 19.3471 45.0348 19.372 44.169 19.4779C44.3496 17.1732 44.4306 14.9744 44.4306 12.6198C44.4306 10.4708 44.3496 9.03194 44.169 7.06982C45.1656 7.17571 45.6328 7.20063 46.2619 7.20063H46.2681Z" fill="white"/>
<path d="M51.5381 10.5768C51.5381 9.84175 51.4571 9.55521 51.1706 8.5835C52.7403 7.27542 54.1543 6.7771 56.1724 6.7771C58.1906 6.7771 59.6046 7.40622 60.2586 8.53367C60.7819 9.44932 60.8317 9.86666 60.8317 13.2988V15.0554C60.8317 16.8369 60.8878 17.385 61.0123 17.7525C61.1681 18.12 61.6415 18.4066 62.09 18.4066C62.1647 18.4066 62.3516 18.3816 62.5073 18.3505V18.8239C61.6664 19.372 60.9376 19.6087 60.0469 19.6087C58.7076 19.6087 57.9788 19.0855 57.4805 17.8024C56.3282 19.2412 55.4374 19.7645 54.0235 19.7645C51.8246 19.7645 50.3857 18.4315 50.3857 16.4133C50.3857 15.3419 50.7782 14.4263 51.5381 13.822C52.0863 13.3486 52.6655 13.1119 53.9487 12.7444C55.9918 12.1963 56.0977 12.1714 56.5649 11.8786C56.9573 11.617 57.194 11.1685 57.194 10.6764C57.194 9.36835 56.1724 8.39663 54.8083 8.39663C53.4442 8.39663 52.4538 9.15656 51.8745 10.5705H51.5319L51.5381 10.5768ZM57.3497 13.4545C57.3497 13.168 57.3497 13.0372 57.3995 12.6697C56.5586 12.9562 55.9046 13.2428 55.2755 13.5853C54.3598 14.0837 54.0421 14.7128 54.0421 16.0209C54.0421 17.329 54.5405 18.0141 55.481 18.0141C56.1351 18.0141 56.7393 17.6466 57.0756 17.0424C57.2874 16.6749 57.3622 16.1018 57.3622 14.9993C57.3622 14.8187 57.3622 14.4761 57.3373 13.9279V13.4545H57.3497Z" fill="white"/>
<path d="M75.2703 11.3616V12.2275C75.2703 14.7689 75.4011 17.1234 75.6628 19.478C74.7222 19.3721 74.2488 19.3472 73.383 19.3472C72.5732 19.3472 72.1247 19.3721 71.29 19.478C71.5018 17.0175 71.5766 14.3204 71.5766 8.87629C71.5766 6.17915 71.4707 3.40104 71.29 1.75037C72.2306 1.85626 72.7289 1.88117 73.5948 1.88117C74.0432 1.88117 74.8281 1.85626 75.7687 1.80643C76.6594 1.78151 77.4193 1.75037 77.9176 1.75037C79.6182 1.75037 80.7954 2.0369 81.7173 2.69094C82.7949 3.45087 83.4178 4.70912 83.4178 6.14801C83.4178 7.71771 82.7389 9.02579 81.5055 9.8667C80.9325 10.2342 80.3033 10.5207 79.2569 10.7824C80.0168 12.0406 80.6958 13.112 83.1811 16.9116L84.4643 18.8987L84.8567 19.4717C83.5735 19.3659 82.9693 19.3409 82.2655 19.3409C81.5055 19.3409 81.0321 19.3659 80.1165 19.4717C79.7739 18.8177 79.6431 18.5561 78.8582 17.1919C78.1481 15.9337 77.4193 14.6505 76.6843 13.3923C75.9804 12.134 75.8434 11.8973 75.507 11.3492H75.2703V11.3616ZM75.9244 10.2903C78.0983 10.2903 79.3815 8.90121 79.3815 6.51552C79.3815 4.42259 78.2789 3.21417 76.3978 3.21417C76.3978 3.21417 76.0552 3.23909 75.3762 3.264C75.3264 4.34161 75.2953 6.82697 75.2703 10.2529C75.5818 10.2778 75.7188 10.2778 75.9244 10.2778V10.2903Z" fill="white"/>
<path d="M86.1963 7.06995C87.168 7.17584 87.6103 7.20076 88.2145 7.20076C88.8187 7.20076 89.2111 7.17584 89.9461 7.06995C89.8402 9.68611 89.7904 12.4393 89.7904 13.7972C89.7904 15.3981 89.8963 16.1829 90.1828 16.675C90.4943 17.2543 91.1795 17.6156 91.9394 17.6156C92.9859 17.6156 93.7458 16.9615 94.0074 15.8092C94.188 15.0742 94.2192 14.4762 94.2192 12.5639C94.2192 10.3651 94.1943 8.90126 94.0635 7.06372C95.1099 7.16961 95.5584 7.19453 96.0505 7.19453C96.5986 7.19453 96.9911 7.16961 97.8071 7.06372C97.6763 10.0723 97.6513 10.7263 97.6513 13.193C97.6513 15.6597 97.6763 16.675 97.7822 19.478C97.153 19.3721 96.8104 19.3472 96.1813 19.3472C95.6332 19.3472 95.1598 19.3721 94.1694 19.4531C94.2503 18.7181 94.3002 18.2758 94.3002 17.4661C93.3035 19.0109 91.9955 19.7708 90.27 19.7708C88.7003 19.7708 87.4919 19.1666 86.813 18.0454C86.4205 17.3913 86.2897 16.6314 86.2897 15.1676V13.7038C86.3146 12.6013 86.3146 11.8164 86.3146 11.2433C86.3146 10.4751 86.2897 9.22724 86.2399 7.49975L86.215 7.08241L86.1963 7.06995Z" fill="white"/>
<path d="M104.721 2.80298C104.721 3.90551 103.805 4.82117 102.703 4.82117C101.6 4.82117 100.66 3.90551 100.66 2.80298C100.66 1.70046 101.55 0.759888 102.703 0.759888C103.855 0.759888 104.721 1.67554 104.721 2.80298ZM102.809 7.20063C103.438 7.20063 103.855 7.17571 104.615 7.06982C104.509 8.6146 104.403 11.6232 104.403 13.3798C104.403 15.4727 104.478 17.8584 104.615 19.4779C103.855 19.372 103.438 19.3471 102.728 19.3471C102.018 19.3471 101.575 19.372 100.71 19.4779C100.89 17.1732 100.971 14.9744 100.971 12.6198C100.971 10.4708 100.89 9.03194 100.71 7.06982C101.706 7.17571 102.173 7.20063 102.802 7.20063H102.809Z" fill="white"/>
<path d="M117.92 8.09137C116.163 10.421 113.703 13.959 111.398 17.3601L110.981 17.9643C111.373 17.9892 111.716 17.9892 111.847 17.9892C113.08 17.9892 115.621 17.8584 117.714 17.7027C117.664 18.0203 117.664 18.1511 117.664 18.8301C117.664 19.0668 117.664 19.1727 117.714 19.4841C116.562 19.4094 114.151 19.3533 112.008 19.3533C110.096 19.3533 107.692 19.4094 106.458 19.4841V18.4128C108.682 15.3481 111.33 11.5235 113.292 8.56477H112.451C110.931 8.56477 108.944 8.64575 107.268 8.80147C107.324 8.43397 107.324 8.27824 107.324 7.96056C107.324 7.61797 107.324 7.43733 107.268 7.06982H107.922C111.666 7.1508 112.351 7.1508 113.921 7.1508C115.49 7.1508 116.25 7.12588 117.926 7.06982V8.09137H117.92Z" fill="white"/>
<path d="M133.43 10.502C133.43 14.6381 133.536 17.9643 133.717 19.4842C132.614 19.3783 132.122 19.3534 131.493 19.3534C130.864 19.3534 130.397 19.3783 129.344 19.4842C129.5 18.3069 129.662 13.5169 129.662 9.4805C129.662 7.51838 129.637 6.30996 129.506 3.71872C127.307 3.74363 127.021 3.77478 124.822 4.06131C124.872 3.61282 124.897 3.40727 124.897 2.9837C124.897 2.48538 124.872 2.22377 124.822 1.75037C127.594 1.90609 129.17 1.96215 131.524 1.96215C133.879 1.96215 135.423 1.91232 138.202 1.75037C138.152 2.22377 138.121 2.48538 138.121 2.9837C138.121 3.43218 138.146 3.61282 138.202 4.06131C136.501 3.82461 135.268 3.74363 133.567 3.71872C133.461 6.41585 133.436 8.22225 133.436 10.502H133.43Z" fill="white"/>
<path d="M150.379 13.3798C150.379 17.466 148.099 19.7645 143.988 19.7645C139.877 19.7645 137.628 17.4847 137.628 13.2739C137.628 9.06313 139.877 6.7771 143.988 6.7771C148.099 6.7771 150.379 9.0569 150.379 13.3736V13.3798ZM141.478 13.2739C141.478 17.1732 142.188 18.718 143.994 18.718C145.801 18.718 146.536 17.1483 146.536 13.3486C146.536 9.54899 145.807 7.82356 143.994 7.82356C142.182 7.82356 141.478 9.36835 141.478 13.2739Z" fill="white"/>
<path d="M160.259 10.502C159.76 10.2404 159.393 10.1594 158.926 10.1594C157.929 10.1594 157.119 10.6577 156.727 11.5236C156.465 12.0468 156.39 12.6759 156.39 14.3017C156.39 15.9274 156.44 17.6529 156.571 19.4842C155.313 19.3783 155.026 19.3534 154.684 19.3534C154.235 19.3534 153.899 19.3783 152.796 19.4842C152.977 17.7587 153.033 16.2638 153.033 13.33C153.033 10.7387 153.008 9.767 152.796 7.06986C153.712 7.15083 154.136 7.17575 154.628 7.17575C155.12 7.17575 155.518 7.15083 156.278 7.06986C156.253 7.85471 156.222 8.61464 156.222 10.2653C157.138 7.9606 158.446 6.78333 160.097 6.78333C160.228 6.78333 160.333 6.78333 160.545 6.80824C160.464 7.41245 160.439 7.74881 160.439 8.30319C160.439 8.85757 160.464 9.29982 160.545 10.2653L160.252 10.502H160.259Z" fill="white"/>
<path d="M169.844 10.502C169.346 10.2404 168.979 10.1594 168.511 10.1594C167.515 10.1594 166.705 10.6577 166.313 11.5236C166.051 12.0468 165.97 12.6759 165.97 14.3017C165.97 15.9274 166.02 17.6529 166.151 19.4842C164.892 19.3783 164.606 19.3534 164.263 19.3534C163.815 19.3534 163.479 19.3783 162.376 19.4842C162.557 17.7587 162.613 16.2638 162.613 13.33C162.613 10.7387 162.588 9.767 162.376 7.06986C163.292 7.15083 163.715 7.17575 164.207 7.17575C164.699 7.17575 165.098 7.15083 165.858 7.06986C165.833 7.85471 165.802 8.61464 165.802 10.2653C166.718 7.9606 168.026 6.78333 169.676 6.78333C169.807 6.78333 169.913 6.78333 170.125 6.80824C170.044 7.41245 170.019 7.74881 170.019 8.30319C170.019 8.85757 170.044 9.29982 170.125 10.2653L169.832 10.502H169.844Z" fill="white"/>
<path d="M182.209 17.1795C181.898 17.8335 181.817 18.0702 181.686 18.5934C180.347 19.4343 179.169 19.7707 177.656 19.7707C173.831 19.7707 171.452 17.2853 171.452 13.249C171.452 9.21262 173.7 6.78333 177.294 6.78333C180.889 6.78333 182.739 8.85134 182.739 12.489C182.739 12.6199 182.714 12.9624 182.689 13.3549C181.487 13.2739 180.253 13.249 178.652 13.249C178.104 13.249 178.023 13.249 175.588 13.2739H175.22C175.245 14.6879 175.376 15.4976 175.743 16.2327C176.348 17.466 177.444 18.1449 178.752 18.1449C179.904 18.1449 180.901 17.7525 181.866 16.9428L182.203 17.1795H182.209ZM179.2 12.0717C179.2 10.7076 179.176 10.2404 179.045 9.71093C178.783 8.50875 178.204 7.85471 177.369 7.85471C176.086 7.85471 175.357 9.34965 175.276 12.0717H179.2Z" fill="white"/>
<path d="M194.424 8.37793C194.973 9.16278 195.184 9.76699 195.184 10.6017C195.184 12.0406 194.481 13.2427 193.222 13.903C192.356 14.3453 191.466 14.5321 189.609 14.6318C188.85 14.6567 188.457 14.9993 188.457 15.6035C188.457 16.0209 188.694 16.3074 189.167 16.4444C189.504 16.5503 190.108 16.6002 191.914 16.6562C194.53 16.7372 195.06 16.8119 195.814 17.2853C196.729 17.8335 197.227 18.9049 197.227 20.35C197.227 23.9628 194.449 26.2924 190.158 26.2924C186.283 26.2924 184.028 24.8535 184.028 22.418C184.028 20.7175 185.05 19.5901 187.043 19.0917C185.966 18.6433 185.473 17.9892 185.473 17.0798C185.473 16.214 185.922 15.535 186.676 15.1426C186.937 15.0014 187.409 14.8104 188.09 14.5695L188.065 14.4138C185.654 13.8906 184.502 12.6572 184.502 10.6951C184.502 8.15369 186.389 6.79578 189.871 6.79578C190.589 6.79578 191.769 6.89959 193.409 7.10722C194.038 7.1882 194.742 7.23803 195.427 7.23803C196 7.23803 196.449 7.21312 197.389 7.15706C197.333 7.44359 197.308 7.63046 197.308 7.89207C197.308 8.12877 197.333 8.22844 197.389 8.5212L194.431 8.39039L194.424 8.37793ZM187.672 19.6399C187.043 20.0074 186.626 20.8421 186.626 21.8138C186.626 23.7821 188.276 25.2709 190.45 25.2709C192.624 25.2709 194.038 23.8818 194.038 21.8636C194.038 19.8454 193.067 19.2973 190.008 19.2973C188.669 19.2973 188.177 19.3783 187.678 19.6399H187.672ZM188.146 10.9443C188.146 12.7507 188.694 13.5853 189.896 13.5853C191.098 13.5853 191.677 12.6697 191.677 10.5768C191.677 8.48382 191.229 7.74881 190.052 7.74881C188.694 7.74881 188.139 8.66446 188.139 10.9443H188.146Z" fill="white"/>
<path d="M206.446 10.502C205.948 10.2404 205.58 10.1594 205.113 10.1594C204.116 10.1594 203.307 10.6577 202.914 11.5236C202.653 12.0468 202.572 12.6759 202.572 14.3017C202.572 15.9274 202.621 17.6529 202.752 19.4842C201.494 19.3783 201.208 19.3534 200.865 19.3534C200.416 19.3534 200.08 19.3783 198.978 19.4842C199.158 17.7587 199.214 16.2638 199.214 13.33C199.214 10.7387 199.189 9.767 198.978 7.06986C199.893 7.15083 200.317 7.17575 200.809 7.17575C201.301 7.17575 201.7 7.15083 202.46 7.06986C202.435 7.85471 202.403 8.61464 202.403 10.2653C203.319 7.9606 204.627 6.78333 206.278 6.78333C206.409 6.78333 206.515 6.78333 206.726 6.80824C206.645 7.41245 206.62 7.74881 206.62 8.30319C206.62 8.85757 206.645 9.29982 206.726 10.2653L206.434 10.502H206.446Z" fill="white"/>
<path d="M220.804 13.3798C220.804 17.466 218.524 19.7645 214.413 19.7645C210.302 19.7645 208.053 17.4847 208.053 13.2739C208.053 9.06313 210.302 6.7771 214.413 6.7771C218.524 6.7771 220.804 9.0569 220.804 13.3736V13.3798ZM211.903 13.2739C211.903 17.1732 212.613 18.718 214.419 18.718C216.226 18.718 216.961 17.1483 216.961 13.3486C216.961 9.54899 216.232 7.82356 214.419 7.82356C212.607 7.82356 211.903 9.36835 211.903 13.2739Z" fill="white"/>
<path d="M223.507 15.9461C224.031 17.5968 225.289 18.6433 226.728 18.6433C227.986 18.6433 228.951 17.9394 228.951 16.9677C228.951 16.1579 228.534 15.7904 226.728 15.0554C225.052 14.3453 224.398 14.0089 223.794 13.4857C223.084 12.8815 222.691 11.916 222.691 10.8446C222.691 8.35925 224.579 6.78333 227.587 6.78333C229.238 6.78333 230.546 7.12592 231.592 7.80487C231.568 7.93568 231.487 8.14747 231.487 8.14747L231.15 9.16902C231.044 9.56144 230.914 9.97878 230.808 10.4023H230.465C229.992 8.70184 228.945 7.78619 227.506 7.78619C226.354 7.78619 225.569 8.44023 225.569 9.35588C225.569 9.98501 225.905 10.4273 226.665 10.8508C227.294 11.1872 227.475 11.2682 229.101 11.8163C231.325 12.5763 232.271 13.5978 232.271 15.2485C232.271 17.9207 229.911 19.7769 226.51 19.7769C225.146 19.7769 224.074 19.5651 222.685 19.0731C222.866 18.5498 223.021 17.5283 223.158 15.9586H223.495L223.507 15.9461Z" fill="white"/>
<path d="M235.031 10.5768C235.031 9.84175 234.95 9.55521 234.663 8.5835C236.233 7.27542 237.647 6.7771 239.665 6.7771C241.683 6.7771 243.097 7.40622 243.751 8.53367C244.275 9.44932 244.324 9.86666 244.324 13.2988V15.0554C244.324 16.8369 244.38 17.385 244.505 17.7525C244.661 18.12 245.134 18.4066 245.583 18.4066C245.657 18.4066 245.844 18.3816 246 18.3505V18.8239C245.159 19.372 244.43 19.6087 243.54 19.6087C242.2 19.6087 241.472 19.0855 240.973 17.8024C239.821 19.2412 238.93 19.7645 237.516 19.7645C235.317 19.7645 233.878 18.4315 233.878 16.4133C233.878 15.3419 234.271 14.4263 235.031 13.822C235.579 13.3486 236.158 13.1119 237.441 12.7444C239.484 12.1963 239.59 12.1714 240.058 11.8786C240.45 11.617 240.687 11.1685 240.687 10.6764C240.687 9.36835 239.665 8.39663 238.301 8.39663C236.937 8.39663 235.946 9.15656 235.367 10.5705H235.025L235.031 10.5768ZM240.842 13.4545C240.842 13.168 240.842 13.0372 240.892 12.6697C240.051 12.9562 239.397 13.2428 238.768 13.5853C237.852 14.0837 237.535 14.7128 237.535 16.0209C237.535 17.329 238.033 18.0141 238.974 18.0141C239.628 18.0141 240.232 17.6466 240.568 17.0424C240.78 16.6749 240.855 16.1018 240.855 14.9993C240.855 14.8187 240.855 14.4761 240.83 13.9279V13.4545H240.842Z" fill="white"/>
</svg>
