<svg width="34" height="28" viewBox="0 0 34 28" fill="none" xmlns="http://www.w3.org/2000/svg">
<path d="M27.5059 18.96L26.6859 19.22C25.3459 19.65 23.9659 19.91 22.5759 20.02L21.0859 20.06L26.4959 27.66H33.7659L27.5159 18.97L27.5059 18.96Z" fill="white"/>
<path d="M9.69531 23.9899L7.9353 23.8899L7.66531 22.3099L6.78531 23.8199L4.94531 23.7199L6.2153 24.8099L5.34531 26.3799L7.01532 25.4999L8.66531 26.5699L8.1553 24.9799L9.69531 23.9899Z" fill="white"/>
<path d="M4.72565 18.5699L3.09564 18.4799L2.83566 17.0599L2.02567 18.4199L0.305664 18.3199L1.49567 19.3099L0.445648 20.6999L2.23566 19.9299L3.53564 20.8799L3.29565 19.4599L4.72565 18.5699Z" fill="white"/>
<path d="M4.17578 12.68L2.69577 12.6L2.45578 11.39L1.72577 12.54L0.175781 12.45L1.25577 13.3L0.315765 14.48L1.92578 13.84L3.09576 14.65L2.88577 13.44L4.17578 12.68Z" fill="white"/>
<path d="M6.91531 8.12998L5.63531 8.04998L5.42532 7.09998L4.79532 7.99998L3.44531 7.91998L4.38531 8.59998L3.57532 9.52998L4.97531 9.01998L5.99533 9.66998L5.80533 8.70998L6.91531 8.12998Z" fill="white"/>
<path d="M32.1659 5.97991C31.6559 4.81991 30.9359 3.81991 29.9959 2.98991C29.0559 2.15991 27.9059 1.49991 26.5459 1.04991C24.3459 0.329907 22.2559 0.369907 22.2559 0.369907C22.2559 2.18991 22.2559 3.97991 22.2559 5.80991C23.2159 5.90991 24.2359 6.15991 25.1459 6.86991C26.0659 7.56991 26.5159 8.59991 26.5159 9.95991V10.0399C26.5159 11.2099 26.0759 12.1999 25.2059 12.9899C24.3259 13.7899 23.0959 14.1799 21.5159 14.1799H17.2559C17.2559 15.9799 17.2559 17.7499 17.2559 19.5399H21.3159C22.9259 19.5399 24.4359 19.3399 25.8459 18.9299C27.2559 18.5299 28.4859 17.9199 29.5359 17.1099C30.5859 16.2999 31.4159 15.2999 32.0159 14.0999C32.6159 12.8999 32.9159 11.5099 32.9159 9.90991V9.82991C32.9159 8.41991 32.6659 7.13991 32.1559 5.97991" fill="white"/>
<path d="M21.6862 0.329956V5.77996H16.7062V27.67H10.8262V5.77996H5.82617V0.329956H21.6862Z" fill="white"/>
</svg>
