<svg width="35" height="35" viewBox="0 0 35 35" fill="none" xmlns="http://www.w3.org/2000/svg">
<g id="Whatsapp" clip-path="url(#clip0_232_16353)">
<path id="Vector" d="M33.5 17.5C33.5 26.6402 26.3094 34 17.5 34C8.69057 34 1.5 26.6402 1.5 17.5C1.5 8.35978 8.69057 1 17.5 1C26.3094 1 33.5 8.35978 33.5 17.5Z" stroke="#F5333F" stroke-width="2"/>
<path id="Vector_2" d="M14.0648 27.58C22.3683 27.58 26.9092 20.4996 26.9092 14.3578C26.9092 14.1556 26.9042 13.9559 26.8966 13.7563C27.7781 13.1004 28.5437 12.2811 29.1482 11.3504C28.3397 11.7211 27.4683 11.97 26.5566 12.0815C27.4885 11.5059 28.2037 10.5959 28.5412 9.51224C27.6698 10.0437 26.7027 10.4326 25.6751 10.64C24.8516 9.73779 23.678 9.17261 22.3809 9.17261C19.8876 9.17261 17.8652 11.2545 17.8652 13.8185C17.8652 14.1841 17.9055 14.5367 17.9836 14.8789C14.231 14.6845 10.904 12.8359 8.68019 10.023C8.29233 10.71 8.06818 11.5085 8.06818 12.3589C8.06818 13.9715 8.86404 15.3948 10.078 16.2271C9.33752 16.2037 8.64241 15.9937 8.03293 15.6463C8.03293 15.6645 8.03293 15.6852 8.03293 15.7059C8.03293 17.9563 9.58937 19.8359 11.6546 20.2611C11.2743 20.3674 10.8763 20.4245 10.4658 20.4245C10.1762 20.4245 9.89159 20.3959 9.61707 20.3415C10.1913 22.1874 11.8586 23.5304 13.8331 23.5693C12.2867 24.8163 10.3424 25.5578 8.22685 25.5578C7.86167 25.5578 7.50404 25.5371 7.14893 25.493C9.14611 26.81 11.5186 27.58 14.0673 27.58" fill="#F5333F"/>
</g>
<defs>
<clipPath id="clip0_232_16353">
<rect width="34" height="35" fill="white" transform="translate(0.5)"/>
</clipPath>
</defs>
</svg>
