<svg width="63" height="20" viewBox="0 0 63 20" fill="none" xmlns="http://www.w3.org/2000/svg">
<g clip-path="url(#clip0_251_5109)">
<path d="M23.9196 0.352638L15.6712 19.6961H10.29L6.23 4.26032C5.98208 3.31135 5.76917 2.96158 5.01958 2.56021C3.7975 1.90654 1.77625 1.29587 0 0.914564L0.119583 0.352638H8.78208C9.88458 0.352638 10.8792 1.07511 11.13 2.32511L13.2737 13.5178L18.5733 0.352638H23.9196ZM45.0042 13.3802C45.0275 8.27695 37.8233 7.99312 37.8729 5.71388C37.8875 5.02007 38.5612 4.28326 40.0312 4.09404C40.7604 3.99943 42.77 3.92775 45.0508 4.95986L45.9462 0.857225C44.7212 0.418578 43.1462 0 41.1833 0C36.1521 0 32.6112 2.62901 32.5821 6.39335C32.5471 9.18005 35.1108 10.7311 37.0387 11.6571C39.0221 12.6061 39.6871 13.2139 39.6783 14.0596C39.6637 15.3584 38.0975 15.9318 36.6304 15.9518C34.0725 15.992 32.585 15.2724 31.4008 14.7305L30.4792 18.9708C31.6662 19.5069 33.8625 19.9742 36.1404 19.9971C41.4896 19.9971 44.9867 17.4025 45.0042 13.3802ZM58.2925 19.6961H63L58.8904 0.352638H54.5446C53.5675 0.352638 52.7421 0.911697 52.3775 1.77179L44.7387 19.6961H50.0821L51.1437 16.8062H57.6742L58.2896 19.6961H58.2925ZM52.6108 12.8412L55.2913 5.57913L56.8342 12.8412H52.6108ZM31.1937 0.352638L26.985 19.6961H21.8925L26.1042 0.352638H31.1937Z" fill="white"/>
</g>
<defs>
<clipPath id="clip0_251_5109">
<rect width="63" height="20" fill="white"/>
</clipPath>
</defs>
</svg>
