<svg width="1280" height="682" viewBox="0 0 1280 682" fill="none" xmlns="http://www.w3.org/2000/svg">
<path d="M508.296 589.053C480.557 510.992 391.4 474.11 316.62 509.664C197.849 566.159 73.9195 442.23 130.336 323.38C165.89 248.6 129.008 159.443 50.9466 131.704C-72.9824 87.6334 -72.9824 -87.6331 50.9466 -131.704C129.008 -159.443 165.89 -248.6 130.336 -323.38C73.8413 -442.151 197.77 -566.08 316.62 -509.664C391.4 -474.11 480.557 -510.992 508.296 -589.053C552.367 -712.982 727.633 -712.982 771.704 -589.053C799.443 -510.992 888.6 -474.11 963.379 -509.664C1082.15 -566.159 1206.08 -442.23 1149.66 -323.38C1114.11 -248.6 1150.99 -159.443 1229.05 -131.704C1352.98 -87.6332 1352.98 87.6332 1229.05 131.704C1150.99 159.443 1114.11 248.6 1149.66 323.38C1206.16 442.151 1082.23 566.08 963.38 509.664C888.6 474.11 799.443 510.992 771.704 589.053C727.633 712.982 552.367 712.982 508.296 589.053Z" fill="#FFEFCF"/>
</svg>
