<svg width="1300" height="650" viewBox="0 0 1300 650" fill="none" xmlns="http://www.w3.org/2000/svg">
<path fill-rule="evenodd" clip-rule="evenodd" d="M1300 650L3.43323e-05 650C7.5545e-05 597.739 29.5286 545.477 88.5856 524.476C162.984 498.038 198.135 413.064 164.25 341.794C110.406 228.595 228.52 110.481 341.794 164.25C413.064 198.135 498.038 162.984 524.476 88.5856C566.479 -29.5285 733.521 -29.5285 775.524 88.5856C801.962 162.984 886.936 198.135 958.206 164.25C1071.41 110.406 1189.52 228.52 1135.75 341.794C1101.86 413.064 1137.02 498.038 1211.41 524.476C1270.47 545.477 1300 597.739 1300 650Z" fill="#FFEFCF"/>
</svg>
