<svg width="1300" height="650" viewBox="0 0 1300 650" fill="none" xmlns="http://www.w3.org/2000/svg">
<path fill-rule="evenodd" clip-rule="evenodd" d="M5.68248e-05 -5.26145e-05L1300 6.10352e-05C1300 52.2614 1270.47 104.523 1211.41 125.524C1137.02 151.962 1101.86 236.936 1135.75 308.206C1189.59 421.405 1071.48 539.519 958.206 485.75C886.936 451.865 801.962 487.016 775.524 561.415C733.521 679.529 566.479 679.529 524.476 561.415C498.038 487.016 413.064 451.865 341.794 485.75C228.595 539.594 110.48 421.48 164.25 308.206C198.136 236.936 162.984 151.962 88.586 125.524C29.5284 104.523 5.2256e-05 52.2614 5.68248e-05 -5.26145e-05Z" fill="white"/>
</svg>
