<svg width="1280" height="679" viewBox="0 0 1280 679" fill="none" xmlns="http://www.w3.org/2000/svg">
<path d="M502.503 581.965C473.543 500.47 380.464 461.966 302.395 499.083C178.399 558.063 49.0187 428.683 107.917 304.605C145.034 226.536 106.53 133.457 25.0351 104.497C-104.345 58.4882 -104.345 -124.488 25.0351 -170.497C106.53 -199.457 145.034 -292.536 107.917 -370.604C48.937 -494.601 178.317 -623.981 302.395 -565.083C380.464 -527.966 473.543 -566.47 502.503 -647.965C548.512 -777.345 731.488 -777.345 777.497 -647.965C806.457 -566.47 899.536 -527.966 977.604 -565.083C1101.6 -624.063 1230.98 -494.683 1172.08 -370.605C1134.97 -292.536 1173.47 -199.457 1254.96 -170.497C1384.35 -124.488 1384.35 58.4881 1254.96 104.497C1173.47 133.457 1134.97 226.536 1172.08 304.604C1231.06 428.601 1101.68 557.981 977.604 499.083C899.536 461.966 806.457 500.47 777.497 581.965C731.488 711.345 548.512 711.345 502.503 581.965Z" fill="white"/>
</svg>
