<svg width="400" height="387" viewBox="0 0 400 387" fill="none" xmlns="http://www.w3.org/2000/svg">
<path d="M105.58 344.647L106.287 366.354L111.801 383.367C111.895 383.657 111.929 383.963 111.9 384.266C111.871 384.569 111.78 384.863 111.633 385.13C111.485 385.397 111.285 385.63 111.044 385.816C110.803 386.002 110.526 386.137 110.231 386.212C109.886 386.3 109.526 386.304 109.18 386.223C108.833 386.143 108.512 385.98 108.241 385.749C104.751 382.757 91.9873 371.694 92.0222 370.106C92.0222 368.256 89.7451 347.247 89.7451 347.247L105.58 344.647Z" fill="#FF7A00"/>
<path d="M110.23 386.185L91.9084 368.614L91.9608 369.486C92.0032 370.282 92.328 371.037 92.8769 371.615C94.3426 373.151 98.4868 377.321 108.154 385.679C108.43 385.92 108.763 386.088 109.121 386.169C109.478 386.25 109.851 386.24 110.204 386.142L110.23 386.185Z" fill="#E0E0E0"/>
<path d="M95.9996 361.366C96.2796 361.547 96.482 361.826 96.5675 362.149C96.653 362.472 96.6154 362.814 96.462 363.111C96.2937 363.405 96.0156 363.621 95.6886 363.711C95.3616 363.801 95.0123 363.758 94.7171 363.591C94.4208 363.4 94.2065 363.105 94.1161 362.765C94.0258 362.424 94.0658 362.062 94.2285 361.75C94.4373 361.472 94.7458 361.285 95.0891 361.23C95.4324 361.175 95.7838 361.255 96.0694 361.453" fill="white"/>
<path d="M104.742 376.99C104.864 377.042 105.292 375.873 106.548 375.192C107.325 374.833 108.163 374.623 109.017 374.573C109.017 374.521 108.756 374.372 108.241 374.329C107.568 374.285 106.898 374.439 106.313 374.774C105.727 375.102 105.248 375.593 104.934 376.187C104.699 376.649 104.69 376.972 104.742 376.99Z" fill="#2D2D2D"/>
<path d="M106.452 379.809C107.051 379.419 107.674 379.069 108.319 378.762C109.011 378.591 109.714 378.462 110.422 378.378C110.077 378.184 109.69 378.077 109.295 378.067C108.9 378.056 108.508 378.142 108.153 378.317C106.897 378.762 106.373 379.756 106.452 379.809Z" fill="#2D2D2D"/>
<path d="M101.655 373.439C102.539 372.775 103.469 372.175 104.438 371.642C105.472 371.253 106.533 370.941 107.613 370.708C106.463 370.55 105.292 370.723 104.237 371.207C103.181 371.69 102.286 372.465 101.655 373.439Z" fill="#2D2D2D"/>
<path d="M100.887 366.844C100.957 366.966 102.126 366.399 103.679 366.259C105.232 366.12 106.497 366.416 106.532 366.259C105.656 365.755 104.63 365.576 103.635 365.753C102.62 365.786 101.648 366.172 100.887 366.844Z" fill="#2D2D2D"/>
<path d="M100.52 360.476C101.447 360.115 102.418 359.883 103.408 359.786C104.401 359.838 105.382 360.029 106.322 360.353C106.322 360.301 106.104 360.048 105.589 359.786C104.907 359.457 104.156 359.295 103.399 359.315C102.641 359.328 101.897 359.519 101.227 359.874C100.729 360.161 100.485 360.432 100.52 360.476Z" fill="#2D2D2D"/>
<path d="M103.303 358.607C103.37 358.32 103.37 358.022 103.303 357.735C103.187 356.988 102.926 356.271 102.535 355.624C102.282 355.13 101.879 354.73 101.383 354.481C101.212 354.412 101.024 354.4 100.845 354.445C100.666 354.491 100.507 354.592 100.389 354.734C100.168 355.019 100.065 355.378 100.101 355.737C100.191 356.463 100.531 357.134 101.063 357.636C101.595 358.138 102.285 358.438 103.015 358.485C103.74 358.522 104.459 358.341 105.081 357.967C105.703 357.592 106.198 357.041 106.505 356.383C106.58 356.217 106.619 356.037 106.619 355.855C106.619 355.673 106.58 355.493 106.505 355.327C106.411 355.168 106.27 355.042 106.1 354.968C105.931 354.895 105.743 354.877 105.563 354.917C105.036 355.062 104.557 355.345 104.175 355.737C103.613 356.232 103.143 356.823 102.788 357.482C102.638 357.714 102.54 357.976 102.5 358.25C103.018 357.403 103.655 356.636 104.393 355.973C104.742 355.648 105.164 355.411 105.624 355.283C105.722 355.261 105.826 355.271 105.919 355.311C106.011 355.352 106.088 355.422 106.138 355.51C106.178 355.622 106.195 355.741 106.188 355.859C106.18 355.978 106.149 356.093 106.095 356.199C105.813 356.758 105.378 357.224 104.84 357.542C104.302 357.861 103.683 358.018 103.059 357.997C102.443 357.951 101.86 357.699 101.406 357.281C100.951 356.863 100.651 356.303 100.555 355.693C100.524 355.444 100.586 355.193 100.729 354.987C100.791 354.907 100.878 354.85 100.975 354.823C101.072 354.796 101.176 354.802 101.27 354.838C101.692 355.045 102.039 355.377 102.265 355.789C102.776 356.659 103.127 357.614 103.303 358.607Z" fill="#2D2D2D"/>
<path d="M147.843 347.841L146.717 364.077C146.717 364.077 162.849 370.673 162.928 373.675L131.371 372.628L132.086 347.256L147.843 347.841Z" fill="#FF7A00"/>
<path d="M137.007 362.386C136.693 362.464 136.42 362.657 136.241 362.927C136.062 363.196 135.99 363.523 136.038 363.843C136.11 364.152 136.296 364.423 136.561 364.6C136.825 364.777 137.147 364.846 137.46 364.794C137.786 364.705 138.067 364.499 138.249 364.216C138.431 363.932 138.501 363.591 138.446 363.258C138.34 362.944 138.117 362.683 137.822 362.53C137.528 362.377 137.185 362.344 136.867 362.438" fill="#E0E0E0"/>
<path d="M131.371 372.645L131.545 370.088L161.741 372.051C161.741 372.051 163.12 372.714 162.928 373.692L131.371 372.645Z" fill="#E0E0E0"/>
<path d="M147.241 363.939C147.241 364.087 146.456 364.131 145.679 364.602C144.903 365.073 144.484 365.71 144.344 365.64C144.205 365.571 144.458 364.698 145.409 364.14C146.36 363.581 147.276 363.843 147.241 363.939Z" fill="#2D2D2D"/>
<path d="M150.503 365.412C150.503 365.56 149.857 365.804 149.308 366.441C148.758 367.078 148.592 367.759 148.435 367.741C148.278 367.724 148.217 366.869 148.906 366.084C149.596 365.298 150.503 365.264 150.503 365.412Z" fill="#2D2D2D"/>
<path d="M152.249 369.435C152.109 369.435 151.917 368.693 152.345 367.856C152.772 367.018 153.496 366.713 153.557 366.844C153.618 366.974 153.165 367.411 152.825 368.1C152.484 368.789 152.406 369.426 152.249 369.435Z" fill="#2D2D2D"/>
<path d="M147.084 360.204C147.014 360.344 146.316 360.109 145.444 360.143C144.571 360.178 143.882 360.423 143.804 360.283C143.725 360.143 144.397 359.62 145.426 359.602C146.456 359.585 147.163 360.091 147.084 360.204Z" fill="#2D2D2D"/>
<path d="M147.248 356.925C146.716 357.06 146.155 357.038 145.634 356.864C145.066 356.748 144.515 356.56 143.994 356.306C143.692 356.155 143.4 355.983 143.122 355.791C142.946 355.691 142.79 355.561 142.659 355.407C142.561 355.295 142.503 355.153 142.495 355.005C142.487 354.856 142.53 354.709 142.616 354.587C142.698 354.483 142.802 354.399 142.922 354.342C143.041 354.284 143.172 354.255 143.305 354.255C143.503 354.261 143.7 354.293 143.889 354.351C144.225 354.448 144.552 354.574 144.866 354.726C145.391 354.983 145.871 355.322 146.289 355.73C146.995 356.437 147.231 357.012 147.161 357.047C147.091 357.082 146.742 356.602 146.018 356.018C145.6 355.666 145.137 355.372 144.64 355.145C144.358 355.02 144.066 354.918 143.767 354.84C143.436 354.735 143.148 354.726 143.06 354.84C142.973 354.953 143.017 354.918 143.06 355.014C143.161 355.125 143.275 355.221 143.401 355.302C143.665 355.482 143.939 355.648 144.221 355.8C144.702 356.061 145.207 356.274 145.73 356.437C146.246 356.567 146.753 356.73 147.248 356.925Z" fill="#2D2D2D"/>
<path d="M147.04 357.141C146.761 356.677 146.633 356.137 146.674 355.597C146.671 354.66 146.915 353.74 147.38 352.927C147.473 352.721 147.617 352.543 147.799 352.41C147.981 352.277 148.195 352.194 148.419 352.168C148.559 352.176 148.694 352.224 148.808 352.305C148.923 352.387 149.011 352.5 149.064 352.63C149.14 352.817 149.187 353.014 149.204 353.215C149.261 353.567 149.261 353.927 149.204 354.279C149.101 354.867 148.852 355.419 148.48 355.885C147.834 356.687 147.188 356.853 147.171 356.757C147.153 356.661 147.668 356.399 148.174 355.632C148.459 355.188 148.647 354.688 148.724 354.166C148.763 353.862 148.763 353.554 148.724 353.25C148.68 352.91 148.567 352.639 148.436 352.665C148.305 352.691 148.008 352.901 147.869 353.171C147.701 353.448 147.561 353.74 147.45 354.044C147.255 354.547 147.135 355.076 147.092 355.614C146.979 356.539 147.127 357.124 147.04 357.141Z" fill="#2D2D2D"/>
<path d="M82.9661 187.622L87.625 362.149L112.525 361.408L118.458 181.671L82.9661 187.622Z" fill="#2D2D2D"/>
<path d="M134.712 181.374C134.712 181.374 153.191 255.359 153.758 267.975C154.325 280.591 149.806 359.479 149.806 359.479H125.429L127.47 269.615L108.992 193.658L113.467 181.767L134.712 181.374Z" fill="#2D2D2D"/>
<path d="M119.67 190.458C119.68 190.539 119.68 190.621 119.67 190.702V191.392C119.67 192.037 119.618 192.918 119.574 194.053C119.47 196.391 119.313 199.724 119.13 203.824C118.702 212.104 118.117 223.489 117.472 236.105C116.826 248.721 116.146 260.054 115.727 268.334C115.483 272.435 115.273 275.759 115.134 278.106C115.055 279.231 114.994 280.121 114.95 280.723C114.95 281.002 114.907 281.238 114.889 281.412C114.899 281.491 114.899 281.57 114.889 281.648C114.88 281.57 114.88 281.491 114.889 281.412C114.889 281.229 114.889 281.002 114.889 280.723C114.889 280.077 114.95 279.188 114.994 278.062C115.099 275.724 115.256 272.391 115.439 268.291C115.866 260.011 116.451 248.625 117.088 236.009C117.725 223.394 118.414 212.06 118.877 203.781C119.121 199.68 119.321 196.356 119.47 194.018C119.548 192.892 119.609 192.002 119.653 191.357C119.653 191.077 119.697 190.851 119.714 190.667C119.688 190.601 119.673 190.53 119.67 190.458Z" fill="#213A51"/>
<path d="M116.931 86.5056C116.931 86.5056 125.979 131.385 126.11 144.027C126.24 156.669 130.681 181.377 130.681 181.377H91.5425L90.6701 113.002L87.8782 92.6128L93.7586 84.2197L116.931 86.5056Z" fill="#E0E0E0"/>
<path d="M117.411 87.8223C117.411 87.8223 126.755 90.5705 129.224 94.0255C131.17 96.7563 133.805 148.371 133.805 148.371L137.783 193.844L133.866 193.478L128.334 176.456L117.411 87.8223Z" fill="#FF7A00"/>
<path d="M129.224 94.0229L155.607 118.234L188.072 107.712L194.545 121.349L159.9 137.053C154.953 139.164 151.847 138.004 148.409 135.247L130.236 120.694L129.224 94.0229Z" fill="#FF7A00"/>
<path d="M182.035 112.06C182.122 112.228 182.139 112.423 182.084 112.604C182.028 112.785 181.904 112.938 181.738 113.028C181.656 113.072 181.565 113.099 181.472 113.108C181.379 113.117 181.285 113.108 181.196 113.08C181.107 113.052 181.024 113.007 180.952 112.948C180.881 112.888 180.821 112.814 180.778 112.732C180.733 112.65 180.704 112.56 180.694 112.467C180.684 112.374 180.692 112.28 180.719 112.191C180.746 112.101 180.791 112.018 180.85 111.946C180.91 111.874 180.983 111.815 181.066 111.772C181.233 111.684 181.428 111.665 181.609 111.719C181.79 111.773 181.942 111.895 182.035 112.06Z" fill="#2D2D2D"/>
<path d="M181.406 113.132C181.334 113.146 181.26 113.146 181.188 113.132C181.095 113.105 181.008 113.059 180.934 112.997C180.859 112.936 180.797 112.86 180.751 112.775C180.664 112.602 180.645 112.402 180.699 112.216C180.759 112.032 180.888 111.879 181.059 111.788C181.23 111.697 181.429 111.675 181.615 111.728C181.802 111.785 181.959 111.913 182.051 112.085C182.142 112.257 182.161 112.458 182.104 112.644C182.077 112.737 182.031 112.824 181.97 112.899C181.908 112.974 181.832 113.035 181.746 113.08C181.639 113.126 181.522 113.144 181.406 113.132ZM181.406 111.71C181.293 111.711 181.183 111.738 181.083 111.789C180.924 111.878 180.805 112.025 180.751 112.199C180.699 112.373 180.718 112.562 180.804 112.722C180.89 112.883 181.038 113.003 181.213 113.055C181.388 113.108 181.576 113.088 181.737 113.002C181.817 112.96 181.887 112.904 181.944 112.835C182.001 112.766 182.043 112.686 182.069 112.6C182.122 112.423 182.103 112.232 182.016 112.068C181.958 111.957 181.87 111.864 181.762 111.8C181.654 111.735 181.531 111.701 181.406 111.702V111.71Z" fill="#2D2D2D"/>
<path d="M184.757 111.411C184.844 111.579 184.861 111.775 184.806 111.956C184.75 112.137 184.626 112.289 184.46 112.38C184.378 112.424 184.287 112.451 184.194 112.46C184.101 112.469 184.008 112.459 183.918 112.431C183.829 112.404 183.746 112.359 183.674 112.299C183.603 112.239 183.544 112.166 183.5 112.083C183.455 112.001 183.426 111.911 183.416 111.819C183.406 111.726 183.414 111.632 183.441 111.542C183.468 111.453 183.513 111.369 183.572 111.297C183.632 111.226 183.705 111.166 183.788 111.123C183.871 111.077 183.961 111.049 184.055 111.038C184.148 111.028 184.243 111.037 184.333 111.063C184.423 111.09 184.507 111.135 184.58 111.195C184.653 111.254 184.713 111.328 184.757 111.411Z" fill="#2D2D2D"/>
<path d="M184.128 112.487C184.056 112.501 183.982 112.501 183.91 112.487C183.817 112.459 183.731 112.413 183.656 112.352C183.581 112.291 183.519 112.215 183.473 112.13C183.383 111.957 183.365 111.756 183.422 111.57C183.479 111.384 183.607 111.227 183.779 111.135C183.951 111.045 184.152 111.027 184.339 111.084C184.525 111.141 184.681 111.269 184.773 111.44C184.864 111.612 184.883 111.813 184.826 111.999C184.769 112.186 184.64 112.342 184.468 112.435C184.36 112.477 184.244 112.495 184.128 112.487ZM184.128 111.056C184.015 111.061 183.905 111.091 183.805 111.144C183.644 111.23 183.524 111.378 183.472 111.553C183.42 111.728 183.439 111.916 183.526 112.077C183.567 112.158 183.625 112.229 183.696 112.286C183.766 112.343 183.848 112.385 183.936 112.409C184.024 112.442 184.119 112.458 184.214 112.453C184.308 112.449 184.401 112.425 184.486 112.383C184.571 112.341 184.647 112.282 184.708 112.209C184.769 112.137 184.815 112.052 184.842 111.962C184.869 111.871 184.877 111.775 184.865 111.681C184.854 111.587 184.823 111.496 184.775 111.414C184.727 111.333 184.662 111.262 184.585 111.206C184.508 111.151 184.421 111.112 184.328 111.091C184.261 111.07 184.19 111.058 184.119 111.056H184.128Z" fill="#2D2D2D"/>
<path d="M187.339 110.89C187.385 110.972 187.414 111.063 187.424 111.156C187.434 111.25 187.426 111.345 187.399 111.435C187.372 111.525 187.327 111.609 187.268 111.682C187.208 111.755 187.134 111.815 187.051 111.859C186.883 111.945 186.687 111.963 186.506 111.908C186.325 111.852 186.173 111.728 186.083 111.562C186.039 111.48 186.011 111.389 186.002 111.296C185.994 111.203 186.003 111.109 186.031 111.02C186.058 110.931 186.103 110.848 186.163 110.776C186.223 110.705 186.296 110.645 186.379 110.602C186.461 110.557 186.551 110.528 186.644 110.518C186.737 110.508 186.831 110.516 186.92 110.543C187.01 110.57 187.093 110.615 187.165 110.674C187.237 110.734 187.296 110.807 187.339 110.89Z" fill="#2D2D2D"/>
<path d="M186.719 111.963C186.647 111.977 186.573 111.977 186.501 111.963C186.324 111.907 186.175 111.785 186.085 111.623C185.994 111.461 185.968 111.271 186.012 111.091C186.039 110.999 186.085 110.913 186.147 110.84C186.208 110.766 186.284 110.706 186.37 110.663C186.455 110.617 186.548 110.589 186.644 110.579C186.74 110.569 186.836 110.578 186.929 110.605C187.021 110.633 187.107 110.678 187.182 110.739C187.257 110.8 187.319 110.875 187.365 110.96C187.454 111.133 187.473 111.334 187.416 111.52C187.358 111.706 187.23 111.862 187.059 111.955C186.948 111.982 186.832 111.985 186.719 111.963ZM186.719 110.541C186.607 110.542 186.496 110.569 186.396 110.62C186.235 110.707 186.116 110.854 186.063 111.029C186.011 111.204 186.03 111.392 186.117 111.553C186.158 111.633 186.214 111.704 186.283 111.761C186.352 111.818 186.432 111.86 186.518 111.885C186.696 111.938 186.887 111.919 187.051 111.832C187.211 111.746 187.331 111.599 187.383 111.423C187.436 111.248 187.416 111.06 187.33 110.899C187.269 110.788 187.179 110.696 187.07 110.633C186.961 110.57 186.836 110.538 186.71 110.541H186.719Z" fill="#2D2D2D"/>
<path d="M188.394 108.395L190.907 107.479L196.674 119.623L194.222 120.67L188.394 108.395Z" fill="#E0E0E0"/>
<path d="M130.07 103.595C130.159 104.04 130.208 104.493 130.219 104.947C130.315 105.907 130.445 107.146 130.603 108.646C130.96 111.848 131.475 116.115 131.981 120.861C132.487 125.607 132.932 129.943 133.124 133.075C133.229 134.646 133.272 135.92 133.281 136.801C133.313 137.255 133.299 137.711 133.237 138.162C133.156 137.715 133.112 137.263 133.107 136.809C133.045 135.937 132.949 134.663 132.801 133.101C132.522 129.978 132.06 125.659 131.527 120.887C130.995 116.115 130.541 111.813 130.28 108.672C130.149 107.102 130.079 105.828 130.044 104.947C130.008 104.497 130.017 104.044 130.07 103.595Z" fill="#2D2D2D"/>
<path d="M135.837 109.651C135.429 111.855 134.875 114.029 134.179 116.16C133.624 118.329 132.928 120.46 132.094 122.538C132.496 120.333 133.047 118.159 133.743 116.029C134.296 113.858 134.996 111.728 135.837 109.651Z" fill="#2D2D2D"/>
<path d="M155.328 126.41C155.044 126.077 154.844 125.683 154.743 125.258C154.094 123.247 154.231 121.065 155.127 119.151C155.285 118.743 155.532 118.376 155.851 118.078C155.323 119.405 154.971 120.795 154.804 122.213C154.795 123.629 154.971 125.04 155.328 126.41Z" fill="#2D2D2D"/>
<path d="M152.309 154.459L155.685 154.721L154.35 168.802L151.087 168.436L152.309 154.459Z" fill="#E0E0E0"/>
<path d="M93.7579 85.1943L75.5496 96.8068C73.4774 98.2759 71.9339 100.374 71.1481 102.789C70.3623 105.205 70.376 107.809 71.1873 110.217L85.1467 154.093L80.1126 193.964L120.019 192.272L119.042 174.823L115.657 143.553C115.03 137.755 113.588 132.075 111.373 126.68L93.7579 85.1943Z" fill="#FF7A00"/>
<path d="M74.7391 112.616L92.9475 150.726C93.6736 152.244 94.7307 153.581 96.0412 154.638C97.3516 155.695 98.8822 156.445 100.52 156.833L151.054 168.803L152.345 154.093L113.773 139.619L94.3696 102.382C93.6698 101.041 92.7027 99.8573 91.528 98.9039C90.3533 97.9506 88.9958 97.2479 87.5392 96.8392C86.0826 96.4305 84.5577 96.3245 83.0585 96.5275C81.5594 96.7306 80.1177 97.2385 78.8223 98.02C76.4132 99.4776 74.65 101.798 73.8915 104.51C73.133 107.222 73.4361 110.12 74.7391 112.616Z" fill="#FF7A00"/>
<path d="M152.343 154.094C152.271 154.087 152.201 154.07 152.134 154.041L151.541 153.841L149.255 153.021L140.792 149.906L112.271 139.244H112.193V139.157L108.834 132.509C105.675 126.349 102.526 120.547 99.5769 115.313C98.1024 112.695 96.6803 110.226 95.3367 107.923L93.3824 104.59C93.0683 104.049 92.7542 103.534 92.4227 103.055C92.1106 102.573 91.7667 102.112 91.3932 101.676C90.0926 100.126 88.425 98.9267 86.5423 98.1862C85.123 97.6084 83.5982 97.3349 82.0665 97.3835C80.7522 97.4019 79.463 97.7467 78.3149 98.3869C78.3783 98.329 78.4487 98.2792 78.5243 98.2386C78.7351 98.0913 78.9602 97.9656 79.1961 97.8634C80.1014 97.4705 81.0717 97.2486 82.0578 97.209C83.6163 97.1287 85.1742 97.3784 86.6295 97.9419C88.5699 98.6873 90.292 99.9084 91.6375 101.493C92.0231 101.934 92.3787 102.4 92.7019 102.889C93.0509 103.386 93.3737 103.901 93.679 104.442L95.6595 107.757C97.0206 110.084 98.4485 112.544 99.9433 115.138C102.91 120.373 106.051 126.157 109.244 132.326C110.404 134.603 111.538 136.845 112.594 138.991L112.472 138.878L140.94 149.679L149.351 152.916L151.611 153.788L152.195 154.024L152.343 154.094Z" fill="#2D2D2D"/>
<path d="M143.759 163.263C143.759 163.453 143.684 163.634 143.549 163.769C143.415 163.903 143.233 163.978 143.044 163.978C142.854 163.978 142.672 163.903 142.538 163.769C142.404 163.634 142.328 163.453 142.328 163.263C142.328 163.073 142.404 162.891 142.538 162.757C142.672 162.623 142.854 162.547 143.044 162.547C143.233 162.547 143.415 162.623 143.549 162.757C143.684 162.891 143.759 163.073 143.759 163.263Z" fill="#2D2D2D"/>
<path d="M143.018 163.997C142.873 163.997 142.731 163.954 142.611 163.873C142.49 163.793 142.396 163.678 142.341 163.545C142.285 163.411 142.271 163.263 142.299 163.121C142.328 162.979 142.397 162.848 142.5 162.746C142.602 162.643 142.733 162.574 142.875 162.545C143.017 162.517 143.165 162.532 143.298 162.587C143.432 162.643 143.547 162.736 143.627 162.857C143.708 162.977 143.751 163.119 143.751 163.264C143.751 163.458 143.674 163.645 143.536 163.782C143.399 163.92 143.212 163.997 143.018 163.997ZM143.018 162.575C142.882 162.575 142.748 162.615 142.635 162.691C142.522 162.767 142.433 162.874 142.381 163C142.329 163.126 142.315 163.265 142.342 163.399C142.369 163.532 142.434 163.655 142.531 163.751C142.627 163.848 142.75 163.914 142.884 163.94C143.017 163.967 143.156 163.953 143.282 163.901C143.408 163.849 143.515 163.76 143.591 163.647C143.667 163.534 143.707 163.4 143.707 163.264C143.707 163.081 143.635 162.906 143.505 162.777C143.376 162.647 143.201 162.575 143.018 162.575Z" fill="#2D2D2D"/>
<path d="M146.507 163.978C146.507 164.12 146.465 164.258 146.386 164.376C146.308 164.493 146.196 164.585 146.065 164.639C145.935 164.693 145.791 164.707 145.652 164.68C145.513 164.652 145.386 164.584 145.286 164.484C145.186 164.384 145.118 164.256 145.09 164.118C145.062 163.979 145.076 163.835 145.131 163.704C145.185 163.574 145.276 163.462 145.394 163.383C145.512 163.305 145.65 163.263 145.792 163.263C145.981 163.263 146.163 163.338 146.297 163.472C146.432 163.606 146.507 163.788 146.507 163.978Z" fill="#2D2D2D"/>
<path d="M145.748 164.712C145.603 164.712 145.462 164.669 145.341 164.589C145.221 164.508 145.127 164.394 145.071 164.26C145.016 164.126 145.001 163.979 145.029 163.836C145.058 163.694 145.128 163.564 145.23 163.461C145.333 163.359 145.463 163.289 145.605 163.261C145.747 163.232 145.895 163.247 146.029 163.302C146.163 163.358 146.277 163.452 146.358 163.572C146.438 163.693 146.481 163.835 146.481 163.979C146.479 164.173 146.401 164.358 146.264 164.495C146.127 164.632 145.942 164.71 145.748 164.712ZM145.748 163.29C145.612 163.29 145.479 163.331 145.365 163.406C145.252 163.482 145.164 163.59 145.111 163.716C145.059 163.842 145.046 163.98 145.072 164.114C145.099 164.248 145.164 164.37 145.261 164.467C145.357 164.563 145.48 164.629 145.614 164.655C145.747 164.682 145.886 164.668 146.012 164.616C146.138 164.564 146.246 164.476 146.321 164.362C146.397 164.249 146.437 164.116 146.437 163.979C146.437 163.797 146.365 163.621 146.236 163.492C146.106 163.363 145.931 163.29 145.748 163.29Z" fill="#2D2D2D"/>
<path d="M148.278 165.453C148.673 165.453 148.993 165.133 148.993 164.737C148.993 164.342 148.673 164.022 148.278 164.022C147.883 164.022 147.562 164.342 147.562 164.737C147.562 165.133 147.883 165.453 148.278 165.453Z" fill="#2D2D2D"/>
<path d="M148.253 165.471C148.108 165.471 147.966 165.428 147.846 165.348C147.725 165.267 147.631 165.153 147.576 165.019C147.52 164.885 147.506 164.737 147.534 164.595C147.562 164.453 147.632 164.323 147.735 164.22C147.837 164.118 147.968 164.048 148.11 164.019C148.252 163.991 148.399 164.006 148.533 164.061C148.667 164.117 148.782 164.211 148.862 164.331C148.943 164.452 148.986 164.593 148.986 164.738C148.983 164.932 148.906 165.117 148.769 165.254C148.632 165.391 148.447 165.469 148.253 165.471ZM148.253 164.049C148.117 164.049 147.983 164.089 147.87 164.165C147.757 164.241 147.668 164.349 147.616 164.474C147.564 164.6 147.55 164.739 147.577 164.873C147.603 165.006 147.669 165.129 147.766 165.226C147.862 165.322 147.985 165.388 148.118 165.414C148.252 165.441 148.391 165.427 148.517 165.375C148.643 165.323 148.75 165.235 148.826 165.121C148.902 165.008 148.942 164.875 148.942 164.738C148.942 164.555 148.87 164.38 148.74 164.251C148.611 164.122 148.436 164.049 148.253 164.049Z" fill="#2D2D2D"/>
<path d="M151.053 168.804C150.972 168.817 150.889 168.817 150.808 168.804L150.102 168.647L147.38 167.993L137.381 165.533C128.944 163.465 117.315 160.533 104.385 157.541C102.771 157.157 101.174 156.852 99.5948 156.424C98.0095 156.045 96.5322 155.308 95.2761 154.269C94.1743 153.162 93.2869 151.86 92.6587 150.43L90.7568 146.452L84.1871 132.641L79.8248 123.323C79.3362 122.241 78.9523 121.395 78.6644 120.784L78.3678 120.112C78.3313 120.04 78.3021 119.964 78.2805 119.885C78.2805 119.885 78.3329 119.955 78.4114 120.095C78.4899 120.234 78.6033 120.479 78.7429 120.74L79.9905 123.253C81.0637 125.469 82.6079 128.619 84.4925 132.501C86.377 136.384 88.6192 141.086 91.1145 146.26C91.7339 147.551 92.3795 148.877 93.0251 150.23C93.6474 151.607 94.5134 152.86 95.5815 153.929C96.7872 154.921 98.2052 155.623 99.7257 155.979C101.27 156.398 102.884 156.703 104.498 157.087C117.419 160.088 129.049 163.063 137.468 165.21C141.648 166.309 145.041 167.19 147.432 167.827L150.128 168.569L150.826 168.769L151.053 168.804Z" fill="#2D2D2D"/>
<path d="M110.239 166.423C110.239 166.423 110.047 166.624 109.637 166.929C109.227 167.234 108.643 167.653 107.892 168.159C105.943 169.505 103.833 170.601 101.611 171.422C99.3613 172.236 96.9451 172.479 94.5787 172.129C93.8659 172.008 93.1693 171.806 92.5022 171.527C92.2509 171.446 92.017 171.319 91.813 171.152C92.7347 171.429 93.673 171.647 94.6223 171.806C96.9344 172.06 99.274 171.783 101.462 170.995C103.648 170.176 105.745 169.135 107.718 167.889C108.524 167.342 109.366 166.853 110.239 166.423Z" fill="#2D2D2D"/>
<path d="M112.481 171.481C112.536 171.583 112.577 171.692 112.603 171.804C112.702 172.125 112.781 172.451 112.839 172.781C113.049 174.008 113.049 175.262 112.839 176.489C112.499 178.312 111.72 180.025 110.57 181.48C109.12 183.252 107.162 184.536 104.959 185.16C102.756 185.784 100.415 185.718 98.2512 184.97C96.5111 184.323 94.9563 183.26 93.7231 181.872C92.8973 180.941 92.2363 179.876 91.7688 178.723C91.6496 178.409 91.5476 178.088 91.4634 177.763C91.4111 177.545 91.3849 177.423 91.4024 177.423C91.9817 178.981 92.8489 180.417 93.9587 181.654C95.1828 182.965 96.7024 183.964 98.3908 184.568C100.469 185.273 102.712 185.335 104.825 184.745C106.939 184.155 108.826 182.941 110.239 181.262C111.369 179.869 112.149 178.227 112.516 176.472C112.82 174.821 112.808 173.128 112.481 171.481Z" fill="#2D2D2D"/>
<path d="M95.7212 50.4635L95.8346 82.9715C95.8422 84.2796 96.1152 85.5726 96.6371 86.7721C97.159 87.9716 97.9189 89.0527 98.8707 89.9499C99.8226 90.8472 100.947 91.5419 102.175 91.992C103.403 92.4421 104.71 92.6383 106.016 92.5686C108.488 92.4348 110.815 91.3593 112.519 89.563C114.223 87.7668 115.174 85.3862 115.177 82.9105C115.177 80.4588 115.177 78.4173 115.177 78.1643C115.177 78.1643 123.448 77.3616 124.015 69.1692C124.294 65.2082 124.19 57.007 124.015 49.5823C123.929 45.7373 122.397 42.066 119.724 39.3008C117.051 36.5355 113.433 34.8796 109.593 34.6632H108.799C100.267 34.6283 95.4682 41.9047 95.7212 50.4635Z" fill="#B78876"/>
<path d="M115.195 78.0312C111.406 77.885 107.747 76.6156 104.681 74.3843C104.681 74.3843 106.871 80.4304 115.09 80.1513L115.195 78.0312Z" fill="#AA6550"/>
<path d="M121.991 54.3885C121.975 54.6947 121.841 54.9827 121.616 55.1913C121.391 55.3998 121.094 55.5125 120.787 55.5052C120.638 55.5087 120.489 55.4822 120.35 55.4271C120.211 55.372 120.084 55.2895 119.977 55.1845C119.871 55.0795 119.786 54.9542 119.729 54.8159C119.672 54.6777 119.643 54.5294 119.644 54.3798C119.66 54.075 119.794 53.7883 120.016 53.58C120.239 53.3717 120.535 53.2581 120.84 53.263C120.99 53.2595 121.139 53.286 121.278 53.341C121.418 53.396 121.545 53.4784 121.652 53.5833C121.76 53.6881 121.845 53.8134 121.903 53.9516C121.961 54.0899 121.991 54.2385 121.991 54.3885Z" fill="#2D2D2D"/>
<path d="M122.218 53.0021C122.07 53.1504 121.215 52.4437 119.958 52.3739C118.702 52.3041 117.734 52.88 117.611 52.7229C117.489 52.5659 117.707 52.3827 118.126 52.1122C118.694 51.7657 119.355 51.6014 120.019 51.6411C120.675 51.6754 121.302 51.9201 121.808 52.339C122.183 52.6531 122.297 52.941 122.218 53.0021Z" fill="#2D2D2D"/>
<path d="M109.742 54.2918C109.728 54.5973 109.595 54.8853 109.372 55.094C109.148 55.3028 108.852 55.4157 108.546 55.4086C108.397 55.4121 108.248 55.3855 108.109 55.3304C107.97 55.2753 107.843 55.1928 107.737 55.0878C107.63 54.9828 107.545 54.8575 107.488 54.7193C107.431 54.581 107.402 54.4327 107.403 54.2831C107.417 53.9776 107.55 53.6896 107.773 53.4808C107.997 53.2721 108.293 53.1592 108.599 53.1663C108.748 53.1628 108.897 53.1894 109.036 53.2445C109.175 53.2996 109.302 53.3821 109.408 53.4871C109.515 53.592 109.599 53.7174 109.657 53.8556C109.714 53.9939 109.743 54.1422 109.742 54.2918Z" fill="#2D2D2D"/>
<path d="M109.681 52.7217C109.524 52.8613 108.677 52.1546 107.412 52.0848C106.147 52.015 105.196 52.5995 105.065 52.4338C104.934 52.268 105.17 52.0935 105.589 51.8231C106.153 51.475 106.812 51.3132 107.473 51.3606C108.13 51.3943 108.76 51.6356 109.271 52.0499C109.637 52.3727 109.75 52.6519 109.681 52.7217Z" fill="#2D2D2D"/>
<path d="M113.668 62.6244C114.344 62.4543 115.039 62.3693 115.736 62.3714C116.059 62.3714 116.373 62.3103 116.434 62.0922C116.479 61.7638 116.425 61.4293 116.277 61.1325C116.015 60.3298 115.745 59.501 115.465 58.6198C114.34 55.0601 113.546 52.1374 113.721 52.0938C113.895 52.0501 114.89 54.9031 116.015 58.4627C116.277 59.3352 116.539 60.2077 116.783 60.9842C116.966 61.3837 117 61.8355 116.879 62.258C116.825 62.3682 116.747 62.4647 116.65 62.5402C116.553 62.6158 116.441 62.6684 116.32 62.6942C116.138 62.7182 115.953 62.7182 115.771 62.6942C115.07 62.7616 114.363 62.7381 113.668 62.6244Z" fill="#2D2D2D"/>
<path d="M110.186 50.1037C110.038 50.444 108.79 50.2084 107.307 50.3044C105.824 50.4003 104.594 50.7319 104.419 50.4091C104.341 50.2608 104.568 49.9467 105.065 49.6413C105.729 49.2633 106.474 49.0508 107.237 49.0219C108 48.9748 108.762 49.1094 109.462 49.4145C109.994 49.6588 110.247 49.9467 110.186 50.1037Z" fill="#2D2D2D"/>
<path d="M122.078 50.0004C121.842 50.2708 120.987 49.9218 119.949 49.852C118.911 49.7822 118.012 49.9306 117.82 49.6252C117.742 49.4769 117.899 49.1977 118.3 48.9447C118.838 48.6518 119.451 48.5246 120.061 48.5789C120.671 48.6332 121.251 48.8667 121.729 49.25C122.078 49.5641 122.218 49.8608 122.078 50.0004Z" fill="#2D2D2D"/>
<path d="M96.0439 56.5694C95.9043 56.4996 90.5037 54.5802 90.3641 60.1988C90.2245 65.8175 95.8868 64.7967 95.9043 64.6397C95.9217 64.4826 96.0439 56.5694 96.0439 56.5694Z" fill="#B78876"/>
<path d="M94.2382 62.4673C94.2382 62.4673 94.1423 62.5283 93.9765 62.6069C93.7418 62.7038 93.4783 62.7038 93.2436 62.6069C92.8869 62.368 92.6003 62.0383 92.4132 61.6519C92.2261 61.2655 92.1454 60.8362 92.1792 60.4082C92.176 59.926 92.2804 59.4492 92.4846 59.0123C92.5436 58.8385 92.6432 58.6813 92.7752 58.5538C92.9073 58.4263 93.0679 58.3323 93.2436 58.2794C93.357 58.2518 93.4764 58.2657 93.5804 58.3185C93.6844 58.3713 93.7661 58.4596 93.8107 58.5673C93.8805 58.7244 93.8107 58.8378 93.8718 58.8465C93.9329 58.8553 93.9939 58.7506 93.959 58.5237C93.9269 58.384 93.8504 58.2585 93.7409 58.166C93.6669 58.1061 93.5818 58.0614 93.4905 58.0345C93.3991 58.0075 93.3034 57.9989 93.2087 58.009C92.9736 58.0512 92.7534 58.1538 92.5699 58.3068C92.3863 58.4597 92.2457 58.6577 92.1618 58.8814C91.9113 59.3605 91.7825 59.8938 91.7866 60.4344C91.7455 60.9341 91.8537 61.4347 92.0976 61.8728C92.3415 62.3108 92.71 62.6665 93.1564 62.8948C93.3022 62.9373 93.4553 62.9484 93.6057 62.9273C93.7561 62.9063 93.9003 62.8536 94.0288 62.7726C94.2295 62.5981 94.2644 62.476 94.2382 62.4673Z" fill="#AA6550"/>
<path d="M92.9373 56.203C93.4716 56.1987 93.997 56.3392 94.4579 56.6095C94.9187 56.8799 95.2978 57.2701 95.5547 57.7386C95.8687 58.5587 95.9036 59.4835 96.2177 60.2949C96.3393 60.7183 96.598 61.0894 96.9533 61.35C97.3086 61.6105 97.7403 61.7458 98.1808 61.7344C98.4766 61.6591 98.7476 61.5075 98.9665 61.2947C99.1854 61.0819 99.3447 60.8153 99.4284 60.5217C99.5795 59.9322 99.618 59.3195 99.5418 58.7157C99.3673 56.0983 98.9573 53.4809 99.0096 50.8025C98.9614 48.1404 99.7021 45.5237 101.138 43.2818C101.865 42.1718 102.877 41.2781 104.068 40.6946C105.26 40.1112 106.586 39.8597 107.909 39.9665C109.654 40.2108 111.189 41.2054 112.899 41.5456C113.922 41.7403 114.976 41.7001 115.981 41.4281C116.986 41.156 117.916 40.6592 118.701 39.9752C118.788 39.9003 118.882 39.8332 118.98 39.7745C119.266 39.5963 119.484 39.3278 119.599 39.0116C119.714 38.6955 119.721 38.3498 119.617 38.0296C119.56 37.8243 119.458 37.6339 119.321 37.4712C116.066 34.1035 109.924 32.8646 105.361 33.7458C103.023 34.1831 100.807 35.1235 98.8686 36.502C96.9297 37.8804 95.3137 39.6639 94.1325 41.7288C91.9426 45.8731 92.1782 51.8145 93.0158 56.1768" fill="#2D2D2D"/>
<path d="M110.737 63.6105C110.946 63.6105 110.946 64.9628 112.116 65.9313C113.285 66.8997 114.733 66.7514 114.733 66.9433C114.733 67.1353 114.41 67.2138 113.791 67.2225C112.991 67.2394 112.211 66.9703 111.592 66.4635C110.999 65.977 110.618 65.2796 110.528 64.5179C110.449 63.9421 110.606 63.6018 110.737 63.6105Z" fill="#2D2D2D"/>
<path d="M189.093 109.781C189.093 109.781 195.243 104.38 196.404 103.979C197.564 103.577 206.83 103.412 207.449 103.874C208.069 104.336 217.448 109.475 215.895 110.269C214.342 111.063 207.842 107.338 207.842 107.338L206.751 107.486C206.751 107.486 212.422 110.513 213.426 111.674C214.429 112.834 213.469 114.038 212.413 113.541C211.358 113.044 206.489 110.243 206.106 110.348C205.722 110.452 211.288 113.707 211.803 114.317C212.492 115.12 212.047 116.691 210.974 116.237C210.346 115.975 205.216 112.573 205.216 112.573C206.668 113.761 208.055 115.028 209.369 116.368C209.822 117.24 208.95 118.034 208.051 117.484C207.44 117.109 204.797 114.509 203.977 113.995C203.977 113.995 203.104 113.925 201.735 115.356C200.365 116.787 195.121 118.732 195.121 118.732L189.093 109.781Z" fill="#B78876"/>
<path d="M215.868 110.288C215.204 110.382 214.527 110.341 213.879 110.165C213.166 110.022 212.468 109.812 211.794 109.537C211.07 109.188 210.276 108.787 209.438 108.359L207.694 107.487H207.816C206.227 107.57 204.634 107.526 203.052 107.356C204.624 107.106 206.215 106.992 207.807 107.016H207.859H207.92L209.665 107.888L211.942 109.084C212.584 109.367 213.246 109.6 213.923 109.782C215.118 110.131 215.877 110.209 215.868 110.288Z" fill="#AA6550"/>
<path d="M191.378 111.343C191.631 111.701 191.991 111.971 192.406 112.114C192.821 112.256 193.27 112.264 193.69 112.136C194.563 111.953 195.322 111.491 196.159 111.264C198.681 110.54 201.481 111.883 203.959 111.037C204.308 110.915 204.692 110.662 204.657 110.304C204.622 109.947 204.238 109.798 203.915 109.694L195.645 107.076" fill="#B78876"/>
<path d="M195.645 107.043C195.961 107.062 196.272 107.126 196.57 107.235C197.154 107.392 197.992 107.636 199.03 107.942L202.659 109.041L203.706 109.364C204.038 109.495 204.518 109.521 204.832 110.036C204.893 110.167 204.913 110.314 204.89 110.457C204.866 110.6 204.801 110.733 204.701 110.838C204.538 111.015 204.334 111.149 204.108 111.231C203.701 111.372 203.28 111.466 202.851 111.51C201.292 111.534 199.732 111.45 198.184 111.257C197.53 111.222 196.874 111.284 196.238 111.44C195.654 111.597 195.113 111.859 194.598 112.042C194.189 112.236 193.742 112.337 193.289 112.337C192.837 112.337 192.39 112.236 191.981 112.042C191.422 111.719 191.335 111.318 191.352 111.327C191.557 111.55 191.799 111.736 192.068 111.876C192.462 112.02 192.881 112.078 193.299 112.048C193.717 112.018 194.124 111.9 194.493 111.702C195.034 111.45 195.587 111.226 196.151 111.03C196.826 110.84 197.527 110.758 198.227 110.786C199.754 110.949 201.29 111.022 202.825 111.004C203.208 110.958 203.585 110.873 203.951 110.751C204.291 110.629 204.527 110.384 204.422 110.227C204.317 110.07 203.951 109.905 203.549 109.8L202.502 109.46L198.908 108.256C197.887 107.907 197.058 107.619 196.491 107.383C196.195 107.309 195.91 107.195 195.645 107.043Z" fill="#AA6550"/>
<path d="M154.168 154.801L164.367 153.789C164.367 153.789 177.855 163.028 176.581 165.061C175.307 167.094 173.091 165.061 173.091 165.061C173.091 165.061 175.491 168.018 171.608 168.943C171.608 168.943 170.683 170.976 169.209 170.793H168.284C168.284 170.793 167.412 173.367 166.199 172.808C164.986 172.25 161.191 168.935 161.191 168.935L150.721 168.01L154.168 154.801Z" fill="#B78876"/>
<path d="M160.51 165.313C160.51 165.313 157.893 166.317 157.361 167.372C156.829 168.428 156.488 170.862 158.181 171.342C159.173 171.406 160.17 171.374 161.156 171.246L160.51 168.498C160.997 167.933 161.515 167.397 162.063 166.892C162.622 166.43 162.011 164.624 160.51 165.313Z" fill="#FFBE9D"/>
<path d="M163.451 166.708C163.451 166.708 160.833 167.712 160.301 168.759C160.147 169.067 160.064 169.406 160.059 169.751C160.053 170.095 160.125 170.437 160.269 170.75C160.413 171.063 160.626 171.34 160.891 171.56C161.156 171.78 161.467 171.938 161.802 172.022C162.701 172.093 163.605 172.064 164.498 171.934L164.219 171.402C163.695 170.373 163.468 169.535 164.393 168.846C164.445 168.846 164.969 168.322 165.004 168.288C165.135 168.07 165.19 167.815 165.161 167.563C165.131 167.311 165.019 167.076 164.841 166.895C164.663 166.714 164.429 166.597 164.178 166.563C163.926 166.53 163.67 166.581 163.451 166.708Z" fill="#FFBE9D"/>
<path d="M164.078 171.841C163.858 171.602 163.718 171.299 163.681 170.976C163.643 170.653 163.709 170.327 163.869 170.043C164.213 169.483 164.765 169.081 165.404 168.927C165.602 168.844 165.818 168.817 166.03 168.851C166.241 168.885 166.438 168.978 166.6 169.119C166.678 169.232 166.734 169.359 166.762 169.494C166.791 169.629 166.792 169.768 166.765 169.904C166.588 170.625 166.221 171.284 165.701 171.814C165.457 172.12 165.16 172.451 164.768 172.443C164.375 172.434 164.087 172.068 163.895 171.736" fill="#FFBE9D"/>
<path d="M108.956 89.601L111.251 88.7373L113.232 92.2882L112.123 96.0835L109.785 96.6593L107.456 93.7191L108.956 89.601Z" fill="#FF7A00"/>
<path d="M109.786 96.6588C109.786 96.6588 112.761 112.983 115.23 124.464C115.23 124.464 117.263 134.061 118.083 136.225C118.999 138.694 121.826 142.332 121.826 142.332L124.696 143.449L122.951 127.317L112.133 96.083L109.786 96.6588Z" fill="#FF7A00"/>
<g opacity="0.4">
<path d="M108.956 89.601L111.251 88.7373L113.232 92.2882L112.123 96.0835L109.785 96.6593L107.456 93.7191L108.956 89.601Z" fill="#2D2D2D"/>
</g>
<g opacity="0.4">
<path d="M109.786 96.6588C109.786 96.6588 112.761 112.983 115.23 124.464C115.23 124.464 117.56 133.939 118.083 136.225C118.388 137.577 121.826 142.332 121.826 142.332L124.696 143.449L122.951 127.317L112.133 96.083L109.786 96.6588Z" fill="#2D2D2D"/>
</g>
<path d="M95.1886 79.6816L108.956 89.6015L105.981 97.7853L93.4524 84.8902L95.1886 79.6816Z" fill="#E0E0E0"/>
<path d="M111.251 88.7379L115.09 80.1528L117.271 87.2372L114.243 94.6706L111.251 88.7379Z" fill="#E0E0E0"/>
<path d="M108.992 89.6028C108.966 89.8179 108.913 90.0289 108.835 90.231L108.277 91.9759C107.788 93.4329 107.073 95.4658 106.209 97.8912L106.095 98.2228L105.851 97.961L102.649 94.4188C100.154 91.6531 97.9117 89.1317 96.3151 87.2908L94.4305 85.0922C94.1842 84.8258 93.9677 84.5332 93.7849 84.2197C94.068 84.4369 94.3282 84.6825 94.5614 84.9526L96.5506 87.0465C98.217 88.7914 100.494 91.3216 102.981 94.0873C104.106 95.3436 105.179 96.5476 106.174 97.6469L105.816 97.7167C106.689 95.3262 107.474 93.2933 108.032 91.8538L108.704 90.1874C108.772 89.9798 108.869 89.7829 108.992 89.6028Z" fill="#2D2D2D"/>
<path d="M117.271 87.271C117.124 87.9601 116.908 88.6325 116.625 89.2777C116.18 90.4904 115.526 92.1655 114.775 93.9977L114.452 94.7916L114.226 95.3413L114.034 94.7829C113.275 92.8316 112.355 90.9465 111.285 89.1468C111.744 89.5582 112.133 90.0414 112.437 90.5776C113.272 91.8441 113.951 93.2062 114.461 94.6346H114.034C114.138 94.3729 114.252 94.1111 114.356 93.8406C115.107 91.9997 115.805 90.3508 116.328 89.1642C116.568 88.4987 116.884 87.8633 117.271 87.271Z" fill="#2D2D2D"/>
<path d="M292.209 345.582L297.514 366.643L306.517 382.095C306.671 382.358 306.769 382.65 306.805 382.953C306.841 383.256 306.815 383.563 306.727 383.855C306.64 384.147 306.493 384.418 306.296 384.651C306.1 384.884 305.857 385.074 305.584 385.209C305.27 385.373 304.921 385.458 304.568 385.458C304.214 385.458 303.865 385.373 303.551 385.209C299.503 383.028 284.671 374.923 284.357 373.361C284.008 371.555 277.281 351.55 277.281 351.55L292.209 345.582Z" fill="#FF7A00"/>
<g opacity="0.6">
<path d="M305.619 385.208L284.017 371.92L284.261 372.793C284.471 373.561 284.947 374.229 285.604 374.677C287.349 375.873 292.305 379.04 303.516 385.147C303.84 385.319 304.201 385.409 304.568 385.409C304.934 385.409 305.295 385.319 305.619 385.147V385.208Z" fill="white"/>
</g>
<g opacity="0.6">
<path d="M286.442 363.982C286.753 364.099 287.01 364.327 287.163 364.621C287.316 364.916 287.355 365.257 287.271 365.579C287.165 365.894 286.942 366.155 286.648 366.31C286.353 366.464 286.011 366.499 285.692 366.408C285.362 366.285 285.089 366.043 284.928 365.73C284.766 365.417 284.728 365.055 284.819 364.715C284.963 364.395 285.226 364.145 285.552 364.018C285.879 363.89 286.242 363.896 286.564 364.035" fill="white"/>
</g>
<path d="M298.316 377.384C298.636 376.591 299.104 375.865 299.695 375.247C300.381 374.735 301.156 374.353 301.981 374.121C301.981 374.069 301.675 373.982 301.169 374.043C300.506 374.153 299.888 374.449 299.385 374.895C298.882 375.34 298.514 375.919 298.325 376.564C298.194 377.07 298.247 377.384 298.316 377.384Z" fill="#2D2D2D"/>
<path d="M300.568 379.774C300.698 379.844 301.178 378.972 302.173 378.361C302.815 378.05 303.473 377.773 304.145 377.532C303.767 377.421 303.367 377.401 302.98 377.476C302.593 377.55 302.23 377.716 301.92 377.959C300.794 378.675 300.445 379.748 300.568 379.774Z" fill="#2D2D2D"/>
<path d="M294.539 374.557C295.862 372.765 297.682 371.4 299.774 370.631C298.618 370.722 297.513 371.139 296.586 371.834C295.659 372.529 294.949 373.474 294.539 374.557Z" fill="#2D2D2D"/>
<path d="M292.384 368.293C292.48 368.398 293.501 367.595 295.001 367.132C296.502 366.67 297.784 366.687 297.793 366.548C296.83 366.239 295.787 366.282 294.853 366.67C293.866 366.907 292.993 367.481 292.384 368.293Z" fill="#2D2D2D"/>
<path d="M290.673 362.15C291.501 361.598 292.403 361.166 293.352 360.868C294.332 360.706 295.33 360.68 296.318 360.789C296.318 360.737 296.039 360.545 295.446 360.396C294.709 360.22 293.94 360.22 293.203 360.396C292.466 360.57 291.781 360.917 291.205 361.409C290.804 361.792 290.63 362.098 290.673 362.15Z" fill="#2D2D2D"/>
<path d="M292.986 359.707C292.985 359.429 292.923 359.154 292.802 358.904C292.53 358.197 292.121 357.55 291.598 357.002C291.248 356.57 290.768 356.264 290.229 356.129C290.047 356.1 289.86 356.129 289.695 356.212C289.531 356.295 289.397 356.428 289.313 356.592C289.16 356.914 289.135 357.282 289.243 357.621C289.483 358.313 289.957 358.899 290.583 359.278C291.209 359.657 291.948 359.805 292.672 359.698C293.385 359.574 294.045 359.243 294.57 358.744C295.095 358.246 295.46 357.603 295.621 356.897C295.658 356.719 295.657 356.536 295.618 356.358C295.579 356.181 295.502 356.013 295.394 355.868C295.269 355.733 295.105 355.641 294.924 355.605C294.744 355.569 294.557 355.591 294.39 355.667C293.905 355.922 293.495 356.302 293.204 356.766C292.76 357.377 292.429 358.063 292.227 358.79C292.129 359.049 292.088 359.326 292.104 359.602C292.43 358.667 292.891 357.785 293.474 356.984C293.745 356.592 294.107 356.272 294.53 356.051C294.622 356.008 294.724 355.996 294.823 356.017C294.922 356.037 295.012 356.089 295.08 356.164C295.142 356.265 295.184 356.377 295.202 356.494C295.22 356.611 295.214 356.73 295.184 356.845C295.026 357.455 294.695 358.006 294.23 358.432C293.766 358.857 293.188 359.14 292.567 359.244C291.951 359.331 291.325 359.206 290.79 358.889C290.255 358.571 289.845 358.081 289.627 357.499C289.543 357.265 289.543 357.009 289.627 356.775C289.672 356.683 289.746 356.608 289.837 356.561C289.928 356.514 290.031 356.497 290.133 356.513C290.586 356.628 290.993 356.878 291.302 357.229C292.007 357.947 292.577 358.786 292.986 359.707Z" fill="#2D2D2D"/>
<path d="M226.451 349.509L227.577 365.746C227.577 365.746 211.454 372.341 211.366 375.343L242.923 374.313L242.217 348.942L226.451 349.509Z" fill="#FF7A00"/>
<path d="M237.287 364.052C237.596 364.135 237.863 364.328 238.037 364.596C238.211 364.863 238.279 365.186 238.23 365.501C238.16 365.812 237.974 366.085 237.71 366.264C237.445 366.442 237.122 366.513 236.808 366.46C236.482 366.372 236.201 366.166 236.019 365.882C235.837 365.599 235.767 365.257 235.822 364.925C235.93 364.61 236.155 364.349 236.451 364.196C236.747 364.043 237.09 364.01 237.41 364.105" fill="#E0E0E0"/>
<path d="M242.923 374.313L242.758 371.757L212.562 373.72C212.562 373.72 211.174 374.383 211.366 375.369L242.923 374.313Z" fill="#E0E0E0"/>
<path d="M227.062 365.587C227.062 365.735 227.847 365.787 228.615 366.25C229.383 366.712 229.819 367.358 229.959 367.297C230.098 367.236 229.836 366.346 228.894 365.787C227.952 365.229 227.027 365.465 227.062 365.587Z" fill="#2D2D2D"/>
<path d="M223.799 367.078C223.799 367.236 224.444 367.471 224.985 368.108C225.526 368.745 225.709 369.425 225.858 369.417C226.006 369.408 226.084 368.544 225.386 367.75C224.689 366.956 223.799 366.939 223.799 367.078Z" fill="#2D2D2D"/>
<path d="M222.045 371.11C222.194 371.11 222.377 370.359 221.958 369.53C221.539 368.702 220.798 368.388 220.737 368.518C220.676 368.649 221.138 369.086 221.478 369.766C221.819 370.447 221.897 371.092 222.045 371.11Z" fill="#2D2D2D"/>
<path d="M227.219 361.88C227.289 362.011 227.987 361.776 228.859 361.81C229.732 361.845 230.421 362.09 230.491 361.959C230.561 361.828 229.898 361.296 228.868 361.27C227.839 361.243 227.132 361.758 227.219 361.88Z" fill="#2D2D2D"/>
<path d="M227.052 358.608C227.575 358.725 228.119 358.704 228.632 358.547C229.196 358.425 229.744 358.234 230.263 357.98C230.567 357.831 230.858 357.659 231.136 357.465C231.314 357.366 231.473 357.236 231.607 357.081C231.704 356.969 231.761 356.827 231.768 356.679C231.776 356.53 231.735 356.384 231.65 356.261C231.568 356.157 231.463 356.073 231.344 356.016C231.225 355.958 231.094 355.929 230.961 355.93C230.759 355.934 230.559 355.969 230.368 356.034C230.034 356.125 229.71 356.247 229.399 356.401C228.875 356.658 228.395 356.996 227.977 357.404C227.262 358.111 227.035 358.695 227.105 358.722C227.175 358.748 227.515 358.277 228.239 357.692C228.662 357.343 229.128 357.05 229.626 356.82C229.908 356.693 230.2 356.591 230.499 356.514C230.83 356.418 231.109 356.401 231.205 356.514C231.301 356.628 231.205 356.593 231.205 356.689C231.104 356.801 230.986 356.898 230.856 356.977C230.593 357.161 230.319 357.33 230.036 357.483C229.555 357.737 229.053 357.95 228.536 358.12C228.029 358.241 227.533 358.405 227.052 358.608Z" fill="#2D2D2D"/>
<path d="M227.254 358.807C227.315 358.807 227.603 358.266 227.62 357.272C227.629 356.679 227.538 356.089 227.35 355.527C227.239 355.198 227.092 354.882 226.913 354.585C226.821 354.379 226.679 354.201 226.498 354.067C226.318 353.932 226.107 353.846 225.884 353.817C225.743 353.825 225.608 353.873 225.494 353.954C225.38 354.036 225.291 354.149 225.238 354.279C225.16 354.466 225.11 354.663 225.09 354.864C225.037 355.217 225.037 355.575 225.09 355.928C225.198 356.518 225.449 357.073 225.823 357.542C226.468 358.336 227.114 358.502 227.123 358.415C227.131 358.328 226.625 358.057 226.128 357.281C225.839 356.838 225.652 356.338 225.578 355.815C225.535 355.511 225.535 355.203 225.578 354.899C225.578 354.567 225.735 354.288 225.858 354.323C225.98 354.358 226.294 354.558 226.433 354.82C226.595 355.1 226.735 355.391 226.852 355.693C227.047 356.196 227.167 356.725 227.21 357.263C227.315 358.205 227.175 358.79 227.254 358.807Z" fill="#2D2D2D"/>
<path d="M217.84 172.895L222.918 361.836L247.818 361.085L245.899 198.929L277.621 365.596L300.105 359.724L271.078 173.261L217.84 172.895Z" fill="#2D2D2D"/>
<path d="M231.486 362.097C231.355 362.097 231.259 322.932 231.259 274.624C231.259 226.316 231.355 187.151 231.486 187.151C231.617 187.151 231.713 226.307 231.713 274.624C231.713 322.941 231.608 362.097 231.486 362.097Z" fill="#213A51"/>
<path d="M284.723 365.535C284.601 365.535 278.791 328.019 271.741 281.682C264.692 235.346 259.055 197.76 259.204 197.743C259.352 197.725 265.137 235.259 272.186 281.613C279.236 327.967 284.854 365.517 284.723 365.535Z" fill="#213A51"/>
<path d="M253.514 54.7459C254.382 52.8044 255.085 50.7936 255.617 48.7346C255.914 47.1642 256.385 44.8172 255.757 43.3515C255.128 41.8858 253.602 40.4724 251.682 40.8737C251.483 39.3319 250.894 37.8665 249.97 36.6161C249.047 35.3657 247.819 34.3717 246.404 33.7282C243.673 32.407 240.708 31.6362 237.679 31.4598C236.572 31.3477 235.453 31.4879 234.407 31.8699C233.52 32.3203 232.821 33.0717 232.436 33.99C231.52 33.3318 230.464 32.8967 229.35 32.7195C228.237 32.5423 227.098 32.6278 226.023 32.9692C223.615 33.6148 220.876 34.9148 219.82 37.1657C219.064 38.8503 218.998 40.764 219.637 42.4965C220.099 43.9622 221.652 46.2655 223.127 45.7246" fill="#2D2D2D"/>
<path d="M241.379 95.4988C239.935 95.4692 238.511 95.1497 237.193 94.559C235.875 93.9684 234.689 93.1188 233.706 92.0607C232.723 91.0027 231.963 89.7577 231.47 88.3999C230.978 87.0421 230.763 85.5991 230.839 84.1568C230.988 81.1468 231.127 78.7126 231.127 78.7126C231.127 78.7126 222.909 77.6482 222.603 69.4645C222.298 61.2808 223.249 42.4705 223.249 42.4705C227.854 40.3618 232.938 39.5209 237.977 40.0347C243.015 40.5485 247.825 42.3984 251.909 45.3932L253.14 46.2657L252.381 84.9245C252.353 86.3415 252.047 87.7392 251.479 89.0377C250.912 90.3362 250.093 91.5101 249.072 92.4921C248.05 93.4742 246.844 94.2453 245.524 94.7612C244.204 95.2771 242.796 95.5277 241.379 95.4988Z" fill="#FFBE9D"/>
<path d="M231.137 78.6246C234.916 78.599 238.603 77.4511 241.729 75.3267C241.729 75.3267 239.207 81.6695 231.023 81.1373L231.137 78.6246Z" fill="#EB996E"/>
<path d="M252.347 54.7724C252.486 54.7113 257.93 52.9664 257.887 58.5676C257.843 64.1688 252.242 62.9736 252.233 62.8078C252.224 62.642 252.347 54.7724 252.347 54.7724Z" fill="#FFBE9D"/>
<path d="M253.952 60.6961C253.952 60.6961 254.057 60.7659 254.214 60.8444C254.33 60.8933 254.454 60.9186 254.58 60.9186C254.706 60.9186 254.83 60.8933 254.946 60.8444C255.311 60.6191 255.608 60.3004 255.807 59.9215C256.007 59.5426 256.101 59.1171 256.081 58.6894C256.098 58.2095 256.006 57.732 255.81 57.2935C255.76 57.1186 255.668 56.9587 255.542 56.8278C255.416 56.6969 255.259 56.5992 255.086 56.5431C254.975 56.5114 254.855 56.5203 254.75 56.5683C254.645 56.6162 254.56 56.7001 254.51 56.8049C254.432 56.9619 254.467 57.0666 254.44 57.0753C254.414 57.0841 254.318 56.9881 254.362 56.7525C254.396 56.6141 254.476 56.4912 254.589 56.4036C254.745 56.2915 254.938 56.2418 255.13 56.264C255.358 56.3132 255.57 56.4188 255.747 56.5712C255.924 56.7236 256.059 56.918 256.142 57.1364C256.379 57.6216 256.49 58.1587 256.464 58.6981C256.488 59.1966 256.364 59.6908 256.108 60.119C255.851 60.5473 255.475 60.8906 255.025 61.1061C254.877 61.1436 254.722 61.149 254.572 61.1219C254.421 61.0948 254.278 61.0359 254.152 60.9491C253.961 60.8357 253.934 60.7135 253.952 60.6961Z" fill="#EB996E"/>
<path d="M225.368 55.2687C225.375 55.5735 225.5 55.8638 225.716 56.0786C225.933 56.2934 226.224 56.4159 226.529 56.4203C226.678 56.4285 226.827 56.4069 226.967 56.3566C227.107 56.3064 227.236 56.2285 227.346 56.1277C227.456 56.0269 227.544 55.9051 227.606 55.7696C227.668 55.634 227.702 55.4874 227.707 55.3385C227.702 55.0329 227.578 54.7413 227.361 54.5261C227.144 54.3108 226.852 54.189 226.546 54.1868C226.398 54.1798 226.249 54.2023 226.109 54.253C225.97 54.3036 225.841 54.3815 225.732 54.4821C225.622 54.5827 225.534 54.704 225.471 54.839C225.409 54.974 225.374 55.1201 225.368 55.2687Z" fill="#2D2D2D"/>
<path d="M225.082 53.9619C225.23 54.1102 226.102 53.4384 227.359 53.4122C228.615 53.3861 229.557 53.9881 229.688 53.831C229.819 53.674 229.601 53.4907 229.191 53.2028C228.637 52.8411 227.985 52.6584 227.324 52.6794C226.669 52.6937 226.037 52.9169 225.518 53.3163C225.134 53.6216 225.029 53.9008 225.082 53.9619Z" fill="#2D2D2D"/>
<path d="M237.688 55.2608C237.697 55.5641 237.823 55.8522 238.039 56.0651C238.255 56.2781 238.545 56.3993 238.849 56.4037C238.998 56.4131 239.147 56.3923 239.288 56.3425C239.429 56.2927 239.558 56.215 239.668 56.1139C239.778 56.0129 239.867 55.8906 239.928 55.7545C239.99 55.6184 240.023 55.4712 240.027 55.3218C240.022 55.0178 239.899 54.7275 239.684 54.5125C239.469 54.2975 239.179 54.1747 238.875 54.1702C238.725 54.1632 238.576 54.1859 238.435 54.237C238.294 54.2881 238.165 54.3667 238.054 54.4681C237.944 54.5695 237.855 54.6918 237.792 54.8278C237.729 54.9639 237.694 55.111 237.688 55.2608Z" fill="#2D2D2D"/>
<path d="M237.444 53.89C237.601 54.0384 238.464 53.3578 239.721 53.3317C240.977 53.3055 241.919 53.9075 242.05 53.7505C242.181 53.5934 241.963 53.4102 241.553 53.131C241.001 52.7636 240.348 52.5775 239.686 52.5988C239.031 52.6132 238.399 52.8363 237.88 53.2357C237.496 53.5411 237.374 53.8203 237.444 53.89Z" fill="#2D2D2D"/>
<path d="M233.117 63.3227C232.449 63.1344 231.76 63.0289 231.067 63.0086C230.744 63.0086 230.438 62.9301 230.377 62.712C230.348 62.3803 230.415 62.0473 230.569 61.7523C230.857 60.967 231.154 60.1469 231.442 59.2832C232.672 55.7933 233.553 52.888 233.413 52.8357C233.274 52.7833 232.157 55.6014 230.927 59.1087L230.055 61.5952C229.861 61.9873 229.811 62.4353 229.915 62.8603C229.968 62.9694 230.044 63.0662 230.137 63.1443C230.231 63.2224 230.339 63.2802 230.456 63.314C230.636 63.3574 230.82 63.3779 231.005 63.375C231.708 63.4539 232.419 63.4363 233.117 63.3227Z" fill="#2D2D2D"/>
<path d="M236.842 64.1071C236.632 64.1071 236.667 65.4594 235.524 66.4627C234.381 67.4661 232.907 67.3352 232.907 67.5359C232.907 67.7365 233.239 67.7889 233.858 67.7889C234.656 67.7817 235.426 67.491 236.03 66.9688C236.614 66.469 236.98 65.7619 237.051 64.997C237.095 64.4299 236.938 64.0896 236.842 64.1071Z" fill="#2D2D2D"/>
<path d="M236.998 48.9707C237.129 49.3109 238.386 49.119 239.86 49.2586C241.335 49.3982 242.547 49.7646 242.73 49.4593C242.818 49.3109 242.6 48.9881 242.111 48.674C241.464 48.2766 240.731 48.0402 239.973 47.9848C239.215 47.9119 238.449 48.0195 237.74 48.2989C237.243 48.5345 236.946 48.8049 236.998 48.9707Z" fill="#2D2D2D"/>
<path d="M225.457 50.3123C225.684 50.5915 226.539 50.3123 227.586 50.2338C228.633 50.1552 229.514 50.3733 229.706 50.0767C229.793 49.9284 229.645 49.6405 229.252 49.3787C228.726 49.0698 228.121 48.9239 227.512 48.9596C226.903 48.9954 226.318 49.2111 225.832 49.5794C225.466 49.876 225.352 50.1727 225.457 50.3123Z" fill="#2D2D2D"/>
<path d="M253.576 46.9124C253.523 49.3029 254.125 51.9465 253.759 54.2934C253.706 54.6511 252.817 55.6195 252.738 55.9685C252.311 58.0537 251.473 58.9611 250.19 56.841C249.693 56.0296 249.318 53.7525 249.126 52.8277L247.451 45.3158C245.555 46.3606 243.43 46.921 241.265 46.9473C240.185 46.9448 239.123 46.6671 238.179 46.1405C237.236 45.6139 236.442 44.8556 235.873 43.9373C235.383 44.8007 234.704 45.5425 233.887 46.1075C233.071 46.6724 232.137 47.0459 231.156 47.2001C230.175 47.3544 229.172 47.2855 228.222 46.9985C227.271 46.7115 226.397 46.2139 225.665 45.5426C225.282 46.116 224.696 46.524 224.025 46.6857C223.355 46.8473 222.648 46.7507 222.045 46.415C221.46 46.0456 221.007 45.5005 220.752 44.8578C220.496 44.2151 220.451 43.508 220.623 42.838C221.137 40.8313 223.24 39.6971 225.221 39.0602C232.942 36.5737 241.597 38.1877 248.69 42.0789C249.747 42.6174 250.718 43.3115 251.569 44.1379C252.389 45.0104 253.523 45.9875 253.584 47.1741" fill="#2D2D2D"/>
<path d="M247.714 46.2654C248.143 46.2638 248.571 46.3316 248.979 46.466C249.407 46.651 249.801 46.9044 250.148 47.2163C250.549 47.5653 250.942 48.019 251.422 48.464C251.868 48.9143 252.411 49.2574 253.01 49.4673C253.517 49.6114 254.055 49.6114 254.563 49.4673C255.435 49.223 255.767 48.7519 255.732 48.717C255.33 48.8872 254.916 49.0272 254.493 49.1358C254.042 49.2124 253.58 49.1734 253.149 49.0224C252.62 48.8184 252.141 48.503 251.744 48.0975C251.291 47.67 250.872 47.2251 250.436 46.8586C250.039 46.531 249.583 46.2822 249.092 46.1258C248.194 45.8815 247.653 46.2654 247.714 46.2654Z" fill="#213A51"/>
<path d="M248.647 48.7074C248.647 48.7772 249.066 48.7074 249.519 49.1C249.786 49.3438 250.026 49.6158 250.235 49.9114C250.52 50.308 250.882 50.6433 251.299 50.8973C252.059 51.3697 252.96 51.5611 253.847 51.4382C254.518 51.3336 254.867 51.0893 254.841 51.0369C254.815 50.9846 254.431 51.0893 253.812 51.098C253.015 51.1188 252.23 50.9065 251.552 50.4873C250.749 50.0423 250.348 49.1873 249.711 48.8209C249.074 48.4544 248.586 48.6464 248.647 48.7074Z" fill="#213A51"/>
<path d="M227.071 32.7958C227.071 32.7958 226.801 32.726 226.347 32.8656C225.708 33.0792 225.157 33.4959 224.777 34.0521C223.773 35.4568 223.538 37.9433 224.314 40.36C225 42.4408 226.429 44.1958 228.328 45.2894C228.89 45.6163 229.491 45.8713 230.116 46.0485C230.342 46.1345 230.582 46.176 230.823 46.1706C230.035 45.8184 229.266 45.4253 228.519 44.9928C226.763 43.8732 225.447 42.1812 224.794 40.203C224.052 37.9259 224.227 35.544 225.073 34.2353C225.402 33.7139 225.875 33.2988 226.434 33.0401C226.818 32.8568 227.071 32.8394 227.071 32.7958Z" fill="#213A51"/>
<path d="M220.291 36.1877C220.198 36.7128 220.221 37.252 220.361 37.7669C220.862 40.3105 222.353 42.5511 224.505 43.9963C224.926 44.3252 225.415 44.5575 225.936 44.6768C224.504 43.6719 223.246 42.4401 222.21 41.0299C220.579 38.6219 220.448 36.1615 220.291 36.1877Z" fill="#213A51"/>
<path d="M175.177 150.209L163.206 150.811C162.472 150.85 161.781 151.171 161.278 151.708C160.776 152.245 160.5 152.955 160.511 153.691C160.572 156.43 161.034 160.173 163.128 159.798L164.489 153.839L174.426 162.564C175.432 163.469 176.671 164.074 178.003 164.308L180.342 164.064L175.177 150.209Z" fill="#FFBE9D"/>
<path d="M232.418 86.0927L226.163 88.1605L223.057 140.116V186.208L261.471 190.457L261.916 123.993L259.439 90.9174L253.567 83.9028L232.418 86.0927Z" fill="#E0E0E0"/>
<path d="M230.491 88.5815V83.5473L253.323 80.3716L252.407 91.9666L247.164 101.058L238.587 101.538L232.393 97.7162L230.491 88.5815Z" fill="#E0E0E0"/>
<path d="M232.541 87.9959C232.346 87.2442 232.302 86.4615 232.41 85.6926C232.371 84.917 232.481 84.1412 232.733 83.4067C232.928 84.1584 232.972 84.9411 232.864 85.71C232.903 86.4856 232.793 87.2614 232.541 87.9959Z" fill="#2D2D2D"/>
<path d="M238.247 87.5779C238.075 86.7306 238.048 85.8603 238.168 85.0041C238.145 84.139 238.275 83.2765 238.552 82.4565C238.728 83.3182 238.752 84.2041 238.622 85.0739C238.646 85.9242 238.519 86.772 238.247 87.5779Z" fill="#2D2D2D"/>
<path d="M243.77 87.0006C243.62 86.0994 243.62 85.1797 243.77 84.2785C243.762 83.3652 243.906 82.457 244.197 81.5913C244.342 82.4929 244.342 83.4118 244.197 84.3134C244.201 85.2263 244.056 86.1337 243.77 87.0006Z" fill="#2D2D2D"/>
<path d="M249.073 86.1282C248.726 84.4279 248.807 82.6681 249.309 81.0068C249.424 81.8579 249.424 82.7208 249.309 83.5719C249.343 84.4306 249.264 85.2902 249.073 86.1282Z" fill="#2D2D2D"/>
<path d="M246.536 108.088C246.476 108.392 246.373 108.685 246.231 108.96C246.012 109.501 245.672 110.269 245.227 111.211C244.355 113.087 243.02 115.643 241.397 118.366C239.774 121.088 238.16 123.478 236.93 125.153C236.319 126.026 235.813 126.663 235.447 127.116C235.272 127.365 235.067 127.591 234.836 127.788C235.395 126.816 236.007 125.875 236.668 124.97C237.829 123.225 239.39 120.852 241.031 118.139C242.671 115.425 244.006 112.904 244.965 111.063C245.437 110.045 245.961 109.052 246.536 108.088Z" fill="#2D2D2D"/>
<path d="M253.454 83.0933L259.648 86.0771L271.618 89.0173C274.148 89.457 276.41 90.8551 277.934 92.9206C279.458 94.9861 280.128 97.5599 279.802 100.106L273.529 148.964L281.015 196.339L251.351 195.467L249.606 177.843V128.985L253.454 83.0933Z" fill="#213A51"/>
<path d="M249.606 140.238C249.62 140.033 249.649 139.829 249.693 139.628C249.781 139.191 249.894 138.624 250.034 137.883L251.351 131.583L255.879 110.845C256.376 108.62 256.856 106.483 257.319 104.371L257.38 104.581L255.321 102.426L255.207 102.304L255.295 102.164L258.741 96.4319V96.5977L254.937 87.3845C254.509 86.3114 254.16 85.4476 253.907 84.7671C253.772 84.4684 253.661 84.1591 253.576 83.8423C253.751 84.1174 253.897 84.4097 254.012 84.7147L255.146 87.2536L259.055 96.4756L259.099 96.5628L259.046 96.65C257.991 98.395 256.848 100.358 255.635 102.417V102.155L257.694 104.293L257.781 104.38V104.493C257.319 106.579 256.839 108.742 256.35 110.967C254.536 119.037 252.86 126.34 251.691 131.679C251.089 134.297 250.592 136.417 250.234 137.952L249.816 139.645C249.767 139.85 249.696 140.048 249.606 140.238Z" fill="#2D2D2D"/>
<path d="M175.682 148.24L201.926 133.608L214.638 99.3118C215.518 96.9427 216.876 94.7799 218.628 92.9578C220.38 91.1358 222.487 89.6933 224.82 88.7201L228.196 87.3154V177.607L228.868 199L214.647 194.742L221.905 151.747L219.393 130.59L216.906 140.824C216.469 142.639 215.669 144.348 214.555 145.847C213.441 147.346 212.036 148.605 210.424 149.548L183.151 163.717L175.682 148.24Z" fill="#213A51"/>
<path d="M175.996 148.901L173.789 149.564L180.001 164.379L182.897 163.253L175.996 148.901Z" fill="#E0E0E0"/>
<path d="M206.708 139.699C206.167 138.528 205.51 137.414 204.745 136.375C203.863 135.435 202.889 134.584 201.839 133.836C203.109 134.275 204.235 135.054 205.093 136.087C205.952 137.121 206.51 138.37 206.708 139.699Z" fill="#2D2D2D"/>
<path d="M178.832 148.432C178.832 148.493 178.701 148.606 178.683 148.859C178.666 149.112 178.832 149.409 179.181 149.304C179.246 149.289 179.307 149.256 179.356 149.209C179.405 149.163 179.44 149.103 179.458 149.038C179.476 148.973 179.476 148.904 179.458 148.839C179.439 148.773 179.404 148.714 179.355 148.668C179.207 148.458 179.015 148.449 179.006 148.38C178.997 148.31 179.25 148.188 179.582 148.432C179.677 148.508 179.754 148.605 179.805 148.715C179.857 148.826 179.882 148.947 179.879 149.069C179.864 149.225 179.802 149.374 179.701 149.494C179.599 149.614 179.463 149.7 179.311 149.741C179.179 149.787 179.037 149.795 178.9 149.763C178.764 149.731 178.639 149.662 178.54 149.562C178.442 149.463 178.373 149.338 178.343 149.201C178.313 149.064 178.322 148.921 178.369 148.79C178.517 148.397 178.788 148.345 178.832 148.432Z" fill="#2D2D2D"/>
<path d="M180.943 147.543C180.943 147.604 180.812 147.718 180.804 147.971C180.795 148.224 180.952 148.52 181.301 148.416C181.367 148.399 181.427 148.365 181.476 148.317C181.524 148.269 181.559 148.209 181.577 148.144C181.595 148.078 181.595 148.009 181.577 147.943C181.559 147.877 181.524 147.818 181.475 147.77C181.327 147.569 181.135 147.552 181.118 147.491C181.1 147.43 181.362 147.29 181.702 147.543C181.798 147.617 181.874 147.713 181.926 147.822C181.977 147.931 182.002 148.051 181.999 148.171C181.982 148.329 181.919 148.478 181.817 148.6C181.715 148.722 181.58 148.81 181.428 148.855C181.275 148.9 181.113 148.899 180.962 148.852C180.811 148.804 180.677 148.713 180.577 148.59C180.51 148.488 180.467 148.372 180.452 148.251C180.437 148.13 180.45 148.007 180.49 147.892C180.638 147.473 180.943 147.473 180.943 147.543Z" fill="#2D2D2D"/>
<path d="M228.196 141.625C228.136 141.447 228.098 141.262 228.082 141.075C228.021 140.657 227.934 140.124 227.838 139.461C227.637 138.004 227.367 135.972 227.035 133.537C226.39 128.477 225.517 121.576 224.549 113.959C224.418 112.877 224.287 111.813 224.156 110.757V110.705V110.653C224.819 108.969 225.465 107.337 226.075 105.776V105.941C225.412 104.432 224.775 102.984 224.182 101.579V101.518V101.448C225.351 97.2516 226.328 93.7181 227.026 91.1705C227.375 89.9665 227.655 89.0068 227.855 88.2914C227.941 87.9454 228.055 87.607 228.196 87.2793C228.149 87.6304 228.077 87.9775 227.977 88.3175C227.803 89.0417 227.559 90.0188 227.253 91.2316C226.59 93.7879 225.665 97.3388 224.575 101.553V101.422L226.503 105.732V105.81V105.898L224.592 110.827V110.714C224.723 111.761 224.854 112.834 224.994 113.916C225.866 121.541 226.738 128.442 227.34 133.502C227.62 135.972 227.847 137.987 228.004 139.453L228.161 141.067C228.195 141.251 228.206 141.438 228.196 141.625Z" fill="#2D2D2D"/>
<path d="M221.88 152C221.837 151.861 221.808 151.718 221.793 151.573C221.749 151.241 221.688 150.831 221.618 150.343C221.479 149.2 221.296 147.664 221.06 145.797C220.598 141.958 219.943 136.662 219.158 130.817C218.373 124.971 217.605 119.684 217.047 115.863C216.776 114.005 216.549 112.469 216.384 111.335C216.322 110.837 216.27 110.462 216.226 110.096C216.203 109.951 216.203 109.804 216.226 109.66C216.278 109.795 216.316 109.935 216.34 110.078C216.41 110.41 216.488 110.811 216.584 111.3C216.785 112.364 217.064 113.917 217.387 115.811C218.032 119.623 218.853 124.902 219.638 130.756C220.423 136.61 221.025 141.915 221.383 145.762C221.575 147.682 221.714 149.252 221.802 150.316C221.802 150.814 221.863 151.189 221.88 151.564C221.903 151.709 221.903 151.856 221.88 152Z" fill="#2D2D2D"/>
<path d="M218.258 184.113C218.426 184.383 218.629 184.629 218.86 184.846C219.193 185.114 219.581 185.301 219.997 185.395C220.413 185.489 220.845 185.486 221.26 185.387C221.866 185.196 222.419 184.866 222.874 184.422C223.328 183.977 223.672 183.433 223.877 182.831C224.356 181.312 224.604 179.73 224.61 178.137C224.799 176.559 224.635 174.959 224.13 173.452C223.573 172.284 222.759 171.258 221.748 170.451C221.066 169.866 220.456 169.201 219.934 168.47C219.73 168.214 219.584 167.916 219.506 167.598C219.506 167.598 219.689 167.894 220.073 168.383C220.643 169.059 221.277 169.678 221.966 170.232C223.05 171.04 223.924 172.096 224.514 173.312C225.073 174.87 225.261 176.537 225.064 178.181C225.056 179.821 224.788 181.449 224.27 183.005C224.033 183.655 223.645 184.239 223.139 184.709C222.632 185.179 222.021 185.522 221.356 185.71C220.894 185.817 220.414 185.808 219.957 185.683C219.5 185.558 219.081 185.322 218.738 184.995C218.561 184.818 218.416 184.611 218.311 184.384C218.258 184.183 218.241 184.113 218.258 184.113Z" fill="#2D2D2D"/>
<path d="M208.504 150.211C208.504 150.211 209.377 140.204 217.299 139.279C217.299 139.279 217.447 147.472 208.504 150.211Z" fill="#2D2D2D"/>
<path d="M250.976 187.682L274.052 202.775L276.67 200.69L277.9 166.865L255.922 150.209L252.904 151.248L250.976 187.682Z" fill="#FF7A00"/>
<path d="M255.669 150.692L256.568 187.3H251.717L253.34 151.416L255.669 150.692Z" fill="#E0E0E0"/>
<path d="M262.929 195.709C263.144 196.226 263.508 196.667 263.973 196.978C264.439 197.288 264.987 197.454 265.546 197.454C265.589 197.466 265.628 197.487 265.661 197.515C265.694 197.544 265.721 197.58 265.738 197.62C265.955 198.016 266.27 198.35 266.654 198.589C267.038 198.827 267.477 198.962 267.928 198.981C268.805 198.979 269.663 198.731 270.406 198.265C271.61 197.533 273.756 192.717 273.756 192.717L278.843 181.375L270.293 179.062L259.422 182.448C259.422 182.648 256.874 192.917 256.874 192.917C257.493 193.064 258.145 192.981 258.707 192.682C259.269 192.383 259.703 191.89 259.928 191.294C260.48 190.051 261.121 188.85 261.847 187.7L262.658 192.333L259.561 193.388C259.461 193.875 259.54 194.381 259.784 194.814C260.027 195.247 260.419 195.577 260.887 195.744L262.929 195.709Z" fill="#FFBE9D"/>
<path d="M266.767 116.116L281.014 142.342L269.419 176.761L282.306 184.029L298.699 145.728C299.298 144.323 299.596 142.808 299.572 141.281C299.548 139.753 299.203 138.249 298.56 136.863L278.493 93.6851L266.767 116.116Z" fill="#213A51"/>
<path d="M269.419 176.759L268.215 179.429L280.377 185.989L281.651 183.651L269.419 176.759Z" fill="#E0E0E0"/>
<path d="M269.42 176.76C269.42 176.76 269.42 176.699 269.42 176.585C269.42 176.472 269.508 176.289 269.569 176.079L270.188 174.134C270.755 172.389 271.558 169.955 272.553 166.901C274.612 160.724 277.482 152.121 280.762 142.271V142.454C279.105 139.636 277.395 136.661 275.676 133.59C272.535 127.98 269.656 122.571 267.187 117.572C265.965 115.068 264.831 112.677 263.872 110.383C262.929 108.248 262.521 105.915 262.685 103.586C262.762 101.672 263.191 99.7878 263.95 98.0286C264.55 96.7091 265.407 95.5226 266.471 94.5388C267.14 93.9169 267.906 93.4099 268.74 93.0381C269.02 92.9042 269.312 92.7962 269.612 92.7153C268.49 93.1773 267.461 93.8395 266.576 94.6696C265.548 95.6597 264.729 96.8465 264.168 98.1595C263.445 99.8963 263.043 101.75 262.982 103.63C262.848 105.905 263.264 108.18 264.194 110.261C265.171 112.538 266.314 114.92 267.545 117.415C270.022 122.397 272.919 127.788 276.06 133.39C277.805 136.461 279.471 139.436 281.12 142.254L281.172 142.341V142.437C277.822 152.27 274.908 160.855 272.806 167.014L270.398 174.186C270.101 174.997 269.874 175.634 269.708 176.105L269.516 176.603C269.489 176.658 269.457 176.71 269.42 176.76Z" fill="#2D2D2D"/>
<path d="M290.647 142.097C290.168 141.964 289.698 141.798 289.242 141.6C286.983 140.85 284.531 140.928 282.324 141.818C281.882 142.046 281.424 142.241 280.954 142.402C281.294 142.02 281.718 141.721 282.193 141.53C283.303 140.987 284.517 140.689 285.752 140.658C286.987 140.614 288.217 140.841 289.356 141.321C289.84 141.477 290.281 141.743 290.647 142.097Z" fill="#2D2D2D"/>
<path d="M263.915 109.875L274.149 144.128L275.597 132.865L263.915 109.875Z" fill="#2D2D2D"/>
<path d="M280.866 177.179C280.866 177.24 280.735 177.354 280.727 177.607C280.718 177.86 280.875 178.156 281.224 178.052C281.29 178.035 281.35 178.001 281.399 177.953C281.447 177.905 281.482 177.845 281.5 177.78C281.518 177.714 281.518 177.645 281.5 177.579C281.482 177.513 281.447 177.454 281.398 177.406C281.25 177.205 281.058 177.188 281.05 177.127C281.041 177.066 281.285 176.935 281.625 177.179C281.722 177.254 281.799 177.351 281.851 177.462C281.902 177.572 281.927 177.694 281.922 177.816C281.906 177.973 281.842 178.122 281.739 178.242C281.636 178.362 281.499 178.448 281.346 178.488C281.192 178.544 281.024 178.55 280.866 178.502C280.709 178.455 280.571 178.358 280.474 178.226C280.407 178.126 280.364 178.011 280.349 177.892C280.334 177.772 280.346 177.651 280.386 177.537C280.517 177.135 280.866 177.135 280.866 177.179Z" fill="#2D2D2D"/>
<path d="M281.852 174.709C281.852 174.77 281.722 174.884 281.713 175.146C281.701 175.212 281.706 175.279 281.728 175.343C281.75 175.406 281.788 175.463 281.838 175.508C281.888 175.552 281.949 175.583 282.014 175.598C282.079 175.612 282.147 175.61 282.212 175.591C282.276 175.572 282.334 175.536 282.381 175.488C282.428 175.44 282.461 175.381 282.479 175.316C282.496 175.251 282.496 175.183 282.48 175.118C282.463 175.053 282.431 174.994 282.385 174.945C282.236 174.735 282.036 174.727 282.027 174.657C282.018 174.587 282.271 174.465 282.611 174.709C282.707 174.785 282.783 174.882 282.835 174.993C282.886 175.103 282.912 175.224 282.908 175.346C282.905 175.458 282.877 175.568 282.827 175.668C282.777 175.768 282.707 175.857 282.619 175.927C282.532 175.997 282.431 176.048 282.322 176.075C282.214 176.103 282.101 176.106 281.991 176.086C281.881 176.066 281.776 176.022 281.685 175.957C281.593 175.893 281.517 175.809 281.461 175.713C281.404 175.616 281.37 175.508 281.359 175.397C281.348 175.285 281.362 175.173 281.399 175.067C281.547 174.674 281.852 174.648 281.852 174.709Z" fill="#2D2D2D"/>
<path d="M295.856 131.078C294.329 131.881 293.797 134.132 293.971 135.85C294.146 137.569 294.783 139.236 294.739 140.954C294.625 142.184 294.406 143.401 294.085 144.593C293.756 145.789 293.792 147.056 294.189 148.231C294.401 148.811 294.799 149.306 295.322 149.636C295.844 149.966 296.462 150.113 297.077 150.054L298.29 147.611C299.235 145.699 299.712 143.59 299.681 141.457C299.651 139.324 299.114 137.229 298.115 135.344L295.856 131.078Z" fill="#2D2D2D"/>
<path d="M370.557 315.245C371.342 312.532 373.026 309.897 375.617 308.78C378.208 307.664 381.454 308.274 384.22 309.286C386.985 310.298 389.707 311.633 392.648 311.817C395.588 312 398.894 310.604 399.776 307.795C400.604 305.177 399.017 302.333 397.019 300.413C394.909 298.396 392.326 296.94 389.508 296.179C386.689 295.418 383.725 295.376 380.886 296.058C378.047 296.739 375.425 298.122 373.259 300.08C371.093 302.037 369.453 304.507 368.489 307.262" fill="#FF7A00"/>
<g opacity="0.5">
<path d="M370.557 315.246C371.342 312.532 373.026 309.898 375.617 308.781C378.208 307.664 381.454 308.275 384.22 309.287C386.985 310.299 389.707 311.634 392.648 311.817C395.588 312 398.894 310.604 399.776 307.795C400.604 305.178 399.017 302.333 397.019 300.414C394.909 298.396 392.326 296.94 389.508 296.179C386.689 295.418 383.725 295.377 380.886 296.058C378.047 296.74 375.425 298.123 373.259 300.08C371.093 302.038 369.453 304.507 368.489 307.263" fill="#2D2D2D"/>
</g>
<path d="M347.279 327.051C342.969 322.959 343.187 315.831 345.334 310.282C347.48 304.733 352.174 300.484 357.417 297.683C362.537 294.991 368.201 293.494 373.983 293.307C379.765 293.119 385.514 294.246 390.798 296.602C388.211 296.711 385.692 297.454 383.459 298.763C381.226 300.073 379.348 301.91 377.99 304.113C375.634 308.04 375.102 312.838 373.156 316.939C370.956 321.611 367.049 325.262 362.24 327.143C357.43 329.024 352.083 328.991 347.297 327.051" fill="#FF7A00"/>
<path d="M345.202 302.448C340.43 296.811 339.802 287.773 340.5 280.418C341.198 273.063 342.908 265.673 341.747 258.379C341.058 254.061 339.383 249.943 338.816 245.598C338.249 241.253 339.051 236.358 342.419 233.558C346.275 230.338 352.365 231.097 356.379 234.125C360.392 237.152 362.73 241.89 364.431 246.619C368.166 257.018 369.535 268.544 366.464 279.153C363.393 289.762 356.195 299.219 345.621 302.448" fill="#FF7A00"/>
<path d="M342.917 348.67C342.898 348.455 342.898 348.239 342.917 348.024C342.917 347.597 342.917 346.969 342.917 346.157C342.978 344.543 343.135 342.205 343.493 339.335C343.92 335.974 344.531 332.639 345.325 329.345C346.318 325.301 347.853 321.409 349.888 317.776C351.933 314.148 354.437 310.799 357.339 307.812C359.704 305.377 362.321 303.201 365.147 301.321C366.343 300.492 367.494 299.873 368.489 299.288C369.483 298.704 370.391 298.32 371.106 297.962L372.851 297.247C373.043 297.151 373.245 297.075 373.453 297.02C373.269 297.133 373.076 297.232 372.877 297.317L371.193 298.102C370.478 298.477 369.606 298.974 368.576 299.48C367.547 299.986 366.465 300.719 365.287 301.548C359.071 305.795 353.913 311.413 350.211 317.968C345.848 325.646 344.627 333.716 343.754 339.369C343.362 342.231 343.161 344.561 343.048 346.166L342.943 348.024C342.949 348.24 342.941 348.456 342.917 348.67Z" fill="#2D2D2D"/>
<path d="M301.754 280.226C292.925 285.556 292.951 290.399 294.425 294.979C295.9 299.559 301.318 302.735 305.768 301.025C308.306 300.057 310.13 297.849 311.718 295.625C313.306 293.4 314.763 291.035 316.952 289.439C319.142 287.842 322.344 287.24 324.56 288.819" fill="#FF7A00"/>
<g opacity="0.5">
<path d="M301.754 280.226C292.925 285.556 292.951 290.399 294.425 294.979C295.9 299.559 301.318 302.735 305.768 301.025C308.306 300.057 310.13 297.849 311.718 295.625C313.306 293.4 314.763 291.035 316.952 289.439C319.142 287.842 322.344 287.24 324.56 288.819" fill="#2D2D2D"/>
</g>
<path d="M295.141 286.063C297.453 282.878 303.151 281.953 306.754 283.541C310.357 285.129 312.992 288.296 315.356 291.446C317.721 294.595 320.015 297.92 323.287 300.118C326.559 302.317 331.139 303.102 334.385 300.895C335.426 300.12 336.298 299.141 336.948 298.017C337.597 296.893 338.011 295.649 338.163 294.36C338.447 291.784 338.269 289.178 337.639 286.665C336.863 282.966 335.589 279.092 332.622 276.745C329.325 274.127 324.77 273.997 320.521 274.127C315.688 274.285 310.776 274.642 306.239 276.317C301.702 277.992 297.07 281.622 295.141 286.054" fill="#FF7A00"/>
<path d="M335.58 341.603C335.569 341.537 335.569 341.469 335.58 341.403V340.836C335.58 340.303 335.58 339.571 335.501 338.646C335.44 336.709 335.362 333.961 335.266 330.584C335.17 327.208 335.021 323.133 334.777 318.64C334.533 314.147 334.193 309.209 333.512 304.07C333.207 301.564 332.7 299.087 331.994 296.663C330.647 292.397 328.582 288.393 325.887 284.823C324.751 283.364 323.502 281.996 322.153 280.732C320.184 278.914 317.959 277.397 315.548 276.23C315.121 276.029 314.737 275.837 314.405 275.698L313.533 275.366L313 275.148L312.826 275.069L313.018 275.113L313.559 275.287L314.431 275.593C314.772 275.715 315.155 275.898 315.592 276.09C318.051 277.217 320.322 278.715 322.327 280.531C323.704 281.787 324.973 283.156 326.122 284.623C327.44 286.316 328.607 288.12 329.612 290.015C330.73 292.103 331.653 294.291 332.369 296.549C333.064 298.992 333.56 301.486 333.852 304.009C334.533 309.165 334.856 314.112 335.091 318.614C335.327 323.116 335.423 327.164 335.493 330.567C335.562 333.969 335.589 336.726 335.597 338.628C335.597 339.562 335.597 340.295 335.597 340.827C335.597 341.054 335.597 341.246 335.597 341.394C335.597 341.542 335.58 341.603 335.58 341.603Z" fill="#2D2D2D"/>
<path d="M338.756 345.59C338.333 344.352 338.009 343.083 337.787 341.795C337.175 338.278 337.04 334.695 337.386 331.142C337.925 325.882 339.052 320.699 340.745 315.69C342.56 310.002 345.02 303.93 347.123 297.369C348.156 294.196 349.004 290.965 349.662 287.693C350.243 284.641 350.659 281.56 350.909 278.462C351.314 273.209 351.407 267.936 351.188 262.671C351.04 258.178 350.796 254.54 350.647 252.027C350.578 250.788 350.517 249.819 350.482 249.13C350.482 248.816 350.482 248.572 350.482 248.38C350.47 248.293 350.47 248.205 350.482 248.118C350.491 248.202 350.491 248.287 350.482 248.371C350.482 248.563 350.482 248.816 350.56 249.13C350.621 249.811 350.7 250.779 350.804 252.018C350.996 254.522 351.284 258.125 351.468 262.662C351.723 267.937 351.659 273.222 351.276 278.489C351.029 281.6 350.615 284.696 350.037 287.763C349.392 291.069 348.544 294.333 347.498 297.535C345.386 304.087 342.917 310.159 341.094 315.813C339.391 320.796 338.241 325.951 337.665 331.185C337.297 334.716 337.388 338.279 337.936 341.786C338.154 343.025 338.354 343.984 338.529 344.621C338.599 344.927 338.66 345.171 338.703 345.354C338.731 345.43 338.748 345.509 338.756 345.59Z" fill="#2D2D2D"/>
<path d="M360.646 349.579H319.187L318.236 341.596H360.646V349.579Z" fill="#213A51"/>
<path d="M323.635 348.671L328.817 372.612H351.344L356.195 348.671H323.635Z" fill="#213A51"/>
<path d="M360.645 349.578C360.645 349.691 351.528 349.752 340.291 349.717C329.053 349.682 319.927 349.578 319.927 349.464C319.927 349.351 329.045 349.29 340.291 349.325C351.537 349.36 360.645 349.473 360.645 349.578Z" fill="#213A51"/>
<path d="M353.526 361.4C352.404 360.55 351.179 359.846 349.879 359.306C348.462 358.753 346.959 358.458 345.438 358.433C343.573 358.434 341.723 358.771 339.977 359.428C338.092 360.073 336.321 360.815 334.602 361.225C333.076 361.55 331.504 361.597 329.961 361.365C328.922 361.213 327.914 360.895 326.977 360.422C326.729 360.284 326.49 360.129 326.261 359.96C326.104 359.847 326.026 359.777 326.035 359.768C326.043 359.759 326.384 359.969 327.047 360.283C327.988 360.692 328.985 360.962 330.004 361.085C331.512 361.279 333.042 361.206 334.524 360.867C336.181 360.457 337.952 359.698 339.854 359.053C341.642 358.381 343.538 358.047 345.447 358.067C347.007 358.117 348.545 358.454 349.984 359.061C350.953 359.462 351.863 359.993 352.688 360.64C352.911 360.812 353.123 360.995 353.325 361.19C353.474 361.312 353.535 361.382 353.526 361.4Z" fill="#2D2D2D"/>
<path d="M353.212 362.972C352.132 362.151 350.961 361.457 349.722 360.904C348.363 360.352 346.914 360.056 345.447 360.031C343.643 360.039 341.854 360.361 340.16 360.982C338.337 361.593 336.627 362.3 334.986 362.727C333.537 363.146 332.026 363.314 330.519 363.225C329.502 363.164 328.507 362.897 327.597 362.439C327.353 362.313 327.119 362.167 326.899 362.003C326.75 361.89 326.672 361.82 326.681 361.811C326.689 361.803 327.03 362.012 327.666 362.3C328.574 362.694 329.548 362.913 330.537 362.945C332.013 362.992 333.486 362.798 334.899 362.37C336.496 361.925 338.197 361.209 340.047 360.625C341.782 359.989 343.617 359.67 345.465 359.682C346.969 359.73 348.45 360.068 349.827 360.677C350.763 361.083 351.643 361.608 352.444 362.239C352.724 362.466 352.924 362.649 353.055 362.78C353.186 362.911 353.221 362.972 353.212 362.972Z" fill="white"/>
<path d="M353.936 359.814C352.778 358.933 351.522 358.19 350.193 357.598C348.748 356.978 347.208 356.609 345.639 356.507C343.714 356.469 341.799 356.807 340.003 357.502C338.187 358.214 336.332 358.82 334.445 359.316C332.857 359.588 331.235 359.588 329.647 359.316C328.577 359.148 327.538 358.818 326.567 358.339C326.305 358.206 326.054 358.051 325.817 357.877C325.66 357.755 325.581 357.685 325.59 357.676C325.598 357.667 325.947 357.894 326.637 358.2C327.61 358.627 328.638 358.921 329.69 359.072C331.246 359.302 332.829 359.273 334.375 358.985C336.242 358.472 338.079 357.86 339.881 357.153C341.723 356.439 343.69 356.103 345.665 356.167C348.36 356.386 350.933 357.383 353.072 359.037C353.304 359.217 353.525 359.409 353.735 359.613C353.875 359.726 353.954 359.805 353.936 359.814Z" fill="white"/>
<path d="M361.011 349.612C361.011 349.726 351.685 349.813 340.186 349.813C328.686 349.813 319.351 349.726 319.351 349.612C319.351 349.499 328.678 349.42 340.186 349.42C351.693 349.42 361.011 349.508 361.011 349.612Z" fill="#2D2D2D"/>
<path d="M44.1767 340.503C45.6686 342.632 48.539 341.925 49.9175 340.626C51.296 339.326 51.8282 337.45 52.3429 335.652C53.5208 331.543 54.716 327.233 53.8349 323.054C53.6243 321.788 53.0689 320.605 52.2295 319.634C51.8071 319.158 51.2678 318.801 50.6649 318.597C50.062 318.394 49.4164 318.351 48.792 318.474C47.3263 318.858 46.4189 320.288 45.7646 321.649C43.832 325.672 42.8187 330.073 42.7982 334.536C42.6579 336.618 43.1473 338.694 44.2029 340.495" fill="#FF7A00"/>
<g opacity="0.2">
<path d="M44.1767 340.503C45.6686 342.632 48.539 341.925 49.9175 340.626C51.296 339.326 51.8282 337.45 52.3429 335.652C53.5208 331.543 54.716 327.233 53.8349 323.054C53.6243 321.788 53.0689 320.605 52.2295 319.634C51.8071 319.158 51.2678 318.801 50.6649 318.597C50.062 318.394 49.4164 318.351 48.792 318.474C47.3263 318.858 46.4189 320.288 45.7646 321.649C43.832 325.672 42.8187 330.073 42.7982 334.536C42.6579 336.618 43.1473 338.694 44.2029 340.495" fill="#2D2D2D"/>
</g>
<path d="M49.7699 351.287C52.2698 350.114 55.0805 349.774 57.7879 350.319C59.2656 350.444 60.6594 351.058 61.7489 352.064C62.7348 353.163 62.9267 355.083 61.7489 356.025C61.0159 356.519 60.1332 356.741 59.2536 356.653C57.1335 356.653 54.7866 356.261 53.094 357.526C52.1256 358.25 51.48 359.462 50.3283 359.82C49.7497 359.953 49.1439 359.894 48.6013 359.653C48.0587 359.413 47.6086 359.003 47.3183 358.485C46.7736 357.421 46.655 356.188 46.9868 355.039C47.1285 354.241 47.4537 353.487 47.9367 352.836C48.4197 352.185 49.0472 351.655 49.7699 351.287Z" fill="#FF7A00"/>
<path d="M40.0676 343.56C40.8346 342.56 41.3454 341.388 41.5553 340.145C41.7651 338.903 41.6677 337.628 41.2716 336.431C40.4547 334.045 38.9932 331.931 37.0488 330.324C34.8426 328.357 32.273 326.839 29.4846 325.857C28.4058 325.42 27.2446 325.224 26.082 325.281C25.5002 325.318 24.9362 325.496 24.439 325.8C23.9418 326.104 23.5264 326.525 23.229 327.026C22.4351 328.544 23.229 330.385 24.0229 331.886C25.4831 334.523 27.1488 337.04 29.0047 339.415C30.4966 341.335 32.2067 343.228 34.4751 344.1C36.7435 344.973 39.0991 344.868 40.3031 343.289" fill="#FF7A00"/>
<path d="M44.0798 372.638C44.1542 372.32 44.1981 371.995 44.2107 371.669C44.2805 370.962 44.3677 370.073 44.4724 369.052C44.6007 367.751 44.7988 366.458 45.0657 365.178C45.409 363.619 45.8788 362.09 46.4703 360.606C47.0419 359.116 47.8234 357.714 48.7911 356.445C49.5791 355.416 50.5865 354.575 51.74 353.984C52.5225 353.597 53.362 353.338 54.2265 353.217C54.5529 353.199 54.877 353.152 55.195 353.077C54.8677 353.036 54.5364 353.036 54.2091 353.077C53.3035 353.143 52.417 353.37 51.5917 353.749C50.3764 354.324 49.3105 355.172 48.477 356.227C47.4666 357.507 46.6522 358.93 46.0603 360.449C45.4589 361.952 44.9918 363.505 44.6643 365.091C44.4121 366.388 44.2402 367.699 44.1496 369.017C44.0623 370.134 44.0274 371.05 44.0187 371.634C44.0022 371.97 44.0227 372.306 44.0798 372.638Z" fill="#2D2D2D"/>
<path d="M44.2639 370.605C44.2751 370.454 44.2751 370.303 44.2639 370.152C44.2639 369.812 44.2639 369.393 44.2639 368.869C44.2639 367.753 44.2639 366.138 44.325 364.149C44.421 360.171 44.7613 354.666 45.4243 348.628C46.0874 342.591 46.9773 337.146 47.7887 333.247C47.9719 332.261 48.1639 331.388 48.3471 330.629C48.5303 329.87 48.6699 329.19 48.8095 328.657L49.1061 327.41C49.1556 327.267 49.182 327.116 49.1846 326.965C49.1214 327.099 49.0717 327.239 49.0363 327.384C48.9316 327.706 48.8095 328.116 48.6612 328.614C48.5128 329.111 48.3209 329.809 48.129 330.577C47.937 331.345 47.7189 332.226 47.5095 333.194C46.4089 338.279 45.5818 343.42 45.0317 348.593C44.3686 354.648 44.072 360.162 44.0371 364.158C44.0371 366.147 44.0371 367.77 44.1069 368.878C44.1418 369.401 44.168 369.829 44.1854 370.16C44.1922 370.312 44.2186 370.461 44.2639 370.605Z" fill="#2D2D2D"/>
<path d="M44.2901 359.969C44.3206 359.521 44.3206 359.072 44.2901 358.625C44.2378 357.753 44.1156 356.514 43.8801 354.987C43.5795 353.201 43.1804 351.433 42.6848 349.691C42.0993 347.552 41.3587 345.458 40.4687 343.427C38.9321 339.686 36.7265 336.256 33.9602 333.306C33.4833 332.799 32.9732 332.324 32.4333 331.884C32.1978 331.683 31.9884 331.483 31.779 331.326L31.1857 330.924C30.8288 330.651 30.4493 330.409 30.0515 330.2C31.3561 331.22 32.5946 332.321 33.7595 333.498C36.4236 336.478 38.5571 339.892 40.0674 343.593C40.9467 345.609 41.6928 347.681 42.3009 349.796C42.8767 351.741 43.2606 353.53 43.5573 355.031C43.8539 356.531 43.9935 357.77 44.0895 358.625C44.1213 359.077 44.1884 359.527 44.2901 359.969Z" fill="#2D2D2D"/>
<path d="M172.935 7.36211C173.083 7.34663 173.232 7.34663 173.38 7.36211H174.688C175.396 7.37536 176.102 7.44244 176.8 7.56277C177.219 7.63257 177.672 7.6762 178.143 7.77217L179.653 8.14733C182.233 8.82549 184.685 9.92187 186.912 11.3929C192.281 14.964 196.08 20.4554 197.527 26.7395C198.974 33.0236 197.96 39.6233 194.694 45.1834C191.898 49.9179 187.643 53.6189 182.567 55.7315C179.894 56.8372 177.047 57.4633 174.156 57.5811C171.182 57.7652 168.2 57.3954 165.362 56.4905L165.1 56.4033H165.301L150.6 61.4985L150.006 61.7079L150.19 61.0971L154.011 48.8827L154.072 49.1793C151.458 46.2544 149.563 42.7591 148.539 38.9722C147.515 35.1853 147.39 31.2115 148.174 27.3677C148.826 24.1378 150.116 21.0706 151.969 18.3464C153.55 15.9964 155.518 13.9314 157.789 12.2392C159.602 10.8403 161.617 9.72533 163.765 8.93254C164.616 8.58029 165.491 8.28873 166.383 8.06008C167.127 7.85007 167.885 7.69264 168.651 7.58895C169.34 7.49298 169.951 7.38828 170.474 7.34466L171.818 7.30103H172.682C172.774 7.28605 172.868 7.28605 172.961 7.30103C172.869 7.32271 172.776 7.33729 172.682 7.34466L171.87 7.40573L170.544 7.5017C170.021 7.56277 169.419 7.6762 168.738 7.78962C167.983 7.90888 167.236 8.08089 166.505 8.30437C165.612 8.53156 164.738 8.82315 163.887 9.17683C162.906 9.5745 161.948 10.026 161.017 10.5292C159.978 11.1198 158.981 11.7816 158.033 12.5096C155.823 14.1929 153.907 16.2299 152.362 18.5384C150.559 21.2337 149.313 24.2624 148.698 27.4462C147.955 31.2008 148.096 35.0767 149.111 38.7671C150.126 42.4575 151.985 45.861 154.543 48.7082L154.665 48.839L154.613 49.0048C153.397 52.9309 152.132 57.0024 150.818 61.2193L150.408 60.8267L165.091 55.8624H165.196H165.301L165.554 55.9409C168.32 56.8195 171.224 57.1803 174.121 57.0053C176.938 56.891 179.714 56.2857 182.322 55.2167C187.279 53.1621 191.438 49.56 194.179 44.9478C197.373 39.5046 198.377 33.0506 196.989 26.8942C195.601 20.7378 191.923 15.3397 186.702 11.7942C184.518 10.3256 182.115 9.21247 179.583 8.49631L178.1 8.09498C177.629 7.99028 177.184 7.93793 176.774 7.85941C176.083 7.71916 175.383 7.63166 174.68 7.59767L173.38 7.49298C173.228 7.46125 173.079 7.41748 172.935 7.36211Z" fill="#FF7A00"/>
<path d="M158.156 34.1817L162.021 30.3079L169.48 36.9387L184.129 22.8484L187.715 26.7221L168.93 44.3982L158.156 34.1817Z" fill="#FF7A00"/>
</svg>
