<svg width="388" height="29" viewBox="0 0 388 29" fill="none" xmlns="http://www.w3.org/2000/svg">
<path d="M0.304291 6.89961V0.0996094H2.44431C3.08431 0.0996094 3.60428 0.279609 3.98428 0.619609C4.36428 0.959609 4.5643 1.43961 4.5643 2.01961C4.5643 2.41961 4.46428 2.75961 4.26428 3.05961C4.06428 3.35961 3.80429 3.57961 3.46429 3.71961C3.12429 3.85961 2.62428 3.91961 1.98428 3.91961H1.26428V6.85961H0.284302L0.304291 6.89961ZM2.2843 0.979609H1.2843V3.07961H2.3443C2.7443 3.07961 3.04428 2.97961 3.26428 2.79961C3.48428 2.61961 3.58429 2.33961 3.58429 1.99961C3.58429 1.29961 3.16429 0.959609 2.30429 0.959609" fill="white"/>
<path d="M5.46436 6.90012V0.120117H7.16437C7.84437 0.120117 8.38435 0.280117 8.80435 0.620117C9.20435 0.960117 9.40436 1.42012 9.40436 2.00012C9.40436 2.40012 9.30434 2.74012 9.10434 3.02012C8.90434 3.30012 8.62434 3.52012 8.26434 3.66012C8.48434 3.80012 8.68436 4.00012 8.90436 4.24012C9.10436 4.48012 9.40436 4.92012 9.78436 5.52012C10.0244 5.90012 10.2044 6.20012 10.3444 6.38012L10.7043 6.86012H9.54434L9.24435 6.42012C9.24435 6.42012 9.22436 6.38012 9.18436 6.34012L9.00436 6.08012L8.70435 5.58012L8.38437 5.06012C8.18437 4.78012 8.00434 4.56012 7.82434 4.40012C7.66434 4.24012 7.50435 4.12012 7.36435 4.04012C7.22435 3.96012 7.00436 3.94012 6.68436 3.94012H6.42435V6.88012H5.46436V6.90012ZM6.72437 0.960117H6.42435V3.08012H6.78436C7.28436 3.08012 7.60435 3.04012 7.80435 2.96012C7.98435 2.88012 8.12437 2.74012 8.22437 2.58012C8.32437 2.42012 8.38437 2.22012 8.38437 2.00012C8.38437 1.78012 8.32437 1.60012 8.22437 1.42012C8.12437 1.24012 7.94435 1.12012 7.74435 1.06012C7.54435 0.980117 7.20437 0.960117 6.72437 0.960117Z" fill="white"/>
<path d="M14.1443 0.0195312C15.1843 0.0195312 16.0643 0.359531 16.7643 1.01953C17.4643 1.67953 17.8043 2.51953 17.8043 3.51953C17.8043 4.51953 17.4443 5.33953 16.7443 5.99953C16.0443 6.65953 15.1643 6.97953 14.0843 6.97953C13.0043 6.97953 12.2043 6.65953 11.5243 5.99953C10.8443 5.33953 10.5043 4.51953 10.5043 3.53953C10.5043 2.55953 10.8443 1.69953 11.5243 1.01953C12.2043 0.339531 13.0843 0.0195313 14.1243 0.0195313M14.1643 0.939531C13.3843 0.939531 12.7443 1.17953 12.2443 1.65953C11.7443 2.13953 11.5043 2.75953 11.5043 3.51953C11.5043 4.27953 11.7643 4.85953 12.2643 5.33953C12.7643 5.81953 13.3843 6.05953 14.1443 6.05953C14.9043 6.05953 15.5243 5.81953 16.0443 5.31953C16.5443 4.81953 16.8043 4.19953 16.8043 3.47953C16.8043 2.75953 16.5443 2.15953 16.0443 1.65953C15.5443 1.15953 14.9243 0.919531 14.1843 0.919531" fill="white"/>
<path d="M22.6643 3.55957H24.9443V6.43957C24.1043 6.79957 23.2843 6.97957 22.4643 6.97957C21.3443 6.97957 20.4443 6.65957 19.7843 5.99957C19.1043 5.33957 18.7843 4.53957 18.7843 3.57957C18.7843 2.55957 19.1243 1.71957 19.8243 1.05957C20.5243 0.37957 21.3843 0.0595703 22.4443 0.0595703C22.8243 0.0595703 23.1843 0.0995703 23.5243 0.17957C23.8643 0.25957 24.3043 0.41957 24.8243 0.63957V1.61957C24.0243 1.15957 23.2043 0.91957 22.4243 0.91957C21.6843 0.91957 21.0643 1.17957 20.5443 1.67957C20.0443 2.17957 19.7843 2.79957 19.7843 3.53957C19.7843 4.27957 20.0443 4.93957 20.5443 5.41957C21.0443 5.89957 21.7043 6.15957 22.5043 6.15957C22.8843 6.15957 23.3643 6.07957 23.9043 5.89957H24.0043V4.45957H22.7043V3.59957L22.6643 3.55957Z" fill="white"/>
<path d="M26.3843 6.90012V0.120117H28.0843C28.7643 0.120117 29.3043 0.280117 29.7243 0.620117C30.1243 0.960117 30.3242 1.42012 30.3242 2.00012C30.3242 2.40012 30.2243 2.74012 30.0243 3.02012C29.8243 3.30012 29.5443 3.52012 29.1843 3.66012C29.4043 3.80012 29.6042 4.00012 29.8242 4.24012C30.0242 4.48012 30.3243 4.92012 30.7043 5.52012C30.9443 5.90012 31.1243 6.20012 31.2643 6.38012L31.6243 6.86012H30.4643L30.1643 6.42012C30.1643 6.42012 30.1442 6.38012 30.1042 6.34012L29.9243 6.08012L29.6243 5.58012L29.3043 5.06012C29.1043 4.78012 28.9243 4.56012 28.7443 4.40012C28.5843 4.24012 28.4243 4.12012 28.2843 4.04012C28.1443 3.96012 27.9242 3.94012 27.6042 3.94012H27.3443V6.88012H26.3843V6.90012ZM27.6443 0.960117H27.3443V3.08012H27.7043C28.2043 3.08012 28.5243 3.04012 28.7243 2.96012C28.9043 2.88012 29.0443 2.74012 29.1443 2.58012C29.2443 2.42012 29.3043 2.22012 29.3043 2.00012C29.3043 1.78012 29.2443 1.60012 29.1443 1.42012C29.0443 1.24012 28.8643 1.12012 28.6643 1.06012C28.4643 0.980117 28.1243 0.960117 27.6443 0.960117Z" fill="white"/>
<path d="M34.5043 0.0800781H35.1843L38.2243 6.90008H37.2243L36.3242 4.90008H33.4443L32.6042 6.90008H31.6042L34.5043 0.0800781ZM35.9243 4.02008L34.8242 1.56008L33.8043 4.02008H35.9043H35.9243Z" fill="white"/>
<path d="M44.3643 0.120117H45.2643V6.90012H44.2843V1.62012L42.2043 4.24012H42.0243L39.9243 1.62012V6.90012H38.9443V0.120117H39.8643L42.1243 2.90012L44.3643 0.120117Z" fill="white"/>
<path d="M48.8843 0.0800781H49.5643L52.6042 6.90008H51.6042L50.7043 4.90008H47.8242L46.9843 6.90008H45.9843L48.8843 0.0800781ZM50.3043 4.02008L49.2043 1.56008L48.1843 4.02008H50.2843H50.3043Z" fill="white"/>
<path d="M59.9443 0.120117H61.1443L58.2043 3.34012L61.8643 6.90012H60.5443L57.0843 3.54012V6.90012H56.1243V0.120117H57.0843V3.22012L59.9443 0.120117Z" fill="white"/>
<path d="M63.5843 0.120117H62.6243V6.90012H63.5843V0.120117Z" fill="white"/>
<path d="M64.5243 0.0996094H70.1843V0.979609H67.8243V6.89961H66.8443V0.979609H64.5243V0.0996094Z" fill="white"/>
<path d="M73.8643 6.88012V0.120117H76.1443C77.0643 0.120117 77.7842 0.260117 78.3242 0.540117C78.8642 0.820117 79.2842 1.22012 79.6042 1.76012C79.9242 2.30012 80.0843 2.88012 80.0843 3.52012C80.0843 3.98012 80.0042 4.40012 79.8242 4.82012C79.6442 5.24012 79.4043 5.60012 79.0843 5.92012C78.7643 6.24012 78.3643 6.48012 77.9443 6.66012C77.6843 6.76012 77.4443 6.82012 77.2443 6.86012C77.0243 6.90012 76.6243 6.92012 76.0243 6.92012H73.8843L73.8643 6.88012ZM76.0443 0.980117H74.8242V6.02012H76.0643C76.5443 6.02012 76.9243 5.98012 77.1843 5.92012C77.4443 5.86012 77.6843 5.76012 77.8643 5.66012C78.0443 5.56012 78.2043 5.44012 78.3643 5.28012C78.8443 4.80012 79.0843 4.18012 79.0843 3.44012C79.0843 2.70012 78.8443 2.12012 78.3443 1.66012C78.1643 1.48012 77.9643 1.34012 77.7243 1.24012C77.4843 1.14012 77.2643 1.06012 77.0643 1.02012C76.8443 0.980117 76.5243 0.960117 76.0443 0.960117" fill="white"/>
<path d="M82.2842 0.120117H81.3242V6.90012H82.2842V0.120117Z" fill="white"/>
<path d="M87.4443 3.55957H89.7243V6.43957C88.8843 6.79957 88.0643 6.97957 87.2443 6.97957C86.1243 6.97957 85.2243 6.65957 84.5643 5.99957C83.8843 5.33957 83.5643 4.53957 83.5643 3.57957C83.5643 2.55957 83.9043 1.71957 84.6043 1.05957C85.3043 0.37957 86.1643 0.0595703 87.2243 0.0595703C87.6043 0.0595703 87.9643 0.0995703 88.3043 0.17957C88.6443 0.25957 89.0843 0.41957 89.6043 0.63957V1.61957C88.8043 1.15957 87.9843 0.91957 87.2043 0.91957C86.4643 0.91957 85.8443 1.17957 85.3243 1.67957C84.8243 2.17957 84.5643 2.79957 84.5643 3.53957C84.5643 4.27957 84.8243 4.93957 85.3243 5.41957C85.8243 5.89957 86.4843 6.15957 87.2843 6.15957C87.6643 6.15957 88.1443 6.07957 88.6843 5.89957H88.7843V4.45957H87.4843V3.59957L87.4443 3.55957Z" fill="white"/>
<path d="M92.1043 0.120117H91.1443V6.90012H92.1043V0.120117Z" fill="white"/>
<path d="M93.0443 0.0996094H98.7043V0.979609H96.3443V6.89961H95.3643V0.979609H93.0443V0.0996094Z" fill="white"/>
<path d="M100.784 0.0800781H101.464L104.504 6.90008H103.504L102.604 4.90008H99.7243L98.8843 6.90008H97.8843L100.784 0.0800781ZM102.204 4.02008L101.104 1.56008L100.084 4.02008H102.184H102.204Z" fill="white"/>
<path d="M105.244 0.120117H106.224V6.00012H109.264V6.90012H105.244V0.120117Z" fill="white"/>
<path d="M118.704 5.31953V6.37953C117.984 6.75953 117.164 6.95953 116.244 6.95953C115.484 6.95953 114.844 6.79953 114.324 6.49953C113.804 6.19953 113.384 5.77953 113.064 5.23953C112.764 4.69953 112.604 4.13953 112.604 3.49953C112.604 2.51953 112.964 1.67953 113.664 1.01953C114.364 0.339531 115.244 0.0195312 116.264 0.0195312C116.984 0.0195312 117.764 0.199531 118.644 0.579531V1.63953C117.844 1.17953 117.084 0.959531 116.324 0.959531C115.564 0.959531 114.904 1.19953 114.384 1.69953C113.864 2.17953 113.624 2.79953 113.624 3.53953C113.624 4.27953 113.884 4.89953 114.384 5.37953C114.884 5.85953 115.524 6.09953 116.324 6.09953C117.124 6.09953 117.944 5.83953 118.724 5.33953" fill="white"/>
<path d="M123.224 0.0195312C124.264 0.0195312 125.144 0.359531 125.844 1.01953C126.544 1.67953 126.884 2.51953 126.884 3.51953C126.884 4.51953 126.524 5.33953 125.824 5.99953C125.124 6.65953 124.244 6.97953 123.164 6.97953C122.084 6.97953 121.284 6.65953 120.604 5.99953C119.924 5.33953 119.584 4.51953 119.584 3.53953C119.584 2.55953 119.924 1.69953 120.604 1.01953C121.284 0.339531 122.164 0.0195313 123.204 0.0195313M123.244 0.939531C122.464 0.939531 121.824 1.17953 121.324 1.65953C120.824 2.13953 120.584 2.75953 120.584 3.51953C120.584 4.27953 120.844 4.85953 121.344 5.33953C121.844 5.81953 122.464 6.05953 123.224 6.05953C123.984 6.05953 124.604 5.81953 125.124 5.31953C125.624 4.81953 125.884 4.19953 125.884 3.47953C125.884 2.75953 125.624 2.15953 125.124 1.65953C124.624 1.15953 124.004 0.919531 123.264 0.919531" fill="white"/>
<path d="M128.084 0.120117H131.704V0.980117H129.064V2.88012H131.704V3.74012H129.064V6.90012H128.084V0.120117Z" fill="white"/>
<path d="M133.704 0.120117H132.744V6.90012H133.704V0.120117Z" fill="white"/>
<path d="M140.604 0.120117H141.524V6.90012H140.684L136.164 1.68012V6.90012H135.244V0.120117H136.044L140.604 5.38012V0.120117Z" fill="white"/>
<path d="M145.144 0.0800781H145.824L148.864 6.90008H147.864L146.964 4.90008H144.084L143.244 6.90008H142.244L145.144 0.0800781ZM146.564 4.02008L145.464 1.56008L144.444 4.02008H146.544H146.564Z" fill="white"/>
<path d="M154.984 0.120117H155.904V6.90012H155.064L150.544 1.68012V6.90012H149.624V0.120117H150.404L154.984 5.38012V0.120117Z" fill="white"/>
<path d="M163.184 5.31953V6.37953C162.464 6.75953 161.644 6.95953 160.724 6.95953C159.964 6.95953 159.324 6.79953 158.804 6.49953C158.284 6.19953 157.864 5.77953 157.544 5.23953C157.244 4.69953 157.084 4.13953 157.084 3.49953C157.084 2.51953 157.444 1.67953 158.144 1.01953C158.844 0.339531 159.724 0.0195312 160.744 0.0195312C161.464 0.0195312 162.244 0.199531 163.124 0.579531V1.63953C162.324 1.17953 161.564 0.959531 160.804 0.959531C160.044 0.959531 159.384 1.19953 158.864 1.69953C158.344 2.17953 158.104 2.79953 158.104 3.53953C158.104 4.27953 158.364 4.89953 158.864 5.37953C159.364 5.85953 160.004 6.09953 160.804 6.09953C161.604 6.09953 162.424 5.83953 163.204 5.33953" fill="white"/>
<path d="M165.344 0.120117H164.384V6.90012H165.344V0.120117Z" fill="white"/>
<path d="M169.024 0.0800781H169.704L172.744 6.90008H171.744L170.844 4.90008H167.964L167.124 6.90008H166.124L169.024 0.0800781ZM170.444 4.02008L169.344 1.56008L168.324 4.02008H170.424H170.444Z" fill="white"/>
<path d="M173.504 6.88012V0.120117H175.784C176.704 0.120117 177.424 0.260117 177.964 0.540117C178.504 0.820117 178.924 1.22012 179.244 1.76012C179.564 2.30012 179.724 2.88012 179.724 3.52012C179.724 3.98012 179.644 4.40012 179.464 4.82012C179.284 5.24012 179.044 5.60012 178.724 5.92012C178.404 6.24012 178.004 6.48012 177.584 6.66012C177.324 6.76012 177.084 6.82012 176.884 6.86012C176.664 6.90012 176.264 6.92012 175.664 6.92012H173.524L173.504 6.88012ZM175.684 0.980117H174.464V6.02012H175.704C176.184 6.02012 176.564 5.98012 176.824 5.92012C177.084 5.86012 177.324 5.76012 177.504 5.66012C177.684 5.56012 177.844 5.44012 178.004 5.28012C178.484 4.80012 178.724 4.18012 178.724 3.44012C178.724 2.70012 178.484 2.12012 177.984 1.66012C177.804 1.48012 177.604 1.34012 177.364 1.24012C177.124 1.14012 176.904 1.06012 176.704 1.02012C176.484 0.980117 176.164 0.960117 175.684 0.960117" fill="white"/>
<path d="M184.264 0.0195312C185.304 0.0195312 186.184 0.359531 186.884 1.01953C187.584 1.67953 187.924 2.51953 187.924 3.51953C187.924 4.51953 187.564 5.33953 186.864 5.99953C186.164 6.65953 185.284 6.97953 184.204 6.97953C183.124 6.97953 182.324 6.65953 181.644 5.99953C180.964 5.33953 180.624 4.51953 180.624 3.53953C180.624 2.55953 180.964 1.69953 181.644 1.01953C182.324 0.359531 183.204 0.0195313 184.244 0.0195313M184.284 0.939531C183.504 0.939531 182.864 1.17953 182.364 1.65953C181.864 2.13953 181.624 2.75953 181.624 3.51953C181.624 4.27953 181.884 4.85953 182.384 5.33953C182.884 5.81953 183.504 6.05953 184.264 6.05953C185.024 6.05953 185.644 5.81953 186.164 5.31953C186.664 4.81953 186.924 4.19953 186.924 3.47953C186.924 2.75953 186.664 2.15953 186.164 1.65953C185.664 1.15953 185.044 0.919531 184.304 0.919531" fill="white"/>
<path d="M191.804 6.89961V0.0996094H193.944C194.584 0.0996094 195.104 0.279609 195.484 0.619609C195.864 0.959609 196.064 1.43961 196.064 2.01961C196.064 2.41961 195.964 2.75961 195.764 3.05961C195.564 3.35961 195.304 3.57961 194.964 3.71961C194.624 3.85961 194.124 3.91961 193.484 3.91961H192.764V6.85961H191.784L191.804 6.89961ZM193.784 0.979609H192.784V3.07961H193.844C194.244 3.07961 194.544 2.97961 194.764 2.79961C194.984 2.61961 195.084 2.33961 195.084 1.99961C195.084 1.29961 194.664 0.959609 193.804 0.959609" fill="white"/>
<path d="M200.244 0.0195312C201.284 0.0195312 202.164 0.359531 202.864 1.01953C203.564 1.67953 203.904 2.51953 203.904 3.51953C203.904 4.51953 203.544 5.33953 202.844 5.99953C202.144 6.65953 201.264 6.97953 200.184 6.97953C199.104 6.97953 198.304 6.65953 197.624 5.99953C196.944 5.33953 196.604 4.51953 196.604 3.53953C196.604 2.55953 196.944 1.69953 197.624 1.01953C198.304 0.359531 199.184 0.0195313 200.224 0.0195313M200.264 0.939531C199.484 0.939531 198.844 1.17953 198.344 1.65953C197.844 2.13953 197.604 2.75953 197.604 3.51953C197.604 4.27953 197.864 4.85953 198.364 5.33953C198.864 5.81953 199.484 6.05953 200.244 6.05953C201.004 6.05953 201.624 5.81953 202.144 5.31953C202.644 4.81953 202.904 4.19953 202.904 3.47953C202.904 2.75953 202.644 2.15953 202.144 1.65953C201.644 1.15953 201.024 0.919531 200.284 0.919531" fill="white"/>
<path d="M205.124 6.90012V0.120117H206.824C207.504 0.120117 208.044 0.280117 208.464 0.620117C208.864 0.960117 209.064 1.42012 209.064 2.00012C209.064 2.40012 208.964 2.74012 208.764 3.02012C208.564 3.30012 208.284 3.52012 207.924 3.66012C208.144 3.80012 208.344 4.00012 208.564 4.24012C208.764 4.48012 209.064 4.92012 209.444 5.52012C209.684 5.90012 209.864 6.20012 210.004 6.38012L210.364 6.86012H209.204L208.904 6.42012C208.904 6.42012 208.884 6.38012 208.844 6.34012L208.664 6.08012L208.364 5.58012L208.044 5.06012C207.844 4.78012 207.664 4.56012 207.484 4.40012C207.324 4.24012 207.164 4.12012 207.024 4.04012C206.884 3.96012 206.664 3.94012 206.344 3.94012H206.084V6.88012H205.124V6.90012ZM206.384 0.960117H206.084V3.08012H206.444C206.944 3.08012 207.264 3.04012 207.464 2.96012C207.644 2.88012 207.784 2.74012 207.884 2.58012C207.984 2.42012 208.044 2.22012 208.044 2.00012C208.044 1.78012 207.984 1.60012 207.884 1.42012C207.764 1.24012 207.604 1.12012 207.404 1.06012C207.204 0.980117 206.864 0.960117 206.384 0.960117Z" fill="white"/>
<path d="M213.864 0.120117H214.824V6.00012H217.884V6.90012H213.864V0.120117Z" fill="white"/>
<path d="M222.044 0.0195312C223.084 0.0195312 223.964 0.359531 224.664 1.01953C225.364 1.67953 225.704 2.51953 225.704 3.51953C225.704 4.51953 225.344 5.33953 224.644 5.99953C223.944 6.65953 223.064 6.97953 221.984 6.97953C220.904 6.97953 220.104 6.65953 219.424 5.99953C218.744 5.33953 218.404 4.51953 218.404 3.53953C218.404 2.55953 218.744 1.69953 219.424 1.01953C220.104 0.359531 220.984 0.0195313 222.024 0.0195313M222.064 0.939531C221.284 0.939531 220.644 1.17953 220.144 1.65953C219.644 2.13953 219.404 2.75953 219.404 3.51953C219.404 4.27953 219.664 4.85953 220.164 5.33953C220.664 5.81953 221.284 6.05953 222.044 6.05953C222.804 6.05953 223.424 5.81953 223.944 5.31953C224.444 4.81953 224.704 4.19953 224.704 3.47953C224.704 2.75953 224.444 2.15953 223.944 1.65953C223.444 1.15953 222.824 0.919531 222.084 0.919531" fill="white"/>
<path d="M228.584 4.06004L227.844 3.62004C227.384 3.34004 227.044 3.06004 226.864 2.78004C226.664 2.50004 226.564 2.20004 226.564 1.84004C226.564 1.30004 226.744 0.880039 227.124 0.540039C227.504 0.200039 227.984 0.0400391 228.564 0.0400391C229.144 0.0400391 229.644 0.200039 230.124 0.520039V1.60004C229.644 1.14004 229.104 0.900039 228.544 0.900039C228.224 0.900039 227.964 0.980039 227.764 1.12004C227.564 1.26004 227.464 1.46004 227.464 1.68004C227.464 1.88004 227.544 2.08004 227.684 2.24004C227.844 2.42004 228.084 2.60004 228.404 2.80004L229.144 3.24004C229.964 3.74004 230.384 4.36004 230.384 5.12004C230.384 5.66004 230.204 6.10004 229.844 6.44004C229.484 6.78004 229.004 6.94004 228.424 6.94004C227.764 6.94004 227.144 6.74004 226.604 6.32004V5.08004C227.124 5.74004 227.744 6.08004 228.424 6.08004C228.724 6.08004 228.984 6.00004 229.184 5.82004C229.384 5.66004 229.484 5.44004 229.484 5.18004C229.484 4.76004 229.184 4.38004 228.584 4.00004" fill="white"/>
<path d="M234.224 0.120117H237.824V0.980117H235.184V2.88012H237.824V3.74012H235.184V6.90012H234.224V0.120117Z" fill="white"/>
<path d="M242.204 0.0195312C243.244 0.0195312 244.124 0.359531 244.824 1.01953C245.524 1.67953 245.864 2.51953 245.864 3.51953C245.864 4.51953 245.504 5.33953 244.804 5.99953C244.104 6.65953 243.224 6.97953 242.144 6.97953C241.064 6.97953 240.264 6.65953 239.584 5.99953C238.904 5.33953 238.564 4.51953 238.564 3.53953C238.564 2.55953 238.904 1.69953 239.584 1.01953C240.264 0.359531 241.144 0.0195313 242.184 0.0195313M242.224 0.939531C241.444 0.939531 240.804 1.17953 240.304 1.65953C239.804 2.13953 239.564 2.75953 239.564 3.51953C239.564 4.27953 239.824 4.85953 240.324 5.33953C240.824 5.81953 241.444 6.05953 242.204 6.05953C242.964 6.05953 243.584 5.81953 244.104 5.31953C244.604 4.81953 244.864 4.19953 244.864 3.47953C244.864 2.75953 244.604 2.15953 244.104 1.65953C243.604 1.15953 242.984 0.919531 242.244 0.919531" fill="white"/>
<path d="M252.424 0.120117H253.344V6.90012H252.504L247.984 1.68012V6.90012H247.064V0.120117H247.864L252.424 5.38012V0.120117Z" fill="white"/>
<path d="M254.804 6.88012V0.120117H257.084C258.004 0.120117 258.724 0.260117 259.264 0.540117C259.804 0.820117 260.224 1.22012 260.544 1.76012C260.864 2.30012 261.024 2.88012 261.024 3.52012C261.024 3.98012 260.944 4.40012 260.764 4.82012C260.584 5.24012 260.344 5.60012 260.024 5.92012C259.704 6.24012 259.304 6.48012 258.884 6.66012C258.624 6.76012 258.384 6.82012 258.184 6.86012C257.964 6.90012 257.564 6.92012 256.964 6.92012H254.824L254.804 6.88012ZM256.984 0.980117H255.764V6.02012H257.004C257.484 6.02012 257.864 5.98012 258.124 5.92012C258.384 5.86012 258.624 5.76012 258.804 5.66012C258.984 5.56012 259.144 5.44012 259.304 5.28012C259.784 4.80012 260.024 4.18012 260.024 3.44012C260.024 2.70012 259.784 2.12012 259.284 1.66012C259.104 1.48012 258.904 1.34012 258.664 1.24012C258.424 1.14012 258.204 1.06012 258.004 1.02012C257.784 0.980117 257.464 0.960117 256.984 0.960117" fill="white"/>
<path d="M265.564 0.0195312C266.604 0.0195312 267.484 0.359531 268.184 1.01953C268.884 1.67953 269.224 2.51953 269.224 3.51953C269.224 4.51953 268.864 5.33953 268.164 5.99953C267.464 6.65953 266.584 6.97953 265.504 6.97953C264.424 6.97953 263.624 6.65953 262.944 5.99953C262.264 5.33953 261.924 4.51953 261.924 3.53953C261.924 2.55953 262.264 1.69953 262.944 1.01953C263.624 0.359531 264.504 0.0195313 265.544 0.0195313M265.584 0.939531C264.804 0.939531 264.164 1.17953 263.664 1.65953C263.164 2.13953 262.924 2.75953 262.924 3.51953C262.924 4.27953 263.184 4.85953 263.684 5.33953C264.184 5.81953 264.804 6.05953 265.564 6.05953C266.324 6.05953 266.944 5.81953 267.464 5.31953C267.964 4.81953 268.224 4.19953 268.224 3.47953C268.224 2.75953 267.964 2.15953 267.464 1.65953C266.964 1.15953 266.344 0.919531 265.604 0.919531" fill="white"/>
<path d="M272.084 4.06004L271.344 3.62004C270.884 3.34004 270.544 3.06004 270.364 2.78004C270.164 2.50004 270.064 2.20004 270.064 1.84004C270.064 1.30004 270.244 0.880039 270.624 0.540039C271.004 0.200039 271.484 0.0400391 272.064 0.0400391C272.644 0.0400391 273.144 0.200039 273.624 0.520039V1.60004C273.144 1.14004 272.604 0.900039 272.044 0.900039C271.724 0.900039 271.464 0.980039 271.264 1.12004C271.064 1.26004 270.964 1.46004 270.964 1.68004C270.964 1.88004 271.044 2.08004 271.184 2.24004C271.344 2.42004 271.584 2.60004 271.904 2.80004L272.644 3.24004C273.464 3.74004 273.884 4.36004 273.884 5.12004C273.884 5.66004 273.704 6.10004 273.344 6.44004C272.984 6.78004 272.504 6.94004 271.924 6.94004C271.264 6.94004 270.644 6.74004 270.104 6.32004V5.08004C270.624 5.74004 271.244 6.08004 271.924 6.08004C272.224 6.08004 272.484 6.00004 272.684 5.82004C272.884 5.66004 272.984 5.44004 272.984 5.18004C272.984 4.76004 272.684 4.38004 272.084 4.00004" fill="white"/>
<path d="M283.104 0.120117H284.024V6.90012H283.184L278.664 1.68012V6.90012H277.744V0.120117H278.544L283.104 5.38012V0.120117Z" fill="white"/>
<path d="M285.484 0.120117H289.324V0.980117H286.444V3.04012H289.224V3.92012H286.444V6.02012H289.404V6.88012H285.484V0.120117Z" fill="white"/>
<path d="M295.344 0.120117H296.524L293.804 3.38012L296.704 6.90012H295.544L293.224 4.08012L290.904 6.90012H289.724L292.624 3.38012L289.924 0.120117H291.104L293.224 2.70012L295.344 0.120117Z" fill="white"/>
<path d="M296.884 0.0996094H302.544V0.979609H300.184V6.89961H299.224V0.979609H296.884V0.0996094Z" fill="white"/>
<path d="M309.884 3.55957H312.164V6.43957C311.324 6.79957 310.504 6.97957 309.684 6.97957C308.564 6.97957 307.664 6.65957 307.004 5.99957C306.324 5.33957 306.004 4.53957 306.004 3.57957C306.004 2.55957 306.344 1.71957 307.044 1.05957C307.744 0.37957 308.604 0.0595703 309.664 0.0595703C310.044 0.0595703 310.404 0.0995703 310.744 0.17957C311.084 0.25957 311.524 0.41957 312.044 0.63957V1.61957C311.244 1.15957 310.424 0.91957 309.644 0.91957C308.904 0.91957 308.284 1.17957 307.764 1.67957C307.264 2.17957 307.004 2.79957 307.004 3.53957C307.004 4.27957 307.264 4.93957 307.764 5.41957C308.264 5.89957 308.924 6.15957 309.724 6.15957C310.104 6.15957 310.584 6.07957 311.124 5.89957H311.224V4.45957H309.924V3.59957L309.884 3.55957Z" fill="white"/>
<path d="M313.584 0.120117H317.424V0.980117H314.544V3.04012H317.324V3.92012H314.544V6.02012H317.504V6.88012H313.584V0.120117Z" fill="white"/>
<path d="M323.924 0.120117H324.844V6.90012H324.004L319.484 1.68012V6.90012H318.564V0.120117H319.364L323.924 5.38012V0.120117Z" fill="white"/>
<path d="M326.304 0.120117H330.144V0.980117H327.264V3.04012H330.044V3.92012H327.264V6.02012H330.224V6.88012H326.304V0.120117Z" fill="white"/>
<path d="M331.284 6.90012V0.120117H332.984C333.664 0.120117 334.204 0.280117 334.624 0.620117C335.024 0.960117 335.224 1.42012 335.224 2.00012C335.224 2.40012 335.124 2.74012 334.924 3.02012C334.724 3.30012 334.444 3.52012 334.084 3.66012C334.304 3.80012 334.504 4.00012 334.724 4.24012C334.924 4.48012 335.224 4.92012 335.604 5.52012C335.844 5.90012 336.024 6.20012 336.164 6.38012L336.524 6.86012H335.364L335.064 6.42012C335.064 6.42012 335.044 6.38012 335.004 6.34012L334.824 6.08012L334.524 5.58012L334.204 5.06012C334.004 4.78012 333.824 4.56012 333.644 4.40012C333.484 4.24012 333.324 4.12012 333.184 4.04012C333.044 3.96012 332.824 3.94012 332.504 3.94012H332.244V6.88012H331.284V6.90012ZM332.544 0.960117H332.244V3.08012H332.604C333.104 3.08012 333.424 3.04012 333.624 2.96012C333.804 2.88012 333.944 2.74012 334.044 2.58012C334.144 2.42012 334.204 2.22012 334.204 2.00012C334.204 1.78012 334.144 1.60012 334.044 1.42012C333.924 1.24012 333.764 1.12012 333.564 1.06012C333.364 0.980117 333.024 0.960117 332.544 0.960117Z" fill="white"/>
<path d="M339.424 0.0800781H340.104L343.144 6.90008H342.144L341.244 4.90008H338.364L337.524 6.90008H336.524L339.424 0.0800781ZM340.844 4.02008L339.744 1.56008L338.724 4.02008H340.824H340.844Z" fill="white"/>
<path d="M342.304 0.0996094H347.964V0.979609H345.604V6.89961H344.624V0.979609H342.304V0.0996094Z" fill="white"/>
<path d="M349.864 0.120117H348.904V6.90012H349.864V0.120117Z" fill="white"/>
<path d="M354.704 0.0195312C355.744 0.0195312 356.624 0.359531 357.324 1.01953C358.024 1.67953 358.364 2.51953 358.364 3.51953C358.364 4.51953 358.004 5.33953 357.304 5.99953C356.604 6.65953 355.724 6.97953 354.644 6.97953C353.564 6.97953 352.764 6.65953 352.084 5.99953C351.404 5.33953 351.064 4.51953 351.064 3.53953C351.064 2.55953 351.404 1.69953 352.084 1.01953C352.764 0.359531 353.644 0.0195313 354.684 0.0195313M354.724 0.939531C353.944 0.939531 353.304 1.17953 352.804 1.65953C352.304 2.13953 352.064 2.75953 352.064 3.51953C352.064 4.27953 352.324 4.85953 352.824 5.33953C353.324 5.81953 353.944 6.05953 354.704 6.05953C355.464 6.05953 356.084 5.81953 356.604 5.31953C357.104 4.81953 357.364 4.19953 357.364 3.47953C357.364 2.75953 357.104 2.15953 356.604 1.65953C356.104 1.15953 355.484 0.919531 354.744 0.919531" fill="white"/>
<path d="M364.924 0.120117H365.844V6.90012H365.004L360.484 1.68012V6.90012H359.564V0.120117H360.364L364.924 5.38012V0.120117Z" fill="white"/>
<path d="M371.844 0.0195313H372.384C371.984 0.619531 371.684 1.13953 371.504 1.55953C371.324 1.97953 371.184 2.47953 371.084 3.01953C370.984 3.57953 370.944 4.09953 370.944 4.61953C370.944 6.37953 371.424 7.89953 372.364 9.13953H371.824L371.684 8.95953C371.324 8.51953 371.044 8.15953 370.864 7.87953C370.684 7.59953 370.504 7.23953 370.344 6.77953C370.064 6.05953 369.924 5.31953 369.924 4.57953C369.924 3.83953 370.064 3.07953 370.344 2.37953C370.624 1.67953 371.124 0.879531 371.824 0.0195312" fill="white"/>
<path d="M373.264 0.120117H377.104V0.980117H374.244V3.04012H377.004V3.92012H374.244V6.02012H377.204V6.88012H373.264V0.120117Z" fill="white"/>
<path d="M382.944 0.120117H383.924V3.96012C383.924 4.48012 383.884 4.88012 383.804 5.14012C383.724 5.40012 383.644 5.62012 383.524 5.80012C383.404 5.98012 383.284 6.14012 383.124 6.28012C382.584 6.74012 381.884 6.98012 381.024 6.98012C380.164 6.98012 379.444 6.76012 378.904 6.30012C378.744 6.16012 378.604 6.00012 378.504 5.82012C378.384 5.64012 378.304 5.42012 378.224 5.18012C378.144 4.92012 378.124 4.52012 378.124 3.98012V0.120117H379.104V3.96012C379.104 4.60012 379.184 5.04012 379.324 5.28012C379.464 5.52012 379.684 5.72012 379.984 5.88012C380.284 6.04012 380.624 6.10012 381.044 6.10012C381.624 6.10012 382.084 5.94012 382.444 5.64012C382.644 5.48012 382.764 5.28012 382.864 5.06012C382.944 4.84012 382.984 4.46012 382.984 3.94012V0.120117H382.944Z" fill="white"/>
<path d="M385.184 9.16H384.644C385.064 8.52 385.364 7.98 385.544 7.54C385.724 7.1 385.844 6.62 385.944 6.08C386.024 5.56 386.084 5.04 386.084 4.56C386.084 4 386.024 3.46 385.924 2.92C385.824 2.4 385.664 1.9 385.464 1.42C385.264 0.94 384.984 0.48 384.644 0H385.184L385.324 0.18C385.684 0.62 385.964 0.96 386.124 1.24C386.304 1.52 386.484 1.88 386.644 2.34C386.924 3.06 387.064 3.8 387.064 4.56C387.064 5.32 386.944 6 386.684 6.66C386.564 7 386.404 7.34 386.204 7.66C386.004 8 385.664 8.48 385.164 9.12" fill="white"/>
<path d="M80.9243 18.6604V11.9004H83.2043C84.1243 11.9004 84.8443 12.0404 85.3843 12.3204C85.9243 12.6004 86.3443 13.0004 86.6643 13.5404C86.9843 14.0804 87.1443 14.6604 87.1443 15.3004C87.1443 15.7604 87.0643 16.1804 86.8843 16.6004C86.7043 17.0204 86.4643 17.3804 86.1443 17.7004C85.8243 18.0204 85.4243 18.2604 85.0043 18.4404C84.7443 18.5404 84.5043 18.6004 84.3043 18.6404C84.0843 18.6804 83.6843 18.7004 83.0843 18.7004H80.9443L80.9243 18.6604ZM83.1043 12.7604H81.8843V17.8004H83.1243C83.6043 17.8004 83.9843 17.7604 84.2443 17.7004C84.5043 17.6404 84.7443 17.5404 84.9243 17.4404C85.1043 17.3404 85.2643 17.2204 85.4243 17.0604C85.9043 16.5804 86.1443 15.9604 86.1443 15.2204C86.1443 14.4804 85.9043 13.9004 85.4043 13.4404C85.2243 13.2604 85.0243 13.1204 84.7843 13.0204C84.5443 12.9204 84.3243 12.8404 84.1243 12.8004C83.9043 12.7604 83.5843 12.7404 83.1043 12.7404" fill="white"/>
<path d="M88.3643 11.9004H92.2043V12.7604H89.3443V14.8404H92.1042V15.7004H89.3443V17.8004H92.3043V18.6604H88.3643V11.9004Z" fill="white"/>
<path d="M93.3242 11.9004H94.3042V17.8004H97.3442V18.6804H93.3242V11.9004Z" fill="white"/>
<path d="M106.344 11.9004H107.244V18.6804H106.284V13.4004L104.204 16.0204H104.024L101.904 13.4004V18.6804H100.944V11.9004H101.864L104.104 14.6804L106.344 11.9004Z" fill="white"/>
<path d="M108.704 11.9004H112.544V12.7604H109.684V14.8404H112.464V15.7004H109.684V17.8004H112.644V18.6604H108.704V11.9004Z" fill="white"/>
<path d="M119.524 17.0998V18.1598C118.804 18.5398 117.984 18.7398 117.064 18.7398C116.304 18.7398 115.664 18.5798 115.144 18.2798C114.624 17.9798 114.204 17.5598 113.884 17.0198C113.584 16.4798 113.424 15.9198 113.424 15.2798C113.424 14.2998 113.784 13.4598 114.484 12.7998C115.184 12.1198 116.064 11.7998 117.084 11.7998C117.804 11.7998 118.584 11.9798 119.464 12.3598V13.3998C118.664 12.9398 117.904 12.7198 117.144 12.7198C116.384 12.7198 115.724 12.9598 115.204 13.4598C114.684 13.9398 114.444 14.5598 114.444 15.2998C114.444 16.0398 114.704 16.6598 115.204 17.1398C115.704 17.6198 116.344 17.8598 117.144 17.8598C117.944 17.8598 118.764 17.5998 119.544 17.0998" fill="white"/>
<path d="M123.124 11.8604H123.804L126.844 18.6804H125.844L124.944 16.6804H122.064L121.224 18.6804H120.224L123.124 11.8604ZM124.544 15.8004L123.444 13.3404L122.424 15.8004H124.524H124.544Z" fill="white"/>
<path d="M132.964 11.9004H133.884V18.6804H133.044L128.524 13.4604V18.6804H127.604V11.9004H128.384L132.964 17.1604V11.9004Z" fill="white"/>
<path d="M136.304 11.9004H135.344V18.6804H136.304V11.9004Z" fill="white"/>
<path d="M139.484 15.8403L138.744 15.4003C138.284 15.1203 137.944 14.8403 137.764 14.5603C137.564 14.2803 137.464 13.9803 137.464 13.6203C137.464 13.0803 137.644 12.6603 138.024 12.3203C138.404 11.9803 138.884 11.8203 139.464 11.8203C140.044 11.8203 140.544 11.9803 141.024 12.3003V13.4003C140.544 12.9403 140.004 12.7003 139.444 12.7003C139.124 12.7003 138.864 12.7803 138.664 12.9203C138.464 13.0603 138.364 13.2603 138.364 13.4803C138.364 13.6803 138.444 13.8803 138.584 14.0403C138.744 14.2203 138.984 14.4003 139.304 14.6003L140.044 15.0403C140.864 15.5403 141.284 16.1603 141.284 16.9203C141.284 17.4603 141.104 17.9003 140.744 18.2403C140.384 18.5803 139.904 18.7403 139.324 18.7403C138.664 18.7403 138.044 18.5403 137.504 18.1203V16.8803C138.024 17.5403 138.644 17.8803 139.324 17.8803C139.624 17.8803 139.884 17.8003 140.084 17.6203C140.284 17.4603 140.384 17.2403 140.384 16.9803C140.384 16.5603 140.084 16.1803 139.484 15.8003" fill="white"/>
<path d="M147.744 11.9004H148.664V18.6804H147.684V13.4004L145.604 16.0204H145.424L143.304 13.4004V18.6804H142.344V11.9004H143.264L145.504 14.6804L147.744 11.9004Z" fill="white"/>
<path d="M153.444 11.7998C154.484 11.7998 155.364 12.1398 156.064 12.7998C156.764 13.4598 157.104 14.2998 157.104 15.2998C157.104 16.2998 156.744 17.1198 156.044 17.7798C155.344 18.4398 154.464 18.7598 153.384 18.7598C152.304 18.7598 151.504 18.4398 150.824 17.7798C150.144 17.1198 149.804 16.2998 149.804 15.3198C149.804 14.3398 150.144 13.4798 150.824 12.7998C151.504 12.1198 152.384 11.7998 153.424 11.7998M153.464 12.7198C152.684 12.7198 152.044 12.9598 151.544 13.4398C151.044 13.9198 150.804 14.5398 150.804 15.2998C150.804 16.0598 151.064 16.6398 151.564 17.1198C152.064 17.5998 152.684 17.8398 153.444 17.8398C154.204 17.8398 154.824 17.5998 155.344 17.0998C155.844 16.5998 156.104 15.9798 156.104 15.2598C156.104 14.5398 155.844 13.9398 155.344 13.4398C154.844 12.9398 154.224 12.6998 153.484 12.6998" fill="white"/>
<path d="M161.064 18.6604V11.9004H163.344C164.264 11.9004 164.984 12.0404 165.524 12.3204C166.064 12.6004 166.484 13.0004 166.804 13.5404C167.124 14.0804 167.284 14.6604 167.284 15.3004C167.284 15.7604 167.204 16.1804 167.024 16.6004C166.844 17.0204 166.604 17.3804 166.284 17.7004C165.964 18.0204 165.564 18.2604 165.144 18.4404C164.884 18.5404 164.644 18.6004 164.444 18.6404C164.224 18.6804 163.824 18.7004 163.224 18.7004H161.084L161.064 18.6604ZM163.244 12.7604H162.024V17.8004H163.264C163.744 17.8004 164.124 17.7604 164.384 17.7004C164.644 17.6404 164.884 17.5404 165.064 17.4404C165.244 17.3404 165.404 17.2204 165.564 17.0604C166.044 16.5804 166.284 15.9604 166.284 15.2204C166.284 14.4804 166.044 13.9004 165.544 13.4404C165.364 13.2604 165.164 13.1204 164.924 13.0204C164.684 12.9204 164.464 12.8404 164.264 12.8004C164.044 12.7604 163.724 12.7404 163.244 12.7404" fill="white"/>
<path d="M168.504 11.9004H172.344V12.7604H169.464V14.8404H172.244V15.7004H169.464V17.8004H172.424V18.6604H168.504V11.9004Z" fill="white"/>
<path d="M176.244 18.6804V11.9004H177.944C178.624 11.9004 179.164 12.0604 179.584 12.4004C179.984 12.7404 180.184 13.2004 180.184 13.7804C180.184 14.1804 180.084 14.5204 179.884 14.8004C179.684 15.0804 179.404 15.3004 179.044 15.4404C179.264 15.5804 179.464 15.7804 179.684 16.0204C179.884 16.2604 180.184 16.7004 180.564 17.3004C180.804 17.6804 180.984 17.9804 181.124 18.1604L181.484 18.6404H180.324L180.024 18.2004C180.024 18.2004 180.004 18.1604 179.964 18.1204L179.784 17.8604L179.484 17.3604L179.164 16.8404C178.964 16.5604 178.784 16.3404 178.604 16.1804C178.444 16.0204 178.284 15.9004 178.144 15.8204C178.004 15.7404 177.784 15.7204 177.464 15.7204H177.204V18.6604H176.244V18.6804ZM177.504 12.7404H177.204V14.8804H177.564C178.064 14.8804 178.384 14.8404 178.584 14.7604C178.764 14.6804 178.904 14.5404 179.004 14.3804C179.104 14.2204 179.164 14.0204 179.164 13.8004C179.164 13.5804 179.104 13.4004 179.004 13.2204C178.904 13.0404 178.724 12.9204 178.524 12.8604C178.324 12.7804 177.984 12.7604 177.504 12.7604" fill="white"/>
<path d="M182.224 11.9004H186.064V12.7604H183.184V14.8404H185.964V15.7004H183.184V17.8004H186.144V18.6604H182.224V11.9004Z" fill="white"/>
<path d="M193.024 17.0998V18.1598C192.304 18.5398 191.484 18.7398 190.564 18.7398C189.804 18.7398 189.164 18.5798 188.644 18.2798C188.124 17.9798 187.704 17.5598 187.384 17.0198C187.084 16.4798 186.924 15.9198 186.924 15.2798C186.924 14.2998 187.284 13.4598 187.984 12.7998C188.684 12.1198 189.564 11.7998 190.584 11.7998C191.304 11.7998 192.084 11.9798 192.964 12.3598V13.3998C192.164 12.9398 191.404 12.7198 190.644 12.7198C189.884 12.7198 189.224 12.9598 188.704 13.4598C188.184 13.9398 187.944 14.5598 187.944 15.2998C187.944 16.0398 188.204 16.6598 188.704 17.1398C189.204 17.6198 189.844 17.8598 190.644 17.8598C191.444 17.8598 192.264 17.5998 193.044 17.0998" fill="white"/>
<path d="M198.924 11.9004H199.904V15.7404C199.904 16.2604 199.864 16.6604 199.784 16.9204C199.704 17.1804 199.624 17.4004 199.504 17.5804C199.384 17.7604 199.264 17.9204 199.104 18.0604C198.564 18.5204 197.864 18.7604 197.004 18.7604C196.144 18.7604 195.424 18.5404 194.884 18.0804C194.724 17.9404 194.584 17.7804 194.484 17.6004C194.364 17.4204 194.284 17.2004 194.204 16.9604C194.124 16.7004 194.104 16.3004 194.104 15.7604V11.9204H195.084V15.7604C195.084 16.4004 195.164 16.8404 195.304 17.0804C195.444 17.3204 195.664 17.5204 195.964 17.6804C196.264 17.8404 196.604 17.9004 197.024 17.9004C197.604 17.9004 198.064 17.7404 198.424 17.4404C198.624 17.2804 198.744 17.0804 198.844 16.8604C198.924 16.6404 198.964 16.2604 198.964 15.7404V11.9004H198.924Z" fill="white"/>
<path d="M201.184 18.6804V11.9004H203.324C203.964 11.9004 204.484 12.0804 204.864 12.4204C205.244 12.7604 205.444 13.2404 205.444 13.8204C205.444 14.2204 205.344 14.5604 205.144 14.8604C204.944 15.1604 204.684 15.3804 204.344 15.5204C204.004 15.6604 203.504 15.7204 202.864 15.7204H202.144V18.6604H201.164L201.184 18.6804ZM203.164 12.7604H202.164V14.8804H203.224C203.624 14.8804 203.924 14.7804 204.144 14.6004C204.364 14.4204 204.464 14.1404 204.464 13.8004C204.464 13.1004 204.044 12.7604 203.184 12.7604" fill="white"/>
<path d="M206.304 11.9004H210.144V12.7604H207.264V14.8404H210.044V15.7004H207.264V17.8004H210.244V18.6604H206.304V11.9004Z" fill="white"/>
<path d="M211.304 18.6804V11.9004H213.004C213.684 11.9004 214.224 12.0604 214.644 12.4004C215.044 12.7404 215.244 13.2004 215.244 13.7804C215.244 14.1804 215.144 14.5204 214.944 14.8004C214.744 15.0804 214.464 15.3004 214.104 15.4404C214.324 15.5804 214.524 15.7804 214.744 16.0204C214.944 16.2604 215.244 16.7004 215.624 17.3004C215.864 17.6804 216.044 17.9804 216.184 18.1604L216.544 18.6404H215.384L215.084 18.2004C215.084 18.2004 215.064 18.1604 215.024 18.1204L214.844 17.8604L214.544 17.3604L214.224 16.8404C214.024 16.5604 213.844 16.3404 213.664 16.1804C213.504 16.0204 213.344 15.9004 213.204 15.8204C213.064 15.7404 212.844 15.7204 212.524 15.7204H212.264V18.6604H211.304V18.6804ZM212.564 12.7404H212.264V14.8804H212.624C213.124 14.8804 213.444 14.8404 213.644 14.7604C213.824 14.6804 213.964 14.5404 214.064 14.3804C214.164 14.2204 214.224 14.0204 214.224 13.8004C214.224 13.5804 214.164 13.4004 214.064 13.2204C213.944 13.0404 213.784 12.9204 213.584 12.8604C213.384 12.7804 213.044 12.7604 212.564 12.7604" fill="white"/>
<path d="M219.424 11.8604H220.104L223.144 18.6804H222.144L221.244 16.6804H218.364L217.524 18.6804H216.524L219.424 11.8604ZM220.844 15.8004L219.744 13.3404L218.724 15.8004H220.824H220.844Z" fill="white"/>
<path d="M229.324 17.0998V18.1598C228.604 18.5398 227.784 18.7398 226.864 18.7398C226.104 18.7398 225.464 18.5798 224.944 18.2798C224.424 17.9798 224.004 17.5598 223.684 17.0198C223.384 16.4798 223.224 15.9198 223.224 15.2798C223.224 14.2998 223.584 13.4598 224.284 12.7998C224.984 12.1198 225.864 11.7998 226.884 11.7998C227.604 11.7998 228.384 11.9798 229.264 12.3598V13.3998C228.464 12.9398 227.704 12.7198 226.944 12.7198C226.184 12.7198 225.524 12.9598 225.004 13.4598C224.484 13.9398 224.244 14.5598 224.244 15.2998C224.244 16.0398 224.504 16.6598 225.004 17.1398C225.504 17.6198 226.144 17.8598 226.944 17.8598C227.744 17.8598 228.564 17.5998 229.344 17.0998" fill="white"/>
<path d="M231.484 11.9004H230.524V18.6804H231.484V11.9004Z" fill="white"/>
<path d="M236.324 11.7999C237.364 11.7999 238.244 12.1399 238.944 12.7999C239.644 13.4599 239.984 14.2999 239.984 15.2999C239.984 16.2999 239.624 17.1199 238.924 17.7799C238.224 18.4399 237.344 18.7599 236.264 18.7599C235.184 18.7599 234.384 18.4399 233.704 17.7799C233.024 17.1199 232.684 16.2999 232.684 15.3199C232.684 14.3399 233.024 13.4799 233.704 12.7999C234.384 12.1399 235.264 11.7999 236.304 11.7999M236.344 12.7199C235.564 12.7199 234.924 12.9599 234.424 13.4399C233.924 13.9199 233.684 14.5399 233.684 15.2999C233.684 16.0599 233.924 16.6399 234.444 17.1199C234.944 17.5999 235.564 17.8399 236.324 17.8399C237.084 17.8399 237.704 17.5999 238.224 17.0999C238.724 16.5999 238.984 15.9799 238.984 15.2599C238.984 14.5399 238.724 13.9399 238.224 13.4399C237.724 12.9599 237.104 12.6999 236.364 12.6999M237.324 9.91992L236.224 11.3799H235.684L236.344 9.91992H237.324Z" fill="white"/>
<path d="M246.564 11.9004H247.484V18.6804H246.644L242.124 13.4604V18.6804H241.204V11.9004H241.984L246.564 17.1604V11.9004Z" fill="white"/>
<path d="M254.284 11.9004H255.444L252.944 15.1004V18.6804H251.964V15.1004L249.464 11.9004H250.624L252.444 14.2404L254.284 11.9004Z" fill="white"/>
<path d="M258.984 18.6804V11.9004H260.684C261.364 11.9004 261.904 12.0604 262.324 12.4004C262.724 12.7404 262.924 13.2004 262.924 13.7804C262.924 14.1804 262.824 14.5204 262.624 14.8004C262.424 15.0804 262.144 15.3004 261.784 15.4404C262.004 15.5804 262.204 15.7804 262.424 16.0204C262.624 16.2604 262.924 16.7004 263.304 17.3004C263.544 17.6804 263.724 17.9804 263.864 18.1604L264.224 18.6404H263.064L262.764 18.2004C262.764 18.2004 262.744 18.1604 262.704 18.1204L262.524 17.8604L262.224 17.3604L261.904 16.8404C261.704 16.5604 261.524 16.3404 261.344 16.1804C261.184 16.0204 261.024 15.9004 260.884 15.8204C260.744 15.7404 260.524 15.7204 260.204 15.7204H259.944V18.6604H258.984V18.6804ZM260.244 12.7404H259.944V14.8804H260.304C260.804 14.8804 261.124 14.8404 261.324 14.7604C261.504 14.6804 261.644 14.5404 261.744 14.3804C261.844 14.2204 261.904 14.0204 261.904 13.8004C261.904 13.5804 261.844 13.4004 261.744 13.2204C261.624 13.0404 261.464 12.9204 261.264 12.8604C261.064 12.7804 260.724 12.7604 260.244 12.7604" fill="white"/>
<path d="M264.964 11.9004H268.804V12.7604H265.924V14.8404H268.704V15.7004H265.924V17.8004H268.884V18.6604H264.964V11.9004Z" fill="white"/>
<path d="M271.604 15.8403L270.864 15.4003C270.404 15.1203 270.064 14.8403 269.884 14.5603C269.684 14.2803 269.584 13.9803 269.584 13.6203C269.584 13.0803 269.764 12.6603 270.144 12.3203C270.524 11.9803 271.004 11.8203 271.584 11.8203C272.164 11.8203 272.664 11.9803 273.144 12.3003V13.4003C272.664 12.9403 272.124 12.7003 271.564 12.7003C271.244 12.7003 270.984 12.7803 270.784 12.9203C270.584 13.0603 270.484 13.2603 270.484 13.4803C270.484 13.6803 270.564 13.8803 270.704 14.0403C270.864 14.2203 271.104 14.4003 271.424 14.6003L272.164 15.0403C272.984 15.5403 273.404 16.1603 273.404 16.9203C273.404 17.4603 273.224 17.9003 272.864 18.2403C272.504 18.5803 272.024 18.7403 271.444 18.7403C270.784 18.7403 270.164 18.5403 269.624 18.1203V16.8803C270.144 17.5403 270.764 17.8803 271.444 17.8803C271.744 17.8803 272.004 17.8003 272.204 17.6203C272.404 17.4603 272.504 17.2403 272.504 16.9803C272.504 16.5603 272.204 16.1803 271.604 15.8003" fill="white"/>
<path d="M275.444 11.9004H274.484V18.6804H275.444V11.9004Z" fill="white"/>
<path d="M276.944 11.9004H277.924V17.8004H280.964V18.6804H276.944V11.9004Z" fill="white"/>
<path d="M281.824 11.9004H285.664V12.7604H282.784V14.8404H285.564V15.7004H282.784V17.8004H285.744V18.6604H281.824V11.9004Z" fill="white"/>
<path d="M292.164 11.9004H293.084V18.6804H292.264L287.724 13.4604V18.6804H286.824V11.9004H287.604L292.164 17.1604V11.9004Z" fill="white"/>
<path d="M300.364 17.0998V18.1598C299.644 18.5398 298.824 18.7398 297.904 18.7398C297.144 18.7398 296.504 18.5798 295.984 18.2798C295.464 17.9798 295.044 17.5598 294.724 17.0198C294.424 16.4798 294.264 15.9198 294.264 15.2798C294.264 14.2998 294.624 13.4598 295.324 12.7998C296.024 12.1198 296.904 11.7998 297.924 11.7998C298.644 11.7998 299.424 11.9798 300.304 12.3598V13.3998C299.504 12.9398 298.744 12.7198 297.984 12.7198C297.224 12.7198 296.564 12.9598 296.044 13.4598C295.524 13.9398 295.284 14.5598 295.284 15.2998C295.284 16.0398 295.544 16.6598 296.044 17.1398C296.544 17.6198 297.184 17.8598 297.984 17.8598C298.784 17.8598 299.604 17.5998 300.384 17.0998" fill="white"/>
<path d="M302.544 11.9004H301.584V18.6804H302.544V11.9004Z" fill="white"/>
<path d="M306.224 11.8604H306.904L309.944 18.6804H308.944L308.044 16.6804H305.164L304.324 18.6804H303.324L306.224 11.8604ZM307.644 15.8004L306.544 13.3404L305.524 15.8004H307.624H307.644Z" fill="white"/>
<path d="M266.104 28.1396H123.984V28.8996H266.104V28.1396Z" fill="white"/>
</svg>
