<svg width="54" height="29" viewBox="0 0 54 29" fill="none" xmlns="http://www.w3.org/2000/svg">
<rect width="54" height="29" fill="#F5F5F5"/>
<g id="About us" clip-path="url(#clip0_531_10671)">
<rect width="1280" height="2338" transform="translate(-87 -1535)" fill="white"/>
<g id="Foooter">
<rect width="1280" height="863.17" transform="translate(-87 -60)" fill="white"/>
<g id="Frame 632496">
<g id="Frame 271">
<g id="Frame 270">
<g id="NN">
<path d="M2.38 28.8C1.79333 28.8 1.32667 28.64 0.98 28.32C0.66 27.9733 0.5 27.5067 0.5 26.92V11.04C0.5 8.77333 0.98 6.81333 1.94 5.16C2.9 3.50667 4.27333 2.24 6.06 1.36C7.87333 0.453333 10.0067 0 12.46 0C14.9133 0 17.0333 0.453333 18.82 1.36C20.6333 2.24 22.02 3.50667 22.98 5.16C23.94 6.81333 24.42 8.77333 24.42 11.04V26.92C24.42 27.5067 24.2467 27.9733 23.9 28.32C23.58 28.64 23.1267 28.8 22.54 28.8C21.9533 28.8 21.4867 28.64 21.14 28.32C20.7933 27.9733 20.62 27.5067 20.62 26.92V10.92C20.62 8.44 19.9 6.52 18.46 5.16C17.0467 3.8 15.0467 3.12 12.46 3.12C9.9 3.12 7.9 3.81333 6.46 5.2C5.02 6.56 4.3 8.46667 4.3 10.92V26.92C4.3 27.5067 4.12667 27.9733 3.78 28.32C3.43333 28.64 2.96667 28.8 2.38 28.8Z" fill="black"/>
<path d="M31.1987 28.8C30.6121 28.8 30.1454 28.64 29.7988 28.32C29.4788 27.9733 29.3188 27.5067 29.3188 26.92V11.04C29.3188 8.77333 29.7987 6.81333 30.7588 5.16C31.7188 3.50667 33.0921 2.24 34.8787 1.36C36.6921 0.453333 38.8254 0 41.2788 0C43.7321 0 45.8521 0.453333 47.6388 1.36C49.4521 2.24 50.8388 3.50667 51.7988 5.16C52.7588 6.81333 53.2388 8.77333 53.2388 11.04V26.92C53.2388 27.5067 53.0654 27.9733 52.7188 28.32C52.3988 28.64 51.9454 28.8 51.3588 28.8C50.7721 28.8 50.3054 28.64 49.9588 28.32C49.6121 27.9733 49.4388 27.5067 49.4388 26.92V10.92C49.4388 8.44 48.7188 6.52 47.2788 5.16C45.8654 3.8 43.8654 3.12 41.2788 3.12C38.7188 3.12 36.7188 3.81333 35.2788 5.2C33.8388 6.56 33.1188 8.46667 33.1188 10.92V26.92C33.1188 27.5067 32.9454 27.9733 32.5988 28.32C32.2521 28.64 31.7854 28.8 31.1987 28.8Z" fill="black"/>
</g>
</g>
</g>
</g>
</g>
</g>
<defs>
<clipPath id="clip0_531_10671">
<rect width="1280" height="2338" fill="white" transform="translate(-87 -1535)"/>
</clipPath>
</defs>
</svg>
