<svg width="34" height="35" viewBox="0 0 34 35" fill="none" xmlns="http://www.w3.org/2000/svg">
<g id="Whatsapp" clip-path="url(#clip0_57_882)">
<path id="Vector" d="M33 17.5C33 26.6402 25.8094 34 17 34C8.19057 34 1 26.6402 1 17.5C1 8.35978 8.19057 1 17 1C25.8094 1 33 8.35978 33 17.5Z" stroke="white" stroke-width="2"/>
<path id="Vector_2" d="M13.5648 27.5798C21.8683 27.5798 26.4092 20.4994 26.4092 14.3575C26.4092 14.1553 26.4042 13.9557 26.3966 13.7561C27.2781 13.1001 28.0437 12.2809 28.6482 11.3501C27.8397 11.7209 26.9683 11.9698 26.0566 12.0813C26.9885 11.5057 27.7037 10.5957 28.0412 9.51199C27.1698 10.0435 26.2027 10.4324 25.1751 10.6398C24.3516 9.73755 23.178 9.17236 21.8809 9.17236C19.3876 9.17236 17.3652 11.2542 17.3652 13.8183C17.3652 14.1838 17.4055 14.5364 17.4836 14.8787C13.731 14.6842 10.404 12.8357 8.18019 10.0227C7.79233 10.7098 7.56818 11.5083 7.56818 12.3587C7.56818 13.9713 8.36404 15.3946 9.57796 16.2268C8.83752 16.2035 8.14241 15.9935 7.53293 15.6461C7.53293 15.6642 7.53293 15.685 7.53293 15.7057C7.53293 17.9561 9.08937 19.8357 11.1546 20.2609C10.7743 20.3672 10.3763 20.4242 9.96581 20.4242C9.67619 20.4242 9.39159 20.3957 9.11707 20.3413C9.6913 22.1872 11.3586 23.5301 13.3331 23.569C11.7867 24.8161 9.84241 25.5575 7.72685 25.5575C7.36167 25.5575 7.00404 25.5368 6.64893 25.4927C8.64611 26.8098 11.0186 27.5798 13.5673 27.5798" fill="white"/>
</g>
<defs>
<clipPath id="clip0_57_882">
<rect width="34" height="35" fill="white"/>
</clipPath>
</defs>
</svg>
