<svg width="35" height="34" viewBox="0 0 35 34" fill="none" xmlns="http://www.w3.org/2000/svg">
<path d="M34 17C34 25.8094 26.6402 33 17.5 33C8.35978 33 1 25.8094 1 17C1 8.19057 8.35978 1 17.5 1C26.6402 1 34 8.19057 34 17Z" stroke="white" stroke-width="2"/>
<path d="M17.2635 7.96014C20.2312 7.96014 20.5815 7.97051 21.7529 8.02499C22.8354 8.07427 23.4237 8.25326 23.8159 8.40371C24.3336 8.60344 24.7048 8.84209 25.0944 9.2286C25.484 9.6151 25.7245 9.98085 25.9259 10.4971C26.0775 10.8862 26.2579 11.4698 26.3076 12.5437C26.3599 13.7058 26.373 14.056 26.373 16.9976C26.373 19.9392 26.3625 20.2893 26.3076 21.4514C26.2579 22.5254 26.0775 23.109 25.9259 23.4981C25.7245 24.0117 25.484 24.3801 25.0944 24.7666C24.7048 25.1531 24.3362 25.3917 23.8159 25.5914C23.4237 25.7419 22.8354 25.9209 21.7529 25.9702C20.5815 26.0221 20.2312 26.035 17.2635 26.035C14.2959 26.035 13.9456 26.0246 12.7742 25.9702C11.6917 25.9209 11.1034 25.7419 10.7112 25.5914C10.1935 25.3917 9.82226 25.1531 9.43268 24.7666C9.0431 24.3801 8.80255 24.0143 8.60122 23.4981C8.44957 23.109 8.26916 22.5254 8.21948 21.4514C8.16719 20.2893 8.15412 19.9392 8.15412 16.9976C8.15412 14.056 8.16457 13.7058 8.21948 12.5437C8.26916 11.4698 8.44957 10.8862 8.60122 10.4971C8.80255 9.98344 9.0431 9.6151 9.43268 9.2286C9.82226 8.84209 10.1909 8.60344 10.7112 8.40371C11.1034 8.25326 11.6917 8.07427 12.7742 8.02499C13.9456 7.97311 14.2985 7.96014 17.2635 7.96014ZM17.2635 5.97314C14.2462 5.97314 13.8671 5.98611 12.6827 6.04059C11.5009 6.09506 10.6929 6.27924 9.98437 6.5542C9.25488 6.83694 8.63521 7.21307 8.01554 7.82525C7.39848 8.43743 7.01674 9.0522 6.73436 9.77852C6.45982 10.4789 6.27157 11.2804 6.21666 12.4555C6.16175 13.6306 6.14868 14.0067 6.14868 17.0002C6.14868 19.9936 6.16175 20.3698 6.21666 21.5448C6.27157 22.7173 6.45721 23.5189 6.73436 24.2218C7.01936 24.9455 7.39848 25.5603 8.01554 26.1751C8.6326 26.7873 9.25227 27.166 9.98437 27.4461C10.6903 27.7185 11.4982 27.9053 12.6827 27.9598C13.8671 28.0142 14.2462 28.0272 17.2635 28.0272C20.2809 28.0272 20.66 28.0142 21.8444 27.9598C23.0262 27.9053 23.8342 27.7211 24.5427 27.4461C25.2722 27.1634 25.8919 26.7873 26.5116 26.1751C27.1286 25.5629 27.5103 24.9481 27.7927 24.2218C28.0673 23.5214 28.2555 22.7199 28.3104 21.5448C28.3653 20.3698 28.3784 19.9936 28.3784 17.0002C28.3784 14.0067 28.3653 13.6306 28.3104 12.4555C28.2555 11.283 28.0699 10.4815 27.7927 9.77852C27.5077 9.0548 27.1286 8.44002 26.5116 7.82525C25.8945 7.21307 25.2748 6.83435 24.5427 6.5542C23.8368 6.28183 23.0288 6.09506 21.8444 6.04059C20.66 5.98611 20.2809 5.97314 17.2635 5.97314Z" fill="white"/>
<path d="M17.4999 11.4863C14.3655 11.4863 11.8242 13.955 11.8242 16.9998C11.8242 20.0447 14.3655 22.5134 17.4999 22.5134C20.6343 22.5134 23.1756 20.0447 23.1756 16.9998C23.1756 13.955 20.6343 11.4863 17.4999 11.4863ZM17.4999 20.5803C15.4658 20.5803 13.8141 18.9783 13.8141 16.9998C13.8141 15.0213 15.4632 13.4193 17.4999 13.4193C19.5366 13.4193 21.1857 15.0213 21.1857 16.9998C21.1857 18.9783 19.5366 20.5803 17.4999 20.5803Z" fill="white"/>
<path d="M23.4122 12.4052C24.0652 12.4052 24.5946 11.7881 24.5946 11.0268C24.5946 10.2656 24.0652 9.64844 23.4122 9.64844C22.7591 9.64844 22.2297 10.2656 22.2297 11.0268C22.2297 11.7881 22.7591 12.4052 23.4122 12.4052Z" fill="white"/>
</svg>
