<svg width="54" height="54" viewBox="0 0 54 54" fill="none" xmlns="http://www.w3.org/2000/svg">
<g id="Capa_1" clip-path="url(#clip0_228_3321)">
<path id="Vector" d="M2.2005 54H51.9683C52.3395 54 52.6432 53.6957 52.6432 53.3237V20.7817C53.4735 20.0581 54 18.9964 54 17.8197V0.676268C54 0.304321 53.6963 0 53.325 0H0.675C0.30375 0 0 0.304321 0 0.676268V17.8197C0 19.0775 0.60075 20.2001 1.5255 20.9237V53.3237C1.5255 53.6957 1.82925 54 2.2005 54ZM3.969 21.7691C5.33925 21.7691 6.5475 21.0725 7.263 20.0243C7.9785 21.0793 9.18675 21.7691 10.557 21.7691C11.9273 21.7691 13.1355 21.0725 13.851 20.0243C14.5665 21.0793 15.7747 21.7691 17.145 21.7691C17.2598 21.7691 17.3745 21.7623 17.4893 21.7488V47.9204H2.8755V21.6135C3.21975 21.715 3.591 21.7691 3.969 21.7691ZM39.4875 17.8197C39.4875 19.2466 38.313 20.4165 36.8685 20.4165C35.424 20.4165 34.2495 19.2534 34.2495 17.8197V1.35254H39.4808V17.8197H39.4875ZM32.9062 17.8197C32.9062 19.2466 31.7318 20.4165 30.2873 20.4165C28.8428 20.4165 27.6683 19.2534 27.6683 17.8197V1.35254H32.8995V17.8197H32.9062ZM26.325 17.8197C26.325 19.2466 25.1505 20.4165 23.706 20.4165C22.2615 20.4165 21.087 19.2534 21.087 17.8197V1.35254H26.3183V17.8197H26.325ZM19.7437 17.8197C19.7437 19.2466 18.5693 20.4165 17.1248 20.4165C15.6803 20.4165 14.5057 19.2534 14.5057 17.8197V1.35254H19.737V17.8197H19.7437ZM2.8755 49.2729H17.469V52.6475H2.8755V49.2729ZM18.819 52.6475V38.412H51.2933V52.6475H18.819ZM51.2933 37.0595H44.226V33.881H47.952C48.3232 33.881 48.627 33.5767 48.627 33.2048C48.627 32.8328 48.3232 32.5285 47.952 32.5285H39.15C38.7788 32.5285 38.475 32.8328 38.475 33.2048C38.475 33.5767 38.7788 33.881 39.15 33.881H42.876V37.0595H27.3105V33.881H31.0365C31.4078 33.881 31.7115 33.5767 31.7115 33.2048C31.7115 32.8328 31.4078 32.5285 31.0365 32.5285H22.2413C21.87 32.5285 21.5663 32.8328 21.5663 33.2048C21.5663 33.5767 21.87 33.881 22.2413 33.881H25.9673V37.0595H18.8258V21.3904C19.4737 21.086 20.0273 20.6126 20.4255 20.0243C21.141 21.0793 22.3493 21.7691 23.7195 21.7691C25.0898 21.7691 26.298 21.0725 27.0135 20.0243C27.729 21.0793 28.9373 21.7691 30.3075 21.7691C31.6778 21.7691 32.886 21.0725 33.6015 20.0243C34.317 21.0793 35.5252 21.7691 36.8955 21.7691C38.2658 21.7691 39.474 21.0725 40.1895 20.0243C40.905 21.0793 42.1133 21.7691 43.4835 21.7691C44.8537 21.7691 46.062 21.0725 46.7775 20.0243C47.493 21.0793 48.7013 21.7691 50.0715 21.7691C50.5103 21.7691 50.9355 21.6947 51.3338 21.5594V37.0527L51.2933 37.0595ZM47.4188 1.35254H52.65V17.8197C52.65 19.2466 51.4755 20.4165 50.031 20.4165C48.5865 20.4165 47.412 19.2534 47.412 17.8197V1.35254H47.4188ZM46.0688 17.8197C46.0688 19.2466 44.8943 20.4165 43.4498 20.4165C42.0053 20.4165 40.8308 19.2534 40.8308 17.8197V1.35254H46.062V17.8197H46.0688ZM7.93125 1.35254H13.1625V17.8197C13.1625 19.2466 11.988 20.4165 10.5435 20.4165C9.099 20.4165 7.9245 19.2534 7.9245 17.8197V1.35254H7.93125ZM1.35 1.35254H6.58125V17.8197C6.58125 19.2466 5.40675 20.4165 3.96225 20.4165C2.51775 20.4165 1.34325 19.2534 1.34325 17.8197V1.35254H1.35Z" fill="#F5333F"/>
<path id="Vector_2" d="M47.7494 41.3402H41.9377C41.5664 41.3402 41.2627 41.6445 41.2627 42.0165V49.2187C41.2627 49.5907 41.5664 49.895 41.9377 49.895H47.7494C48.1207 49.895 48.4244 49.5907 48.4244 49.2187V42.0165C48.4244 41.6445 48.1207 41.3402 47.7494 41.3402ZM47.0744 48.5425H42.6127V42.6927H47.0744V48.5425Z" fill="#F5333F"/>
<path id="Vector_3" d="M37.9417 41.3402H32.13C31.7587 41.3402 31.455 41.6445 31.455 42.0165V49.2187C31.455 49.5907 31.7587 49.895 32.13 49.895H37.9417C38.313 49.895 38.6167 49.5907 38.6167 49.2187V42.0165C38.6167 41.6445 38.313 41.3402 37.9417 41.3402ZM37.2667 48.5425H32.805V42.6927H37.2667V48.5425Z" fill="#F5333F"/>
<path id="Vector_4" d="M28.134 41.3402H22.3222C21.951 41.3402 21.6472 41.6445 21.6472 42.0165V49.2187C21.6472 49.5907 21.951 49.895 22.3222 49.895H28.134C28.5052 49.895 28.809 49.5907 28.809 49.2187V42.0165C28.809 41.6445 28.5052 41.3402 28.134 41.3402ZM27.459 48.5425H22.9972V42.6927H27.459V48.5425Z" fill="#F5333F"/>
<path id="Vector_5" d="M5.17729 31.5547V36.9784C5.17729 37.7696 5.81854 38.412 6.60829 38.412H13.365C14.1548 38.412 14.796 37.7696 14.796 36.9784V31.5614C15.552 30.8919 15.9503 29.9181 15.8625 28.8902C15.7275 27.2942 14.418 26.0363 12.8183 25.9687C12.3795 25.9484 11.9475 26.0228 11.5358 26.1784C11.1443 26.3271 10.6853 26.4015 10.0913 26.4015H9.88879C9.29479 26.4015 8.83579 26.3339 8.44429 26.1784C8.03254 26.016 7.60729 25.9484 7.16179 25.9687C5.56204 26.0363 4.24579 27.2874 4.11754 28.8902C4.02979 29.9046 4.43479 30.8919 5.18404 31.5614L5.17729 31.5547ZM7.21579 27.3145C7.21579 27.3145 7.26979 27.3145 7.29679 27.3145C7.52629 27.3145 7.74904 27.3551 7.95829 27.4362C8.50504 27.6526 9.11929 27.7473 9.88879 27.7473H10.0913C10.8608 27.7473 11.475 27.6459 12.0285 27.4362C12.2648 27.3483 12.5145 27.3077 12.7643 27.3145C13.6755 27.3483 14.445 28.0922 14.5193 28.9984C14.5733 29.6679 14.283 30.2901 13.7363 30.6755C13.554 30.804 13.446 31.0069 13.446 31.2301V36.9784C13.446 37.0257 13.4123 37.0595 13.365 37.0595H6.60829C6.56104 37.0595 6.52729 37.0189 6.52729 36.9784V31.2301C6.52729 31.0069 6.41929 30.804 6.23704 30.6755C5.69029 30.2901 5.40004 29.6679 5.45404 28.9984C5.52829 28.0922 6.30454 27.3551 7.20904 27.3145H7.21579Z" fill="#F5333F"/>
</g>
<defs>
<clipPath id="clip0_228_3321">
<rect width="54" height="54" fill="white"/>
</clipPath>
</defs>
</svg>
