<svg width="139" height="140" viewBox="0 0 139 140" fill="none" xmlns="http://www.w3.org/2000/svg">
<path d="M62.1765 23.6773C66.4539 28.4962 73.9581 28.5542 78.3123 23.8092C85.2275 16.2708 97.7783 21.5904 97.1781 31.8053C96.7964 38.2341 102.057 43.5863 108.494 43.3089C118.715 42.8707 123.828 55.5073 116.179 62.3004C111.36 66.5778 111.302 74.0819 116.047 78.4362C123.585 85.3513 118.266 97.9021 108.051 97.3019C101.622 96.9202 96.27 102.181 96.5474 108.618C96.9855 118.839 84.349 123.952 77.5559 116.303C73.2785 111.484 65.7743 111.426 61.4201 116.171C54.5049 123.709 41.9542 118.39 42.5543 108.175C42.936 101.746 37.6758 96.3938 31.2383 96.6713C21.0174 97.1094 15.904 84.4728 23.5535 77.6798C28.3723 73.4024 28.4304 65.8982 23.6853 61.5439C16.147 54.6288 21.4666 42.078 31.6815 42.6782C38.1103 43.0599 43.4624 37.7996 43.185 31.3622C42.7469 21.1412 55.3835 16.0279 62.1765 23.6773Z" fill="#FF7A00"/>
<circle cx="70.3702" cy="70.2038" r="27.3776" transform="rotate(-22.0305 70.3702 70.2038)" stroke="white"/>
<g clip-path="url(#clip0_100_694)">
<path d="M79.1009 91.7861C91.0212 86.9626 96.7743 73.389 91.9508 61.4687C87.1273 49.5484 73.5538 43.7953 61.6334 48.6188C49.7131 53.4423 43.96 67.0159 48.7835 78.9362C53.6071 90.8565 67.1806 96.6096 79.1009 91.7861Z" stroke="white" stroke-miterlimit="10"/>
<path d="M79.1013 91.7861L70.3675 70.2025L70.3658 70.1981L61.6338 48.6188" stroke="white" stroke-miterlimit="10"/>
<path d="M79.1013 91.7861L70.3675 70.2025L70.3658 70.1981L61.6338 48.6188" stroke="white" stroke-miterlimit="10"/>
<path d="M91.8062 79.2892L70.3675 70.2025L70.3631 70.2042L48.9287 61.1157" stroke="white" stroke-miterlimit="10"/>
<path d="M61.2807 91.6412L61.279 91.6369L70.3631 70.2042L70.3675 70.2025L70.3657 70.1981L79.4498 48.7655L79.4542 48.7637" stroke="white" stroke-miterlimit="10"/>
<path d="M91.951 61.4687L70.3673 70.2025L70.363 70.2042L48.7837 78.9362" stroke="white" stroke-miterlimit="10"/>
</g>
<defs>
<clipPath id="clip0_100_694">
<rect width="47.0434" height="47.0434" fill="white" transform="translate(39.7432 57.2225) rotate(-22.0305)"/>
</clipPath>
</defs>
</svg>
