<svg width="192" height="192" viewBox="0 0 192 192" fill="none" xmlns="http://www.w3.org/2000/svg">
<path d="M114.346 13.9471C118.21 24.8207 130.629 29.9582 141.046 25.0058C157.59 17.1363 174.853 34.3991 166.994 50.9545C162.042 61.3709 167.179 73.7902 178.053 77.6542C195.316 83.793 195.316 108.207 178.053 114.346C167.179 118.21 162.042 130.629 166.994 141.046C174.864 157.59 157.601 174.853 141.046 166.994C130.629 162.042 118.21 167.179 114.346 178.053C108.207 195.316 83.793 195.316 77.6542 178.053C73.7902 167.179 61.3709 162.042 50.9545 166.994C34.41 174.864 17.1472 157.601 25.0058 141.046C29.9582 130.629 24.8207 118.21 13.9471 114.346C-3.31571 108.207 -3.31571 83.793 13.9471 77.6542C24.8207 73.7902 29.9582 61.3709 25.0058 50.9545C17.1363 34.41 34.3991 17.1472 50.9545 25.0058C61.3709 29.9582 73.7902 24.8207 77.6542 13.9471C83.793 -3.31571 108.207 -3.31571 114.346 13.9471Z" stroke="white" stroke-width="2" stroke-miterlimit="10"/>
<circle cx="96" cy="96" r="51" stroke="white" stroke-width="2"/>
<path d="M74.6829 114.185C75.0927 114.185 75.3658 113.916 75.3658 113.511V100.9C75.3658 97.3927 76.1853 94.8973 77.8243 93.4811C78.9852 92.4695 80.2827 92.2671 81.0339 92.2671V119.581C81.0339 121.132 82.3315 122.413 83.9022 122.413H108.077C109.648 122.413 110.945 121.132 110.945 119.581V92.2671C111.696 92.2671 112.994 92.4695 114.155 93.4811C115.794 94.8973 116.613 97.3927 116.613 100.9V113.444C116.613 113.848 116.887 114.118 117.296 114.118C117.706 114.118 117.979 113.848 117.979 113.444V100.9C117.979 96.9206 116.955 94.088 115.043 92.4695C113.131 90.8509 110.945 90.9183 110.331 90.9858C106.78 90.1765 103.16 85.6579 103.16 78.3743V78.3069V76.0813C103.16 72.1697 99.9505 69 95.9896 69C92.0288 69 88.8191 72.1697 88.8191 76.0813V78.3069V78.3743C88.8191 85.6579 85.268 90.1765 81.6486 90.9858C81.034 90.9183 78.8486 90.8509 76.9365 92.4695C74.9561 94.1555 74 96.988 74 100.9V113.444C74 113.848 74.2732 114.185 74.6829 114.185ZM95.9896 70.2814C99.1993 70.2814 101.794 72.8441 101.794 76.0139V77.565H90.1849V76.0139C90.1849 72.8441 92.78 70.2814 95.9896 70.2814ZM90.1849 78.9138H101.863C102.067 84.6463 104.663 90.7834 109.648 92.1323V119.513C109.648 120.323 108.965 120.997 108.145 120.997H83.9022C83.0827 120.997 82.3997 120.323 82.3997 119.513V92.1323C87.3167 90.716 89.98 84.6463 90.1849 78.9138Z" fill="white"/>
<path d="M89.0922 116.276H102.955C104.184 116.276 105.141 115.265 105.141 114.118V104.002C105.141 103.597 104.867 103.328 104.458 103.328H87.5215C87.1118 103.328 86.8386 103.597 86.8386 104.002V114.118C86.8386 115.265 87.863 116.276 89.0922 116.276ZM102.887 114.927H89.0922C88.6142 114.927 88.2728 114.523 88.2728 114.118V107.981H103.775V114.118C103.775 114.523 103.365 114.927 102.887 114.927ZM103.775 104.609V106.565H88.2044V104.609H103.775Z" fill="white"/>
</svg>
