<svg width="60" height="59" viewBox="0 0 60 59" fill="none" xmlns="http://www.w3.org/2000/svg">
<path d="M30 58C45.7401 58 58.5 45.2401 58.5 29.5C58.5 13.7599 45.7401 1 30 1C14.2599 1 1.5 13.7599 1.5 29.5C1.5 45.2401 14.2599 58 30 58Z" stroke="white" stroke-width="1.8" stroke-miterlimit="10"/>
<path d="M12.8999 31.78C12.8999 41.2313 20.3029 48.88 29.4299 48.88C38.5569 48.88 45.9599 41.2217 45.9599 31.78H12.8999Z" stroke="white" stroke-width="1.8" stroke-miterlimit="10"/>
<path d="M12.8999 22.66C12.8999 19.5145 15.7099 16.96 19.1699 16.96C22.6299 16.96 25.4399 19.5145 25.4399 22.66" stroke="white" stroke-width="1.8" stroke-miterlimit="10"/>
<path d="M33.4199 22.66C33.4199 19.5145 36.23 16.96 39.6899 16.96C43.1499 16.96 45.9599 19.5145 45.9599 22.66" stroke="white" stroke-width="1.8" stroke-miterlimit="10"/>
</svg>
