<svg width="54" height="54" viewBox="0 0 54 54" fill="none" xmlns="http://www.w3.org/2000/svg">
<g id="Capa_1" clip-path="url(#clip0_55_588)">
<path id="Vector" d="M2.2005 54H51.9683C52.3395 54 52.6432 53.6957 52.6432 53.3237V20.7817C53.4735 20.0581 54 18.9964 54 17.8197V0.676268C54 0.304321 53.6963 0 53.325 0H0.675C0.30375 0 0 0.304321 0 0.676268V17.8197C0 19.0775 0.60075 20.2001 1.5255 20.9237V53.3237C1.5255 53.6957 1.82925 54 2.2005 54ZM3.969 21.7691C5.33925 21.7691 6.5475 21.0725 7.263 20.0243C7.9785 21.0793 9.18675 21.7691 10.557 21.7691C11.9273 21.7691 13.1355 21.0725 13.851 20.0243C14.5665 21.0793 15.7747 21.7691 17.145 21.7691C17.2598 21.7691 17.3745 21.7623 17.4893 21.7488V47.9204H2.8755V21.6135C3.21975 21.715 3.591 21.7691 3.969 21.7691ZM39.4875 17.8197C39.4875 19.2466 38.313 20.4165 36.8685 20.4165C35.424 20.4165 34.2495 19.2534 34.2495 17.8197V1.35254H39.4808V17.8197H39.4875ZM32.9062 17.8197C32.9062 19.2466 31.7318 20.4165 30.2873 20.4165C28.8428 20.4165 27.6683 19.2534 27.6683 17.8197V1.35254H32.8995V17.8197H32.9062ZM26.325 17.8197C26.325 19.2466 25.1505 20.4165 23.706 20.4165C22.2615 20.4165 21.087 19.2534 21.087 17.8197V1.35254H26.3183V17.8197H26.325ZM19.7437 17.8197C19.7437 19.2466 18.5693 20.4165 17.1248 20.4165C15.6803 20.4165 14.5057 19.2534 14.5057 17.8197V1.35254H19.737V17.8197H19.7437ZM2.8755 49.2729H17.469V52.6475H2.8755V49.2729ZM18.819 52.6475V38.412H51.2933V52.6475H18.819ZM51.2933 37.0595H44.226V33.881H47.952C48.3232 33.881 48.627 33.5767 48.627 33.2048C48.627 32.8328 48.3232 32.5285 47.952 32.5285H39.15C38.7788 32.5285 38.475 32.8328 38.475 33.2048C38.475 33.5767 38.7788 33.881 39.15 33.881H42.876V37.0595H27.3105V33.881H31.0365C31.4078 33.881 31.7115 33.5767 31.7115 33.2048C31.7115 32.8328 31.4078 32.5285 31.0365 32.5285H22.2413C21.87 32.5285 21.5663 32.8328 21.5663 33.2048C21.5663 33.5767 21.87 33.881 22.2413 33.881H25.9673V37.0595H18.8258V21.3904C19.4737 21.086 20.0273 20.6126 20.4255 20.0243C21.141 21.0793 22.3493 21.7691 23.7195 21.7691C25.0898 21.7691 26.298 21.0725 27.0135 20.0243C27.729 21.0793 28.9373 21.7691 30.3075 21.7691C31.6778 21.7691 32.886 21.0725 33.6015 20.0243C34.317 21.0793 35.5252 21.7691 36.8955 21.7691C38.2658 21.7691 39.474 21.0725 40.1895 20.0243C40.905 21.0793 42.1133 21.7691 43.4835 21.7691C44.8537 21.7691 46.062 21.0725 46.7775 20.0243C47.493 21.0793 48.7013 21.7691 50.0715 21.7691C50.5103 21.7691 50.9355 21.6947 51.3338 21.5594V37.0527L51.2933 37.0595ZM47.4188 1.35254H52.65V17.8197C52.65 19.2466 51.4755 20.4165 50.031 20.4165C48.5865 20.4165 47.412 19.2534 47.412 17.8197V1.35254H47.4188ZM46.0688 17.8197C46.0688 19.2466 44.8943 20.4165 43.4498 20.4165C42.0053 20.4165 40.8308 19.2534 40.8308 17.8197V1.35254H46.062V17.8197H46.0688ZM7.93125 1.35254H13.1625V17.8197C13.1625 19.2466 11.988 20.4165 10.5435 20.4165C9.099 20.4165 7.9245 19.2534 7.9245 17.8197V1.35254H7.93125ZM1.35 1.35254H6.58125V17.8197C6.58125 19.2466 5.40675 20.4165 3.96225 20.4165C2.51775 20.4165 1.34325 19.2534 1.34325 17.8197V1.35254H1.35Z" fill="white"/>
<path id="Vector_2" d="M47.7494 41.3403H41.9377C41.5664 41.3403 41.2627 41.6447 41.2627 42.0166V49.2189C41.2627 49.5908 41.5664 49.8951 41.9377 49.8951H47.7494C48.1207 49.8951 48.4244 49.5908 48.4244 49.2189V42.0166C48.4244 41.6447 48.1207 41.3403 47.7494 41.3403ZM47.0744 48.5426H42.6127V42.6929H47.0744V48.5426Z" fill="white"/>
<path id="Vector_3" d="M37.9418 41.3403H32.1301C31.7588 41.3403 31.4551 41.6447 31.4551 42.0166V49.2189C31.4551 49.5908 31.7588 49.8951 32.1301 49.8951H37.9418C38.3131 49.8951 38.6168 49.5908 38.6168 49.2189V42.0166C38.6168 41.6447 38.3131 41.3403 37.9418 41.3403ZM37.2668 48.5426H32.8051V42.6929H37.2668V48.5426Z" fill="white"/>
<path id="Vector_4" d="M28.134 41.3403H22.3222C21.951 41.3403 21.6472 41.6447 21.6472 42.0166V49.2189C21.6472 49.5908 21.951 49.8951 22.3222 49.8951H28.134C28.5052 49.8951 28.809 49.5908 28.809 49.2189V42.0166C28.809 41.6447 28.5052 41.3403 28.134 41.3403ZM27.459 48.5426H22.9972V42.6929H27.459V48.5426Z" fill="white"/>
<path id="Vector_5" d="M5.17729 31.5546V36.9782C5.17729 37.7695 5.81854 38.4119 6.60829 38.4119H13.365C14.1548 38.4119 14.796 37.7695 14.796 36.9782V31.5613C15.552 30.8918 15.9503 29.918 15.8625 28.8901C15.7275 27.2941 14.418 26.0362 12.8183 25.9686C12.3795 25.9483 11.9475 26.0227 11.5358 26.1782C11.1443 26.327 10.6853 26.4014 10.0913 26.4014H9.88879C9.29479 26.4014 8.83579 26.3338 8.44429 26.1782C8.03254 26.0159 7.60729 25.9483 7.16179 25.9686C5.56204 26.0362 4.24579 27.2873 4.11754 28.8901C4.02979 29.9045 4.43479 30.8918 5.18404 31.5613L5.17729 31.5546ZM7.21579 27.3144C7.21579 27.3144 7.26979 27.3144 7.29679 27.3144C7.52629 27.3144 7.74904 27.3549 7.95829 27.4361C8.50504 27.6525 9.11929 27.7472 9.88879 27.7472H10.0913C10.8608 27.7472 11.475 27.6457 12.0285 27.4361C12.2648 27.3482 12.5145 27.3076 12.7643 27.3144C13.6755 27.3482 14.445 28.0921 14.5193 28.9983C14.5733 29.6678 14.283 30.2899 13.7363 30.6754C13.554 30.8039 13.446 31.0068 13.446 31.23V36.9782C13.446 37.0256 13.4123 37.0594 13.365 37.0594H6.60829C6.56104 37.0594 6.52729 37.0188 6.52729 36.9782V31.23C6.52729 31.0068 6.41929 30.8039 6.23704 30.6754C5.69029 30.2899 5.40004 29.6678 5.45404 28.9983C5.52829 28.0921 6.30454 27.3549 7.20904 27.3144H7.21579Z" fill="white"/>
</g>
<defs>
<clipPath id="clip0_55_588">
<rect width="54" height="54" fill="white"/>
</clipPath>
</defs>
</svg>
