<svg width="192" height="192" viewBox="0 0 192 192" fill="none" xmlns="http://www.w3.org/2000/svg">
<path d="M114.346 13.9471C118.21 24.8207 130.629 29.9582 141.046 25.0058C157.59 17.1363 174.853 34.3991 166.994 50.9545C162.042 61.3709 167.179 73.7902 178.053 77.6542C195.316 83.793 195.316 108.207 178.053 114.346C167.179 118.21 162.042 130.629 166.994 141.046C174.864 157.59 157.601 174.853 141.046 166.994C130.629 162.042 118.21 167.179 114.346 178.053C108.207 195.316 83.793 195.316 77.6542 178.053C73.7902 167.179 61.3709 162.042 50.9545 166.994C34.41 174.864 17.1472 157.601 25.0058 141.046C29.9582 130.629 24.8207 118.21 13.9471 114.346C-3.31571 108.207 -3.31571 83.793 13.9471 77.6542C24.8207 73.7902 29.9582 61.3709 25.0058 50.9545C17.1363 34.41 34.3991 17.1472 50.9545 25.0058C61.3709 29.9582 73.7902 24.8207 77.6542 13.9471C83.793 -3.31571 108.207 -3.31571 114.346 13.9471Z" stroke="white" stroke-width="2" stroke-miterlimit="10"/>
<circle cx="96" cy="96" r="51" stroke="white" stroke-width="2"/>
<mask id="path-3-inside-1_270_1488" fill="white">
<path d="M96 66C79.4618 66 66 79.2866 66 95.6267C66 111.967 79.454 125.253 96 125.253C112.546 125.253 126 111.967 126 95.6267C126 79.2866 112.546 66 96 66ZM97.2903 95.448L110.689 82.2081L124.096 95.4402L110.689 108.68L97.2903 95.448ZM109.58 109.784L96.1731 123.023L82.7741 109.791L96.1809 96.5513L109.58 109.784ZM111.799 81.1125L116.622 76.3495C120.98 80.8949 123.813 86.87 124.324 93.4822L111.799 81.1203V81.1125ZM110.689 80.0169L98.1558 67.6472C104.851 68.1445 110.91 70.9494 115.512 75.254L110.689 80.0169ZM96.1731 67.8881L109.58 81.1203L96.1809 94.3602L82.7741 81.1203L96.1731 67.8881ZM81.657 80.0169L76.6609 75.083C81.3344 70.794 87.4555 68.0357 94.2219 67.6239L81.6649 80.0247L81.657 80.0169ZM95.0637 95.4558L81.657 108.696L68.2423 95.448L81.6491 82.2158L95.0559 95.4558H95.0637ZM80.5476 109.799L75.3627 114.919C70.8387 110.195 67.9434 103.933 67.6051 97.0175L80.5476 109.799ZM81.657 110.895L94.5916 123.668C87.5893 123.334 81.2557 120.475 76.472 116.015L81.657 110.895ZM110.689 110.895L115.701 115.844C110.988 120.327 104.718 123.225 97.7781 123.653L110.689 110.902V110.895ZM111.799 109.799L124.348 97.406C123.931 104.08 121.138 110.133 116.795 114.741L111.799 109.807V109.799ZM75.5358 76.1864L80.5397 81.128L67.6286 93.8707C68.0613 87.0176 70.9961 80.8328 75.5358 76.1786V76.1864Z"/>
</mask>
<path d="M96 66C79.4618 66 66 79.2866 66 95.6267C66 111.967 79.454 125.253 96 125.253C112.546 125.253 126 111.967 126 95.6267C126 79.2866 112.546 66 96 66ZM97.2903 95.448L110.689 82.2081L124.096 95.4402L110.689 108.68L97.2903 95.448ZM109.58 109.784L96.1731 123.023L82.7741 109.791L96.1809 96.5513L109.58 109.784ZM111.799 81.1125L116.622 76.3495C120.98 80.8949 123.813 86.87 124.324 93.4822L111.799 81.1203V81.1125ZM110.689 80.0169L98.1558 67.6472C104.851 68.1445 110.91 70.9494 115.512 75.254L110.689 80.0169ZM96.1731 67.8881L109.58 81.1203L96.1809 94.3602L82.7741 81.1203L96.1731 67.8881ZM81.657 80.0169L76.6609 75.083C81.3344 70.794 87.4555 68.0357 94.2219 67.6239L81.6649 80.0247L81.657 80.0169ZM95.0637 95.4558L81.657 108.696L68.2423 95.448L81.6491 82.2158L95.0559 95.4558H95.0637ZM80.5476 109.799L75.3627 114.919C70.8387 110.195 67.9434 103.933 67.6051 97.0175L80.5476 109.799ZM81.657 110.895L94.5916 123.668C87.5893 123.334 81.2557 120.475 76.472 116.015L81.657 110.895ZM110.689 110.895L115.701 115.844C110.988 120.327 104.718 123.225 97.7781 123.653L110.689 110.902V110.895ZM111.799 109.799L124.348 97.406C123.931 104.08 121.138 110.133 116.795 114.741L111.799 109.807V109.799ZM75.5358 76.1864L80.5397 81.128L67.6286 93.8707C68.0613 87.0176 70.9961 80.8328 75.5358 76.1786V76.1864Z" fill="white"/>
<path d="M97.2903 95.448L27.7058 25.0279L-43.5808 95.4687L27.7264 165.889L97.2903 95.448ZM110.689 82.2081L180.233 11.7474L110.649 -56.9309L41.1047 11.788L110.689 82.2081ZM124.096 95.4402L193.66 165.881L265.008 95.4196L193.639 24.9795L124.096 95.4402ZM110.689 108.68L41.1254 179.121L110.689 247.819L180.253 179.12L110.689 108.68ZM109.58 109.784L179.144 180.224L250.472 109.784L179.144 39.343L109.58 109.784ZM96.1731 123.023L26.6092 193.464L96.1731 262.162L165.737 193.464L96.1731 123.023ZM82.7741 109.791L13.2103 39.3508L-58.1179 109.791L13.2103 180.232L82.7741 109.791ZM96.1809 96.5513L165.745 26.1108L96.181 -42.5874L26.6171 26.1108L96.1809 96.5513ZM111.799 81.1125L42.2346 10.672L12.7985 39.7418V81.1125H111.799ZM116.622 76.3495L188.077 7.8283L118.541 -64.6848L47.0576 5.90908L116.622 76.3495ZM124.324 93.4822L54.7824 163.945L243.473 350.17L223.029 85.848L124.324 93.4822ZM111.799 81.1203H12.7985V122.509L42.2568 151.583L111.799 81.1203ZM110.689 80.0169L41.1475 150.479L110.711 219.134L180.253 150.457L110.689 80.0169ZM98.1558 67.6472L105.488 -31.0809L-163.023 -51.0231L28.614 138.11L98.1558 67.6472ZM115.512 75.254L185.076 145.694L258.372 73.3111L183.135 2.94777L115.512 75.254ZM96.1731 67.8881L165.716 -2.57284L96.1526 -71.2304L26.6092 -2.55241L96.1731 67.8881ZM109.58 81.1203L179.164 151.54L250.472 81.0789L179.123 10.6593L109.58 81.1203ZM96.1809 94.3602L26.6171 164.801L96.2014 233.519L165.766 164.78L96.1809 94.3602ZM82.7741 81.1203L13.2102 10.6798L-58.1179 81.1203L13.2103 151.561L82.7741 81.1203ZM81.657 80.0169L12.0929 150.457L12.1131 150.477L12.1333 150.497L81.657 80.0169ZM76.6609 75.083L9.72206 2.14342L-66.8922 72.4546L7.09684 145.523L76.6609 75.083ZM94.2219 67.6239L163.786 138.064L351.395 -47.2111L88.2077 -31.1932L94.2219 67.6239ZM81.6649 80.0247L12.1412 150.505L81.7047 219.124L151.229 150.465L81.6649 80.0247ZM95.0637 95.4558L164.628 165.896L336.202 -3.54423H95.0637V95.4558ZM81.657 108.696L12.0931 179.136L81.6573 247.835L151.221 179.136L81.657 108.696ZM68.2423 95.448L-1.3009 24.9871L-72.6707 95.4274L-1.32155 165.889L68.2423 95.448ZM81.6491 82.2158L151.213 11.7753L81.6695 -56.9027L12.1059 11.7549L81.6491 82.2158ZM95.0559 95.4558L25.492 165.896L54.4114 194.456H95.0559V95.4558ZM80.5476 109.799L150.112 180.239L221.439 109.799L150.112 39.3587L80.5476 109.799ZM75.3627 114.919L3.86111 183.392L73.395 256.002L144.927 185.36L75.3627 114.919ZM67.6051 97.0175L137.169 26.5772L-43.6981 -152.04L-31.2767 101.855L67.6051 97.0175ZM81.657 110.895L151.221 40.4543L81.6576 -28.2439L12.0935 40.4537L81.657 110.895ZM94.5916 123.668L89.8734 222.556L348.092 234.876L164.156 53.228L94.5916 123.668ZM76.472 116.015L6.90855 45.5741L-66.5013 118.069L8.96127 188.426L76.472 116.015ZM110.689 110.895L180.253 40.4542L11.6893 -126.012V110.895H110.689ZM115.701 115.844L183.936 187.573L257.94 117.174L185.265 45.4036L115.701 115.844ZM97.7781 123.653L28.2143 53.2123L-159.601 238.69L103.863 222.466L97.7781 123.653ZM110.689 110.902L180.253 181.343L209.689 152.273V110.902H110.689ZM111.799 109.799L42.2348 39.3584L12.7985 68.4282V109.799H111.799ZM124.348 97.406L223.155 103.579L239.328 -155.281L54.784 26.9654L124.348 97.406ZM116.795 114.741L47.2305 185.181L119.331 256.384L188.836 182.646L116.795 114.741ZM111.799 109.807H12.7985V151.177L42.2345 180.247L111.799 109.807ZM75.5358 76.1864H-23.4642V117.557L5.97176 146.627L75.5358 76.1864ZM80.5397 81.128L150.082 151.59L221.453 81.1497L150.104 10.6877L80.5397 81.128ZM67.6286 93.8707L-31.1746 87.6319L-47.5283 346.622L137.171 164.332L67.6286 93.8707ZM75.5358 76.1786H174.536V-167.1L4.66627 7.05183L75.5358 76.1786ZM96 -33C25.975 -33 -33 23.4286 -33 95.6267H165C165 135.145 132.949 165 96 165V-33ZM-33 95.6267C-33 167.808 25.9501 224.253 96 224.253V26.2534C132.958 26.2534 165 56.1257 165 95.6267H-33ZM96 224.253C166.05 224.253 225 167.808 225 95.6267H27C27 56.1257 59.0422 26.2534 96 26.2534V224.253ZM225 95.6267C225 23.4454 166.05 -33 96 -33V165C59.0421 165 27 135.128 27 95.6267H225ZM166.875 165.868L180.274 152.628L41.1047 11.788L27.7058 25.0279L166.875 165.868ZM41.1458 152.669L54.5525 165.901L193.639 24.9795L180.233 11.7474L41.1458 152.669ZM54.5318 25L41.1251 38.2399L180.253 179.12L193.66 165.881L54.5318 25ZM180.253 38.2397L166.854 25.0075L27.7264 165.889L41.1254 179.121L180.253 38.2397ZM40.016 39.343L26.6092 52.5829L165.737 193.464L179.144 180.224L40.016 39.343ZM165.737 52.583L152.338 39.3508L13.2103 180.232L26.6092 193.464L165.737 52.583ZM152.338 180.232L165.745 166.992L26.6171 26.1108L13.2103 39.3508L152.338 180.232ZM26.617 166.992L40.016 180.224L179.144 39.343L165.745 26.1108L26.617 166.992ZM181.362 151.553L186.185 146.79L47.0576 5.90908L42.2346 10.672L181.362 151.553ZM45.1664 144.871C34.352 133.593 26.9481 118.302 25.6189 101.116L223.029 85.848C220.677 55.4378 207.609 28.1965 188.077 7.8283L45.1664 144.871ZM193.866 23.0198L181.34 10.6579L42.2568 151.583L54.7824 163.945L193.866 23.0198ZM210.799 81.1203V81.1125H12.7985V81.1203H210.799ZM180.231 9.55455L167.698 -2.81516L28.614 138.11L41.1475 150.479L180.231 9.55455ZM90.8233 166.375C74.2526 165.145 59.2284 158.164 47.8897 147.56L183.135 2.94777C162.591 -16.2656 135.45 -28.8556 105.488 -31.0809L90.8233 166.375ZM45.9483 4.81352L41.1253 9.57648L180.253 150.457L185.076 145.694L45.9483 4.81352ZM26.6299 138.349L40.0367 151.581L179.123 10.6593L165.716 -2.57284L26.6299 138.349ZM39.9953 10.7002L26.5964 23.9401L165.766 164.78L179.164 151.54L39.9953 10.7002ZM165.745 23.9197L152.338 10.6797L13.2103 151.561L26.6171 164.801L165.745 23.9197ZM152.338 151.561L165.737 138.329L26.6092 -2.55241L13.2102 10.6798L152.338 151.561ZM151.221 9.57664L146.225 4.64274L7.09684 145.523L12.0929 150.457L151.221 9.57664ZM143.6 148.023C132.124 158.554 116.93 165.425 100.236 166.441L88.2077 -31.1932C57.9807 -29.3536 30.5445 -16.966 9.72206 2.14342L143.6 148.023ZM24.6578 -2.81644L12.1008 9.58435L151.229 150.465L163.786 138.064L24.6578 -2.81644ZM151.189 9.5445L151.181 9.53673L12.1333 150.497L12.1412 150.505L151.189 9.5445ZM25.4995 25.0155L12.0928 38.2555L151.221 179.136L164.628 165.896L25.4995 25.0155ZM151.221 38.2552L137.806 25.0075L-1.32155 165.889L12.0931 179.136L151.221 38.2552ZM137.786 165.909L151.192 152.677L12.1059 11.7549L-1.3009 24.9871L137.786 165.909ZM12.0852 152.656L25.492 165.896L164.62 25.0153L151.213 11.7753L12.0852 152.656ZM95.0559 194.456H95.0637V-3.54423H95.0559V194.456ZM10.9834 39.3588L5.79856 44.4792L144.927 185.36L150.112 180.239L10.9834 39.3588ZM146.864 46.4467C157.955 58.0283 165.599 74.0408 166.487 92.1799L-31.2767 101.855C-29.7126 133.825 -16.2779 162.362 3.86111 183.392L146.864 46.4467ZM-1.95899 167.458L10.9835 180.239L150.112 39.3587L137.169 26.5772L-1.95899 167.458ZM12.0929 181.335L25.0276 194.109L164.156 53.228L151.221 40.4543L12.0929 181.335ZM99.3099 24.7809C116.684 25.6098 132.354 32.7622 143.983 43.6044L8.96127 188.426C30.1576 208.188 58.4946 221.059 89.8734 222.556L99.3099 24.7809ZM146.035 186.456L151.22 181.336L12.0935 40.4537L6.90855 45.5741L146.035 186.456ZM41.1253 181.335L46.1371 186.284L185.265 45.4036L180.253 40.4542L41.1253 181.335ZM47.4664 44.1152C59.0551 33.091 74.5848 25.8936 91.693 24.84L103.863 222.466C134.85 220.557 162.921 207.564 183.936 187.573L47.4664 44.1152ZM167.342 194.093L180.253 181.343L41.1254 40.4619L28.2143 53.2123L167.342 194.093ZM209.689 110.902V110.895H11.6893V110.902H209.689ZM181.362 180.24L193.912 167.847L54.784 26.9654L42.2348 39.3584L181.362 180.24ZM25.5404 91.2328C26.6288 73.8126 33.9589 58.2878 44.7536 46.8357L188.836 182.646C208.316 161.978 221.233 134.348 223.155 103.579L25.5404 91.2328ZM186.359 44.3004L181.363 39.3665L42.2345 180.247L47.2305 185.181L186.359 44.3004ZM210.799 109.807V109.799H12.7985V109.807H210.799ZM5.97176 146.627L10.9757 151.568L150.104 10.6877L145.1 5.746L5.97176 146.627ZM10.9973 10.6663L-1.91382 23.409L137.171 164.332L150.082 151.59L10.9973 10.6663ZM166.432 100.11C165.3 118.029 157.579 133.85 146.405 145.305L4.66627 7.05183C-15.5867 27.8154 -29.1777 56.0067 -31.1746 87.6319L166.432 100.11ZM-23.4642 76.1786V76.1864H174.536V76.1786H-23.4642Z" fill="white" mask="url(#path-3-inside-1_270_1488)"/>
</svg>
