<svg width="192" height="192" viewBox="0 0 192 192" fill="none" xmlns="http://www.w3.org/2000/svg">
<path d="M114.346 13.9471C118.21 24.8207 130.629 29.9582 141.046 25.0058C157.59 17.1363 174.853 34.3991 166.994 50.9545C162.042 61.3709 167.179 73.7902 178.053 77.6542C195.316 83.793 195.316 108.207 178.053 114.346C167.179 118.21 162.042 130.629 166.994 141.046C174.864 157.59 157.601 174.853 141.046 166.994C130.629 162.042 118.21 167.179 114.346 178.053C108.207 195.316 83.793 195.316 77.6542 178.053C73.7902 167.179 61.3709 162.042 50.9545 166.994C34.41 174.864 17.1472 157.601 25.0058 141.046C29.9582 130.629 24.8207 118.21 13.9471 114.346C-3.31571 108.207 -3.31571 83.793 13.9471 77.6542C24.8207 73.7902 29.9582 61.3709 25.0058 50.9545C17.1363 34.41 34.3991 17.1472 50.9545 25.0058C61.3709 29.9582 73.7902 24.8207 77.6542 13.9471C83.793 -3.31571 108.207 -3.31571 114.346 13.9471Z" stroke="white" stroke-width="2" stroke-miterlimit="10"/>
<circle cx="96" cy="96" r="51" stroke="white" stroke-width="2"/>
<path d="M95.5 125C111.24 125 124 112.24 124 96.5C124 80.7599 111.24 68 95.5 68C79.7599 68 67 80.7599 67 96.5C67 112.24 79.7599 125 95.5 125Z" stroke="white" stroke-width="1.5" stroke-miterlimit="10"/>
<path d="M78.4 98.78C78.4 108.231 85.803 115.88 94.93 115.88C104.057 115.88 111.46 108.222 111.46 98.78H78.4Z" stroke="white" stroke-width="1.5" stroke-miterlimit="10"/>
<path d="M78.4 89.6601C78.4 86.5147 81.21 83.9601 84.67 83.9601C88.1299 83.9601 90.94 86.5147 90.94 89.6601" stroke="white" stroke-width="1.5" stroke-miterlimit="10"/>
<path d="M98.9201 89.6601C98.9201 86.5147 101.73 83.9601 105.19 83.9601C108.65 83.9601 111.46 86.5147 111.46 89.6601" stroke="white" stroke-width="1.5" stroke-miterlimit="10"/>
</svg>
