<svg width="36" height="35" viewBox="0 0 36 35" fill="none" xmlns="http://www.w3.org/2000/svg">
<g id="Whatsapp">
<path id="Vector" d="M34.5 17.5C34.5 26.3094 27.1402 33.5 18 33.5C8.85978 33.5 1.5 26.3094 1.5 17.5C1.5 8.69057 8.85978 1.5 18 1.5C27.1402 1.5 34.5 8.69057 34.5 17.5Z" stroke="#F5333F" stroke-width="2"/>
<path id="Vector_2" d="M17.7635 8.46002C20.7312 8.46002 21.0815 8.47039 22.2529 8.52486C23.3354 8.57415 23.9237 8.75313 24.3159 8.90358C24.8336 9.10332 25.2048 9.34197 25.5944 9.72847C25.984 10.115 26.2245 10.4807 26.4259 10.9969C26.5775 11.386 26.7579 11.9697 26.8076 13.0436C26.8599 14.2057 26.873 14.5559 26.873 17.4975C26.873 20.439 26.8625 20.7892 26.8076 21.9513C26.7579 23.0252 26.5775 23.6089 26.4259 23.998C26.2245 24.5116 25.984 24.8799 25.5944 25.2664C25.2048 25.6529 24.8362 25.8916 24.3159 26.0913C23.9237 26.2418 23.3354 26.4208 22.2529 26.47C21.0815 26.5219 20.7312 26.5349 17.7635 26.5349C14.7959 26.5349 14.4456 26.5245 13.2742 26.47C12.1917 26.4208 11.6034 26.2418 11.2112 26.0913C10.6935 25.8916 10.3223 25.6529 9.93268 25.2664C9.5431 24.8799 9.30255 24.5142 9.10122 23.998C8.94957 23.6089 8.76916 23.0252 8.71948 21.9513C8.66719 20.7892 8.65412 20.439 8.65412 17.4975C8.65412 14.5559 8.66457 14.2057 8.71948 13.0436C8.76916 11.9697 8.94957 11.386 9.10122 10.9969C9.30255 10.4833 9.5431 10.115 9.93268 9.72847C10.3223 9.34197 10.6909 9.10332 11.2112 8.90358C11.6034 8.75313 12.1917 8.57415 13.2742 8.52486C14.4456 8.47299 14.7985 8.46002 17.7635 8.46002ZM17.7635 6.47302C14.7462 6.47302 14.3671 6.48599 13.1827 6.54046C12.0009 6.59494 11.1929 6.77911 10.4844 7.05408C9.75488 7.33682 9.13521 7.71295 8.51554 8.32513C7.89848 8.93731 7.51674 9.55208 7.23436 10.2784C6.95982 10.9788 6.77157 11.7803 6.71666 12.9554C6.66175 14.1305 6.64868 14.5066 6.64868 17.5C6.64868 20.4935 6.66175 20.8696 6.71666 22.0447C6.77157 23.2172 6.95721 24.0187 7.23436 24.7217C7.51936 25.4454 7.89848 26.0602 8.51554 26.675C9.1326 27.2871 9.75227 27.6659 10.4844 27.946C11.1903 28.2184 11.9982 28.4052 13.1827 28.4596C14.3671 28.5141 14.7462 28.5271 17.7635 28.5271C20.7809 28.5271 21.16 28.5141 22.3444 28.4596C23.5262 28.4052 24.3342 28.221 25.0427 27.946C25.7722 27.6633 26.3919 27.2871 27.0116 26.675C27.6286 26.0628 28.0103 25.448 28.2927 24.7217C28.5673 24.0213 28.7555 23.2198 28.8104 22.0447C28.8653 20.8696 28.8784 20.4935 28.8784 17.5C28.8784 14.5066 28.8653 14.1305 28.8104 12.9554C28.7555 11.7829 28.5699 10.9814 28.2927 10.2784C28.0077 9.55468 27.6286 8.9399 27.0116 8.32513C26.3945 7.71295 25.7748 7.33423 25.0427 7.05408C24.3368 6.78171 23.5288 6.59494 22.3444 6.54046C21.16 6.48599 20.7809 6.47302 17.7635 6.47302Z" fill="#F5333F"/>
<path id="Vector_3" d="M18 11.9865C14.8656 11.9865 12.3243 14.4552 12.3243 17.5C12.3243 20.5448 14.8656 23.0135 18 23.0135C21.1344 23.0135 23.6757 20.5448 23.6757 17.5C23.6757 14.4552 21.1344 11.9865 18 11.9865ZM18 21.0805C15.9659 21.0805 14.3142 19.4785 14.3142 17.5C14.3142 15.5215 15.9633 13.9195 18 13.9195C20.0367 13.9195 21.6858 15.5215 21.6858 17.5C21.6858 19.4785 20.0367 21.0805 18 21.0805Z" fill="#F5333F"/>
<path id="Vector_4" d="M23.9122 12.9054C24.5652 12.9054 25.0946 12.2883 25.0946 11.5271C25.0946 10.7658 24.5652 10.1487 23.9122 10.1487C23.2591 10.1487 22.7297 10.7658 22.7297 11.5271C22.7297 12.2883 23.2591 12.9054 23.9122 12.9054Z" fill="#F5333F"/>
</g>
</svg>
