<svg width="26" height="27" viewBox="0 0 26 27" fill="none" xmlns="http://www.w3.org/2000/svg">
<g clip-path="url(#clip0_254_9557)">
<path d="M13 26.417C20.1797 26.417 26 20.5967 26 13.417C26 6.23729 20.1797 0.416992 13 0.416992C5.8203 0.416992 0 6.23729 0 13.417C0 20.5967 5.8203 26.417 13 26.417Z" fill="white"/>
<path d="M12.9996 6.70707C15.1855 6.70707 15.4436 6.71477 16.3064 6.75522C17.1038 6.79181 17.5371 6.9247 17.826 7.0364C18.2073 7.1847 18.4808 7.36189 18.7678 7.64885C19.0547 7.93581 19.2319 8.20737 19.3802 8.59063C19.4919 8.87951 19.6248 9.31285 19.6614 10.1102C19.6999 10.973 19.7095 11.233 19.7095 13.417C19.7095 15.601 19.7018 15.861 19.6614 16.7238C19.6248 17.5211 19.4919 17.9545 19.3802 18.2434C19.2319 18.6247 19.0547 18.8982 18.7678 19.1851C18.4808 19.4721 18.2092 19.6493 17.826 19.7976C17.5371 19.9093 17.1038 20.0422 16.3064 20.0788C15.4436 20.1173 15.1855 20.1269 12.9996 20.1269C10.8137 20.1269 10.5556 20.1192 9.6928 20.0788C8.89546 20.0422 8.46213 19.9093 8.17324 19.7976C7.79191 19.6493 7.51843 19.4721 7.23146 19.1851C6.9445 18.8982 6.76731 18.6266 6.61902 18.2434C6.50731 17.9545 6.37443 17.5211 6.33783 16.7238C6.29931 15.861 6.28969 15.601 6.28969 13.417C6.28969 11.233 6.29739 10.973 6.33783 10.1102C6.37443 9.31285 6.50731 8.87951 6.61902 8.59063C6.76731 8.20929 6.9445 7.93581 7.23146 7.64885C7.51843 7.36189 7.78998 7.1847 8.17324 7.0364C8.46213 6.9247 8.89546 6.79181 9.6928 6.75522C10.5556 6.7167 10.8156 6.70707 12.9996 6.70707ZM12.9996 5.23181C10.7771 5.23181 10.4978 5.24144 9.62539 5.28189C8.75487 5.32233 8.15976 5.45907 7.63783 5.66322C7.1005 5.87314 6.64406 6.1524 6.18761 6.60692C5.73309 7.06144 5.45191 7.51789 5.24391 8.05714C5.04169 8.57714 4.90302 9.17226 4.86257 10.0447C4.82213 10.9171 4.8125 11.1964 4.8125 13.4189C4.8125 15.6414 4.82213 15.9207 4.86257 16.7931C4.90302 17.6637 5.03976 18.2588 5.24391 18.7807C5.45383 19.318 5.73309 19.7745 6.18761 20.2309C6.64213 20.6854 7.09857 20.9666 7.63783 21.1746C8.15783 21.3768 8.75294 21.5155 9.62539 21.556C10.4978 21.5964 10.7771 21.606 12.9996 21.606C15.2221 21.606 15.5014 21.5964 16.3738 21.556C17.2444 21.5155 17.8395 21.3788 18.3614 21.1746C18.8987 20.9647 19.3552 20.6854 19.8116 20.2309C20.2661 19.7764 20.5473 19.32 20.7553 18.7807C20.9575 18.2607 21.0962 17.6656 21.1367 16.7931C21.1771 15.9207 21.1867 15.6414 21.1867 13.4189C21.1867 11.1964 21.1771 10.9171 21.1367 10.0447C21.0962 9.17418 20.9595 8.57907 20.7553 8.05714C20.5454 7.51981 20.2661 7.06337 19.8116 6.60692C19.3571 6.1524 18.9006 5.87122 18.3614 5.66322C17.8414 5.461 17.2463 5.32233 16.3738 5.28189C15.5014 5.24144 15.2221 5.23181 12.9996 5.23181Z" fill="#18161C"/>
<path d="M13.0002 9.2146C10.6795 9.2146 8.79785 11.0962 8.79785 13.417C8.79785 15.7377 10.6795 17.6193 13.0002 17.6193C15.321 17.6193 17.2026 15.7377 17.2026 13.417C17.2026 11.0962 15.321 9.2146 13.0002 9.2146ZM13.0002 16.146C11.4941 16.146 10.2712 14.925 10.2712 13.417C10.2712 11.909 11.4922 10.6879 13.0002 10.6879C14.5082 10.6879 15.7293 11.909 15.7293 13.417C15.7293 14.925 14.5082 16.146 13.0002 16.146Z" fill="#18161C"/>
<path d="M17.3699 10.0293C17.9124 10.0293 18.3521 9.58951 18.3521 9.04704C18.3521 8.50458 17.9124 8.06482 17.3699 8.06482C16.8275 8.06482 16.3877 8.50458 16.3877 9.04704C16.3877 9.58951 16.8275 10.0293 17.3699 10.0293Z" fill="#18161C"/>
</g>
<defs>
<clipPath id="clip0_254_9557">
<rect width="26" height="26" fill="white" transform="translate(0 0.416992)"/>
</clipPath>
</defs>
</svg>
