<svg width="101" height="29" viewBox="0 0 101 29" fill="none" xmlns="http://www.w3.org/2000/svg">
<rect width="101" height="29" fill="#F5F5F5"/>
<g id="About us" clip-path="url(#clip0_531_10671)">
<rect width="1280" height="2338" transform="translate(-657 -2195)" fill="white"/>
<g id="Foooter">
<rect width="1280" height="863.17" transform="translate(-657 -720)" fill="white"/>
<g id="Kit">
<g id="Frame 16">
<g id="logos">
<g id="Group">
<path id="Vector" d="M46.0425 26.7161L46.0425 26.7161L46.0362 26.7226C45.817 26.9499 45.5439 27.134 45.2277 27.2708C44.9222 27.4029 44.5999 27.4697 44.2461 27.4697H38.7461V17.5497H44.2461C44.5908 17.5497 44.9229 17.6168 45.2277 17.7486C45.5372 17.8825 45.8038 18.0652 46.0393 18.3C46.2689 18.5388 46.4531 18.8081 46.5872 19.1181C46.7193 19.4236 46.7861 19.7459 46.7861 20.0997V24.9197C46.7861 25.2735 46.7193 25.5957 46.5872 25.9012C46.4498 26.2189 46.2738 26.4848 46.0425 26.7161ZM39.1561 26.5497V27.0497H39.6561H44.2661C44.8548 27.0497 45.3765 26.8395 45.7852 26.4176C46.1838 26.0061 46.3961 25.5021 46.3961 24.9097V20.0797C46.3961 19.7923 46.3461 19.5141 46.2264 19.2442C46.1183 18.9782 45.9622 18.7631 45.8024 18.5804L45.7914 18.5679L45.7797 18.5561C45.5886 18.3651 45.3688 18.2096 45.1113 18.0937C44.8383 17.9709 44.557 17.9197 44.2661 17.9197H39.6561H39.1561V18.4197V26.5397V26.5497Z" fill="#202020" stroke="#202020"/>
<path id="Vector_2" d="M50.0264 27.4597V17.5397H50.4264V27.4597H50.0264Z" fill="#202020" stroke="#202020"/>
<g id="Vector_3">
<mask id="path-5-inside-2_531_10671" fill="white">
<path d="M54.996 27.7297C54.636 27.5697 54.316 27.3597 54.046 27.0797C53.776 26.8097 53.566 26.4897 53.406 26.1197C53.246 25.7497 53.166 25.3597 53.166 24.9397V20.0697C53.166 19.6497 53.246 19.2597 53.406 18.8897C53.566 18.5197 53.776 18.1997 54.046 17.9297C54.316 17.6597 54.636 17.4397 54.996 17.2797C55.356 17.1197 55.746 17.0397 56.166 17.0397H60.236C60.646 17.0397 61.036 17.1197 61.406 17.2797C61.766 17.4397 62.086 17.6497 62.356 17.9297C62.626 18.1997 62.836 18.5197 62.996 18.8897C63.156 19.2597 63.236 19.6497 63.236 20.0697V20.4797H61.856V20.0697C61.856 19.6197 61.696 19.2297 61.386 18.9097C61.076 18.5897 60.686 18.4297 60.246 18.4297H56.176C55.956 18.4297 55.746 18.4697 55.556 18.5597C55.366 18.6397 55.196 18.7597 55.056 18.9097C54.906 19.0597 54.796 19.2297 54.716 19.4297C54.636 19.6297 54.586 19.8397 54.586 20.0697V24.9397C54.586 25.1697 54.626 25.3797 54.716 25.5697C54.796 25.7597 54.916 25.9297 55.056 26.0797C55.206 26.2297 55.366 26.3397 55.556 26.4297C55.746 26.5097 55.956 26.5597 56.176 26.5597H60.246C60.466 26.5597 60.676 26.5197 60.876 26.4297C61.076 26.3397 61.246 26.2297 61.386 26.0797C61.536 25.9297 61.646 25.7597 61.726 25.5697C61.806 25.3797 61.856 25.1697 61.856 24.9397V23.1997H57.486V21.7897H63.236V24.9397C63.236 25.3597 63.156 25.7497 62.996 26.1197C62.836 26.4897 62.626 26.8097 62.356 27.0797C62.086 27.3497 61.766 27.5697 61.406 27.7297C61.046 27.8897 60.656 27.9697 60.236 27.9697H56.166C55.756 27.9697 55.366 27.8897 54.996 27.7297Z"/>
</mask>
<path d="M54.996 27.7297C54.636 27.5697 54.316 27.3597 54.046 27.0797C53.776 26.8097 53.566 26.4897 53.406 26.1197C53.246 25.7497 53.166 25.3597 53.166 24.9397V20.0697C53.166 19.6497 53.246 19.2597 53.406 18.8897C53.566 18.5197 53.776 18.1997 54.046 17.9297C54.316 17.6597 54.636 17.4397 54.996 17.2797C55.356 17.1197 55.746 17.0397 56.166 17.0397H60.236C60.646 17.0397 61.036 17.1197 61.406 17.2797C61.766 17.4397 62.086 17.6497 62.356 17.9297C62.626 18.1997 62.836 18.5197 62.996 18.8897C63.156 19.2597 63.236 19.6497 63.236 20.0697V20.4797H61.856V20.0697C61.856 19.6197 61.696 19.2297 61.386 18.9097C61.076 18.5897 60.686 18.4297 60.246 18.4297H56.176C55.956 18.4297 55.746 18.4697 55.556 18.5597C55.366 18.6397 55.196 18.7597 55.056 18.9097C54.906 19.0597 54.796 19.2297 54.716 19.4297C54.636 19.6297 54.586 19.8397 54.586 20.0697V24.9397C54.586 25.1697 54.626 25.3797 54.716 25.5697C54.796 25.7597 54.916 25.9297 55.056 26.0797C55.206 26.2297 55.366 26.3397 55.556 26.4297C55.746 26.5097 55.956 26.5597 56.176 26.5597H60.246C60.466 26.5597 60.676 26.5197 60.876 26.4297C61.076 26.3397 61.246 26.2297 61.386 26.0797C61.536 25.9297 61.646 25.7597 61.726 25.5697C61.806 25.3797 61.856 25.1697 61.856 24.9397V23.1997H57.486V21.7897H63.236V24.9397C63.236 25.3597 63.156 25.7497 62.996 26.1197C62.836 26.4897 62.626 26.8097 62.356 27.0797C62.086 27.3497 61.766 27.5697 61.406 27.7297C61.046 27.8897 60.656 27.9697 60.236 27.9697H56.166C55.756 27.9697 55.366 27.8897 54.996 27.7297Z" fill="#202020"/>
<path d="M54.046 27.0797L54.7659 26.3855L54.7596 26.379L54.7531 26.3726L54.046 27.0797ZM61.406 17.2797L61.8122 16.3658L61.8029 16.3618L61.406 17.2797ZM62.356 17.9297L61.6362 18.6238L61.6425 18.6304L61.6489 18.6368L62.356 17.9297ZM63.236 20.4797V21.4797H64.236V20.4797H63.236ZM61.856 20.4797H60.856V21.4797H61.856V20.4797ZM55.556 18.5597L55.9441 19.4813L55.9643 19.4728L55.9841 19.4634L55.556 18.5597ZM55.056 18.9097L55.7631 19.6168L55.7753 19.6046L55.7871 19.592L55.056 18.9097ZM54.716 25.5697L55.6376 25.1816L55.6291 25.1614L55.6197 25.1416L54.716 25.5697ZM55.056 26.0797L54.3249 26.762L54.3367 26.7746L54.3489 26.7868L55.056 26.0797ZM55.556 26.4297L55.1279 27.3334L55.1477 27.3428L55.1679 27.3513L55.556 26.4297ZM61.386 26.0797L60.6789 25.3726L60.6667 25.3848L60.655 25.3974L61.386 26.0797ZM61.856 23.1997H62.856V22.1997H61.856V23.1997ZM57.486 23.1997H56.486V24.1997H57.486V23.1997ZM57.486 21.7897V20.7897H56.486V21.7897H57.486ZM63.236 21.7897H64.236V20.7897H63.236V21.7897ZM55.4021 26.8159C55.1397 26.6992 54.9323 26.5581 54.7659 26.3855L53.3262 27.7738C53.6998 28.1613 54.1323 28.4401 54.5899 28.6435L55.4021 26.8159ZM54.7531 26.3726C54.5822 26.2016 54.4396 25.9905 54.3239 25.7228L52.4881 26.5166C52.6924 26.9888 52.9699 27.4177 53.3389 27.7868L54.7531 26.3726ZM54.3239 25.7228C54.2197 25.4818 54.166 25.2273 54.166 24.9397H52.166C52.166 25.4921 52.2723 26.0175 52.4881 26.5166L54.3239 25.7228ZM54.166 24.9397V20.0697H52.166V24.9397H54.166ZM54.166 20.0697C54.166 19.7821 54.2197 19.5275 54.3239 19.2866L52.4881 18.4928C52.2723 18.9918 52.166 19.5173 52.166 20.0697H54.166ZM54.3239 19.2866C54.4396 19.0188 54.5822 18.8077 54.7531 18.6368L53.3389 17.2226C52.9699 17.5916 52.6924 18.0205 52.4881 18.4928L54.3239 19.2866ZM54.7531 18.6368C54.9352 18.4547 55.1528 18.3043 55.4021 18.1935L54.5899 16.3659C54.1192 16.5751 53.6968 16.8646 53.3389 17.2226L54.7531 18.6368ZM55.4021 18.1935C55.626 18.094 55.8765 18.0397 56.166 18.0397V16.0397C55.6155 16.0397 55.0861 16.1453 54.5899 16.3659L55.4021 18.1935ZM56.166 18.0397H60.236V16.0397H56.166V18.0397ZM60.236 18.0397C60.5119 18.0397 60.7666 18.0927 61.0091 18.1975L61.8029 16.3618C61.3054 16.1467 60.7802 16.0397 60.236 16.0397V18.0397ZM60.9999 18.1935C61.2624 18.3101 61.4698 18.4513 61.6362 18.6238L63.0759 17.2355C62.7022 16.8481 62.2697 16.5692 61.8121 16.3659L60.9999 18.1935ZM61.6489 18.6368C61.8198 18.8077 61.9623 19.0188 62.0781 19.2866L63.9139 18.4928C63.7097 18.0206 63.4322 17.5916 63.0631 17.2226L61.6489 18.6368ZM62.0781 19.2866C62.1824 19.5276 62.236 19.7821 62.236 20.0697H64.236C64.236 19.5172 64.1296 18.9918 63.9139 18.4928L62.0781 19.2866ZM62.236 20.0697V20.4797H64.236V20.0697H62.236ZM63.236 19.4797H61.856V21.4797H63.236V19.4797ZM62.856 20.4797V20.0697H60.856V20.4797H62.856ZM62.856 20.0697C62.856 19.3581 62.5937 18.7191 62.1043 18.2139L60.6678 19.6055C60.7984 19.7403 60.856 19.8813 60.856 20.0697H62.856ZM62.1043 18.2139C61.6014 17.6948 60.9502 17.4297 60.246 17.4297V19.4297C60.4218 19.4297 60.5506 19.4845 60.6678 19.6055L62.1043 18.2139ZM60.246 17.4297H56.176V19.4297H60.246V17.4297ZM56.176 17.4297C55.8353 17.4297 55.4744 17.4918 55.1279 17.6559L55.9841 19.4634C56.0176 19.4475 56.0768 19.4297 56.176 19.4297V17.4297ZM55.1679 17.638C54.8448 17.7741 54.5587 17.9769 54.3249 18.2274L55.7871 19.592C55.8332 19.5425 55.8872 19.5053 55.9441 19.4813L55.1679 17.638ZM54.3489 18.2026C54.0983 18.4531 53.9152 18.739 53.7875 19.0583L55.6445 19.8011C55.6768 19.7203 55.7137 19.6662 55.7631 19.6168L54.3489 18.2026ZM53.7875 19.0583C53.67 19.352 53.586 19.6886 53.586 20.0697H55.586C55.586 19.9907 55.602 19.9073 55.6445 19.8011L53.7875 19.0583ZM53.586 20.0697V24.9397H55.586V20.0697H53.586ZM53.586 24.9397C53.586 25.287 53.6469 25.6487 53.8123 25.9978L55.6197 25.1416C55.6051 25.1107 55.586 25.0524 55.586 24.9397H53.586ZM53.7944 25.9577C53.93 26.2799 54.1241 26.5468 54.3249 26.762L55.7871 25.3974C55.7079 25.3125 55.662 25.2395 55.6376 25.1816L53.7944 25.9577ZM54.3489 26.7868C54.5848 27.0227 54.8408 27.1974 55.1279 27.3334L55.9841 25.5259C55.8912 25.4819 55.8272 25.4366 55.7631 25.3726L54.3489 26.7868ZM55.1679 27.3513C55.4622 27.4752 55.804 27.5597 56.176 27.5597V25.5597C56.108 25.5597 56.0298 25.5441 55.9441 25.508L55.1679 27.3513ZM56.176 27.5597H60.246V25.5597H56.176V27.5597ZM60.246 27.5597C60.591 27.5597 60.9431 27.496 61.2864 27.3416L60.4656 25.5178C60.4089 25.5433 60.341 25.5597 60.246 25.5597V27.5597ZM61.2864 27.3416C61.5723 27.2129 61.8634 27.0338 62.1171 26.762L60.655 25.3974C60.6286 25.4256 60.5798 25.4664 60.4656 25.5178L61.2864 27.3416ZM62.0931 26.7868C62.3415 26.5384 62.5214 26.2576 62.6476 25.9577L60.8044 25.1816C60.7706 25.2618 60.7305 25.321 60.6789 25.3726L62.0931 26.7868ZM62.6476 25.9577C62.7729 25.6602 62.856 25.3186 62.856 24.9397H60.856C60.856 25.0208 60.8391 25.0992 60.8044 25.1816L62.6476 25.9577ZM62.856 24.9397V23.1997H60.856V24.9397H62.856ZM61.856 22.1997H57.486V24.1997H61.856V22.1997ZM58.486 23.1997V21.7897H56.486V23.1997H58.486ZM57.486 22.7897H63.236V20.7897H57.486V22.7897ZM62.236 21.7897V24.9397H64.236V21.7897H62.236ZM62.236 24.9397C62.236 25.2272 62.1824 25.4818 62.0781 25.7228L63.9139 26.5166C64.1296 26.0176 64.236 25.4921 64.236 24.9397H62.236ZM62.0781 25.7228C61.9623 25.9906 61.8198 26.2016 61.6489 26.3726L63.0631 27.7868C63.4322 27.4177 63.7097 26.9888 63.9139 26.5166L62.0781 25.7228ZM61.6489 26.3726C61.4668 26.5546 61.2492 26.705 60.9999 26.8159L61.8121 28.6435C62.2828 28.4343 62.7052 28.1447 63.0631 27.7868L61.6489 26.3726ZM60.9999 26.8159C60.776 26.9153 60.5255 26.9697 60.236 26.9697V28.9697C60.7865 28.9697 61.316 28.864 61.8121 28.6435L60.9999 26.8159ZM60.236 26.9697H56.166V28.9697H60.236V26.9697ZM56.166 26.9697C55.8901 26.9697 55.6354 26.9167 55.3929 26.8118L54.5991 28.6475C55.0966 28.8627 55.6219 28.9697 56.166 28.9697V26.9697Z" fill="#202020" mask="url(#path-5-inside-2_531_10671)"/>
</g>
<path id="Vector_4" d="M65.9663 27.4597V17.5397H66.3663V27.4597H65.9663Z" fill="#202020" stroke="#202020"/>
<g id="Vector_5">
<mask id="path-8-inside-3_531_10671" fill="white">
<path d="M73.3862 18.9697C73.4262 18.7797 73.4962 18.5997 73.5762 18.4297H69.1162V17.0297H79.3762V18.4297H75.8062C75.5062 18.4297 75.2462 18.5397 75.0362 18.7497C74.8262 18.9697 74.7162 19.2297 74.7162 19.5297V27.9497H73.3162V19.5297C73.3162 19.3397 73.3362 19.1497 73.3862 18.9597"/>
</mask>
<path d="M73.3862 18.9697C73.4262 18.7797 73.4962 18.5997 73.5762 18.4297H69.1162V17.0297H79.3762V18.4297H75.8062C75.5062 18.4297 75.2462 18.5397 75.0362 18.7497C74.8262 18.9697 74.7162 19.2297 74.7162 19.5297V27.9497H73.3162V19.5297C73.3162 19.3397 73.3362 19.1497 73.3862 18.9597" fill="#202020"/>
<path d="M73.5762 18.4297L74.4811 18.8555L75.152 17.4297H73.5762V18.4297ZM69.1162 18.4297H68.1162V19.4297H69.1162V18.4297ZM69.1162 17.0297V16.0297H68.1162V17.0297H69.1162ZM79.3762 17.0297H80.3762V16.0297H79.3762V17.0297ZM79.3762 18.4297V19.4297H80.3762V18.4297H79.3762ZM75.0362 18.7497L74.3291 18.0426L74.3209 18.0508L74.3129 18.0592L75.0362 18.7497ZM74.7162 27.9497V28.9497H75.7162V27.9497H74.7162ZM73.3162 27.9497H72.3162V28.9497H73.3162V27.9497ZM74.3648 19.1757C74.3831 19.0886 74.4197 18.9858 74.4811 18.8555L72.6714 18.0039C72.5728 18.2135 72.4694 18.4707 72.4077 18.7637L74.3648 19.1757ZM73.5762 17.4297H69.1162V19.4297H73.5762V17.4297ZM70.1162 18.4297V17.0297H68.1162V18.4297H70.1162ZM69.1162 18.0297H79.3762V16.0297H69.1162V18.0297ZM78.3762 17.0297V18.4297H80.3762V17.0297H78.3762ZM79.3762 17.4297H75.8062V19.4297H79.3762V17.4297ZM75.8062 17.4297C75.237 17.4297 74.7238 17.6479 74.3291 18.0426L75.7433 19.4568C75.7627 19.4374 75.7726 19.4338 75.7727 19.4337C75.7737 19.4333 75.7758 19.4325 75.7799 19.4317C75.7841 19.4309 75.7926 19.4297 75.8062 19.4297V17.4297ZM74.3129 18.0592C73.9364 18.4536 73.7162 18.9569 73.7162 19.5297H75.7162C75.7162 19.505 75.7201 19.4954 75.7216 19.4918C75.7235 19.4872 75.7313 19.4698 75.7596 19.4401L74.3129 18.0592ZM73.7162 19.5297V27.9497H75.7162V19.5297H73.7162ZM74.7162 26.9497H73.3162V28.9497H74.7162V26.9497ZM74.3162 27.9497V19.5297H72.3162V27.9497H74.3162ZM74.3162 19.5297C74.3162 19.4105 74.3287 19.3077 74.3533 19.2142L72.4192 18.7052C72.3438 18.9917 72.3162 19.2689 72.3162 19.5297H74.3162Z" fill="#202020" mask="url(#path-8-inside-3_531_10671)"/>
</g>
<path id="Vector_6" d="M84.6559 17.5297H90.106V27.4497H89.706V23.1897V22.6897H89.206H84.3059V22.2797H89.206H89.706V21.7797V18.4297V17.9297H89.206H84.6459C84.3299 17.9297 84.0531 17.9969 83.789 18.1101L83.789 18.11L83.7808 18.1137C83.5333 18.2251 83.2979 18.379 83.0967 18.5918C82.9011 18.7889 82.7484 19.0213 82.6364 19.2827C82.5162 19.5632 82.4659 19.8516 82.4659 20.1497V27.4597H82.0859V20.1497C82.0859 19.7826 82.154 19.4389 82.2868 19.1237C82.4227 18.8008 82.6071 18.5256 82.8395 18.2932L82.8396 18.2933L82.8459 18.2867C83.0645 18.06 83.3369 17.8762 83.6522 17.7395C83.9766 17.6033 84.3101 17.5297 84.6559 17.5297Z" fill="#202020" stroke="#202020"/>
<g id="Vector_7">
<mask id="path-11-inside-4_531_10671" fill="white">
<path d="M94.666 27.7297C94.306 27.5697 93.9859 27.3597 93.7159 27.0797C93.4459 26.8097 93.236 26.4897 93.076 26.1197C92.916 25.7497 92.8359 25.3597 92.8359 24.9397V17.0397H94.236V24.9397C94.236 25.1697 94.2759 25.3797 94.3659 25.5697C94.4459 25.7597 94.5659 25.9297 94.7159 26.0797C94.8659 26.2297 95.0259 26.3397 95.2159 26.4297C95.4059 26.5097 95.6159 26.5597 95.8359 26.5597H100.176V27.9697H95.8359C95.4159 27.9697 95.036 27.8897 94.666 27.7297Z"/>
</mask>
<path d="M94.666 27.7297C94.306 27.5697 93.9859 27.3597 93.7159 27.0797C93.4459 26.8097 93.236 26.4897 93.076 26.1197C92.916 25.7497 92.8359 25.3597 92.8359 24.9397V17.0397H94.236V24.9397C94.236 25.1697 94.2759 25.3797 94.3659 25.5697C94.4459 25.7597 94.5659 25.9297 94.7159 26.0797C94.8659 26.2297 95.0259 26.3397 95.2159 26.4297C95.4059 26.5097 95.6159 26.5597 95.8359 26.5597H100.176V27.9697H95.8359C95.4159 27.9697 95.036 27.8897 94.666 27.7297Z" fill="#202020"/>
<path d="M93.7159 27.0797L94.4358 26.3855L94.4295 26.379L94.423 26.3726L93.7159 27.0797ZM92.8359 17.0397V16.0397H91.8359V17.0397H92.8359ZM94.236 17.0397H95.236V16.0397H94.236V17.0397ZM94.3659 25.5697L95.2876 25.1816L95.2791 25.1614L95.2697 25.1416L94.3659 25.5697ZM95.2159 26.4297L94.7879 27.3334L94.8077 27.3428L94.8279 27.3513L95.2159 26.4297ZM100.176 26.5597H101.176V25.5597H100.176V26.5597ZM100.176 27.9697V28.9697H101.176V27.9697H100.176ZM95.0721 26.8159C94.8096 26.6992 94.6022 26.5581 94.4358 26.3855L92.9961 27.7738C93.3697 28.1613 93.8023 28.4402 94.2598 28.6435L95.0721 26.8159ZM94.423 26.3726C94.2521 26.2016 94.1096 25.9906 93.9938 25.7228L92.1581 26.5166C92.3623 26.9888 92.6398 27.4177 93.0088 27.7868L94.423 26.3726ZM93.9938 25.7228C93.8896 25.4818 93.8359 25.2272 93.8359 24.9397H91.8359C91.8359 25.4921 91.9423 26.0176 92.1581 26.5166L93.9938 25.7228ZM93.8359 24.9397V17.0397H91.8359V24.9397H93.8359ZM92.8359 18.0397H94.236V16.0397H92.8359V18.0397ZM93.236 17.0397V24.9397H95.236V17.0397H93.236ZM93.236 24.9397C93.236 25.2869 93.2968 25.6486 93.4622 25.9978L95.2697 25.1416C95.2551 25.1107 95.236 25.0525 95.236 24.9397H93.236ZM93.4443 25.9577C93.581 26.2825 93.7801 26.558 94.0088 26.7868L95.423 25.3726C95.3518 25.3013 95.3108 25.2369 95.2876 25.1816L93.4443 25.9577ZM94.0088 26.7868C94.2448 27.0227 94.5007 27.1974 94.7879 27.3334L95.644 25.5259C95.5512 25.4819 95.4871 25.4366 95.423 25.3726L94.0088 26.7868ZM94.8279 27.3513C95.1222 27.4752 95.4639 27.5597 95.8359 27.5597V25.5597C95.768 25.5597 95.6897 25.5441 95.604 25.508L94.8279 27.3513ZM95.8359 27.5597H100.176V25.5597H95.8359V27.5597ZM99.176 26.5597V27.9697H101.176V26.5597H99.176ZM100.176 26.9697H95.8359V28.9697H100.176V26.9697ZM95.8359 26.9697C95.5518 26.9697 95.307 26.9174 95.0629 26.8118L94.269 28.6475C94.765 28.862 95.2801 28.9697 95.8359 28.9697V26.9697Z" fill="#202020" mask="url(#path-11-inside-4_531_10671)"/>
</g>
<path id="Vector_8" d="M41.2392 5.89751L47.265 1.30969H49.253L43.2016 5.7258L42.6259 6.14596L43.2169 6.54431L50.0499 11.1497H47.7315L41.2194 6.67753L40.6912 6.31477L41.2392 5.89751ZM40.4363 6.13977V6.5088V7.08969V11.1497H38.7563V1.30969H40.4363V5.49969V6.13977Z" fill="#202020" stroke="#202020"/>
<path id="Vector_9" d="M54.916 11.1497V1.30969H56.606V11.1497H54.916Z" fill="#202020" stroke="#202020"/>
<path id="Vector_10" d="M67.0062 3.50967V11.1297H65.2862V3.50967V3.00967H64.7862H60.0762V1.28967H72.1161V3.00967H67.5062H67.0062V3.50967Z" fill="#202020" stroke="#202020"/>
<g id="Vector_11">
<mask id="path-16-inside-5_531_10671" fill="white">
<path d="M19.1961 0.779663H2.82613C1.67613 0.779663 0.676117 1.66966 0.626117 2.83966C0.576117 4.07966 1.54612 5.08966 2.75612 5.08966H19.2161C24.4361 5.08966 28.7361 9.39966 28.5961 14.6797C28.4761 19.2397 25.1161 22.9997 20.7661 23.6697C20.2961 23.7397 19.8261 23.6197 19.4461 23.3197L13.4561 18.5897L19.2861 13.0297C20.1261 12.2297 20.2361 10.8997 19.4861 10.0197C18.6861 9.07967 17.2861 9.00966 16.4061 9.84966L10.8961 15.1097V9.55967H2.81612C1.66612 9.55967 0.666108 10.4497 0.616108 11.6197C0.566108 12.8597 1.53611 13.8697 2.74611 13.8697H6.63613V25.8597C6.63613 27.0197 7.51613 28.0297 8.66613 28.0797C9.88613 28.1297 10.8961 27.1497 10.8961 25.9297V22.0397L17.7961 27.4797C17.9161 27.5697 18.0361 27.6497 18.1661 27.7097C18.5061 27.9497 18.9261 28.0897 19.3661 28.0897C26.8461 28.0897 32.9261 21.8897 32.8661 14.3097C32.7961 6.78967 26.6261 0.779663 19.1961 0.779663Z"/>
</mask>
<path d="M19.1961 0.779663H2.82613C1.67613 0.779663 0.676117 1.66966 0.626117 2.83966C0.576117 4.07966 1.54612 5.08966 2.75612 5.08966H19.2161C24.4361 5.08966 28.7361 9.39966 28.5961 14.6797C28.4761 19.2397 25.1161 22.9997 20.7661 23.6697C20.2961 23.7397 19.8261 23.6197 19.4461 23.3197L13.4561 18.5897L19.2861 13.0297C20.1261 12.2297 20.2361 10.8997 19.4861 10.0197C18.6861 9.07967 17.2861 9.00966 16.4061 9.84966L10.8961 15.1097V9.55967H2.81612C1.66612 9.55967 0.666108 10.4497 0.616108 11.6197C0.566108 12.8597 1.53611 13.8697 2.74611 13.8697H6.63613V25.8597C6.63613 27.0197 7.51613 28.0297 8.66613 28.0797C9.88613 28.1297 10.8961 27.1497 10.8961 25.9297V22.0397L17.7961 27.4797C17.9161 27.5697 18.0361 27.6497 18.1661 27.7097C18.5061 27.9497 18.9261 28.0897 19.3661 28.0897C26.8461 28.0897 32.9261 21.8897 32.8661 14.3097C32.7961 6.78967 26.6261 0.779663 19.1961 0.779663Z" fill="#202020"/>
<path d="M0.626117 2.83966L-0.372974 2.79697L-0.373071 2.79937L0.626117 2.83966ZM28.5961 14.6797L27.5965 14.6532L27.5965 14.6534L28.5961 14.6797ZM20.7661 23.6697L20.9134 24.6588L20.9184 24.658L20.7661 23.6697ZM19.4461 23.3197L18.8264 24.1045L18.8265 24.1045L19.4461 23.3197ZM13.4561 18.5897L12.766 17.866L11.9326 18.6608L12.8364 19.3745L13.4561 18.5897ZM19.2861 13.0297L18.5965 12.3055L18.596 12.306L19.2861 13.0297ZM19.4861 10.0197L18.7246 10.6678L18.725 10.6683L19.4861 10.0197ZM16.4061 9.84966L15.7156 9.12631L15.7156 9.12634L16.4061 9.84966ZM10.8961 15.1097H9.89611V17.4468L11.5866 15.833L10.8961 15.1097ZM10.8961 9.55967H11.8961V8.55967H10.8961V9.55967ZM0.616108 11.6197L-0.382983 11.577L-0.38308 11.5794L0.616108 11.6197ZM6.63613 13.8697H7.63613V12.8697H6.63613V13.8697ZM8.66613 28.0797L8.62269 29.0787L8.62518 29.0788L8.66613 28.0797ZM10.8961 22.0397L11.5152 21.2544L9.89611 19.9778V22.0397H10.8961ZM17.7961 27.4797L17.177 28.265L17.1865 28.2724L17.1961 28.2797L17.7961 27.4797ZM18.1661 27.7097L18.7428 26.8927L18.6682 26.84L18.5852 26.8017L18.1661 27.7097ZM32.8661 14.3097L33.8661 14.3018L33.8661 14.3004L32.8661 14.3097ZM19.1961 -0.220337H2.82613V1.77966H19.1961V-0.220337ZM2.82613 -0.220337C1.1764 -0.220337 -0.298595 1.05657 -0.372971 2.79697L1.62521 2.88236C1.65083 2.28276 2.17586 1.77966 2.82613 1.77966V-0.220337ZM-0.373071 2.79937C-0.44557 4.59736 0.968432 6.08966 2.75612 6.08966V4.08966C2.12381 4.08966 1.59781 3.56196 1.62531 2.87995L-0.373071 2.79937ZM2.75612 6.08966H19.2161V4.08966H2.75612V6.08966ZM19.2161 6.08966C23.8836 6.08966 27.7213 9.94568 27.5965 14.6532L29.5958 14.7062C29.7509 8.85364 24.9887 4.08966 19.2161 4.08966V6.08966ZM27.5965 14.6534C27.4891 18.7331 24.4829 22.0854 20.6139 22.6813L20.9184 24.658C25.7494 23.9139 29.4631 19.7462 29.5958 14.706L27.5965 14.6534ZM20.6188 22.6806C20.4167 22.7107 20.2253 22.6607 20.0658 22.5348L18.8265 24.1045C19.4269 24.5786 20.1755 24.7687 20.9134 24.6588L20.6188 22.6806ZM20.0659 22.5348L14.0759 17.8048L12.8364 19.3745L18.8264 24.1045L20.0659 22.5348ZM14.1463 19.3133L19.9763 13.7533L18.596 12.306L12.766 17.866L14.1463 19.3133ZM19.9758 13.7538C21.1742 12.6124 21.3643 10.6818 20.2472 9.37101L18.725 10.6683C19.1079 11.1176 19.078 11.8469 18.5965 12.3055L19.9758 13.7538ZM20.2477 9.37155C19.0774 7.99649 17.0138 7.88715 15.7156 9.12631L17.0966 10.573C17.5584 10.1322 18.2949 10.1628 18.7246 10.6678L20.2477 9.37155ZM15.7156 9.12634L10.2056 14.3863L11.5866 15.833L17.0966 10.573L15.7156 9.12634ZM11.8961 15.1097V9.55967H9.89611V15.1097H11.8961ZM10.8961 8.55967H2.81612V10.5597H10.8961V8.55967ZM2.81612 8.55967C1.1664 8.55967 -0.308604 9.83657 -0.38298 11.577L1.6152 11.6624C1.64082 11.0628 2.16584 10.5597 2.81612 10.5597V8.55967ZM-0.38308 11.5794C-0.45558 13.3774 0.958422 14.8697 2.74611 14.8697V12.8697C2.1138 12.8697 1.5878 12.342 1.6153 11.66L-0.38308 11.5794ZM2.74611 14.8697H6.63613V12.8697H2.74611V14.8697ZM5.63613 13.8697V25.8597H7.63613V13.8697H5.63613ZM5.63613 25.8597C5.63613 27.4982 6.88274 29.0031 8.62269 29.0787L8.70956 27.0806C8.14952 27.0563 7.63613 26.5412 7.63613 25.8597H5.63613ZM8.62518 29.0788C10.4192 29.1524 11.8961 27.7118 11.8961 25.9297H9.89611C9.89611 26.5875 9.35302 27.107 8.70708 27.0805L8.62518 29.0788ZM11.8961 25.9297V22.0397H9.89611V25.9297H11.8961ZM10.277 22.825L17.177 28.265L18.4153 26.6944L11.5152 21.2544L10.277 22.825ZM17.1961 28.2797C17.341 28.3883 17.5252 28.5152 17.7471 28.6176L18.5852 26.8017C18.547 26.7841 18.4913 26.751 18.3961 26.6797L17.1961 28.2797ZM17.5894 28.5266C18.0944 28.8831 18.715 29.0897 19.3661 29.0897V27.0897C19.1372 27.0897 18.9179 27.0163 18.7428 26.8927L17.5894 28.5266ZM19.3661 29.0897C27.4131 29.0897 33.9304 22.4254 33.8661 14.3018L31.8661 14.3176C31.9218 21.3539 26.2791 27.0897 19.3661 27.0897V29.0897ZM33.8661 14.3004C33.7909 6.22618 27.1692 -0.220337 19.1961 -0.220337V1.77966C26.083 1.77966 31.8013 7.35316 31.8662 14.319L33.8661 14.3004Z" fill="#202020" mask="url(#path-16-inside-5_531_10671)"/>
</g>
</g>
</g>
</g>
<path d="M-577 -121.2H541V-125.2H-577V-121.2Z" fill="#0E0D0D" mask="url(#path-1-inside-1_531_10671)"/>
</g>
</g>
</g>
<defs>
<clipPath id="clip0_531_10671">
<rect width="1280" height="2338" fill="white" transform="translate(-657 -2195)"/>
</clipPath>
</defs>
</svg>
