<svg width="101" height="28" viewBox="0 0 101 28" fill="none" xmlns="http://www.w3.org/2000/svg">
<path d="M47.2861 24.485C47.2861 24.905 47.2061 25.295 47.0461 25.665C46.8861 26.035 46.6761 26.355 46.3961 26.635C46.1261 26.915 45.7961 27.135 45.4261 27.295C45.0561 27.455 44.6661 27.535 44.2461 27.535H38.2461V16.615H44.2461C44.6561 16.615 45.0561 16.695 45.4261 16.855C45.7961 17.015 46.1161 17.235 46.3961 17.515C46.6661 17.795 46.8861 18.115 47.0461 18.485C47.2061 18.855 47.2861 19.245 47.2861 19.665V24.495V24.485ZM39.6561 26.115H44.2661C44.7261 26.115 45.1161 25.955 45.4261 25.635C45.7361 25.315 45.8961 24.935 45.8961 24.475V19.645C45.8961 19.415 45.8561 19.205 45.7661 19.005C45.6861 18.805 45.5661 18.635 45.4261 18.475C45.2761 18.325 45.1061 18.205 44.9061 18.115C44.7061 18.025 44.4961 17.985 44.2661 17.985H39.6561V26.105V26.115Z" fill="white"/>
<path d="M50.9264 16.605H49.5264V27.525H50.9264V16.605Z" fill="white"/>
<path d="M54.996 27.295C54.636 27.135 54.316 26.925 54.046 26.645C53.776 26.375 53.566 26.055 53.406 25.685C53.246 25.315 53.166 24.925 53.166 24.505V19.635C53.166 19.215 53.246 18.825 53.406 18.455C53.566 18.085 53.776 17.765 54.046 17.495C54.316 17.225 54.636 17.005 54.996 16.845C55.356 16.685 55.746 16.605 56.166 16.605H60.236C60.646 16.605 61.036 16.685 61.406 16.845C61.766 17.005 62.086 17.215 62.356 17.495C62.626 17.765 62.836 18.085 62.996 18.455C63.156 18.825 63.236 19.215 63.236 19.635V20.045H61.856V19.635C61.856 19.185 61.696 18.795 61.386 18.475C61.076 18.155 60.686 17.995 60.246 17.995H56.176C55.956 17.995 55.746 18.035 55.556 18.125C55.366 18.205 55.196 18.325 55.056 18.475C54.906 18.625 54.796 18.795 54.716 18.995C54.636 19.195 54.586 19.405 54.586 19.635V24.505C54.586 24.735 54.626 24.945 54.716 25.135C54.796 25.325 54.916 25.495 55.056 25.645C55.206 25.795 55.366 25.905 55.556 25.995C55.746 26.075 55.956 26.125 56.176 26.125H60.246C60.466 26.125 60.676 26.085 60.876 25.995C61.076 25.905 61.246 25.795 61.386 25.645C61.536 25.495 61.646 25.325 61.726 25.135C61.806 24.945 61.856 24.735 61.856 24.505V22.765H57.486V21.355H63.236V24.505C63.236 24.925 63.156 25.315 62.996 25.685C62.836 26.055 62.626 26.375 62.356 26.645C62.086 26.915 61.766 27.135 61.406 27.295C61.046 27.455 60.656 27.535 60.236 27.535H56.166C55.756 27.535 55.366 27.455 54.996 27.295Z" fill="white"/>
<path d="M66.8658 16.605H65.4658V27.525H66.8658V16.605Z" fill="white"/>
<path d="M73.3862 18.535C73.4262 18.345 73.4962 18.165 73.5762 17.995H69.1162V16.595H79.3762V17.995H75.8062C75.5062 17.995 75.2462 18.105 75.0362 18.315C74.8262 18.535 74.7162 18.795 74.7162 19.095V27.515H73.3162V19.095C73.3162 18.905 73.3362 18.715 73.3862 18.525" fill="white"/>
<path d="M82.986 27.525H81.5859V19.715C81.5859 19.285 81.666 18.875 81.826 18.495C81.986 18.115 82.206 17.785 82.486 17.505C82.756 17.225 83.086 17.005 83.456 16.845C83.836 16.685 84.2359 16.595 84.6559 16.595H90.606V27.515H89.206V22.755H83.8059V21.345H89.206V17.995H84.6459C84.4059 17.995 84.196 18.045 83.986 18.135C83.786 18.225 83.606 18.345 83.456 18.505C83.306 18.655 83.1859 18.835 83.0959 19.045C83.0059 19.255 82.9659 19.475 82.9659 19.715V27.525H82.986Z" fill="white"/>
<path d="M94.666 27.295C94.306 27.135 93.9859 26.925 93.7159 26.645C93.4459 26.375 93.236 26.055 93.076 25.685C92.916 25.315 92.8359 24.925 92.8359 24.505V16.605H94.236V24.505C94.236 24.735 94.2759 24.945 94.3659 25.135C94.4459 25.325 94.5659 25.495 94.7159 25.645C94.8659 25.795 95.0259 25.905 95.2159 25.995C95.4059 26.075 95.6159 26.125 95.8359 26.125H100.176V27.535H95.8359C95.4159 27.535 95.036 27.455 94.666 27.295Z" fill="white"/>
<path d="M38.2559 0.375H40.9359V5.065L47.0959 0.375H50.7859L43.4958 5.695L51.6859 11.215H47.5759L40.9359 6.655V11.215H38.2559V0.375Z" fill="white"/>
<path d="M57.106 0.375H54.416V11.215H57.106V0.375Z" fill="white"/>
<path d="M67.5062 11.195H64.7862V3.07498H59.5762V0.35498H72.6161V3.07498H67.5062V11.195Z" fill="white"/>
<path d="M19.1961 0.344971H2.82613C1.67613 0.344971 0.676117 1.23497 0.626117 2.40497C0.576117 3.64497 1.54612 4.65497 2.75612 4.65497H19.2161C24.4361 4.65497 28.7361 8.96497 28.5961 14.245C28.4761 18.805 25.1161 22.565 20.7661 23.235C20.2961 23.305 19.8261 23.185 19.4461 22.885L13.4561 18.155L19.2861 12.595C20.1261 11.795 20.2361 10.465 19.4861 9.58497C18.6861 8.64497 17.2861 8.57497 16.4061 9.41497L10.8961 14.675V9.12497H2.81612C1.66612 9.12497 0.666108 10.015 0.616108 11.185C0.566108 12.425 1.53611 13.435 2.74611 13.435H6.63613V25.425C6.63613 26.585 7.51613 27.595 8.66613 27.645C9.88613 27.695 10.8961 26.715 10.8961 25.495V21.605L17.7961 27.045C17.9161 27.135 18.0361 27.215 18.1661 27.275C18.5061 27.515 18.9261 27.655 19.3661 27.655C26.8461 27.655 32.9261 21.455 32.8661 13.875C32.7961 6.35497 26.6261 0.344971 19.1961 0.344971Z" fill="white"/>
</svg>
