<svg width="390" height="570" viewBox="0 0 390 570" fill="none" xmlns="http://www.w3.org/2000/svg">
<path d="M154.34 185.393L168.616 176.909L182.341 175.991L178.058 187.167L171.185 189.88C171.185 189.88 164.516 198.445 155.89 195.651L154.34 185.393Z" fill="#CE7A63"/>
<path d="M78.146 153.476C93.1562 158.595 112.531 187.024 116.569 189.472C120.607 191.919 155.441 184.496 155.441 184.496L159.52 196.528C159.52 196.528 125.114 207.562 116.243 206.542C107.371 205.522 78.0847 182.069 78.0847 182.069L78.146 153.476Z" fill="#FF7A00"/>
<path opacity="0.5" d="M159.581 196.508C159.581 196.508 125.155 207.541 116.284 206.521C112.572 206.114 105.291 201.749 98.0715 196.814C90.3421 191.511 82.6942 185.576 79.5942 183.129L78.1462 181.987V153.435C93.1565 158.595 112.531 187.024 116.569 189.472C120.607 191.919 155.441 184.495 155.441 184.495L159.581 196.508Z" fill="white"/>
<path opacity="0.2" d="M98.0715 196.814C90.342 191.511 82.6941 185.576 79.5942 183.129C79.1863 176.746 80.2264 170.648 83.673 166.65C83.6934 166.65 99.5807 169.954 98.0715 196.814Z" fill="#2D2D2D"/>
<path d="M137.147 569.99C125.074 569.99 123.483 569.807 116.753 569.582C110.94 569.358 109.554 570.092 104.883 569.99C100.988 569.99 101.131 566.177 102.334 561.833C102.946 559.691 103.864 555.123 104.7 551.635L122.382 550.351C124.87 555.102 130.539 561.873 137.29 562.791C143.714 563.709 141.96 569.99 137.147 569.99Z" fill="#FF7A00"/>
<path d="M47.8403 569.99C35.7668 569.99 34.176 569.807 27.4459 569.582C21.6539 569.358 20.2467 570.092 15.5967 569.99C11.681 569.99 11.8238 566.177 13.0271 561.833C13.6389 559.691 14.5566 555.123 15.3928 551.635L33.0747 550.351C35.5629 555.102 41.2325 561.873 47.983 562.791C54.7336 563.709 52.6533 569.99 47.8403 569.99Z" fill="#FF7A00"/>
<path d="M67.1537 80.9327C72.1299 72.0204 80.1245 67.4724 91.3618 71.4493C102.599 75.4262 104.129 85.8478 100.152 97.3094C96.1749 108.771 113.021 110.137 111.022 121.334C110.227 125.739 107.331 127.289 108.248 134.427C108.799 138.71 115.448 145.236 112.164 148.54C107.963 152.782 91.6474 147.602 93.4217 140.138C95.196 132.673 84.4482 135.121 83.1021 128.39C81.6337 121.11 86.5284 117.949 83.7751 112.809C80.5528 106.813 73.9451 107.976 69.7234 99.3693C66.1136 92.0069 65.5425 83.7879 67.1537 80.9327Z" fill="#FF7A00"/>
<path opacity="0.5" d="M67.1537 80.9327C72.1299 72.0204 80.1245 67.4724 91.3618 71.4493C102.599 75.4262 104.129 85.8478 100.152 97.3094C96.1749 108.771 113.021 110.137 111.022 121.334C110.227 125.739 107.331 127.289 108.248 134.427C108.799 138.71 115.448 145.236 112.164 148.54C107.963 152.782 91.6474 147.602 93.4217 140.138C95.196 132.673 84.4482 135.121 83.1021 128.39C81.6337 121.11 86.5284 117.949 83.7751 112.809C80.5528 106.813 73.9451 107.976 69.7234 99.3693C66.1136 92.0069 65.5425 83.7879 67.1537 80.9327Z" fill="#2D2D2D"/>
<path d="M77.5544 244.537C77.5544 244.537 93.1765 338.677 95.7461 387.297C98.4586 438.283 114.815 519.983 123.462 551.9C121.035 554.083 109.594 555 104.189 552.308C104.189 552.308 56.9968 458.086 63.1355 399.208C23.6928 288.119 33.2373 246.556 33.2373 246.556L77.5544 244.537Z" fill="#213A51"/>
<path opacity="0.2" d="M51.45 363.701C45.8415 345.203 41.8035 329.173 38.9482 315.448C41.7831 304.68 45.8007 295.482 51.2868 289.955C51.2868 289.955 59.159 319.996 51.45 363.701Z" fill="#2D2D2D"/>
<path d="M60.6476 239.52C60.6476 239.52 47.7583 339.452 40.3551 387.46C32.5849 437.937 31.6059 518.943 33.5434 551.962C30.7086 553.593 20.4094 555.592 14.8418 553.838C14.8418 553.838 -11.4874 451.744 5.99058 392.457C-9.91705 275.638 13.1082 247.045 13.1082 247.045L60.6476 239.52Z" fill="#213A51"/>
<path d="M84.1629 243.252C87.3444 228.976 89.4042 218.901 91.2193 208.581C92.9949 199.889 94.1738 191.085 94.7476 182.232C95.9713 170.811 89.3227 156.514 78.1466 153.374C75.067 152.497 71.8039 151.64 68.6631 150.906C59.0036 148.851 49.2099 147.488 39.3564 146.827C36.5624 146.582 33.8091 146.419 31.1987 146.338C28.9333 146.246 26.6762 146.663 24.5928 147.557C22.5095 148.452 20.6527 149.801 19.1586 151.506C17.6646 153.212 16.571 155.23 15.9583 157.413C15.3455 159.595 15.229 161.888 15.6173 164.121C19.8594 194.448 20.6752 213.843 19.4311 228.996C17.0042 233.279 4.09453 256.508 7.19448 259.934C10.5596 263.687 75.0262 277.249 81.0018 272.701C85.5905 269.316 84.7543 251.185 84.1629 243.252Z" fill="#FF7A00"/>
<path opacity="0.5" d="M94.7263 182.354C94.1505 191.199 92.9785 199.996 91.2184 208.683C89.3829 218.88 87.3435 229.078 84.1416 243.354C84.733 251.287 85.5692 269.418 80.9601 272.946C74.9845 277.473 10.4975 263.932 7.15279 260.159C4.09363 256.732 17.0237 233.524 19.3894 229.22C19.9246 222.273 20.054 215.299 19.7769 208.336C19.7769 206.888 19.6749 205.379 19.5933 203.85C19.369 199.322 19.0223 194.428 18.5124 189.105C18.2473 186.147 17.921 182.986 17.5335 179.846C16.9897 175.019 16.3099 169.852 15.4941 164.346C15.1023 162.111 15.2162 159.816 15.8274 157.631C16.4386 155.445 17.5316 153.424 19.0261 151.717C20.5206 150.009 22.3786 148.658 24.4637 147.762C26.5488 146.867 28.808 146.45 31.0754 146.541C33.6655 146.664 36.3983 146.807 39.2332 147.051C49.0863 147.715 58.8799 149.078 68.5399 151.13C71.6806 151.844 74.9233 152.721 78.0233 153.598C89.3218 156.637 95.9703 170.933 94.7263 182.354Z" fill="white"/>
<path d="M84.1622 243.252C84.1622 243.252 94.7673 204.91 95.5423 180.947C95.655 180.851 95.7461 180.733 95.8094 180.599C95.8727 180.465 95.9068 180.32 95.9093 180.172C95.9093 169.852 75.6577 151.824 70.5795 150.253C70.4456 150.213 70.3051 150.2 70.166 150.214C70.0269 150.228 69.8919 150.269 69.7688 150.336C69.6457 150.402 69.5369 150.492 69.4485 150.6C69.3602 150.708 69.294 150.833 69.2539 150.967C69.2137 151.101 69.2003 151.241 69.2144 151.381C69.2285 151.52 69.2699 151.655 69.3362 151.778C69.4025 151.901 69.4924 152.01 69.6007 152.098C69.7091 152.186 69.8338 152.253 69.9677 152.293C74.5768 153.7 91.0759 168.853 93.5232 178.112L42.5372 171.198C40.4978 162.551 38.2952 150.07 40.1103 147.643C40.2725 147.424 40.3411 147.149 40.301 146.88C40.2608 146.61 40.1152 146.367 39.8962 146.205C39.6771 146.043 39.4025 145.974 39.1329 146.014C38.8632 146.054 38.6206 146.2 38.4583 146.419C35.5011 150.498 39.6412 168.078 40.9261 173.177C40.9261 181.477 40.559 211.661 30.4433 232.83L16.983 229.261L12.6594 241.885L23.4277 248.962L14.8212 359.765C14.8212 359.765 65.9296 367.29 97.6632 357.073C97.7448 356.991 89.9338 269.336 84.1622 243.252Z" fill="#FF7A00"/>
<path d="M67.4387 161.429C50.3278 147.276 41.2319 147.153 40.926 147.153C42.0681 146.228 43.0056 145.075 43.6792 143.768C46.6976 138.159 47.0443 128.839 46.5752 121.069C46.4325 118.56 46.1878 116.215 45.943 114.216L51.837 120.457L62.9519 132.225C62.646 133.183 62.3605 134.142 62.1362 135.121C60.6474 141.402 61.2796 147.745 70.2939 151.212C70.2735 151.232 74.0261 154.312 67.4387 161.429Z" fill="#CE7A63"/>
<path opacity="0.2" d="M62.9926 132.245C62.6867 133.204 62.4012 134.162 62.1769 135.141C59.9289 137.855 57.1083 140.038 53.9172 141.533C50.7262 143.028 47.2439 143.798 43.72 143.788C46.7383 138.18 47.085 128.86 46.6159 121.089C48.331 120.632 50.1035 120.426 51.8777 120.478L62.9926 132.245Z" fill="#2D2D2D"/>
<path d="M72.2728 104.509C71.0083 120.11 70.8044 126.718 62.8506 134.958C50.8995 147.378 32.259 143.442 28.8939 128.023C25.8551 114.176 28.4452 91.0076 43.6594 84.2978C46.8788 82.7442 50.4552 82.0805 54.0176 82.3757C57.5801 82.6709 60.9986 83.9142 63.9183 85.9765C66.838 88.0388 69.1525 90.845 70.6216 94.1038C72.0907 97.3626 72.6608 100.955 72.2728 104.509Z" fill="#CE7A63"/>
<path d="M46.7594 76.2012C35.726 79.1788 22.2861 93.6792 37.1332 92.9246C38.1937 97.493 46.5554 95.6371 52.0823 91.8845C51.9803 95.4127 59.098 100.776 66.2564 97.0443C62.4019 100.409 64.6453 111.932 70.111 111.32C75.5767 110.709 87.4054 111.32 81.4094 92.9654C75.4135 74.6104 58.4862 73.0401 46.7594 76.2012Z" fill="#FF7A00"/>
<path opacity="0.5" d="M46.7594 76.2012C35.726 79.1788 22.2861 93.6792 37.1332 92.9246C38.1937 97.493 46.5554 95.6371 52.0823 91.8845C51.9803 95.4127 59.098 100.776 66.2564 97.0443C62.4019 100.409 64.6453 111.932 70.111 111.32C75.5767 110.709 87.4054 111.32 81.4094 92.9654C75.4135 74.6104 58.4862 73.0401 46.7594 76.2012Z" fill="#2D2D2D"/>
<path d="M53.0204 109.118C53.0204 110.423 52.2658 111.504 51.4297 111.545C50.5935 111.585 49.9408 110.525 50.002 109.199C50.0632 107.874 50.7566 106.813 51.5928 106.793C52.429 106.772 53.0816 107.894 53.0204 109.118Z" fill="#213A51"/>
<path d="M36.7456 109.118C36.7456 110.443 35.991 111.524 35.1548 111.545C34.3187 111.565 33.6864 110.525 33.7272 109.22C33.768 107.914 34.5022 106.813 35.3384 106.793C36.1746 106.772 36.8068 107.894 36.7456 109.118Z" fill="#213A51"/>
<path d="M35.7057 106.854L32.667 106.038C32.667 106.038 34.1558 108.465 35.7057 106.854Z" fill="#213A51"/>
<path d="M41.5995 111.851C40.3557 114.89 38.7242 117.755 36.7456 120.375C37.3908 120.834 38.1326 121.139 38.9139 121.266C39.6953 121.393 40.4953 121.34 41.2527 121.11L41.5995 111.851Z" fill="#BA4D3C"/>
<path d="M48.411 125.739C47.7065 125.888 46.9896 125.97 46.2696 125.984C46.2207 125.987 46.1716 125.979 46.1257 125.962C46.0798 125.945 46.0381 125.918 46.0034 125.883C45.9687 125.848 45.9418 125.807 45.9244 125.761C45.907 125.715 45.8995 125.666 45.9025 125.617C45.9074 125.516 45.9499 125.42 46.0215 125.348C46.0931 125.277 46.1888 125.234 46.29 125.229C47.9251 125.185 49.5292 124.773 50.9836 124.024C52.438 123.276 53.7056 122.21 54.6925 120.906C54.7473 120.82 54.832 120.758 54.93 120.732C55.0281 120.705 55.1325 120.717 55.2227 120.763C55.2901 120.835 55.3277 120.93 55.3277 121.028C55.3277 121.127 55.2901 121.221 55.2227 121.293C53.5721 123.558 51.1488 125.14 48.411 125.739Z" fill="#213A51"/>
<path d="M77.1267 117.153C75.5157 120.061 72.8162 122.21 69.6215 123.129C65.5426 124.21 63.7072 120.151 65.0736 116.011C66.2973 112.279 69.9274 107.221 73.9451 107.976C77.9628 108.73 79.1865 113.482 77.1267 117.153Z" fill="#CE7A63"/>
<path d="M55.7325 100.817C55.6328 100.83 55.5316 100.82 55.4363 100.788C55.3411 100.756 55.2541 100.703 55.1818 100.634C54.5051 99.992 53.6779 99.5306 52.7764 99.2919C51.8748 99.0531 50.9277 99.0447 50.0221 99.2673C49.9297 99.2982 49.8319 99.3092 49.735 99.2998C49.6381 99.2904 49.5443 99.2607 49.4596 99.2126C49.375 99.1645 49.3014 99.0991 49.2437 99.0206C49.186 98.9422 49.1454 98.8526 49.1247 98.7574C49.0832 98.5553 49.116 98.345 49.2172 98.1651C49.3184 97.9853 49.481 97.848 49.6753 97.7785C50.8193 97.4874 52.0181 97.488 53.1618 97.7802C54.3055 98.0723 55.3577 98.6468 56.222 99.4508C56.3581 99.5979 56.4338 99.7909 56.4338 99.9913C56.4338 100.192 56.3581 100.385 56.222 100.532C56.0982 100.682 55.9245 100.784 55.7325 100.817Z" fill="#213A51"/>
<path d="M30.4237 100.695C30.2471 100.766 30.0496 100.766 29.873 100.695C29.7044 100.583 29.5865 100.409 29.5446 100.21C29.5027 100.012 29.5401 99.8054 29.6487 99.6344C30.2694 98.5672 31.1241 97.6548 32.1486 96.9659C33.1731 96.277 34.3406 95.8296 35.5631 95.6575C35.662 95.6518 35.7609 95.6667 35.8537 95.7013C35.9465 95.7359 36.031 95.7895 36.102 95.8585C36.1729 95.9276 36.2288 96.0106 36.2659 96.1024C36.303 96.1942 36.3207 96.2927 36.3177 96.3917C36.3055 96.5939 36.2236 96.7856 36.0861 96.9344C35.9485 97.0831 35.7637 97.1796 35.5631 97.2075C34.5934 97.3459 33.6689 97.707 32.8622 98.2625C32.0554 98.8181 31.3883 99.5529 30.9131 100.409C30.7825 100.552 30.6119 100.651 30.4237 100.695Z" fill="#213A51"/>
<path d="M51.9597 106.854L48.9414 106.038C48.9414 106.038 50.3282 108.445 51.9597 106.854Z" fill="#213A51"/>
<path d="M109.696 215.801L110.41 216.535L113.326 219.533L128.051 234.584L130.56 237.133L133.945 240.458L131.804 245.577C131.804 245.577 127.827 241.355 115.386 249.88L96.8069 265.522L81.2664 249.615L107.779 219.533L106.861 218.574C106.143 217.861 105.172 217.46 104.159 217.46C103.146 217.46 102.175 217.861 101.457 218.574L91.4636 228.364C91.274 228.555 91.0484 228.707 90.7998 228.81C90.5513 228.914 90.2847 228.967 90.0155 228.967C89.7463 228.967 89.4797 228.914 89.2312 228.81C88.9826 228.707 88.7571 228.555 88.5675 228.364C88.1877 227.982 87.9744 227.465 87.9744 226.926C87.9744 226.387 88.1877 225.87 88.5675 225.488L98.5608 215.699C100.058 214.25 102.066 213.449 104.149 213.468C106.233 213.487 108.225 214.325 109.696 215.801Z" fill="#FF7A00"/>
<path opacity="0.7" d="M109.696 215.801L110.41 216.535L113.326 219.533L128.051 234.584L130.56 237.133L133.945 240.458L131.804 245.577C131.804 245.577 127.827 241.355 115.386 249.88L96.8069 265.522L81.2664 249.615L107.779 219.533L106.861 218.574C106.143 217.861 105.172 217.46 104.159 217.46C103.146 217.46 102.175 217.861 101.457 218.574L91.4636 228.364C91.274 228.555 91.0484 228.707 90.7998 228.81C90.5513 228.914 90.2847 228.967 90.0155 228.967C89.7463 228.967 89.4797 228.914 89.2312 228.81C88.9826 228.707 88.7571 228.555 88.5675 228.364C88.1877 227.982 87.9744 227.465 87.9744 226.926C87.9744 226.387 88.1877 225.87 88.5675 225.488L98.5608 215.699C100.058 214.25 102.066 213.449 104.149 213.468C106.233 213.487 108.225 214.325 109.696 215.801Z" fill="white"/>
<path opacity="0.4" d="M88.6293 244.047L83.6938 249.635L96.8687 263.095L114.285 248.432C116.792 246.663 119.495 245.191 122.341 244.047H88.6293Z" fill="white"/>
<path d="M83.4694 208.112L98.7245 214.598L107.555 225.142L95.9712 228.221L89.7509 224.265C89.7509 224.265 78.9011 223.918 76.0867 215.311L83.4694 208.112Z" fill="#CE7A63"/>
<path opacity="0.2" d="M57.5685 219.594C36.1748 219.757 25.325 213.904 19.8389 208.235C19.8389 206.787 19.737 205.277 19.6554 203.748C19.4311 199.22 19.0843 194.326 18.5745 189.003C23.5303 179.111 31.3006 164.795 34.013 166.569C38.0919 169.383 40.682 185.76 42.028 193.449C42.3347 195.54 43.3914 197.448 45.0012 198.818C46.6109 200.187 48.6639 200.925 50.7772 200.893L57.5685 219.594Z" fill="#2D2D2D"/>
<path d="M26.7524 147.235C3.01332 150.926 19.7367 203.748 23.9788 209.662C31.749 220.308 77.8403 220.451 77.8403 220.451L84.2442 208.112C84.2442 208.112 41.0693 199.669 40.1311 197.731C39.193 195.794 36.7049 167.14 36.7049 167.14C36.7049 167.14 32.9319 146.256 26.7524 147.235Z" fill="#FF7A00"/>
<path opacity="0.5" d="M26.7524 147.235C3.01332 150.926 19.7367 203.748 23.9788 209.662C31.749 220.308 77.8403 220.451 77.8403 220.451L84.2442 208.112C84.2442 208.112 41.0693 199.669 40.1311 197.731C39.193 195.794 36.7049 167.14 36.7049 167.14C36.7049 167.14 32.9319 146.256 26.7524 147.235Z" fill="white"/>
<path d="M65.9294 304.149H53.1829V569.99H65.9294V304.149Z" fill="#213A51"/>
<path d="M163.027 304.149H150.281V569.99H163.027V304.149Z" fill="#213A51"/>
<path d="M276.338 304.149H263.592V569.99H276.338V304.149Z" fill="#213A51"/>
<path d="M373.436 304.149H360.69V569.99H373.436V304.149Z" fill="#213A51"/>
<path opacity="0.5" d="M65.9294 304.149H53.1829V569.99H65.9294V304.149Z" fill="white"/>
<path opacity="0.5" d="M163.027 304.149H150.281V569.99H163.027V304.149Z" fill="white"/>
<path opacity="0.5" d="M276.338 304.149H263.592V569.99H276.338V304.149Z" fill="white"/>
<path opacity="0.5" d="M373.436 304.149H360.69V569.99H373.436V304.149Z" fill="white"/>
<path d="M380.289 297.256H46.3306V316.407H380.289V297.256Z" fill="#213A51"/>
<path opacity="0.1" d="M65.9091 402.083V569.99H53.1626V398.474L65.9091 402.083Z" fill="white"/>
<path opacity="0.2" d="M163.027 368.555V569.99H150.281V364.925L163.027 368.555Z" fill="white"/>
<path opacity="0.1" d="M276.338 400.819V569.99H263.571V397.189L276.338 400.819Z" fill="white"/>
<path opacity="0.2" d="M373.436 428.494V569.99H360.69V424.843L373.436 428.494Z" fill="white"/>
<path opacity="0.5" d="M380.289 297.256H46.3306V316.407H380.289V297.256Z" fill="white"/>
<path opacity="0.2" d="M380.289 297.256H156.664V316.407H380.289V297.256Z" fill="white"/>
<path d="M174.265 291.913H135.515C134.3 291.91 133.129 291.459 132.226 290.646C131.323 289.833 130.751 288.716 130.621 287.508L127.052 254.142H182.728L179.159 287.508C179.029 288.716 178.457 289.833 177.554 290.646C176.651 291.459 175.48 291.91 174.265 291.913Z" fill="#213A51"/>
<path d="M128.091 291.913H221.416C222.13 291.913 222.815 292.196 223.32 292.701C223.824 293.206 224.108 293.891 224.108 294.605V297.256H125.399V294.605C125.399 293.891 125.683 293.206 126.188 292.701C126.693 292.196 127.377 291.913 128.091 291.913Z" fill="#213A51"/>
<path d="M241.872 212.008L207.915 173.156C207.47 172.644 206.927 172.227 206.317 171.929C205.707 171.631 205.044 171.459 204.366 171.423H189.805C188.562 171.409 187.358 171.852 186.419 172.667L172.49 184.903C171.534 185.737 170.923 186.896 170.776 188.156C170.629 189.415 170.956 190.684 171.695 191.715L201.797 233.972C202.523 234.995 203.595 235.72 204.815 236.012V236.134H219.887C220.547 236.177 221.209 236.089 221.836 235.875C222.462 235.662 223.04 235.327 223.537 234.89L241.321 219.39C241.856 218.951 242.295 218.408 242.614 217.793C242.933 217.179 243.124 216.507 243.175 215.817C243.227 215.127 243.138 214.433 242.914 213.779C242.69 213.124 242.335 212.521 241.872 212.008Z" fill="#213A51"/>
<path opacity="0.4" d="M241.872 212.008L207.915 173.156C207.47 172.644 206.927 172.227 206.317 171.929C205.707 171.631 205.044 171.459 204.366 171.423H189.805C188.562 171.409 187.358 171.852 186.419 172.667L172.49 184.903C171.534 185.737 170.923 186.896 170.776 188.156C170.629 189.415 170.956 190.684 171.695 191.715L201.797 233.972C202.523 234.995 203.595 235.72 204.815 236.012V236.134H219.887C220.547 236.177 221.209 236.089 221.836 235.875C222.462 235.662 223.04 235.327 223.537 234.89L241.321 219.39C241.856 218.951 242.295 218.408 242.614 217.793C242.933 217.179 243.124 216.507 243.175 215.817C243.227 215.127 243.138 214.433 242.914 213.779C242.69 213.124 242.335 212.521 241.872 212.008Z" fill="white"/>
<g opacity="0.2">
<path d="M216.094 233.85L185.991 191.511C185.253 190.48 184.926 189.211 185.073 187.952C185.22 186.692 185.831 185.533 186.787 184.7L200.696 172.463C201.718 171.571 203.053 171.121 204.407 171.213C205.761 171.305 207.023 171.931 207.915 172.952L241.872 211.844C242.764 212.867 243.213 214.202 243.122 215.556C243.03 216.909 242.404 218.171 241.383 219.064L223.599 234.564C223.075 235.044 222.456 235.408 221.782 235.634C221.108 235.86 220.395 235.942 219.687 235.875C218.98 235.807 218.295 235.593 217.676 235.244C217.057 234.895 216.518 234.42 216.094 233.85Z" fill="white"/>
</g>
<path d="M178.424 195.835L177.099 194.305L176.405 193.53L172.51 196.957C172.442 197.023 172.388 197.102 172.352 197.19C172.315 197.277 172.296 197.371 172.296 197.466C172.296 197.561 172.315 197.655 172.352 197.743C172.388 197.83 172.442 197.91 172.51 197.976L172.714 198.201L155.154 213.537L154.216 212.456L153.89 212.579C153.502 212.701 144.59 215.842 143.407 220.267C143.24 220.953 143.253 221.671 143.446 222.35C143.639 223.029 144.005 223.647 144.509 224.142C144.882 224.647 145.367 225.059 145.926 225.345C146.485 225.632 147.103 225.786 147.731 225.794H148.22C152.768 225.223 157.112 216.861 157.296 216.494L157.459 216.188L156.48 215.067L174.04 199.751L174.244 199.975C174.31 200.043 174.389 200.097 174.477 200.133C174.564 200.17 174.658 200.189 174.753 200.189C174.848 200.189 174.942 200.17 175.03 200.133C175.118 200.097 175.197 200.043 175.263 199.975L179.179 196.549L178.424 195.835ZM145.61 223.918C145.55 223.869 145.496 223.814 145.447 223.755L155.216 215.23L155.501 215.556C153.462 218.146 148.424 223.857 145.957 223.938C145.841 223.953 145.723 223.946 145.61 223.918ZM154.726 214.679L149.729 219.023C146.956 221.43 145.651 222.613 144.978 223.225L144.835 223.061C144.814 222.926 144.814 222.789 144.835 222.653C145.243 220.227 151.585 216.025 154.441 214.353L154.726 214.679ZM144.325 220.532C145.243 217.065 152.238 214.251 153.829 213.66L153.972 213.823C152.075 214.965 145.569 218.982 144.325 221.98C144.178 221.509 144.178 221.004 144.325 220.532ZM148.016 224.754C147.537 224.82 147.05 224.749 146.609 224.55C149.729 223.714 154.624 217.8 155.97 216.107L156.154 216.311C155.338 217.8 151.585 224.305 148.016 224.754Z" fill="#213A51"/>
<path d="M186.603 195.835L185.257 194.305L184.584 193.53L180.668 196.957C180.6 197.023 180.546 197.102 180.51 197.19C180.473 197.277 180.454 197.371 180.454 197.466C180.454 197.561 180.473 197.655 180.51 197.743C180.546 197.83 180.6 197.91 180.668 197.976L180.872 198.201L163.292 213.537L162.354 212.456L162.028 212.579C161.66 212.701 152.728 215.842 151.565 220.267C151.395 220.952 151.405 221.668 151.595 222.347C151.784 223.026 152.147 223.645 152.646 224.142C153.027 224.639 153.514 225.046 154.071 225.331C154.629 225.617 155.242 225.775 155.868 225.794H156.378C160.926 225.223 165.27 216.861 165.454 216.494L165.617 216.188L164.658 215.087L182.218 199.751L182.422 199.975C182.488 200.043 182.568 200.097 182.655 200.133C182.743 200.17 182.837 200.189 182.932 200.189C183.027 200.189 183.121 200.17 183.208 200.133C183.296 200.097 183.375 200.043 183.442 199.975L187.357 196.549L186.603 195.835ZM153.788 223.918C153.729 223.869 153.674 223.814 153.625 223.755C155.073 222.47 160.294 217.922 163.374 215.25L163.659 215.577C161.62 218.187 156.603 223.857 154.115 223.938C154.006 223.953 153.895 223.946 153.788 223.918ZM162.884 214.7L157.908 219.023C155.155 221.43 153.829 222.613 153.156 223.225L153.013 223.041C152.993 222.919 152.993 222.795 153.013 222.674C153.442 220.247 159.743 216.066 162.619 214.394L162.884 214.7ZM152.483 220.532C153.401 217.065 160.396 214.251 161.987 213.66L162.13 213.843C160.192 214.985 153.768 218.982 152.483 222.001C152.349 221.521 152.349 221.013 152.483 220.532ZM156.174 224.754C155.695 224.82 155.208 224.749 154.767 224.55C157.888 223.714 162.762 217.861 164.149 216.127L164.312 216.311C163.496 217.8 159.764 224.305 156.174 224.754Z" fill="#213A51"/>
<path opacity="0.1" d="M186.603 195.835L185.257 194.305L184.584 193.53L180.668 196.957C180.6 197.023 180.546 197.102 180.51 197.19C180.473 197.277 180.454 197.371 180.454 197.466C180.454 197.561 180.473 197.655 180.51 197.743C180.546 197.83 180.6 197.91 180.668 197.976L180.872 198.201L163.292 213.537L162.354 212.456L162.028 212.579C161.66 212.701 152.728 215.842 151.565 220.267C151.395 220.952 151.405 221.668 151.595 222.347C151.784 223.026 152.147 223.645 152.646 224.142C153.027 224.639 153.514 225.046 154.071 225.331C154.629 225.617 155.242 225.775 155.868 225.794H156.378C160.926 225.223 165.27 216.861 165.454 216.494L165.617 216.188L164.658 215.087L182.218 199.751L182.422 199.975C182.488 200.043 182.568 200.097 182.655 200.133C182.743 200.17 182.837 200.189 182.932 200.189C183.027 200.189 183.121 200.17 183.208 200.133C183.296 200.097 183.375 200.043 183.442 199.975L187.357 196.549L186.603 195.835ZM153.788 223.918C153.729 223.869 153.674 223.814 153.625 223.755C155.073 222.47 160.294 217.922 163.374 215.25L163.659 215.577C161.62 218.187 156.603 223.857 154.115 223.938C154.006 223.953 153.895 223.946 153.788 223.918ZM162.884 214.7L157.908 219.023C155.155 221.43 153.829 222.613 153.156 223.225L153.013 223.041C152.993 222.919 152.993 222.795 153.013 222.674C153.442 220.247 159.743 216.066 162.619 214.394L162.884 214.7ZM152.483 220.532C153.401 217.065 160.396 214.251 161.987 213.66L162.13 213.843C160.192 214.985 153.768 218.982 152.483 222.001C152.349 221.521 152.349 221.013 152.483 220.532ZM156.174 224.754C155.695 224.82 155.208 224.749 154.767 224.55C157.888 223.714 162.762 217.861 164.149 216.127L164.312 216.311C163.496 217.8 159.764 224.305 156.174 224.754Z" fill="white"/>
<path d="M206.508 222.388H194.924V280.981C194.926 282.714 194.433 284.411 193.505 285.874C192.577 287.337 191.251 288.505 189.683 289.241L183.911 291.913H215.339V234.095L206.508 222.388Z" fill="#213A51"/>
<path opacity="0.4" d="M215.359 234.095V291.913H183.911L189.683 289.241C191.253 288.506 192.582 287.338 193.514 285.876C194.446 284.413 194.942 282.716 194.945 280.981V222.388H206.508L215.359 234.095Z" fill="white"/>
<path opacity="0.2" d="M206.508 222.388V280.981C206.505 282.716 206.009 284.413 205.077 285.876C204.146 287.338 202.817 288.506 201.246 289.241L195.475 291.913H215.339V234.095L206.508 222.388Z" fill="white"/>
<path opacity="0.2" d="M215.359 234.095V234.911L206.508 225.794H194.944V222.388H206.508L215.359 234.095Z" fill="#2D2D2D"/>
<path opacity="0.4" d="M128.091 291.913H221.416C222.13 291.913 222.815 292.196 223.32 292.701C223.824 293.206 224.108 293.891 224.108 294.605V297.256H125.399V294.605C125.399 293.891 125.683 293.206 126.188 292.701C126.693 292.196 127.377 291.913 128.091 291.913Z" fill="white"/>
<path opacity="0.7" d="M174.265 291.913H135.515C134.3 291.91 133.129 291.459 132.226 290.646C131.323 289.833 130.751 288.716 130.621 287.508L127.052 254.142H182.728L179.159 287.508C179.029 288.716 178.457 289.833 177.554 290.646C176.651 291.459 175.48 291.91 174.265 291.913Z" fill="white"/>
<path d="M291.858 271.559L288.942 273.966L264.469 243.374C264.152 242.976 264.007 242.47 264.065 241.965C264.122 241.46 264.377 240.999 264.774 240.682C265.172 240.366 265.679 240.221 266.184 240.278C266.689 240.335 267.15 240.591 267.467 240.988L291.858 271.559Z" fill="#213A51"/>
<path d="M270.322 253.184H332.505V292.076C332.505 292.756 332.371 293.43 332.11 294.058C331.85 294.687 331.469 295.258 330.988 295.739C330.507 296.22 329.935 296.601 329.307 296.862C328.678 297.122 328.005 297.256 327.325 297.256H275.502C274.822 297.256 274.149 297.122 273.52 296.862C272.892 296.601 272.321 296.22 271.84 295.739C271.358 295.258 270.977 294.687 270.717 294.058C270.456 293.43 270.322 292.756 270.322 292.076V253.184Z" fill="#FF7A00"/>
<path opacity="0.5" d="M270.322 253.184H332.505V292.076C332.505 292.756 332.371 293.43 332.11 294.058C331.85 294.687 331.469 295.258 330.988 295.739C330.507 296.22 329.935 296.601 329.307 296.862C328.678 297.122 328.005 297.256 327.325 297.256H275.502C274.822 297.256 274.149 297.122 273.52 296.862C272.892 296.601 272.321 296.22 271.84 295.739C271.358 295.258 270.977 294.687 270.717 294.058C270.456 293.43 270.322 292.756 270.322 292.076V253.184Z" fill="white"/>
<path d="M260.716 253.184H226.046L223.884 258.303C223.884 258.303 229.696 258.18 232.307 273.028L234.122 297.256H256.311L259.309 257.263H260.634C261.646 257.263 262.616 257.665 263.331 258.38C264.046 259.095 264.448 260.065 264.448 261.076V275.128C264.448 275.669 264.663 276.188 265.046 276.57C265.428 276.953 265.947 277.168 266.488 277.168C267.029 277.168 267.547 276.953 267.93 276.57C268.312 276.188 268.527 275.669 268.527 275.128V261.138C268.543 259.048 267.73 257.037 266.266 255.546C264.802 254.055 262.806 253.205 260.716 253.184Z" fill="#FF7A00"/>
<path opacity="0.7" d="M260.716 253.184H226.046L223.884 258.303C223.884 258.303 229.696 258.18 232.307 273.028L234.122 297.256H256.311L259.309 257.263H260.634C261.646 257.263 262.616 257.665 263.331 258.38C264.046 259.095 264.448 260.065 264.448 261.076V275.128C264.448 275.669 264.663 276.188 265.046 276.57C265.428 276.953 265.947 277.168 266.488 277.168C267.029 277.168 267.547 276.953 267.93 276.57C268.312 276.188 268.527 275.669 268.527 275.128V261.138C268.543 259.048 267.73 257.037 266.266 255.546C264.802 254.055 262.806 253.205 260.716 253.184Z" fill="white"/>
<path d="M289.982 277.8H357.936V290.261C357.936 292.116 357.2 293.895 355.888 295.207C354.576 296.519 352.796 297.256 350.941 297.256H296.978C295.122 297.256 293.343 296.519 292.031 295.207C290.719 293.895 289.982 292.116 289.982 290.261V277.8Z" fill="#213A51"/>
<path opacity="0.5" d="M289.982 277.8H357.936V290.261C357.936 292.116 357.2 293.895 355.888 295.207C354.576 296.519 352.796 297.256 350.941 297.256H296.978C295.122 297.256 293.343 296.519 292.031 295.207C290.719 293.895 289.982 292.116 289.982 290.261V277.8Z" fill="white"/>
<path d="M306.65 24.7102C311.295 29.9429 319.443 30.0059 324.171 24.8534C331.68 16.6677 345.309 22.4441 344.657 33.5362C344.243 40.5171 349.955 46.3288 356.945 46.0276C368.044 45.5518 373.596 59.2736 365.29 66.6499C360.057 71.2947 359.994 79.4432 365.147 84.1714C373.332 91.6804 367.556 105.309 356.464 104.657C349.483 104.243 343.671 109.955 343.972 116.945C344.448 128.044 330.726 133.596 323.35 125.29C318.705 120.057 310.557 119.994 305.829 125.147C298.32 133.332 284.691 127.556 285.343 116.464C285.757 109.483 280.045 103.671 273.055 103.972C261.956 104.448 256.404 90.7264 264.71 83.35C269.943 78.7053 270.006 70.5567 264.853 65.8286C256.668 58.3196 262.444 44.691 273.536 45.3428C280.517 45.7572 286.329 40.0453 286.028 33.055C285.552 21.9564 299.274 16.4039 306.65 24.7102Z" fill="#FF7A00"/>
<path d="M313.338 81.6034C313.952 81.7662 314.571 81.8443 315.191 81.8443C316.424 81.8443 317.638 81.5252 318.732 80.9001C320.374 79.9624 321.554 78.4516 322.042 76.6349C322.53 74.8181 322.28 72.9296 321.33 71.3082C320.381 69.6867 318.851 68.5211 317.011 68.0393C315.178 67.5509 313.259 67.8048 311.617 68.7425C309.975 69.6802 308.795 71.191 308.307 73.0078C307.813 74.8181 308.07 76.713 309.019 78.3344C309.969 79.9559 311.499 81.1215 313.338 81.6034ZM309.586 73.3464C309.989 71.8682 310.945 70.6375 312.283 69.8756C313.173 69.3677 314.163 69.1072 315.171 69.1072C315.673 69.1072 316.18 69.1723 316.681 69.3025C318.178 69.6998 319.424 70.644 320.196 71.9659C320.967 73.2878 321.172 74.8311 320.776 76.3027C320.374 77.7809 319.418 79.0117 318.079 79.7735C316.741 80.5354 315.178 80.7438 313.688 80.3466C312.191 79.9494 310.945 79.0052 310.173 77.6833C309.402 76.3614 309.197 74.8181 309.593 73.3464H309.586Z" fill="white"/>
<path d="M315.178 100.865C329.724 100.865 341.554 89.1831 341.554 74.818C341.554 60.453 329.724 48.7708 315.178 48.7708C300.632 48.7708 288.803 60.453 288.803 74.818C288.803 89.1831 300.632 100.865 315.178 100.865ZM315.178 50.0731C328.992 50.0731 340.235 61.1758 340.235 74.818C340.235 88.4603 328.992 99.5629 315.178 99.5629C301.364 99.5629 290.122 88.4603 290.122 74.818C290.122 61.1758 301.364 50.0731 315.178 50.0731Z" fill="white"/>
<path d="M298.693 86.637C298.951 87.7635 299.214 88.9292 300.052 89.7562C300.889 90.5832 302.069 90.8436 303.21 91.0976C303.982 91.2669 304.714 91.4297 305.274 91.7553C305.821 92.0679 306.316 92.6018 306.85 93.1749C307.648 94.0344 308.472 94.9265 309.639 95.2326C310.76 95.5256 311.901 95.174 313.002 94.8354C313.774 94.5944 314.499 94.373 315.178 94.373C315.857 94.373 316.576 94.5944 317.347 94.8354C318.165 95.0893 318.996 95.3433 319.827 95.3433C320.123 95.3433 320.42 95.3107 320.71 95.2326C321.877 94.9265 322.702 94.0344 323.499 93.1749C324.027 92.6083 324.528 92.0679 325.075 91.7553C325.636 91.4362 326.368 91.2734 327.139 91.0976C328.28 90.8436 329.46 90.5832 330.298 89.7562C331.135 88.9292 331.399 87.7635 331.656 86.637C331.828 85.8751 331.992 85.1523 332.315 84.5988C332.632 84.0583 333.173 83.5699 333.753 83.0425C334.623 82.2545 335.527 81.4406 335.837 80.288C336.133 79.1875 335.777 78.0544 335.434 76.967C335.19 76.2051 334.966 75.4888 334.966 74.8181C334.966 74.1473 335.19 73.4375 335.434 72.6757C335.777 71.5817 336.133 70.4551 335.837 69.3546C335.527 68.202 334.623 67.3881 333.753 66.6001C333.179 66.0792 332.632 65.5843 332.315 65.0503C331.992 64.4968 331.828 63.774 331.656 63.0121C331.399 61.8856 331.135 60.72 330.298 59.893C329.46 59.066 328.28 58.8055 327.139 58.5515C326.368 58.3822 325.636 58.2194 325.075 57.8938C324.528 57.5813 324.034 57.0473 323.499 56.4743C322.702 55.6147 321.877 54.7226 320.71 54.4165C319.589 54.1235 318.449 54.4751 317.347 54.8137C316.576 55.0547 315.851 55.2761 315.178 55.2761C314.505 55.2761 313.774 55.0547 313.002 54.8137C311.894 54.4751 310.754 54.1235 309.639 54.4165C308.472 54.7226 307.648 55.6147 306.85 56.4743C306.322 57.0408 305.821 57.5813 305.274 57.8938C304.714 58.2129 303.982 58.3757 303.21 58.5515C302.069 58.8055 300.889 59.066 300.052 59.893C299.214 60.72 298.951 61.8856 298.693 63.0121C298.522 63.774 298.357 64.4968 298.027 65.0503C297.711 65.5908 297.17 66.0792 296.59 66.6066C295.72 67.3946 294.816 68.2086 294.506 69.3611C294.21 70.4616 294.566 71.5947 294.908 72.6822C295.152 73.4441 295.377 74.1604 295.377 74.8311C295.377 75.5018 295.152 76.2116 294.908 76.9735C294.566 78.0674 294.21 79.194 294.506 80.2945C294.816 81.4471 295.72 82.2611 296.59 83.049C297.164 83.5699 297.711 84.0648 298.027 84.6053C298.35 85.1588 298.515 85.8816 298.693 86.6435V86.637ZM295.785 79.9494C295.588 79.207 295.871 78.3084 296.175 77.3511C296.432 76.5307 296.702 75.6776 296.702 74.8181C296.702 73.9585 296.432 73.1054 296.175 72.285C295.871 71.3277 295.588 70.4226 295.785 69.6867C295.996 68.9053 296.722 68.2476 297.487 67.5574C298.113 66.9908 298.759 66.4048 299.175 65.695C299.603 64.9657 299.795 64.1126 299.986 63.2856C300.21 62.2958 300.421 61.3581 300.988 60.7981C301.555 60.2381 302.505 60.0297 303.507 59.8083C304.344 59.6195 305.208 59.4306 305.947 59.0074C306.665 58.5971 307.259 57.959 307.832 57.3403C308.531 56.585 309.197 55.8687 309.989 55.6603C310.74 55.4584 311.65 55.7449 312.62 56.0445C313.45 56.2984 314.314 56.5654 315.185 56.5654C316.055 56.5654 316.919 56.2984 317.75 56.0445C318.719 55.7449 319.635 55.4649 320.381 55.6603C321.172 55.8687 321.838 56.585 322.537 57.3403C323.11 57.959 323.704 58.5971 324.423 59.0074C325.161 59.4306 326.025 59.6195 326.862 59.8083C327.865 60.0297 328.814 60.2381 329.381 60.7981C329.948 61.3581 330.159 62.2958 330.383 63.2856C330.575 64.1126 330.766 64.9657 331.195 65.695C331.61 66.4048 332.256 66.9908 332.883 67.5574C333.647 68.2476 334.373 68.9053 334.584 69.6867C334.782 70.4291 334.498 71.3277 334.195 72.285C333.938 73.1054 333.667 73.9585 333.667 74.8181C333.667 75.6776 333.938 76.5307 334.195 77.3511C334.498 78.3084 334.782 79.2135 334.584 79.9494C334.373 80.7308 333.647 81.3885 332.883 82.0787C332.256 82.6453 331.61 83.2313 331.195 83.9411C330.766 84.6704 330.575 85.5235 330.383 86.3505C330.159 87.3403 329.948 88.278 329.381 88.838C328.814 89.398 327.865 89.6064 326.862 89.8278C326.025 90.0166 325.161 90.2055 324.423 90.6287C323.704 91.039 323.11 91.6772 322.537 92.2958C321.838 93.0511 321.172 93.7674 320.381 93.9758C319.629 94.1777 318.719 93.8912 317.75 93.5916C316.919 93.3377 316.055 93.0707 315.185 93.0707C314.314 93.0707 313.45 93.3377 312.62 93.5916C311.65 93.8912 310.734 94.1712 309.989 93.9758C309.197 93.7674 308.531 93.0511 307.832 92.2958C307.259 91.6772 306.665 91.039 305.947 90.6287C305.208 90.2055 304.344 90.0166 303.507 89.8278C302.505 89.6064 301.555 89.398 300.988 88.838C300.421 88.278 300.21 87.3403 299.986 86.3505C299.795 85.5235 299.603 84.6704 299.175 83.9411C298.759 83.2313 298.113 82.6453 297.487 82.0787C296.722 81.3885 295.996 80.7308 295.785 79.9494Z" fill="white"/>
<path d="M314.558 61.2604H315.528C315.89 61.2604 316.187 60.9674 316.187 60.6093C316.187 60.2511 315.89 59.9581 315.528 59.9581H314.558C314.196 59.9581 313.899 60.2511 313.899 60.6093C313.899 60.9674 314.196 61.2604 314.558 61.2604Z" fill="white"/>
<path d="M318.831 61.7293L319.754 62.0223C319.82 62.0418 319.893 62.0549 319.959 62.0549C320.236 62.0549 320.493 61.879 320.585 61.6055C320.697 61.2604 320.506 60.8958 320.163 60.7851L319.24 60.492C318.89 60.3813 318.521 60.5702 318.409 60.9088C318.297 61.2539 318.488 61.6186 318.831 61.7293Z" fill="white"/>
<path d="M323.532 64.0474C323.651 64.1321 323.783 64.1712 323.921 64.1712C324.126 64.1712 324.324 64.08 324.455 63.9042C324.666 63.6112 324.607 63.2074 324.31 62.9925L323.526 62.4325C323.229 62.2241 322.82 62.2827 322.603 62.5758C322.392 62.8688 322.451 63.2725 322.748 63.4874L323.532 64.0474Z" fill="white"/>
<path d="M326.493 67.1276C326.625 67.3034 326.823 67.3946 327.027 67.3946C327.159 67.3946 327.298 67.3555 327.416 67.2708C327.713 67.0625 327.779 66.6522 327.562 66.3592L326.994 65.5843C326.783 65.2912 326.368 65.2261 326.071 65.441C325.775 65.6494 325.709 66.0596 325.926 66.3527L326.493 67.1276Z" fill="white"/>
<path d="M328.346 70.9565C328.438 71.23 328.695 71.4058 328.972 71.4058C329.038 71.4058 329.111 71.3928 329.177 71.3733C329.526 71.2626 329.711 70.8914 329.599 70.5528L329.295 69.6411C329.183 69.3025 328.814 69.1137 328.464 69.2244C328.115 69.3351 327.93 69.7063 328.042 70.0449L328.346 70.9565Z" fill="white"/>
<path d="M328.913 74.2059V75.1631C328.913 75.5213 329.21 75.8143 329.572 75.8143C329.935 75.8143 330.232 75.5213 330.232 75.1631V74.2059C330.232 73.8477 329.935 73.5547 329.572 73.5547C329.21 73.5547 328.913 73.8477 328.913 74.2059Z" fill="white"/>
<path d="M329.262 78.0088C328.913 77.8981 328.544 78.087 328.432 78.4256L328.128 79.3372C328.016 79.6758 328.207 80.047 328.55 80.1577C328.616 80.1772 328.689 80.1903 328.755 80.1903C329.032 80.1903 329.289 80.0145 329.381 79.741L329.684 78.8293C329.797 78.4907 329.605 78.1195 329.262 78.0088Z" fill="white"/>
<path d="M326.658 82.2936L326.085 83.0685C325.874 83.3615 325.933 83.7653 326.23 83.9801C326.348 84.0648 326.48 84.1039 326.619 84.1039C326.823 84.1039 327.021 84.0127 327.153 83.8369L327.726 83.062C327.937 82.7689 327.878 82.3652 327.581 82.1503C327.285 81.9419 326.876 82.0071 326.658 82.2936Z" fill="white"/>
<path d="M323.756 85.4259L322.972 85.9859C322.675 86.1943 322.609 86.6045 322.827 86.8975C322.959 87.0734 323.156 87.1645 323.361 87.1645C323.493 87.1645 323.631 87.1255 323.75 87.0408L324.534 86.4808C324.831 86.2724 324.897 85.8622 324.68 85.5691C324.469 85.2761 324.053 85.211 323.756 85.4259Z" fill="white"/>
<path d="M320.018 87.5291L319.095 87.8222C318.752 87.9329 318.561 88.2975 318.673 88.6427C318.765 88.9162 319.022 89.092 319.299 89.092C319.365 89.092 319.438 89.079 319.504 89.0594L320.427 88.7664C320.77 88.6557 320.961 88.291 320.849 87.9459C320.737 87.6073 320.367 87.4184 320.018 87.5291Z" fill="white"/>
<path d="M315.804 88.3822H314.835C314.473 88.3822 314.176 88.6752 314.176 89.0334C314.176 89.3915 314.473 89.6846 314.835 89.6846H315.804C316.167 89.6846 316.464 89.3915 316.464 89.0334C316.464 88.6752 316.167 88.3822 315.804 88.3822Z" fill="white"/>
<path d="M311.531 87.9068L310.608 87.6138C310.259 87.5031 309.889 87.6919 309.777 88.0305C309.665 88.3757 309.856 88.7403 310.199 88.851L311.122 89.1441C311.188 89.1636 311.261 89.1766 311.327 89.1766C311.604 89.1766 311.861 89.0008 311.953 88.7273C312.065 88.3822 311.874 88.0175 311.531 87.9068Z" fill="white"/>
<path d="M306.83 85.5886C306.534 85.3802 306.125 85.4453 305.907 85.7318C305.696 86.0248 305.756 86.4286 306.052 86.6435L306.837 87.2035C306.956 87.2881 307.088 87.3272 307.226 87.3272C307.43 87.3272 307.628 87.236 307.76 87.0602C307.971 86.7672 307.912 86.3635 307.615 86.1486L306.83 85.5886Z" fill="white"/>
<path d="M302.946 82.3717C302.65 82.5801 302.584 82.9904 302.801 83.2834L303.375 84.0583C303.507 84.2341 303.705 84.3253 303.909 84.3253C304.041 84.3253 304.179 84.2862 304.298 84.2016C304.595 83.9932 304.661 83.5829 304.443 83.2899L303.869 82.515C303.658 82.222 303.243 82.1568 302.946 82.3717Z" fill="white"/>
<path d="M301.179 78.2692C300.836 78.38 300.645 78.7446 300.757 79.0897L301.053 80.0014C301.146 80.2749 301.403 80.4507 301.68 80.4507C301.746 80.4507 301.818 80.4377 301.884 80.4181C302.227 80.3074 302.418 79.9428 302.306 79.5977L302.01 78.686C301.897 78.3474 301.528 78.1585 301.179 78.2692Z" fill="white"/>
<path d="M300.79 76.0878C301.153 76.0878 301.45 75.7948 301.45 75.4367V74.4794C301.45 74.1213 301.153 73.8282 300.79 73.8282C300.428 73.8282 300.131 74.1213 300.131 74.4794V75.4367C300.131 75.7948 300.428 76.0878 300.79 76.0878Z" fill="white"/>
<path d="M301.093 71.6338C301.159 71.6533 301.232 71.6663 301.298 71.6663C301.575 71.6663 301.832 71.4905 301.924 71.217L302.221 70.3054C302.333 69.9602 302.142 69.5956 301.799 69.4849C301.449 69.3742 301.08 69.563 300.968 69.9016L300.671 70.8133C300.559 71.1584 300.75 71.5231 301.093 71.6338Z" fill="white"/>
<path d="M303.17 67.616C303.375 67.616 303.573 67.5248 303.704 67.349L304.278 66.5741C304.489 66.281 304.43 65.8773 304.133 65.6624C303.836 65.454 303.428 65.5191 303.21 65.8057L302.636 66.5806C302.425 66.8736 302.485 67.2773 302.781 67.4922C302.9 67.5769 303.032 67.616 303.17 67.616Z" fill="white"/>
<path d="M306.217 64.334C306.349 64.334 306.487 64.295 306.606 64.2103L307.39 63.6503C307.687 63.4419 307.753 63.0317 307.535 62.7386C307.324 62.4456 306.909 62.3805 306.612 62.5954L305.828 63.1554C305.531 63.3638 305.465 63.774 305.683 64.067C305.814 64.2429 306.012 64.334 306.217 64.334Z" fill="white"/>
<path d="M310.14 62.146C310.206 62.146 310.279 62.133 310.345 62.1134L311.268 61.8204C311.611 61.7097 311.802 61.345 311.69 60.9999C311.578 60.6613 311.209 60.4725 310.859 60.5832L309.936 60.8762C309.593 60.9869 309.402 61.3515 309.514 61.6967C309.606 61.9702 309.864 62.146 310.14 62.146Z" fill="white"/>
</svg>
