<svg width="108" height="22" viewBox="0 0 108 22" fill="none" xmlns="http://www.w3.org/2000/svg">
<path d="M99.0491 21.0929L98.7246 16.3605H99.0491C99.3195 17.4422 99.6711 18.2895 100.104 18.9025C100.554 19.5154 101.059 19.9571 101.618 20.2275C102.177 20.4799 102.772 20.6061 103.403 20.6061C104.449 20.6061 105.242 20.3177 105.783 19.7408C106.323 19.1639 106.594 18.4518 106.594 17.6045C106.594 16.9194 106.441 16.3876 106.134 16.009C105.846 15.6124 105.422 15.3059 104.863 15.0895C104.322 14.8552 103.664 14.6388 102.889 14.4405C102.51 14.3324 102.096 14.1972 101.645 14.0349C101.194 13.8726 100.771 13.6473 100.374 13.3588C99.9776 13.0704 99.6531 12.6918 99.4007 12.2231C99.1483 11.7544 99.0221 11.1594 99.0221 10.4383C99.0221 9.73522 99.1843 9.08621 99.5088 8.49128C99.8333 7.89636 100.311 7.41861 100.942 7.05805C101.573 6.69749 102.339 6.51721 103.241 6.51721C104.034 6.51721 104.701 6.63439 105.242 6.86876C105.783 7.10312 106.224 7.37354 106.567 7.68002L106.945 6.51721H107.189L107.486 10.6276H107.135C106.81 9.41972 106.332 8.50931 105.701 7.89636C105.07 7.2834 104.232 6.97693 103.187 6.97693C102.339 6.97693 101.645 7.21129 101.104 7.68002C100.581 8.13072 100.32 8.75269 100.32 9.54592C100.32 10.249 100.482 10.7989 100.807 11.1955C101.131 11.5921 101.555 11.8896 102.078 12.0879C102.619 12.2862 103.187 12.4665 103.781 12.6287C104.25 12.7549 104.728 12.9172 105.215 13.1155C105.719 13.3138 106.179 13.5662 106.594 13.8726C107.027 14.1791 107.369 14.5757 107.621 15.0625C107.874 15.5493 108 16.1532 108 16.8743C108 17.7036 107.811 18.4337 107.432 19.0647C107.072 19.6957 106.54 20.1915 105.837 20.552C105.152 20.9126 104.331 21.0929 103.376 21.0929C102.709 21.0929 102.06 20.9937 101.429 20.7954C100.816 20.5971 100.221 20.2546 99.644 19.7678L99.3736 21.0929H99.0491Z" fill="white"/>
<path d="M94.4344 20.9305C94.0558 20.9305 93.7133 20.8674 93.4068 20.7412C93.1003 20.6331 92.7938 20.4348 92.4873 20.1463C92.1989 19.8579 91.8744 19.4793 91.5138 19.0106L87.4034 13.1154V12.9261L92.3521 8.46416C92.6045 8.2298 92.7578 8.01346 92.8119 7.81515C92.8659 7.61684 92.6947 7.48163 92.2981 7.40952L91.3786 7.22023L91.4057 6.89572H95.6783V7.22023L94.7318 7.43656C94.4614 7.49065 94.191 7.61684 93.9206 7.81515C93.6682 8.01346 93.3617 8.26585 93.0011 8.57233L88.9989 12.1689L93.3527 18.3345C93.7673 18.9114 94.1459 19.3351 94.4885 19.6055C94.831 19.8579 95.1825 19.9841 95.5431 19.9841C95.8135 19.9841 96.0659 19.939 96.3003 19.8489C96.5346 19.7587 96.751 19.6506 96.9493 19.5244L97.0845 19.7407C96.742 20.0652 96.3363 20.3446 95.8676 20.579C95.3989 20.8134 94.9211 20.9305 94.4344 20.9305ZM82.9685 20.7142V20.3897L84.2666 20.2545C84.5911 20.2184 84.7984 20.1193 84.8885 19.957C84.9787 19.7948 85.0237 19.4703 85.0237 18.9835V2.08224C85.0237 1.48731 84.9697 1.08168 84.8615 0.865346C84.7533 0.649009 84.4559 0.522813 83.9691 0.486757L82.644 0.40563L82.6711 0.13521L86.7815 0L86.9437 0.108168V19.0376C86.9437 19.4342 86.9798 19.7317 87.0519 19.93C87.142 20.1103 87.3403 20.2184 87.6468 20.2545L88.8367 20.3897V20.7142H82.9685Z" fill="white"/>
<path d="M75.8317 20.9034C74.5697 20.9034 73.4339 20.624 72.4244 20.0651C71.4328 19.5062 70.6486 18.713 70.0717 17.6854C69.5128 16.6398 69.2334 15.4048 69.2334 13.9806C69.2334 12.5384 69.5218 11.2945 70.0987 10.2488C70.6756 9.2032 71.4599 8.40096 72.4514 7.84209C73.461 7.28322 74.6058 7.00378 75.8857 7.00378C77.1477 7.00378 78.2745 7.28322 79.266 7.84209C80.2756 8.40096 81.0688 9.2032 81.6457 10.2488C82.2226 11.2764 82.511 12.5023 82.511 13.9265C82.511 15.3688 82.2136 16.6127 81.6187 17.6583C81.0418 18.704 80.2485 19.5062 79.239 20.0651C78.2474 20.624 77.1116 20.9034 75.8317 20.9034ZM75.8317 19.4431C76.697 19.4431 77.5083 19.2538 78.2654 18.8752C79.0406 18.4786 79.6626 17.8747 80.1313 17.0634C80.6181 16.2522 80.8615 15.2156 80.8615 13.9536C80.8615 12.6916 80.6181 11.655 80.1313 10.8438C79.6626 10.0325 79.0497 9.43757 78.2925 9.05898C77.5353 8.66236 76.724 8.46405 75.8587 8.46405C74.9934 8.46405 74.1821 8.66236 73.4249 9.05898C72.6677 9.43757 72.0548 10.0325 71.5861 10.8438C71.1173 11.655 70.883 12.6916 70.883 13.9536C70.883 15.2156 71.1173 16.2522 71.5861 17.0634C72.0548 17.8747 72.6587 18.4786 73.3979 18.8752C74.1551 19.2538 74.9663 19.4431 75.8317 19.4431Z" fill="white"/>
<path d="M60.6363 20.9034C59.3744 20.9034 58.2386 20.624 57.229 20.0651C56.2375 19.5062 55.4533 18.713 54.8764 17.6854C54.3175 16.6398 54.0381 15.4048 54.0381 13.9806C54.0381 12.5384 54.3265 11.2945 54.9034 10.2488C55.4803 9.2032 56.2645 8.40096 57.2561 7.84209C58.2657 7.28322 59.4104 7.00378 60.6904 7.00378C61.9524 7.00378 63.0791 7.28322 64.0707 7.84209C65.0803 8.40096 65.8735 9.2032 66.4504 10.2488C67.0273 11.2764 67.3157 12.5023 67.3157 13.9265C67.3157 15.3688 67.0183 16.6127 66.4233 17.6583C65.8464 18.704 65.0532 19.5062 64.0436 20.0651C63.0521 20.624 61.9163 20.9034 60.6363 20.9034ZM60.6363 19.4431C61.5017 19.4431 62.313 19.2538 63.0701 18.8752C63.8453 18.4786 64.4673 17.8747 64.936 17.0634C65.4228 16.2522 65.6662 15.2156 65.6662 13.9536C65.6662 12.6916 65.4228 11.655 64.936 10.8438C64.4673 10.0325 63.8543 9.43757 63.0972 9.05898C62.34 8.66236 61.5287 8.46405 60.6634 8.46405C59.798 8.46405 58.9868 8.66236 58.2296 9.05898C57.4724 9.43757 56.8595 10.0325 56.3907 10.8438C55.922 11.655 55.6877 12.6916 55.6877 13.9536C55.6877 15.2156 55.922 16.2522 56.3907 17.0634C56.8595 17.8747 57.4634 18.4786 58.2026 18.8752C58.9597 19.2538 59.771 19.4431 60.6363 19.4431Z" fill="white"/>
<path d="M40.3276 10.33C40.6881 9.39257 41.3101 8.60835 42.1935 7.97737C43.0768 7.32836 44.2126 7.00385 45.6008 7.00385C46.8447 7.00385 47.9354 7.2923 48.8729 7.8692C49.8103 8.44609 50.5314 9.25736 51.0362 10.303C51.559 11.3306 51.8204 12.5475 51.8204 13.9537C51.8204 15.3598 51.559 16.5858 51.0362 17.6314C50.5134 18.677 49.7833 19.4883 48.8458 20.0652C47.9264 20.624 46.8447 20.9035 45.6008 20.9035C44.2847 20.9035 43.194 20.597 42.3287 19.984C41.4633 19.3711 40.8414 18.6229 40.4628 17.7395L40.3546 20.7142H38.9214V1.2439H40.4628V10.3841L40.3276 10.33ZM50.1709 13.9537C50.1709 12.259 49.7292 10.9159 48.8458 9.92439C47.9624 8.93285 46.7816 8.43708 45.3033 8.43708C44.3658 8.43708 43.5275 8.66243 42.7884 9.11313C42.0492 9.56383 41.4724 10.2038 41.0577 11.0331C40.6611 11.8444 40.4628 12.8179 40.4628 13.9537C40.4628 15.0894 40.6701 16.072 41.0848 16.9012C41.4994 17.7125 42.0673 18.3435 42.7884 18.7942C43.5275 19.2449 44.3658 19.4702 45.3033 19.4702C46.7996 19.4702 47.9805 18.9745 48.8458 17.9829C49.7292 16.9914 50.1709 15.6483 50.1709 13.9537Z" fill="white"/>
<path d="M30.5439 21.0929C29.4442 21.0929 28.4617 20.8405 27.5964 20.3357C26.731 19.8129 26.046 19.0287 25.5412 17.983C25.0544 16.9374 24.811 15.6124 24.811 14.0079C24.811 12.4394 25.0634 11.0963 25.5682 9.97859C26.091 8.86086 26.8031 8.00452 27.7045 7.4096C28.624 6.81467 29.6876 6.51721 30.8955 6.51721C31.869 6.51721 32.6983 6.71552 33.3834 7.11214C34.0684 7.50875 34.5912 8.06762 34.9518 8.78874C35.3304 9.50987 35.5197 10.3392 35.5197 11.2766C35.5197 11.547 35.5107 11.8355 35.4926 12.142C35.4926 12.4304 35.4746 12.7279 35.4386 13.0343H26.8121C26.7761 14.6388 26.9474 15.9278 27.3259 16.9014C27.7226 17.8568 28.2634 18.5509 28.9485 18.9836C29.6516 19.4163 30.4178 19.6326 31.247 19.6326C32.0222 19.6326 32.7344 19.5064 33.3834 19.254C34.0504 18.9836 34.7174 18.5059 35.3845 17.8208L35.6008 17.983C34.8977 19.1188 34.1315 19.9211 33.3022 20.3898C32.4729 20.8585 31.5535 21.0929 30.5439 21.0929ZM26.8392 12.5476H33.4915C33.5096 12.3313 33.5186 12.1149 33.5186 11.8986C33.5366 11.6642 33.5456 11.4389 33.5456 11.2225C33.5456 9.65409 33.3113 8.54537 32.8425 7.89636C32.3918 7.24735 31.6887 6.92284 30.7332 6.92284C29.9761 6.92284 29.318 7.11214 28.7592 7.49073C28.2183 7.86931 27.7857 8.47325 27.4612 9.30254C27.1367 10.1318 26.9293 11.2135 26.8392 12.5476Z" fill="white"/>
<path d="M18.2791 20.7142V20.3897L19.5771 20.2545C19.9016 20.2184 20.1089 20.1193 20.1991 19.957C20.2892 19.7948 20.3343 19.4703 20.3343 18.9835V2.08224C20.3343 1.45126 20.2712 1.03661 20.145 0.838304C20.0188 0.621967 19.7394 0.504785 19.3067 0.486757L17.9546 0.40563L17.9816 0.13521L22.092 0L22.2543 0.108168V19.0376C22.2543 19.4703 22.2993 19.7767 22.3895 19.957C22.4977 20.1193 22.714 20.2184 23.0385 20.2545L24.4447 20.4167V20.7142H18.2791Z" fill="white"/>
<path d="M0 20.7142V20.3897L1.05464 20.2274C1.36112 20.1734 1.58647 20.0652 1.73069 19.9029C1.87491 19.7227 2.02815 19.3801 2.19041 18.8753L7.95036 0.973511H9.24838L14.9272 18.8483C15.0714 19.299 15.2247 19.6235 15.3869 19.8218C15.5492 20.0021 15.8196 20.1283 16.1982 20.2004L17.2258 20.3627V20.7142H10.8979V20.3897L12.3041 20.2274C12.6467 20.1914 12.845 20.0742 12.8991 19.8759C12.9531 19.6596 12.9171 19.3441 12.7909 18.9294L11.3577 13.9807H4.38081L2.78533 18.9024C2.67716 19.2629 2.65012 19.5694 2.7042 19.8218C2.75829 20.0562 2.97462 20.1914 3.35321 20.2274L4.94869 20.3897V20.7142H0ZM4.54306 13.521H11.1684L7.92332 2.86645H7.86923L4.54306 13.521Z" fill="white"/>
</svg>
