<svg width="84" height="18" viewBox="0 0 84 18" fill="none" xmlns="http://www.w3.org/2000/svg">
<path d="M1.33393 17.6404C0.981933 17.6404 0.701933 17.5444 0.493933 17.3524C0.301933 17.1444 0.205933 16.8644 0.205933 16.5124V1.48835C0.205933 1.13635 0.301933 0.864351 0.493933 0.672352C0.701933 0.464352 0.981933 0.360352 1.33393 0.360352C1.68593 0.360352 1.96593 0.464352 2.17393 0.672352C2.38193 0.864351 2.48593 1.13635 2.48593 1.48835V7.84835H12.3739V1.48835C12.3739 1.13635 12.4779 0.864351 12.6859 0.672352C12.8939 0.464352 13.1739 0.360352 13.5259 0.360352C13.8619 0.360352 14.1259 0.464352 14.3179 0.672352C14.5259 0.864351 14.6299 1.13635 14.6299 1.48835V16.5124C14.6299 16.8644 14.5259 17.1444 14.3179 17.3524C14.1259 17.5444 13.8619 17.6404 13.5259 17.6404C13.1739 17.6404 12.8939 17.5444 12.6859 17.3524C12.4779 17.1444 12.3739 16.8644 12.3739 16.5124V9.69635H2.48593V16.5124C2.48593 16.8644 2.38193 17.1444 2.17393 17.3524C1.96593 17.5444 1.68593 17.6404 1.33393 17.6404Z" fill="black"/>
<path d="M26.0333 17.6404C24.3373 17.6404 22.8253 17.2804 21.4973 16.5604C20.1853 15.8404 19.1613 14.8324 18.4253 13.5364C17.7053 12.2244 17.3453 10.7124 17.3453 9.00035C17.3453 7.28835 17.7053 5.78435 18.4253 4.48835C19.1613 3.17635 20.1853 2.16035 21.4973 1.44035C22.8253 0.720352 24.3373 0.360352 26.0333 0.360352C27.7293 0.360352 29.2333 0.720352 30.5453 1.44035C31.8733 2.16035 32.8973 3.17635 33.6173 4.48835C34.3533 5.78435 34.7213 7.28835 34.7213 9.00035C34.7213 10.7124 34.3533 12.2244 33.6173 13.5364C32.8973 14.8324 31.8733 15.8404 30.5453 16.5604C29.2333 17.2804 27.7293 17.6404 26.0333 17.6404ZM26.0333 15.7684C27.2973 15.7684 28.4093 15.5044 29.3693 14.9764C30.3453 14.4324 31.1053 13.6484 31.6493 12.6244C32.1933 11.6004 32.4653 10.3924 32.4653 9.00035C32.4653 7.57635 32.1853 6.36035 31.6253 5.35235C31.0653 4.32835 30.2893 3.55235 29.2973 3.02435C28.3053 2.49635 27.1693 2.23235 25.8893 2.23235C24.6573 2.23235 23.5613 2.50435 22.6013 3.04835C21.6573 3.59235 20.9213 4.37635 20.3933 5.40035C19.8813 6.40835 19.6253 7.60835 19.6253 9.00035C19.6253 10.3924 19.8893 11.6004 20.4173 12.6244C20.9613 13.6484 21.7133 14.4324 22.6733 14.9764C23.6493 15.5044 24.7693 15.7684 26.0333 15.7684Z" fill="black"/>
<path d="M37.8355 17.6404C37.4835 17.6404 37.2035 17.5444 36.9955 17.3524C36.8035 17.1444 36.7075 16.8644 36.7075 16.5124V6.98435C36.7075 5.62435 36.9955 4.44835 37.5715 3.45635C38.1475 2.46435 38.9715 1.70435 40.0435 1.17635C41.1315 0.632351 42.4115 0.360352 43.8835 0.360352C45.3555 0.360352 46.6275 0.632351 47.6995 1.17635C48.7875 1.70435 49.6195 2.46435 50.1955 3.45635C50.7715 4.44835 51.0595 5.62435 51.0595 6.98435V16.5124C51.0595 16.8644 50.9555 17.1444 50.7475 17.3524C50.5555 17.5444 50.2835 17.6404 49.9315 17.6404C49.5795 17.6404 49.2995 17.5444 49.0915 17.3524C48.8835 17.1444 48.7795 16.8644 48.7795 16.5124V6.91235C48.7795 5.42435 48.3475 4.27235 47.4835 3.45635C46.6355 2.64035 45.4355 2.23235 43.8835 2.23235C42.3475 2.23235 41.1475 2.64835 40.2835 3.48035C39.4195 4.29635 38.9875 5.44035 38.9875 6.91235V16.5124C38.9875 16.8644 38.8835 17.1444 38.6755 17.3524C38.4675 17.5444 38.1875 17.6404 37.8355 17.6404Z" fill="black"/>
<path d="M55.1267 17.6404C54.7747 17.6404 54.4947 17.5444 54.2867 17.3524C54.0947 17.1444 53.9987 16.8644 53.9987 16.5124V6.98435C53.9987 5.62435 54.2867 4.44835 54.8627 3.45635C55.4387 2.46435 56.2627 1.70435 57.3347 1.17635C58.4227 0.632351 59.7027 0.360352 61.1747 0.360352C62.6467 0.360352 63.9187 0.632351 64.9907 1.17635C66.0787 1.70435 66.9108 2.46435 67.4867 3.45635C68.0627 4.44835 68.3507 5.62435 68.3507 6.98435V16.5124C68.3507 16.8644 68.2467 17.1444 68.0387 17.3524C67.8467 17.5444 67.5747 17.6404 67.2227 17.6404C66.8708 17.6404 66.5907 17.5444 66.3827 17.3524C66.1747 17.1444 66.0707 16.8644 66.0707 16.5124V6.91235C66.0707 5.42435 65.6387 4.27235 64.7747 3.45635C63.9268 2.64035 62.7267 2.23235 61.1747 2.23235C59.6387 2.23235 58.4387 2.64835 57.5747 3.48035C56.7107 4.29635 56.2787 5.44035 56.2787 6.91235V16.5124C56.2787 16.8644 56.1747 17.1444 55.9667 17.3524C55.7587 17.5444 55.4787 17.6404 55.1267 17.6404Z" fill="black"/>
<path d="M74.77 17.4004C73.73 17.4004 72.914 17.1204 72.322 16.5604C71.73 16.0004 71.434 15.2244 71.434 14.2324V3.69635C71.434 2.73635 71.722 1.98435 72.298 1.44035C72.874 0.880352 73.674 0.600351 74.698 0.600351H82.138C82.89 0.600351 83.266 0.912352 83.266 1.53635C83.266 1.80835 83.162 2.02435 82.954 2.18435C82.762 2.34435 82.49 2.42435 82.138 2.42435H74.89C74.522 2.42435 74.226 2.54435 74.002 2.78435C73.794 3.02435 73.69 3.34435 73.69 3.74435V7.89635H80.314C81.066 7.89635 81.442 8.20835 81.442 8.83235C81.442 9.12035 81.338 9.34435 81.13 9.50435C80.938 9.66435 80.666 9.74435 80.314 9.74435H73.69V14.2564C73.69 14.6564 73.794 14.9764 74.002 15.2164C74.226 15.4564 74.522 15.5764 74.89 15.5764H82.666C83.034 15.5764 83.314 15.6564 83.506 15.8164C83.698 15.9604 83.794 16.1844 83.794 16.4884C83.794 16.7764 83.69 17.0004 83.482 17.1604C83.29 17.3204 83.018 17.4004 82.666 17.4004H74.77Z" fill="black"/>
</svg>
