<svg width="331" height="64" viewBox="0 0 331 64" fill="none" xmlns="http://www.w3.org/2000/svg">
<path d="M304.022 63.2003L303.062 49.2003H304.022C304.822 52.4003 305.862 54.907 307.142 56.7203C308.476 58.5337 309.969 59.8403 311.622 60.6403C313.276 61.387 315.036 61.7603 316.902 61.7603C319.996 61.7603 322.343 60.907 323.943 59.2003C325.543 57.4937 326.342 55.387 326.342 52.8803C326.342 50.8537 325.889 49.2803 324.982 48.1603C324.129 46.987 322.876 46.0803 321.223 45.4403C319.623 44.747 317.676 44.107 315.383 43.5203C314.263 43.2003 313.036 42.8003 311.702 42.3203C310.369 41.8403 309.116 41.1737 307.943 40.3203C306.769 39.467 305.809 38.347 305.062 36.9603C304.316 35.5737 303.943 33.8137 303.943 31.6803C303.943 29.6003 304.423 27.6803 305.383 25.9203C306.343 24.1603 307.756 22.747 309.622 21.6803C311.489 20.6137 313.756 20.0803 316.422 20.0803C318.769 20.0803 320.742 20.427 322.342 21.1203C323.942 21.8137 325.249 22.6137 326.262 23.5203L327.383 20.0803H328.103L328.982 32.2403H327.943C326.983 28.667 325.569 25.9737 323.702 24.1603C321.836 22.347 319.356 21.4403 316.262 21.4403C313.756 21.4403 311.703 22.1337 310.103 23.5203C308.556 24.8537 307.783 26.6937 307.783 29.0403C307.783 31.1203 308.263 32.747 309.223 33.9203C310.183 35.0937 311.436 35.9737 312.982 36.5603C314.582 37.147 316.262 37.6803 318.022 38.1603C319.409 38.5337 320.822 39.0137 322.262 39.6003C323.756 40.187 325.116 40.9337 326.342 41.8403C327.622 42.747 328.636 43.9203 329.383 45.3603C330.129 46.8003 330.503 48.587 330.503 50.7203C330.503 53.1737 329.943 55.3337 328.823 57.2003C327.756 59.067 326.183 60.5337 324.103 61.6003C322.076 62.667 319.649 63.2003 316.822 63.2003C314.849 63.2003 312.929 62.907 311.062 62.3203C309.249 61.7337 307.489 60.7203 305.783 59.2803L304.982 63.2003H304.022Z" fill="white"/>
<path d="M292.371 62.7203C291.251 62.7203 290.238 62.5336 289.331 62.1603C288.425 61.8403 287.518 61.2536 286.611 60.4003C285.758 59.547 284.798 58.427 283.731 57.0403L271.571 39.6003V39.0403L286.211 25.8403C286.958 25.147 287.411 24.507 287.571 23.9203C287.731 23.3336 287.225 22.9336 286.051 22.7203L283.331 22.1603L283.411 21.2003H296.051V22.1603L293.251 22.8003C292.451 22.9603 291.651 23.3336 290.851 23.9203C290.105 24.507 289.198 25.2536 288.131 26.1603L276.291 36.8003L289.171 55.0403C290.398 56.747 291.518 58.0003 292.531 58.8003C293.545 59.547 294.585 59.9203 295.651 59.9203C296.451 59.9203 297.198 59.787 297.891 59.5203C298.585 59.2536 299.225 58.9336 299.811 58.5603L300.211 59.2003C299.198 60.1603 297.998 60.987 296.611 61.6803C295.225 62.3736 293.811 62.7203 292.371 62.7203ZM258.451 62.0803V61.1203L262.291 60.7203C263.251 60.6136 263.865 60.3203 264.131 59.8403C264.398 59.3603 264.531 58.4003 264.531 56.9603V6.96029C264.531 5.20029 264.371 4.00029 264.051 3.36029C263.731 2.72029 262.851 2.34696 261.411 2.24029L257.491 2.00029L257.571 1.20029L269.731 0.800293L270.211 1.12029V57.1203C270.211 58.2936 270.318 59.1736 270.531 59.7603C270.798 60.2936 271.385 60.6136 272.291 60.7203L275.811 61.1203V62.0803H258.451Z" fill="white"/>
<path d="M231.338 62.6403C227.605 62.6403 224.245 61.8136 221.258 60.1603C218.325 58.5069 216.005 56.1603 214.298 53.1203C212.645 50.0269 211.818 46.3736 211.818 42.1603C211.818 37.8936 212.671 34.2136 214.378 31.1203C216.085 28.0269 218.405 25.6536 221.338 24.0003C224.325 22.3469 227.711 21.5203 231.498 21.5203C235.231 21.5203 238.565 22.3469 241.498 24.0003C244.485 25.6536 246.831 28.0269 248.538 31.1203C250.245 34.1603 251.098 37.7869 251.098 42.0003C251.098 46.2669 250.218 49.9469 248.458 53.0403C246.751 56.1336 244.405 58.5069 241.418 60.1603C238.485 61.8136 235.125 62.6403 231.338 62.6403ZM231.338 58.3203C233.898 58.3203 236.298 57.7603 238.538 56.6403C240.831 55.4669 242.671 53.6803 244.058 51.2803C245.498 48.8803 246.218 45.8136 246.218 42.0803C246.218 38.3469 245.498 35.2803 244.058 32.8803C242.671 30.4803 240.858 28.7203 238.618 27.6003C236.378 26.4269 233.978 25.8403 231.418 25.8403C228.858 25.8403 226.458 26.4269 224.218 27.6003C221.978 28.7203 220.165 30.4803 218.778 32.8803C217.391 35.2803 216.698 38.3469 216.698 42.0803C216.698 45.8136 217.391 48.8803 218.778 51.2803C220.165 53.6803 221.951 55.4669 224.138 56.6403C226.378 57.7603 228.778 58.3203 231.338 58.3203Z" fill="white"/>
<path d="M184.385 62.6403C180.652 62.6403 177.292 61.8136 174.305 60.1603C171.372 58.5069 169.052 56.1603 167.345 53.1203C165.692 50.0269 164.865 46.3736 164.865 42.1603C164.865 37.8936 165.718 34.2136 167.425 31.1203C169.132 28.0269 171.452 25.6536 174.385 24.0003C177.372 22.3469 180.758 21.5203 184.545 21.5203C188.278 21.5203 191.612 22.3469 194.545 24.0003C197.532 25.6536 199.878 28.0269 201.585 31.1203C203.292 34.1603 204.145 37.7869 204.145 42.0003C204.145 46.2669 203.265 49.9469 201.505 53.0403C199.798 56.1336 197.452 58.5069 194.465 60.1603C191.532 61.8136 188.172 62.6403 184.385 62.6403ZM184.385 58.3203C186.945 58.3203 189.345 57.7603 191.585 56.6403C193.878 55.4669 195.718 53.6803 197.105 51.2803C198.545 48.8803 199.265 45.8136 199.265 42.0803C199.265 38.3469 198.545 35.2803 197.105 32.8803C195.718 30.4803 193.905 28.7203 191.665 27.6003C189.425 26.4269 187.025 25.8403 184.465 25.8403C181.905 25.8403 179.505 26.4269 177.265 27.6003C175.025 28.7203 173.212 30.4803 171.825 32.8803C170.438 35.2803 169.745 38.3469 169.745 42.0803C169.745 45.8136 170.438 48.8803 171.825 51.2803C173.212 53.6803 174.998 55.4669 177.185 56.6403C179.425 57.7603 181.825 58.3203 184.385 58.3203Z" fill="white"/>
<path d="M123.304 31.3605C124.37 28.5871 126.21 26.2671 128.824 24.4005C131.437 22.4805 134.797 21.5205 138.904 21.5205C142.584 21.5205 145.81 22.3738 148.584 24.0805C151.357 25.7871 153.49 28.1871 154.984 31.2805C156.53 34.3205 157.304 37.9205 157.304 42.0805C157.304 46.2405 156.53 49.8671 154.984 52.9605C153.437 56.0538 151.277 58.4538 148.504 60.1605C145.784 61.8138 142.584 62.6405 138.904 62.6405C135.01 62.6405 131.784 61.7338 129.224 59.9205C126.664 58.1071 124.824 55.8938 123.704 53.2805L123.384 62.0805H119.144V4.48047H123.704V31.5205L123.304 31.3605ZM152.424 42.0805C152.424 37.0671 151.117 33.0938 148.504 30.1605C145.89 27.2271 142.397 25.7605 138.024 25.7605C135.25 25.7605 132.77 26.4271 130.584 27.7605C128.397 29.0938 126.69 30.9871 125.464 33.4405C124.29 35.8405 123.704 38.7205 123.704 42.0805C123.704 45.4405 124.317 48.3471 125.544 50.8005C126.77 53.2005 128.45 55.0671 130.584 56.4005C132.77 57.7338 135.25 58.4005 138.024 58.4005C142.45 58.4005 145.944 56.9338 148.504 54.0005C151.117 51.0671 152.424 47.0938 152.424 42.0805Z" fill="white"/>
<path d="M94.7881 63.2003C91.5348 63.2003 88.6281 62.4537 86.0681 60.9603C83.5081 59.4137 81.4815 57.0937 79.9881 54.0003C78.5481 50.907 77.8281 46.987 77.8281 42.2403C77.8281 37.6003 78.5748 33.627 80.0681 30.3203C81.6148 27.0137 83.7215 24.4803 86.3881 22.7203C89.1081 20.9603 92.2548 20.0803 95.8281 20.0803C98.7081 20.0803 101.161 20.667 103.188 21.8403C105.215 23.0137 106.761 24.667 107.828 26.8003C108.948 28.9337 109.508 31.387 109.508 34.1603C109.508 34.9603 109.481 35.8137 109.428 36.7203C109.428 37.5737 109.375 38.4537 109.268 39.3603H83.7481C83.6415 44.107 84.1481 47.9203 85.2681 50.8003C86.4415 53.627 88.0415 55.6803 90.0681 56.9603C92.1481 58.2403 94.4148 58.8803 96.8681 58.8803C99.1615 58.8803 101.268 58.507 103.188 57.7603C105.161 56.9603 107.135 55.547 109.108 53.5203L109.748 54.0003C107.668 57.3603 105.401 59.7337 102.948 61.1203C100.495 62.507 97.7748 63.2003 94.7881 63.2003ZM83.8281 37.9203H103.508C103.561 37.2803 103.588 36.6403 103.588 36.0003C103.641 35.307 103.668 34.6403 103.668 34.0003C103.668 29.3603 102.975 26.0803 101.588 24.1603C100.255 22.2403 98.1748 21.2803 95.3481 21.2803C93.1081 21.2803 91.1615 21.8403 89.5081 22.9603C87.9081 24.0803 86.6281 25.867 85.6681 28.3203C84.7081 30.7737 84.0948 33.9737 83.8281 37.9203Z" fill="white"/>
<path d="M54.0762 62.0803V61.1203L57.9162 60.7203C58.8762 60.6136 59.4895 60.3203 59.7562 59.8403C60.0229 59.3603 60.1562 58.4003 60.1562 56.9603V6.96029C60.1562 5.09363 59.9695 3.86696 59.5962 3.28029C59.2229 2.64029 58.3962 2.29363 57.1162 2.24029L53.1162 2.00029L53.1962 1.20029L65.3562 0.800293L65.8362 1.12029V57.1203C65.8362 58.4003 65.9695 59.307 66.2362 59.8403C66.5562 60.3203 67.1962 60.6136 68.1562 60.7203L72.3162 61.2003V62.0803H54.0762Z" fill="white"/>
<path d="M0 62.0802V61.1202L3.12 60.6402C4.02667 60.4802 4.69333 60.1602 5.12 59.6802C5.54667 59.1468 6 58.1335 6.48 56.6402L23.52 3.68018H27.36L44.16 56.5602C44.5867 57.8935 45.04 58.8535 45.52 59.4402C46 59.9735 46.8 60.3468 47.92 60.5602L50.96 61.0402V62.0802H32.24V61.1202L36.4 60.6402C37.4133 60.5335 38 60.1868 38.16 59.6002C38.32 58.9602 38.2133 58.0268 37.84 56.8002L33.6 42.1602H12.96L8.24 56.7202C7.92 57.7868 7.84 58.6935 8 59.4402C8.16 60.1335 8.8 60.5335 9.92 60.6402L14.64 61.1202V62.0802H0ZM13.44 40.8002H33.04L23.44 9.28018H23.28L13.44 40.8002Z" fill="white"/>
</svg>
