<svg width="222" height="24" viewBox="0 0 222 24" fill="none" xmlns="http://www.w3.org/2000/svg">
<path d="M8.81976 2.2971C11.2088 8.65389 13.8789 15.3234 15.0088 17.7854C13.6372 17.6887 13.3786 17.666 12.9289 17.666C12.4118 17.666 11.9845 17.6887 10.9671 17.7854C10.5174 16.2104 10.0677 14.8458 9.38189 13.0036C8.46 12.9581 7.84729 12.9581 6.68931 12.9581C5.43576 12.9581 4.94109 12.9581 3.94613 13.0036C3.45146 14.2715 3.18726 15.0107 3.02424 15.4656C2.95679 15.6816 2.69259 16.5174 2.29348 17.7854C1.86626 17.6887 1.65265 17.666 1.29851 17.666C0.944372 17.666 0.635203 17.6887 0 17.7854C1.89437 13.8167 5.10973 6.118 6.7399 1.52951C7.21208 1.58068 7.42569 1.60343 7.70675 1.60343C7.96533 1.60343 8.15646 1.58068 8.51059 1.52951L8.81414 2.2971H8.81976ZM4.5195 11.548C5.58192 11.5707 5.98665 11.5707 6.83546 11.5707C7.68427 11.5707 8.01592 11.5707 8.84225 11.548C8.03841 9.32482 7.54374 8.05688 6.7399 6.07251C5.79552 8.26726 5.13221 9.8991 4.5195 11.548Z" fill="#2D2D2A"/>
<path d="M18.3312 0.0966596C18.9946 0.0966596 19.3487 0.0739162 20.0795 0C19.9614 1.79105 19.8659 5.30491 19.8659 8.93817C19.8659 12.5714 19.9389 15.2722 20.0795 17.7797C19.107 17.683 18.7585 17.6603 18.3312 17.6603C17.904 17.6603 17.5274 17.683 16.5605 17.7797C16.7011 15.221 16.7742 12.4748 16.7742 8.93817C16.7742 5.40157 16.7067 1.84222 16.5605 0C17.2913 0.0739162 17.6736 0.0966596 18.3312 0.0966596Z" fill="#2D2D2A"/>
<path d="M26.2007 2.55866C26.2007 3.56505 25.3744 4.40088 24.3794 4.40088C23.3845 4.40088 22.5356 3.56505 22.5356 2.55866C22.5356 1.55226 23.3395 0.693695 24.3794 0.693695C25.4194 0.693695 26.2007 1.52952 26.2007 2.55866ZM24.475 6.57287C25.0427 6.57287 25.4194 6.55013 26.1051 6.45347C26.0096 7.86356 25.914 10.6098 25.914 12.2132C25.914 14.1237 25.9815 16.3014 26.1051 17.7797C25.4194 17.683 25.0427 17.6603 24.4019 17.6603C23.7611 17.6603 23.362 17.683 22.5806 17.7797C22.7436 15.6759 22.8167 13.6688 22.8167 11.5196C22.8167 9.55795 22.7436 8.24452 22.5806 6.45347C23.48 6.55013 23.9016 6.57287 24.4694 6.57287H24.475Z" fill="#2D2D2A"/>
<path d="M37.0275 9.63187C36.8139 8.14786 35.9426 7.26655 34.6441 7.26655C32.8003 7.26655 31.6873 9.03485 31.6873 11.9233C31.6873 13.4755 32.019 14.6525 32.6598 15.4144C33.2276 16.0796 34.1944 16.5118 35.1669 16.5118C36.1394 16.5118 37.0837 16.1308 37.7189 15.4599L38.0506 15.6759C37.8145 16.1536 37.6234 16.7051 37.5559 17.0633C36.4429 17.7342 35.313 18.0413 33.9639 18.0413C30.445 18.0413 28.2021 15.7726 28.2021 12.2133C28.2021 8.6539 30.5856 6.19193 34.4193 6.19193C35.9764 6.19193 37.2299 6.52739 38.2923 7.19832C37.8876 8.22746 37.584 9.1372 37.466 9.63756H37.0388L37.0275 9.63187Z" fill="#2D2D2A"/>
<path d="M43.48 2.55866C43.48 3.56505 42.6537 4.40088 41.6587 4.40088C40.6638 4.40088 39.8149 3.56505 39.8149 2.55866C39.8149 1.55226 40.6188 0.693695 41.6587 0.693695C42.6986 0.693695 43.48 1.52952 43.48 2.55866ZM41.7543 6.57287C42.322 6.57287 42.6986 6.55013 43.3844 6.45347C43.2889 7.86356 43.1933 10.6098 43.1933 12.2132C43.1933 14.1237 43.2608 16.3014 43.3844 17.7797C42.6986 17.683 42.322 17.6603 41.6812 17.6603C41.0404 17.6603 40.6413 17.683 39.8599 17.7797C40.0229 15.6759 40.096 13.6688 40.096 11.5196C40.096 9.55795 40.0229 8.24452 39.8599 6.45347C40.7593 6.55013 41.1809 6.57287 41.7487 6.57287H41.7543Z" fill="#2D2D2A"/>
<path d="M46.5102 9.65462C46.5102 8.98369 46.4371 8.72214 46.1785 7.83515C47.5951 6.64112 48.8711 6.18625 50.6924 6.18625C52.5137 6.18625 53.7897 6.76052 54.3799 7.78966C54.8521 8.62548 54.8971 9.00644 54.8971 12.1393V13.7428C54.8971 15.3689 54.9477 15.8693 55.0601 16.2047C55.2006 16.5402 55.6278 16.8017 56.0326 16.8017C56.1 16.8017 56.2687 16.779 56.4092 16.7506V17.1827C55.6503 17.6831 54.9926 17.8991 54.1888 17.8991C52.9802 17.8991 52.3225 17.4215 51.8728 16.2502C50.8329 17.5637 50.0291 18.0413 48.753 18.0413C46.7687 18.0413 45.4702 16.8245 45.4702 14.9823C45.4702 14.0043 45.8244 13.1685 46.5102 12.617C47.0048 12.1848 47.5276 11.9688 48.6856 11.6333C50.5294 11.1329 50.6249 11.1102 51.0465 10.843C51.4007 10.6042 51.6143 10.1948 51.6143 9.7456C51.6143 8.55157 50.6924 7.66457 49.4613 7.66457C48.2303 7.66457 47.3365 8.35825 46.8137 9.64894H46.5045L46.5102 9.65462ZM51.7548 12.2815C51.7548 12.0199 51.7548 11.9005 51.7998 11.5651C51.0409 11.8266 50.4507 12.0882 49.8829 12.4009C49.0566 12.8558 48.7699 13.43 48.7699 14.6241C48.7699 15.8181 49.2196 16.4435 50.0684 16.4435C50.6586 16.4435 51.2039 16.1081 51.5075 15.5565C51.6986 15.2211 51.766 14.698 51.766 13.6916C51.766 13.5267 51.766 13.214 51.7435 12.7136V12.2815H51.7548Z" fill="#2D2D2A"/>
<path d="M67.9269 10.371V11.1614C67.9269 13.4812 68.045 15.6305 68.2811 17.7797C67.4323 17.683 67.0051 17.6603 66.2237 17.6603C65.4929 17.6603 65.0882 17.683 64.335 17.7797C64.5261 15.5338 64.5935 13.0718 64.5935 8.10237C64.5935 5.64039 64.498 3.1045 64.335 1.59775C65.1838 1.69441 65.6335 1.71715 66.4148 1.71715C66.8196 1.71715 67.5278 1.69441 68.3766 1.64892C69.1805 1.62618 69.8663 1.59775 70.316 1.59775C71.8506 1.59775 72.913 1.8593 73.745 2.45631C74.7174 3.14999 75.2796 4.29853 75.2796 5.61196C75.2796 7.0448 74.6668 8.23883 73.5538 9.00642C73.0367 9.34189 72.4689 9.60344 71.5246 9.84225C72.2104 10.9908 72.8231 11.9688 75.066 15.4371L76.2239 17.2509L76.5781 17.774C75.4201 17.6774 74.8748 17.6546 74.2396 17.6546C73.5538 17.6546 73.1266 17.6774 72.3003 17.774C71.9911 17.177 71.8731 16.9382 71.1648 15.693C70.524 14.5445 69.8663 13.3732 69.203 12.2246C68.5678 11.0761 68.4441 10.86 68.1406 10.3597H67.9269V10.371ZM68.5172 9.39306C70.479 9.39306 71.637 8.12511 71.637 5.94743C71.637 4.03698 70.642 2.93392 68.9444 2.93392C68.9444 2.93392 68.6352 2.95667 68.0225 2.97941C67.9775 3.96307 67.9494 6.23172 67.9269 9.35895C68.208 9.38169 68.3317 9.38169 68.5172 9.38169V9.39306Z" fill="#2D2D2A"/>
<path d="M77.7871 6.45347C78.664 6.55013 79.0631 6.57287 79.6084 6.57287C80.1537 6.57287 80.5078 6.55013 81.1711 6.45347C81.0756 8.84153 81.0306 11.3547 81.0306 12.5942C81.0306 14.0555 81.1261 14.7719 81.3847 15.2211C81.6658 15.7499 82.2841 16.0796 82.9699 16.0796C83.9143 16.0796 84.6001 15.4826 84.8362 14.4307C84.9992 13.7598 85.0273 13.214 85.0273 11.4684C85.0273 9.46129 85.0048 8.12511 84.8868 6.44778C85.8311 6.54444 86.2359 6.56719 86.68 6.56719C87.1746 6.56719 87.5288 6.54444 88.2651 6.44778C88.1471 9.19405 88.1246 9.79107 88.1246 12.0427C88.1246 14.2943 88.1471 15.2211 88.2427 17.7797C87.6749 17.683 87.3657 17.6603 86.798 17.6603C86.3033 17.6603 85.8761 17.683 84.9823 17.757C85.0554 17.086 85.1004 16.6823 85.1004 15.9432C84.201 17.3533 83.0205 18.0469 81.4634 18.0469C80.0469 18.0469 78.9563 17.4954 78.3436 16.472C77.9895 15.8749 77.8714 15.1813 77.8714 13.8451V12.5089C77.8939 11.5025 77.8939 10.7861 77.8939 10.263C77.8939 9.56174 77.8714 8.42267 77.8265 6.84579L77.804 6.46484L77.7871 6.45347Z" fill="#2D2D2A"/>
<path d="M94.5039 2.55866C94.5039 3.56505 93.6776 4.40088 92.6826 4.40088C91.6877 4.40088 90.8389 3.56505 90.8389 2.55866C90.8389 1.55226 91.6427 0.693695 92.6826 0.693695C93.7226 0.693695 94.5039 1.52952 94.5039 2.55866ZM92.7782 6.57287C93.3459 6.57287 93.7226 6.55013 94.4084 6.45347C94.3128 7.86356 94.2173 10.6098 94.2173 12.2132C94.2173 14.1237 94.2847 16.3014 94.4084 17.7797C93.7226 17.683 93.346 17.6603 92.7051 17.6603C92.0643 17.6603 91.6652 17.683 90.8838 17.7797C91.0469 15.6759 91.1199 13.6688 91.1199 11.5196C91.1199 9.55795 91.0469 8.24452 90.8838 6.45347C91.7832 6.55013 92.2048 6.57287 92.7726 6.57287H92.7782Z" fill="#2D2D2A"/>
<path d="M106.416 7.38591C104.831 9.51242 102.61 12.742 100.53 15.8465L100.154 16.398C100.508 16.4207 100.817 16.4207 100.935 16.4207C102.048 16.4207 104.342 16.3013 106.23 16.1592C106.185 16.4492 106.185 16.5686 106.185 17.1883C106.185 17.4044 106.185 17.5011 106.23 17.7853C105.19 17.7171 103.015 17.6659 101.081 17.6659C99.3556 17.6659 97.1858 17.7171 96.0728 17.7853V16.8074C98.0795 14.0099 100.469 10.5188 102.239 7.81804H101.48C100.109 7.81804 98.3156 7.89195 96.8035 8.0341C96.8541 7.69863 96.8541 7.55649 96.8541 7.26651C96.8541 6.95379 96.8541 6.7889 96.8035 6.45343H97.3938C100.772 6.52735 101.39 6.52735 102.807 6.52735C104.224 6.52735 104.909 6.5046 106.422 6.45343V7.38591H106.416Z" fill="#2D2D2A"/>
<path d="M120.413 9.58638C120.413 13.3618 120.508 16.398 120.671 17.7854C119.676 17.6887 119.232 17.666 118.664 17.666C118.097 17.666 117.675 17.6887 116.725 17.7854C116.866 16.7108 117.012 12.3383 117.012 8.6539C117.012 6.86285 116.989 5.7598 116.871 3.39448C114.887 3.41722 114.628 3.44565 112.644 3.7072C112.689 3.29782 112.711 3.11019 112.711 2.72355C112.711 2.26868 112.689 2.02987 112.644 1.59775C115.146 1.73989 116.568 1.79107 118.693 1.79107C120.817 1.79107 122.211 1.74558 124.719 1.59775C124.674 2.02987 124.645 2.26868 124.645 2.72355C124.645 3.13293 124.668 3.29782 124.719 3.7072C123.184 3.49114 122.071 3.41722 120.536 3.39448C120.441 5.85646 120.418 7.50536 120.418 9.58638H120.413Z" fill="#2D2D2A"/>
<path d="M135.709 12.2133C135.709 15.9432 133.651 18.0413 129.941 18.0413C126.231 18.0413 124.202 15.9602 124.202 12.1166C124.202 8.27296 126.231 6.18625 129.941 6.18625C133.651 6.18625 135.709 8.26727 135.709 12.2076V12.2133ZM127.676 12.1166C127.676 15.6759 128.317 17.086 129.947 17.086C131.577 17.086 132.241 15.6532 132.241 12.1848C132.241 8.71646 131.583 7.14147 129.947 7.14147C128.311 7.14147 127.676 8.55157 127.676 12.1166Z" fill="#2D2D2A"/>
<path d="M144.623 9.58638C144.174 9.34758 143.842 9.27366 143.42 9.27366C142.521 9.27366 141.79 9.72853 141.436 10.5189C141.2 10.9965 141.133 11.5707 141.133 13.0548C141.133 14.5388 141.178 16.1138 141.296 17.7854C140.16 17.6887 139.902 17.666 139.592 17.666C139.188 17.666 138.884 17.6887 137.889 17.7854C138.052 16.2104 138.103 14.8458 138.103 12.1678C138.103 9.80245 138.08 8.91545 137.889 6.45347C138.715 6.52739 139.098 6.55013 139.542 6.55013C139.986 6.55013 140.346 6.52739 141.031 6.45347C141.009 7.16989 140.981 7.86357 140.981 9.37032C141.807 7.26655 142.988 6.19193 144.477 6.19193C144.595 6.19193 144.691 6.19193 144.882 6.21467C144.809 6.7662 144.786 7.07323 144.786 7.57927C144.786 8.08532 144.809 8.48901 144.882 9.37032L144.618 9.58638H144.623Z" fill="#2D2D2A"/>
<path d="M153.275 9.58638C152.825 9.34758 152.493 9.27366 152.072 9.27366C151.172 9.27366 150.441 9.72853 150.087 10.5189C149.851 10.9965 149.778 11.5707 149.778 13.0548C149.778 14.5388 149.823 16.1138 149.941 17.7854C148.806 17.6887 148.547 17.666 148.238 17.666C147.833 17.666 147.53 17.6887 146.535 17.7854C146.698 16.2104 146.748 14.8458 146.748 12.1678C146.748 9.80245 146.726 8.91545 146.535 6.45347C147.361 6.52739 147.743 6.55013 148.187 6.55013C148.631 6.55013 148.991 6.52739 149.677 6.45347C149.654 7.16989 149.626 7.86357 149.626 9.37032C150.453 7.26655 151.633 6.19193 153.123 6.19193C153.241 6.19193 153.336 6.19193 153.528 6.21467C153.454 6.7662 153.432 7.07323 153.432 7.57927C153.432 8.08532 153.454 8.48901 153.528 9.37032L153.263 9.58638H153.275Z" fill="#2D2D2A"/>
<path d="M164.434 15.6816C164.152 16.2786 164.079 16.4947 163.961 16.9723C162.753 17.7399 161.69 18.0469 160.324 18.0469C156.873 18.0469 154.726 15.7783 154.726 12.0938C154.726 8.40941 156.755 6.19193 159.998 6.19193C163.242 6.19193 164.911 8.07963 164.911 11.4002C164.911 11.5196 164.889 11.8323 164.866 12.1905C163.781 12.1166 162.668 12.0938 161.224 12.0938C160.729 12.0938 160.656 12.0938 158.458 12.1166H158.126C158.149 13.4073 158.267 14.1464 158.599 14.8174C159.144 15.9432 160.133 16.5629 161.314 16.5629C162.354 16.5629 163.253 16.2047 164.124 15.4656L164.428 15.6816H164.434ZM161.718 11.0192C161.718 9.77402 161.696 9.34758 161.578 8.86428C161.342 7.76691 160.819 7.16989 160.066 7.16989C158.908 7.16989 158.25 8.5345 158.177 11.0192H161.718Z" fill="#2D2D2A"/>
<path d="M175.457 7.64746C175.951 8.36387 176.142 8.9154 176.142 9.67731C176.142 10.9907 175.507 12.0881 174.372 12.6908C173.59 13.0945 172.787 13.2651 171.111 13.3561C170.426 13.3788 170.071 13.6915 170.071 14.2431C170.071 14.624 170.285 14.8856 170.712 15.0106C171.016 15.1073 171.561 15.1528 173.191 15.204C175.552 15.2779 176.03 15.3461 176.71 15.7782C177.536 16.2786 177.986 17.2566 177.986 18.5757C177.986 21.8735 175.479 24 171.606 24C168.11 24 166.075 22.6866 166.075 20.4634C166.075 18.9111 166.997 17.882 168.795 17.4271C167.823 17.0178 167.379 16.4207 167.379 15.5906C167.379 14.8003 167.784 14.1805 168.464 13.8223C168.7 13.6934 169.125 13.5191 169.74 13.2992L169.717 13.1571C167.542 12.6794 166.502 11.5536 166.502 9.7626C166.502 7.44276 168.205 6.20325 171.347 6.20325C171.996 6.20325 173.06 6.29801 174.54 6.48754C175.108 6.56146 175.743 6.60694 176.362 6.60694C176.879 6.60694 177.284 6.5842 178.132 6.53303C178.082 6.79458 178.059 6.96515 178.059 7.20396C178.059 7.42002 178.082 7.511 178.132 7.77823L175.462 7.65883L175.457 7.64746ZM169.363 17.9275C168.795 18.263 168.419 19.0249 168.419 19.9119C168.419 21.7086 169.908 23.0675 171.87 23.0675C173.832 23.0675 175.108 21.7996 175.108 19.9573C175.108 18.1151 174.231 17.6148 171.471 17.6148C170.263 17.6148 169.818 17.6887 169.369 17.9275H169.363ZM169.79 9.99003C169.79 11.6389 170.285 12.4008 171.37 12.4008C172.455 12.4008 172.978 11.565 172.978 9.65456C172.978 7.74411 172.573 7.07318 171.51 7.07318C170.285 7.07318 169.785 7.909 169.785 9.99003H169.79Z" fill="#2D2D2A"/>
<path d="M186.305 9.58638C185.856 9.34758 185.524 9.27366 185.102 9.27366C184.203 9.27366 183.472 9.72853 183.118 10.5189C182.882 10.9965 182.809 11.5707 182.809 13.0548C182.809 14.5388 182.854 16.1138 182.972 17.7854C181.836 17.6887 181.578 17.666 181.269 17.666C180.864 17.666 180.56 17.6887 179.565 17.7854C179.728 16.2104 179.779 14.8458 179.779 12.1678C179.779 9.80245 179.757 8.91545 179.565 6.45347C180.392 6.52739 180.774 6.55013 181.218 6.55013C181.662 6.55013 182.022 6.52739 182.708 6.45347C182.685 7.16989 182.657 7.86357 182.657 9.37032C183.483 7.26655 184.664 6.19193 186.154 6.19193C186.272 6.19193 186.367 6.19193 186.558 6.21467C186.485 6.7662 186.463 7.07323 186.463 7.57927C186.463 8.08532 186.485 8.48901 186.558 9.37032L186.294 9.58638H186.305Z" fill="#2D2D2A"/>
<path d="M199.262 12.2133C199.262 15.9432 197.205 18.0413 193.495 18.0413C189.785 18.0413 187.755 15.9602 187.755 12.1166C187.755 8.27296 189.785 6.18625 193.495 6.18625C197.205 6.18625 199.262 8.26727 199.262 12.2076V12.2133ZM191.229 12.1166C191.229 15.6759 191.87 17.086 193.5 17.086C195.13 17.086 195.794 15.6532 195.794 12.1848C195.794 8.71646 195.136 7.14147 193.5 7.14147C191.865 7.14147 191.229 8.55157 191.229 12.1166Z" fill="#2D2D2A"/>
<path d="M201.702 14.5558C202.175 16.0626 203.31 17.0178 204.609 17.0178C205.744 17.0178 206.615 16.3753 206.615 15.4883C206.615 14.7491 206.239 14.4137 204.609 13.7427C203.097 13.0946 202.506 12.7875 201.961 12.3099C201.32 11.7584 200.966 10.8771 200.966 9.89911C200.966 7.63045 202.669 6.19193 205.384 6.19193C206.874 6.19193 208.054 6.50465 208.999 7.12441C208.976 7.24381 208.903 7.43713 208.903 7.43713L208.6 8.36961C208.504 8.72782 208.386 9.10877 208.291 9.49541H207.981C207.554 7.94317 206.61 7.10735 205.311 7.10735C204.271 7.10735 203.563 7.70436 203.563 8.54018C203.563 9.11446 203.867 9.51815 204.552 9.90479C205.12 10.2118 205.283 10.2857 206.75 10.7861C208.757 11.4798 209.612 12.4123 209.612 13.919C209.612 16.3582 207.481 18.0526 204.412 18.0526C203.181 18.0526 202.214 17.8593 200.96 17.4101C201.123 16.9325 201.264 16 201.388 14.5672H201.691L201.702 14.5558Z" fill="#2D2D2A"/>
<path d="M212.101 9.65462C212.101 8.98369 212.028 8.72214 211.769 7.83515C213.186 6.64112 214.462 6.18625 216.283 6.18625C218.104 6.18625 219.381 6.76052 219.971 7.78966C220.443 8.62548 220.488 9.00644 220.488 12.1393V13.7428C220.488 15.3689 220.538 15.8693 220.651 16.2047C220.791 16.5402 221.219 16.8017 221.623 16.8017C221.691 16.8017 221.859 16.779 222 16.7506V17.1827C221.241 17.6831 220.583 17.8991 219.78 17.8991C218.571 17.8991 217.913 17.4215 217.464 16.2502C216.424 17.5637 215.62 18.0413 214.344 18.0413C212.36 18.0413 211.061 16.8245 211.061 14.9823C211.061 14.0043 211.415 13.1685 212.101 12.617C212.596 12.1848 213.118 11.9688 214.276 11.6333C216.12 11.1329 216.216 11.1102 216.637 10.843C216.991 10.6042 217.205 10.1948 217.205 9.7456C217.205 8.55157 216.283 7.66457 215.052 7.66457C213.821 7.66457 212.927 8.35825 212.405 9.64894H212.095L212.101 9.65462ZM217.346 12.2815C217.346 12.0199 217.346 11.9005 217.391 11.5651C216.632 11.8266 216.041 12.0882 215.474 12.4009C214.647 12.8558 214.361 13.43 214.361 14.6241C214.361 15.8181 214.81 16.4435 215.659 16.4435C216.249 16.4435 216.795 16.1081 217.098 15.5565C217.289 15.2211 217.357 14.698 217.357 13.6916C217.357 13.5267 217.357 13.214 217.334 12.7136V12.2815H217.346Z" fill="#2D2D2A"/>
</svg>
