<svg width="76" height="17" viewBox="0 0 76 17" fill="none" xmlns="http://www.w3.org/2000/svg">
<path d="M1.01773 16.3017C0.70014 16.3017 0.447512 16.215 0.259846 16.0416C0.0866153 15.8538 0 15.601 0 15.2831V1.7168C0 1.39895 0.0866153 1.15334 0.259846 0.979971C0.447512 0.792152 0.70014 0.698242 1.01773 0.698242C1.33532 0.698242 1.58795 0.792152 1.77561 0.979971C1.96328 1.15334 2.05711 1.39895 2.05711 1.7168V7.45974H10.9785V1.7168C10.9785 1.39895 11.0723 1.15334 11.26 0.979971C11.4477 0.792152 11.7003 0.698242 12.0179 0.698242C12.321 0.698242 12.5592 0.792152 12.7324 0.979971C12.9201 1.15334 13.0139 1.39895 13.0139 1.7168V15.2831C13.0139 15.601 12.9201 15.8538 12.7324 16.0416C12.5592 16.215 12.321 16.3017 12.0179 16.3017C11.7003 16.3017 11.4477 16.215 11.26 16.0416C11.0723 15.8538 10.9785 15.601 10.9785 15.2831V9.12844H2.05711V15.2831C2.05711 15.601 1.96328 15.8538 1.77561 16.0416C1.58795 16.215 1.33532 16.3017 1.01773 16.3017Z" fill="black"/>
<path d="M23.3026 16.3017C21.7724 16.3017 20.4082 15.9766 19.21 15.3265C18.0262 14.6763 17.1023 13.7661 16.4383 12.5959C15.7887 11.4112 15.4639 10.0459 15.4639 8.49997C15.4639 6.95407 15.7887 5.59599 16.4383 4.42573C17.1023 3.24103 18.0262 2.3236 19.21 1.67346C20.4082 1.02331 21.7724 0.698242 23.3026 0.698242C24.8328 0.698242 26.1897 1.02331 27.3735 1.67346C28.5717 2.3236 29.4955 3.24103 30.1452 4.42573C30.8092 5.59599 31.1412 6.95407 31.1412 8.49997C31.1412 10.0459 30.8092 11.4112 30.1452 12.5959C29.4955 13.7661 28.5717 14.6763 27.3735 15.3265C26.1897 15.9766 24.8328 16.3017 23.3026 16.3017ZM23.3026 14.6113C24.443 14.6113 25.4463 14.3729 26.3124 13.8962C27.193 13.4049 27.8787 12.697 28.3696 11.7724C28.8604 10.8477 29.1058 9.75691 29.1058 8.49997C29.1058 7.21413 28.8532 6.11611 28.3479 5.20591C27.8426 4.28126 27.1425 3.58055 26.2475 3.10377C25.3524 2.627 24.3275 2.38862 23.1726 2.38862C22.0611 2.38862 21.0722 2.63423 20.2061 3.12545C19.3543 3.61667 18.6903 4.3246 18.2139 5.24925C17.752 6.15945 17.521 7.24302 17.521 8.49997C17.521 9.75691 17.7592 10.8477 18.2356 11.7724C18.7264 12.697 19.4049 13.4049 20.271 13.8962C21.1516 14.3729 22.1621 14.6113 23.3026 14.6113Z" fill="black"/>
<path d="M33.951 16.3017C33.6334 16.3017 33.3808 16.215 33.1931 16.0416C33.0199 15.8538 32.9333 15.601 32.9333 15.2831V6.67957C32.9333 5.45152 33.1931 4.38961 33.7128 3.49386C34.2325 2.59811 34.9759 1.91184 35.9431 1.43507C36.9248 0.943852 38.0797 0.698242 39.4078 0.698242C40.7359 0.698242 41.8835 0.943852 42.8507 1.43507C43.8324 1.91184 44.583 2.59811 45.1027 3.49386C45.6224 4.38961 45.8822 5.45152 45.8822 6.67957V15.2831C45.8822 15.601 45.7884 15.8538 45.6007 16.0416C45.4275 16.215 45.1821 16.3017 44.8645 16.3017C44.5469 16.3017 44.2943 16.215 44.1066 16.0416C43.919 15.8538 43.8251 15.601 43.8251 15.2831V6.61455C43.8251 5.27092 43.4354 4.23069 42.6558 3.49386C41.8907 2.75703 40.808 2.38862 39.4078 2.38862C38.0219 2.38862 36.9392 2.76426 36.1597 3.51553C35.3801 4.25236 34.9904 5.28537 34.9904 6.61455V15.2831C34.9904 15.601 34.8965 15.8538 34.7089 16.0416C34.5212 16.215 34.2686 16.3017 33.951 16.3017Z" fill="black"/>
<path d="M49.5519 16.3017C49.2343 16.3017 48.9817 16.215 48.794 16.0416C48.6208 15.8538 48.5342 15.601 48.5342 15.2831V6.67957C48.5342 5.45152 48.794 4.38961 49.3137 3.49386C49.8334 2.59811 50.5768 1.91184 51.544 1.43507C52.5257 0.943852 53.6805 0.698242 55.0087 0.698242C56.3368 0.698242 57.4844 0.943852 58.4516 1.43507C59.4333 1.91184 60.1839 2.59811 60.7036 3.49386C61.2233 4.38961 61.4831 5.45152 61.4831 6.67957V15.2831C61.4831 15.601 61.3893 15.8538 61.2016 16.0416C61.0284 16.215 60.783 16.3017 60.4654 16.3017C60.1478 16.3017 59.8952 16.215 59.7075 16.0416C59.5199 15.8538 59.426 15.601 59.426 15.2831V6.61455C59.426 5.27092 59.0363 4.23069 58.2567 3.49386C57.4916 2.75703 56.4089 2.38862 55.0087 2.38862C53.6228 2.38862 52.5401 2.76426 51.7606 3.51553C50.981 4.25236 50.5913 5.28537 50.5913 6.61455V15.2831C50.5913 15.601 50.4974 15.8538 50.3098 16.0416C50.1221 16.215 49.8695 16.3017 49.5519 16.3017Z" fill="black"/>
<path d="M67.2749 16.085C66.3365 16.085 65.6003 15.8321 65.0662 15.3265C64.5321 14.8208 64.265 14.1201 64.265 13.2243V3.71058C64.265 2.84372 64.5248 2.16468 65.0445 1.67346C65.5642 1.16779 66.286 0.914957 67.2099 0.914957H73.9226C74.6011 0.914957 74.9403 1.19669 74.9403 1.76014C74.9403 2.00575 74.8465 2.2008 74.6588 2.34527C74.4856 2.48975 74.2402 2.56199 73.9226 2.56199H67.3831C67.0511 2.56199 66.784 2.67035 66.5819 2.88706C66.3943 3.10377 66.3005 3.39273 66.3005 3.75392V7.50308H72.2769C72.9554 7.50308 73.2946 7.78481 73.2946 8.34827C73.2946 8.60833 73.2008 8.81059 73.0131 8.95507C72.8399 9.09955 72.5945 9.17179 72.2769 9.17179H66.3005V13.246C66.3005 13.6072 66.3943 13.8962 66.5819 14.1129C66.784 14.3296 67.0511 14.438 67.3831 14.438H74.399C74.731 14.438 74.9836 14.5102 75.1569 14.6547C75.3301 14.7847 75.4167 14.987 75.4167 15.2615C75.4167 15.5215 75.3229 15.7238 75.1352 15.8683C74.962 16.0127 74.7166 16.085 74.399 16.085H67.2749Z" fill="black"/>
</svg>
