<svg width="127" height="22" viewBox="0 0 127 22" fill="none" xmlns="http://www.w3.org/2000/svg">
<g clip-path="url(#clip0_251_5111)">
<path d="M34.9613 17.8169V17.4625H35.1067V17.3892H34.7387V17.4625H34.884V17.8169H34.9644H34.9613ZM35.6756 17.8169V17.3892H35.5643L35.4344 17.6825L35.3046 17.3892H35.1933V17.8169H35.2737V17.4961L35.3942 17.7742H35.4777L35.5983 17.4961V17.82H35.6787L35.6756 17.8169ZM55.1756 14.7064V10.1139C55.1756 8.38444 54.0593 7.22028 52.2626 7.205C51.3164 7.18972 50.3423 7.48 49.662 8.50667C49.1518 7.69694 48.3447 7.205 47.216 7.205C46.4275 7.205 45.6513 7.43417 45.0484 8.29278V7.38833H43.4373V14.7033H45.0638V10.6486C45.0638 9.3775 45.775 8.70528 46.8759 8.70528C47.9767 8.70528 48.487 9.39278 48.487 10.6333V14.7033H50.1135V10.6486C50.1135 9.3775 50.8557 8.70528 51.9256 8.70528C52.9955 8.70528 53.5521 9.39278 53.5521 10.6333V14.7033H55.1787L55.1756 14.7064ZM79.2428 7.39139H76.6113V5.17306H74.9847V7.39139H73.4819V8.84583H74.9847V12.1825C74.9847 13.8814 75.6496 14.8928 77.5544 14.8928C78.2502 14.8928 79.0573 14.6789 79.5675 14.3275L79.1036 12.9647C78.6243 13.2397 78.0956 13.3772 77.6781 13.3772C76.8741 13.3772 76.6082 12.8883 76.6082 12.1519V8.84583H79.2397V7.39139H79.2428ZM92.9818 7.20806C92.0541 7.20806 91.448 7.63583 91.0306 8.28056V7.39444H89.435V14.7094H91.046V10.6089C91.046 9.39889 91.5717 8.72667 92.6262 8.72667C92.9509 8.72667 93.291 8.7725 93.6343 8.91L94.129 7.40972C93.7734 7.27222 93.3096 7.21111 92.9818 7.21111V7.20806ZM72.211 7.97194C71.4379 7.46778 70.368 7.20806 69.1898 7.20806C67.3159 7.20806 66.1068 8.09722 66.1068 9.54861C66.1068 10.7433 67.0035 11.4767 68.661 11.7058L69.4186 11.8128C70.2999 11.935 70.7205 12.1642 70.7205 12.5767C70.7205 13.1419 70.1329 13.4628 69.0321 13.4628C67.9312 13.4628 67.1118 13.1114 66.5706 12.6989L65.813 13.9394C66.6943 14.5811 67.8106 14.8897 69.0197 14.8897C71.1565 14.8897 72.3965 13.8936 72.3965 12.5033C72.3965 11.2169 71.4193 10.5447 69.8113 10.3156L69.0537 10.2086C68.358 10.1169 67.7983 9.97944 67.7983 9.49056C67.7983 8.95583 68.324 8.63194 69.2083 8.63194C70.1546 8.63194 71.0668 8.98333 71.5152 9.25833L72.211 7.97194ZM115.361 7.20806C114.43 7.20806 113.827 7.63583 113.409 8.28056V7.39444H111.814V14.7094H113.425V10.6089C113.425 9.39889 113.951 8.72667 115.005 8.72667C115.33 8.72667 115.67 8.7725 116.013 8.91L116.508 7.40972C116.152 7.27222 115.688 7.21111 115.361 7.21111V7.20806ZM94.6053 11.0489C94.6053 13.2672 96.1699 14.8897 98.5541 14.8897C99.6704 14.8897 100.413 14.6453 101.217 14.0158L100.443 12.7294C99.8405 13.1572 99.2035 13.3864 98.5077 13.3864C97.2213 13.3711 96.2782 12.4514 96.2782 11.0458C96.2782 9.64028 97.2244 8.72056 98.5077 8.70528C99.2035 8.70528 99.8405 8.93444 100.443 9.36222L101.217 8.07583C100.413 7.44944 99.6673 7.20194 98.5541 7.20194C96.1699 7.20194 94.6053 8.82444 94.6053 11.0428V11.0489ZM109.689 11.0489V7.39139H108.078V8.2775C107.568 7.62056 106.792 7.205 105.741 7.205C103.666 7.205 102.039 8.81222 102.039 11.0458C102.039 13.2794 103.666 14.8867 105.741 14.8867C106.795 14.8867 107.568 14.4742 108.078 13.8142V14.7003H109.689V11.0428V11.0489ZM103.697 11.0489C103.697 9.7625 104.547 8.70833 105.942 8.70833C107.336 8.70833 108.171 9.71972 108.171 11.0489C108.171 12.3781 107.274 13.3894 105.942 13.3894C104.609 13.3894 103.697 12.3322 103.697 11.0489ZM84.2585 7.20806C82.0908 7.20806 80.5725 8.76944 80.5725 11.0489C80.5725 13.3283 82.1526 14.8897 84.3667 14.8897C85.483 14.8897 86.5035 14.6147 87.4033 13.8631L86.6148 12.6836C85.9963 13.1725 85.2047 13.4475 84.4626 13.4475C83.4236 13.4475 82.4804 12.9739 82.2485 11.6569H87.7466C87.762 11.4583 87.7775 11.2597 87.7775 11.0458C87.762 8.76639 86.3365 7.205 84.2616 7.205L84.2585 7.20806ZM84.2276 8.63194C85.2666 8.63194 85.9314 9.27361 86.1015 10.4072H82.2609C82.4309 9.35 83.0803 8.63194 84.2276 8.63194ZM124.637 11.0489V4.45194H123.026V8.2775C122.516 7.62056 121.74 7.205 120.689 7.205C118.614 7.205 116.987 8.81222 116.987 11.0458C116.987 13.2794 118.614 14.8867 120.689 14.8867C121.743 14.8867 122.516 14.4742 123.026 13.8142V14.7003H124.637V11.0428V11.0489ZM126.521 14.0311C126.586 14.0311 126.647 14.0433 126.706 14.0678C126.765 14.0922 126.814 14.1258 126.858 14.1686C126.901 14.2114 126.935 14.2603 126.96 14.3153C126.985 14.3703 126.997 14.4314 126.997 14.4956C126.997 14.5597 126.985 14.6178 126.96 14.6758C126.935 14.7308 126.901 14.7797 126.858 14.8225C126.814 14.8653 126.765 14.8989 126.706 14.9233C126.647 14.9478 126.586 14.96 126.521 14.96C126.456 14.96 126.391 14.9478 126.332 14.9233C126.273 14.8989 126.224 14.8653 126.181 14.8225C126.137 14.7797 126.103 14.7308 126.078 14.6758C126.054 14.6208 126.041 14.5597 126.041 14.4956C126.041 14.4314 126.054 14.3703 126.078 14.3153C126.103 14.2572 126.137 14.2083 126.181 14.1686C126.224 14.1258 126.273 14.0922 126.332 14.0678C126.391 14.0433 126.453 14.0311 126.521 14.0311ZM126.521 14.8561C126.57 14.8561 126.62 14.8469 126.663 14.8286C126.706 14.8103 126.746 14.7828 126.777 14.7522C126.811 14.7186 126.836 14.6819 126.855 14.6361C126.873 14.5933 126.882 14.5444 126.882 14.4956C126.882 14.4467 126.873 14.3978 126.855 14.355C126.836 14.3122 126.811 14.2725 126.777 14.2389C126.743 14.2053 126.706 14.1808 126.663 14.1625C126.62 14.1442 126.573 14.135 126.521 14.135C126.468 14.135 126.422 14.1442 126.375 14.1625C126.332 14.1808 126.292 14.2053 126.258 14.2389C126.224 14.2725 126.199 14.3092 126.181 14.355C126.162 14.3978 126.153 14.4467 126.153 14.4956C126.153 14.5444 126.162 14.5933 126.181 14.6361C126.199 14.6789 126.224 14.7186 126.258 14.7522C126.292 14.7858 126.329 14.8103 126.375 14.8286C126.422 14.8469 126.468 14.8561 126.521 14.8561ZM126.549 14.2756C126.604 14.2756 126.647 14.2878 126.678 14.3122C126.709 14.3367 126.725 14.3703 126.725 14.4131C126.725 14.4497 126.712 14.4772 126.688 14.5017C126.663 14.5261 126.629 14.5383 126.586 14.5444L126.728 14.7064H126.617L126.484 14.5444H126.44V14.7064H126.348V14.2756H126.549ZM126.44 14.355V14.4711H126.549C126.573 14.4711 126.592 14.465 126.607 14.4558C126.623 14.4467 126.629 14.4314 126.629 14.4131C126.629 14.3947 126.623 14.3794 126.607 14.3703C126.592 14.3611 126.573 14.355 126.549 14.355H126.44ZM118.645 11.0458C118.645 9.75945 119.495 8.70528 120.89 8.70528C122.284 8.70528 123.119 9.71667 123.119 11.0458C123.119 12.375 122.222 13.3864 120.89 13.3864C119.557 13.3864 118.645 12.3292 118.645 11.0458ZM64.2514 11.0458V7.38833H62.6403V8.27444C62.1301 7.6175 61.354 7.20194 60.3026 7.20194C58.2277 7.20194 56.6011 8.80917 56.6011 11.0428C56.6011 13.2764 58.2277 14.8836 60.3026 14.8836C61.357 14.8836 62.1301 14.4711 62.6403 13.8111V14.6972H64.2514V11.0397V11.0458ZM58.2586 11.0458C58.2586 9.75945 59.109 8.70528 60.5036 8.70528C61.8982 8.70528 62.7331 9.71667 62.7331 11.0458C62.7331 12.375 61.8363 13.3864 60.5036 13.3864C59.1708 13.3864 58.2586 12.3292 58.2586 11.0458ZM17.0261 19.9406C17.1127 20.0139 17.2055 20.0872 17.2951 20.1606C15.5294 21.3217 13.4112 22 11.1322 22C4.98476 22 0 17.0744 0 11C0 4.92556 4.98476 0 11.1322 0C13.4112 0 15.5294 0.678333 17.2951 1.83944C17.2055 1.91278 17.1127 1.98306 17.0261 2.05944C14.4038 4.31444 12.8979 7.57472 12.8979 11C12.8979 14.4253 14.4008 17.6856 17.0261 19.9406ZM24.8929 0C22.6139 0 20.4956 0.678333 18.7299 1.83944C18.8196 1.91278 18.9124 1.98306 18.999 2.05944C21.6212 4.31444 23.1272 7.57167 23.1272 11C23.1272 14.4283 21.6243 17.6856 19.0021 19.9406C18.9155 20.0139 18.8227 20.0872 18.733 20.1606C20.4987 21.3217 22.6169 22 24.896 22C31.0434 22 36.0282 17.0744 36.0282 11C36.0282 4.92556 31.0403 0 24.8929 0ZM18.0125 2.35583C17.8703 2.46583 17.728 2.58194 17.592 2.70111C15.2449 4.71778 13.7607 7.68778 13.7607 11C13.7607 14.3122 15.2449 17.2822 17.592 19.2989C17.728 19.4181 17.8703 19.5311 18.0125 19.6442C18.1548 19.5311 18.297 19.4181 18.4331 19.2989C20.7801 17.2822 22.2644 14.3122 22.2644 11C22.2644 7.68778 20.7801 4.71778 18.4331 2.70111C18.297 2.58194 18.1548 2.46889 18.0125 2.35583Z" fill="white"/>
</g>
<defs>
<clipPath id="clip0_251_5111">
<rect width="127" height="22" fill="white"/>
</clipPath>
</defs>
</svg>
