<svg width="44" height="54" viewBox="0 0 44 54" fill="none" xmlns="http://www.w3.org/2000/svg">
<path d="M18.9815 47.701H20.4019C20.7775 47.701 21.0849 47.3975 21.0849 47.0266C21.0849 46.6557 20.7775 46.3522 20.4019 46.3522H18.9815C18.6059 46.3522 18.2986 46.6557 18.2986 47.0266C18.2986 47.3975 18.6059 47.701 18.9815 47.701Z" fill="white"/>
<path d="M25.5921 47.701H27.0125C27.3881 47.701 27.6954 47.3975 27.6954 47.0266C27.6954 46.6557 27.3881 46.3522 27.0125 46.3522H25.5921C25.2165 46.3522 24.9092 46.6557 24.9092 47.0266C24.9092 47.3975 25.2165 47.701 25.5921 47.701Z" fill="white"/>
<path d="M18.9815 51.2889H20.4019C20.7775 51.2889 21.0849 50.9854 21.0849 50.6145C21.0849 50.2435 20.7775 49.9401 20.4019 49.9401H18.9815C18.6059 49.9401 18.2986 50.2435 18.2986 50.6145C18.2986 50.9854 18.6059 51.2889 18.9815 51.2889Z" fill="white"/>
<path d="M25.5921 51.2889H27.0125C27.3881 51.2889 27.6954 50.9854 27.6954 50.6145C27.6954 50.2435 27.3881 49.9401 27.0125 49.9401H25.5921C25.2165 49.9401 24.9092 50.2435 24.9092 50.6145C24.9092 50.9854 25.2165 51.2889 25.5921 51.2889Z" fill="white"/>
<path d="M15.2597 36.6002C15.0753 36.4991 14.85 36.4856 14.6587 36.5732C14.4675 36.6542 14.3173 36.8228 14.2695 37.0251L13.7163 39.163H11.9408C5.8356 39.163 0.87085 44.0659 0.87085 50.0952V53.3256C0.87085 53.6965 1.17816 54 1.55376 54H42.4462C42.8218 54 43.1291 53.6965 43.1291 53.3256V50.0952C43.1291 44.0659 38.1644 39.163 32.0592 39.163H30.2837L29.7305 37.0318C29.6758 36.8295 29.5325 36.6609 29.3412 36.58C29.15 36.4991 28.9247 36.5058 28.7403 36.607L27.4018 37.3353V33.6463C30.3725 31.8052 32.2504 28.568 32.2504 24.9869C32.2504 22.7344 31.4856 20.5493 30.0993 18.7688V14.7359C32.7558 13.7917 34.4084 11.1952 34.0874 8.36943C33.7869 5.67853 31.5948 3.45298 28.8768 3.08205C28.1666 2.98089 27.4633 3.00787 26.7803 3.14275C25.715 1.22068 23.6663 0 21.4127 0C19.0157 0 16.8577 1.38254 15.8675 3.50019C15.1778 3.39228 14.4812 3.426 13.8051 3.60809C11.531 4.20832 9.92619 6.2248 9.91253 8.5178C9.89887 10.9592 11.5925 13.0161 13.9417 13.5354V18.4519C12.3915 20.2862 11.5379 22.6062 11.5379 24.9869C11.5379 28.6085 13.4568 31.8794 16.4889 33.707V37.2679L15.2665 36.6002H15.2597ZM14.5017 44.7741V52.6444H2.23666V50.0884C2.23666 44.8078 6.5868 40.5051 11.9408 40.5051H14.2422C14.5563 40.5051 14.8226 40.296 14.9046 39.9992L15.369 38.2053L20.5864 41.0581L14.8499 44.1941C14.6314 44.3155 14.4949 44.538 14.4949 44.7808L14.5017 44.7741ZM29.0954 39.9992C29.1705 40.296 29.4437 40.5051 29.7578 40.5051H32.0592C37.4064 40.5051 41.7633 44.8078 41.7633 50.0884V52.6444H15.8675V45.172L28.631 38.1986L29.0954 39.9925V39.9992ZM14.8704 19.4567H28.911C29.1432 19.74 29.3549 20.0367 29.5462 20.3469C25.4077 23.9483 15.3075 24.1034 12.9446 24.0899C13.1222 22.4039 13.7846 20.7988 14.8704 19.4567ZM11.2715 8.52454C11.2783 6.83852 12.4666 5.35481 14.1466 4.9097C14.7817 4.7411 15.4372 4.74785 16.0928 4.92994C16.4411 5.02435 16.8031 4.83552 16.9192 4.49831C17.5816 2.60997 19.3845 1.34882 21.4059 1.34882C23.0585 1.34882 24.5677 2.19183 25.4282 3.5474C24.718 3.85088 23.7141 4.46459 23.0107 5.63132C22.8195 5.95504 22.9287 6.36643 23.2497 6.55526C23.3589 6.61596 23.4751 6.64968 23.598 6.64968C23.8302 6.64968 24.0555 6.53503 24.1853 6.31922C25.0252 4.91645 26.4662 4.60622 26.5345 4.59273C26.5482 4.59273 26.5549 4.58599 26.5686 4.57924C26.5823 4.57924 26.596 4.57924 26.6096 4.57924C27.2789 4.37692 27.9823 4.32297 28.6857 4.41738C30.789 4.70738 32.4963 6.43387 32.7284 8.52454C32.9948 10.858 31.5265 12.9891 29.2388 13.5961C28.9383 13.677 28.7334 13.9401 28.7334 14.2503V18.1214H15.3007V12.9689C15.3007 12.625 15.0343 12.335 14.686 12.2945C12.7261 12.0989 11.2579 10.4803 11.2715 8.53128V8.52454ZM12.9105 25.4387C13.0403 25.4387 13.1836 25.4387 13.3544 25.4387C16.3933 25.4387 25.7286 25.1353 30.1744 21.5811C30.6251 22.6534 30.8778 23.8067 30.8778 24.9869C30.8778 28.831 28.392 32.2166 24.7316 33.4103C21.6995 34.2061 19.084 33.4238 19.0703 33.4238C15.5192 32.2705 13.0949 29.094 12.9105 25.4455V25.4387ZM17.8411 34.4016C18.1074 34.5096 18.3737 34.6107 18.6537 34.7051C18.7357 34.7321 20.0127 35.1165 21.8702 35.1165C22.8263 35.1165 23.9463 35.0154 25.1277 34.7051C25.4418 34.604 25.7423 34.4826 26.036 34.3612V38.0839L21.9932 40.2892C21.9932 40.2892 21.9522 40.2623 21.9317 40.2488L17.8479 38.0165V34.4016H17.8411Z" fill="white"/>
</svg>
