<svg width="84" height="28" viewBox="0 0 84 28" fill="none" xmlns="http://www.w3.org/2000/svg">
<path fill-rule="evenodd" clip-rule="evenodd" d="M11.4643 9.31002C10.7143 8.81002 9.79427 8.52002 8.29427 8.52002C6.44427 8.52002 4.87426 9.45002 4.02426 10.7V8.91002H0.364258V27.42H4.02426V16.94C4.02426 13.76 5.37426 12.12 7.69426 12.12C8.41426 12.12 9.00427 12.21 9.51427 12.37C9.95427 11.33 10.4743 10.57 11.4643 9.30002" fill="white"/>
<path fill-rule="evenodd" clip-rule="evenodd" d="M22.6647 15.99H13.9847C14.3047 12.99 15.8047 11.28 18.2547 11.28C21.2847 11.28 22.4847 13.42 22.6647 15.99ZM26.3647 17.35C26.3647 12.28 23.8047 7.95996 18.4947 7.95996C13.6547 7.95996 10.3047 11.39 10.3047 17.74C10.3047 24.09 14.0047 27.48 18.3847 27.48C21.2347 27.48 23.1947 26.59 24.8247 25.02L22.6547 22.66C21.4047 23.59 20.1647 24.16 18.5947 24.16C16.3147 24.16 14.2847 22.62 13.8947 19.02H26.2447C26.2747 18.63 26.3547 18.02 26.3547 17.34" fill="white"/>
<path fill-rule="evenodd" clip-rule="evenodd" d="M40.1742 21.71C39.2142 22.92 37.6842 24.1 35.9342 24.1C33.2342 24.1 31.7342 22.03 31.7342 17.32C31.7342 13.36 33.1642 11.36 35.7942 11.36C37.6442 11.36 39.3542 12.72 40.1742 13.82V21.71ZM43.7742 27.43V0.5L40.1442 2.39V10.11C39.1142 8.97 37.3342 7.97 35.4442 7.97C31.5642 7.97 28.0742 11 28.0742 17.43C28.0742 24.57 31.2442 27.5 35.2642 27.5C37.2242 27.5 38.7842 26.57 40.1442 25.32V27.43H43.7742Z" fill="white"/>
<path fill-rule="evenodd" clip-rule="evenodd" d="M64.9344 15.99H56.2444C56.5644 12.99 58.0644 11.28 60.5144 11.28C63.5444 11.28 64.7444 13.42 64.9244 15.99M68.6245 17.35C68.6245 12.28 66.0645 7.95996 60.7545 7.95996C55.9145 7.95996 52.5645 11.39 52.5645 17.74C52.5645 24.09 56.2644 27.48 60.6444 27.48C63.4944 27.48 65.4544 26.59 67.0844 25.02L64.9145 22.66C63.6645 23.59 62.4244 24.16 60.8544 24.16C58.5744 24.16 56.5444 22.62 56.1544 19.02H68.5045C68.5345 18.63 68.6144 18.02 68.6144 17.34" fill="white"/>
<path fill-rule="evenodd" clip-rule="evenodd" d="M83.6143 21.96C83.6143 18.43 81.4743 17.28 77.3143 15.68C74.5043 14.57 73.8643 13.89 73.8643 12.97C73.8643 11.97 74.6443 11.26 76.4243 11.26C78.2043 11.26 79.7343 11.8 81.2643 12.87L82.8643 10.05C81.1943 8.83998 78.8743 7.97998 76.5243 7.97998C72.7843 7.97998 70.1543 9.72998 70.1543 13.09C70.1543 16.05 71.6143 17.41 75.6343 18.98C78.3343 20.01 79.9743 20.69 79.9743 22.12C79.9743 23.44 78.8743 24.19 76.5543 24.19C74.8143 24.19 72.8543 23.55 71.1143 22.33L69.4443 25.11C71.3343 26.5 74.0743 27.5 76.6043 27.5C80.2643 27.5 83.6143 26.11 83.6143 21.97" fill="white"/>
<path fill-rule="evenodd" clip-rule="evenodd" d="M45.8047 24.3C45.8047 22.57 47.2047 21.17 48.9347 21.17C50.6647 21.17 52.0647 22.57 52.0647 24.3C52.0647 26.03 50.6647 27.43 48.9347 27.43C47.2047 27.43 45.8047 26.03 45.8047 24.3Z" fill="white"/>
</svg>
