<svg width="84" height="28" viewBox="0 0 84 28" fill="none" xmlns="http://www.w3.org/2000/svg">
<mask id="path-1-inside-1_754_13071" fill="white">
<path fill-rule="evenodd" clip-rule="evenodd" d="M11.4643 9.74471C10.7143 9.24471 9.79427 8.95471 8.29427 8.95471C6.44427 8.95471 4.87426 9.88471 4.02426 11.1347V9.34471H0.364258V27.8547H4.02426V17.3747C4.02426 14.1947 5.37426 12.5547 7.69426 12.5547C8.41426 12.5547 9.00427 12.6447 9.51427 12.8047C9.95427 11.7647 10.4743 11.0047 11.4643 9.73471"/>
</mask>
<path fill-rule="evenodd" clip-rule="evenodd" d="M11.4643 9.74471C10.7143 9.24471 9.79427 8.95471 8.29427 8.95471C6.44427 8.95471 4.87426 9.88471 4.02426 11.1347V9.34471H0.364258V27.8547H4.02426V17.3747C4.02426 14.1947 5.37426 12.5547 7.69426 12.5547C8.41426 12.5547 9.00427 12.6447 9.51427 12.8047C9.95427 11.7647 10.4743 11.0047 11.4643 9.73471" fill="#202020"/>
<path d="M4.02426 11.1347H3.02426V14.3837L4.85119 11.697L4.02426 11.1347ZM4.02426 9.34471H5.02426V8.34471H4.02426V9.34471ZM0.364258 9.34471V8.34471H-0.635742V9.34471H0.364258ZM0.364258 27.8547H-0.635742V28.8547H0.364258V27.8547ZM4.02426 27.8547V28.8547H5.02426V27.8547H4.02426ZM9.51427 12.8047L9.21493 13.7589L10.0814 14.0307L10.4352 13.1944L9.51427 12.8047ZM12.019 8.91266C11.0656 8.2771 9.93882 7.95471 8.29427 7.95471V9.95471C9.64971 9.95471 10.3629 10.2123 10.9096 10.5768L12.019 8.91266ZM8.29427 7.95471C6.10936 7.95471 4.23137 9.05175 3.19734 10.5724L4.85119 11.697C5.51715 10.7177 6.77917 9.95471 8.29427 9.95471V7.95471ZM5.02426 11.1347V9.34471H3.02426V11.1347H5.02426ZM4.02426 8.34471H0.364258V10.3447H4.02426V8.34471ZM-0.635742 9.34471V27.8547H1.36426V9.34471H-0.635742ZM0.364258 28.8547H4.02426V26.8547H0.364258V28.8547ZM5.02426 27.8547V17.3747H3.02426V27.8547H5.02426ZM5.02426 17.3747C5.02426 15.9055 5.3391 14.9517 5.77888 14.3858C6.18803 13.8593 6.79263 13.5547 7.69426 13.5547V11.5547C6.27589 11.5547 5.04549 12.0701 4.19965 13.1586C3.38443 14.2077 3.02426 15.6639 3.02426 17.3747H5.02426ZM7.69426 13.5547C8.32933 13.5547 8.81646 13.6338 9.21493 13.7589L9.81361 11.8506C9.19208 11.6556 8.49919 11.5547 7.69426 11.5547V13.5547ZM10.4352 13.1944C10.8228 12.2782 11.2769 11.6016 12.2529 10.3495L10.6756 9.11991C9.67165 10.4078 9.08571 11.2512 8.5933 12.4151L10.4352 13.1944Z" fill="#202020" mask="url(#path-1-inside-1_754_13071)"/>
<mask id="path-3-inside-2_754_13071" fill="white">
<path fill-rule="evenodd" clip-rule="evenodd" d="M22.6642 16.4247H13.9842C14.3042 13.4247 15.8042 11.7147 18.2542 11.7147C21.2842 11.7147 22.4842 13.8547 22.6642 16.4247ZM26.3642 17.7847C26.3642 12.7147 23.8042 8.39465 18.4942 8.39465C13.6542 8.39465 10.3042 11.8247 10.3042 18.1747C10.3042 24.5247 14.0042 27.9147 18.3842 27.9147C21.2342 27.9147 23.1942 27.0247 24.8242 25.4547L22.6542 23.0947C21.4042 24.0247 20.1642 24.5947 18.5942 24.5947C16.3142 24.5947 14.2842 23.0547 13.8942 19.4547H26.2442C26.2742 19.0647 26.3542 18.4547 26.3542 17.7747"/>
</mask>
<path fill-rule="evenodd" clip-rule="evenodd" d="M22.6642 16.4247H13.9842C14.3042 13.4247 15.8042 11.7147 18.2542 11.7147C21.2842 11.7147 22.4842 13.8547 22.6642 16.4247ZM26.3642 17.7847C26.3642 12.7147 23.8042 8.39465 18.4942 8.39465C13.6542 8.39465 10.3042 11.8247 10.3042 18.1747C10.3042 24.5247 14.0042 27.9147 18.3842 27.9147C21.2342 27.9147 23.1942 27.0247 24.8242 25.4547L22.6542 23.0947C21.4042 24.0247 20.1642 24.5947 18.5942 24.5947C16.3142 24.5947 14.2842 23.0547 13.8942 19.4547H26.2442C26.2742 19.0647 26.3542 18.4547 26.3542 17.7747" fill="#202020"/>
<path d="M22.6642 16.4247V17.4247H23.7367L23.6618 16.3548L22.6642 16.4247ZM13.9842 16.4247L12.9898 16.3186L12.8719 17.4247H13.9842V16.4247ZM24.8242 25.4547L25.5179 26.1749L26.2217 25.4971L25.5603 24.7778L24.8242 25.4547ZM22.6542 23.0947L23.3903 22.4178L22.7803 21.7544L22.0573 22.2923L22.6542 23.0947ZM13.8942 19.4547V18.4547H12.78L12.9 19.5624L13.8942 19.4547ZM26.2442 19.4547V20.4547H27.1702L27.2413 19.5314L26.2442 19.4547ZM22.6642 15.4247H13.9842V17.4247H22.6642V15.4247ZM14.9786 16.5307C15.1246 15.1616 15.5284 14.2093 16.0642 13.6131C16.5773 13.0422 17.284 12.7147 18.2542 12.7147V10.7147C16.7744 10.7147 15.5061 11.2421 14.5767 12.2762C13.67 13.285 13.1638 14.6878 12.9898 16.3186L14.9786 16.5307ZM18.2542 12.7147C19.5055 12.7147 20.2647 13.1417 20.7543 13.7395C21.2763 14.3769 21.5847 15.3248 21.6666 16.4945L23.6618 16.3548C23.5637 14.9545 23.1821 13.5474 22.3016 12.4723C21.3887 11.3576 20.0329 10.7147 18.2542 10.7147V12.7147ZM27.3642 17.7847C27.3642 15.0968 26.6875 12.5167 25.2163 10.5829C23.7199 8.61587 21.4556 7.39465 18.4942 7.39465V9.39465C20.8429 9.39465 22.5135 10.3334 23.6246 11.7939C24.7609 13.2876 25.3642 15.4025 25.3642 17.7847H27.3642ZM18.4942 7.39465C15.825 7.39465 13.488 8.34883 11.8311 10.2455C10.1869 12.1276 9.3042 14.8313 9.3042 18.1747H11.3042C11.3042 15.168 12.0965 12.9817 13.3373 11.5613C14.5654 10.1555 16.3234 9.39465 18.4942 9.39465V7.39465ZM9.3042 18.1747C9.3042 21.5436 10.2882 24.2333 11.9574 26.0937C13.6302 27.9582 15.9265 28.9147 18.3842 28.9147V26.9147C16.4619 26.9147 14.7182 26.1761 13.446 24.7581C12.1702 23.336 11.3042 21.1557 11.3042 18.1747H9.3042ZM18.3842 28.9147C21.4874 28.9147 23.6976 27.9282 25.5179 26.1749L24.1305 24.7344C22.6908 26.1211 20.981 26.9147 18.3842 26.9147V28.9147ZM25.5603 24.7778L23.3903 22.4178L21.9181 23.7715L24.0881 26.1315L25.5603 24.7778ZM22.0573 22.2923C20.916 23.1415 19.8813 23.5947 18.5942 23.5947V25.5947C20.4471 25.5947 21.8924 24.9078 23.2511 23.897L22.0573 22.2923ZM18.5942 23.5947C17.6876 23.5947 16.8732 23.2935 16.2399 22.6649C15.6003 22.03 15.0653 20.9801 14.8884 19.347L12.9 19.5624C13.1131 21.5292 13.7881 23.0493 14.831 24.0844C15.8802 25.1258 17.2209 25.5947 18.5942 25.5947V23.5947ZM13.8942 20.4547H26.2442V18.4547H13.8942V20.4547ZM27.2413 19.5314C27.2661 19.209 27.3542 18.5052 27.3542 17.7747H25.3542C25.3542 18.4041 25.2824 18.9203 25.2471 19.378L27.2413 19.5314Z" fill="#202020" mask="url(#path-3-inside-2_754_13071)"/>
<path d="M40.5659 22.4555L40.6742 22.3189V22.1447V14.2547V14.0888L40.5751 13.9559C40.129 13.3574 39.451 12.6997 38.6361 12.1886C37.8219 11.6779 36.8403 11.2947 35.7942 11.2947C34.3333 11.2947 33.1559 11.861 32.3664 13.0058C31.5977 14.1203 31.2342 15.7283 31.2342 17.7547C31.2342 20.1463 31.612 21.9562 32.4014 23.1817C33.2156 24.4459 34.433 25.0347 35.9342 25.0347C37.9054 25.0347 39.564 23.7183 40.5659 22.4555ZM43.2742 1.75873V27.3647H40.6442V25.7547V24.616L39.8059 25.3866C38.4928 26.5934 37.0486 27.4347 35.2642 27.4347C33.3852 27.4347 31.7404 26.7558 30.5527 25.2656C29.3532 23.7603 28.5742 21.3691 28.5742 17.8647C28.5742 14.7384 29.4218 12.5003 30.6815 11.0515C31.9381 9.60633 33.6396 8.90469 35.4442 8.90469C37.1695 8.90469 38.8212 9.82617 39.7732 10.8799L40.6442 11.8439V10.5447V3.12807L43.2742 1.75873Z" fill="#202020" stroke="#202020"/>
<mask id="path-6-inside-3_754_13071" fill="white">
<path fill-rule="evenodd" clip-rule="evenodd" d="M64.9344 16.4247H56.2444C56.5644 13.4247 58.0644 11.7147 60.5144 11.7147C63.5444 11.7147 64.7444 13.8547 64.9244 16.4247M68.6245 17.7847C68.6245 12.7147 66.0645 8.39465 60.7545 8.39465C55.9145 8.39465 52.5645 11.8247 52.5645 18.1747C52.5645 24.5247 56.2644 27.9147 60.6444 27.9147C63.4944 27.9147 65.4544 27.0247 67.0844 25.4547L64.9145 23.0947C63.6645 24.0247 62.4244 24.5947 60.8544 24.5947C58.5744 24.5947 56.5444 23.0547 56.1544 19.4547H68.5045C68.5345 19.0647 68.6144 18.4547 68.6144 17.7747"/>
</mask>
<path fill-rule="evenodd" clip-rule="evenodd" d="M64.9344 16.4247H56.2444C56.5644 13.4247 58.0644 11.7147 60.5144 11.7147C63.5444 11.7147 64.7444 13.8547 64.9244 16.4247M68.6245 17.7847C68.6245 12.7147 66.0645 8.39465 60.7545 8.39465C55.9145 8.39465 52.5645 11.8247 52.5645 18.1747C52.5645 24.5247 56.2644 27.9147 60.6444 27.9147C63.4944 27.9147 65.4544 27.0247 67.0844 25.4547L64.9145 23.0947C63.6645 24.0247 62.4244 24.5947 60.8544 24.5947C58.5744 24.5947 56.5444 23.0547 56.1544 19.4547H68.5045C68.5345 19.0647 68.6144 18.4547 68.6144 17.7747" fill="#202020"/>
<path d="M56.2444 16.4247L55.2501 16.3186L55.1321 17.4247H56.2444V16.4247ZM67.0844 25.4547L67.7782 26.1749L68.4819 25.4971L67.8206 24.7778L67.0844 25.4547ZM64.9145 23.0947L65.6506 22.4178L65.0406 21.7544L64.3175 22.2923L64.9145 23.0947ZM56.1544 19.4547V18.4547H55.0403L55.1603 19.5624L56.1544 19.4547ZM68.5045 19.4547V20.4547H69.4305L69.5015 19.5314L68.5045 19.4547ZM64.9344 15.4247H56.2444V17.4247H64.9344V15.4247ZM57.2388 16.5307C57.3848 15.1616 57.7886 14.2093 58.3244 13.6131C58.8375 13.0422 59.5442 12.7147 60.5144 12.7147V10.7147C59.0347 10.7147 57.7664 11.2421 56.8369 12.2762C55.9303 13.285 55.424 14.6878 55.2501 16.3186L57.2388 16.5307ZM60.5144 12.7147C61.7657 12.7147 62.5249 13.1417 63.0145 13.7395C63.5366 14.3769 63.845 15.3248 63.9269 16.4945L65.922 16.3548C65.8239 14.9545 65.4423 13.5474 64.5618 12.4723C63.6489 11.3576 62.2932 10.7147 60.5144 10.7147V12.7147ZM69.6245 17.7847C69.6245 15.0968 68.9477 12.5167 67.4766 10.5829C65.9801 8.61587 63.7158 7.39465 60.7545 7.39465V9.39465C63.1031 9.39465 64.7738 10.3334 65.8848 11.7939C67.0212 13.2876 67.6245 15.4025 67.6245 17.7847H69.6245ZM60.7545 7.39465C58.0853 7.39465 55.7482 8.34883 54.0913 10.2455C52.4472 12.1276 51.5645 14.8313 51.5645 18.1747H53.5645C53.5645 15.168 54.3568 12.9817 55.5976 11.5613C56.8257 10.1555 58.5837 9.39465 60.7545 9.39465V7.39465ZM51.5645 18.1747C51.5645 21.5436 52.5485 24.2333 54.2176 26.0937C55.8904 27.9582 58.1867 28.9147 60.6444 28.9147V26.9147C58.7222 26.9147 56.9785 26.1761 55.7063 24.7581C54.4304 23.336 53.5645 21.1557 53.5645 18.1747H51.5645ZM60.6444 28.9147C63.7476 28.9147 65.9579 27.9282 67.7782 26.1749L66.3907 24.7344C64.951 26.1211 63.2413 26.9147 60.6444 26.9147V28.9147ZM67.8206 24.7778L65.6506 22.4178L64.1783 23.7715L66.3483 26.1315L67.8206 24.7778ZM64.3175 22.2923C63.1762 23.1415 62.1415 23.5947 60.8544 23.5947V25.5947C62.7074 25.5947 64.1527 24.9078 65.5114 23.897L64.3175 22.2923ZM60.8544 23.5947C59.9478 23.5947 59.1334 23.2935 58.5002 22.6649C57.8605 22.03 57.3256 20.9801 57.1486 19.347L55.1603 19.5624C55.3733 21.5292 56.0484 23.0493 57.0912 24.0844C58.1404 25.1258 59.4811 25.5947 60.8544 25.5947V23.5947ZM56.1544 20.4547H68.5045V18.4547H56.1544V20.4547ZM69.5015 19.5314C69.5263 19.209 69.6144 18.5052 69.6144 17.7747H67.6144C67.6144 18.4041 67.5426 18.9203 67.5074 19.378L69.5015 19.5314Z" fill="#202020" mask="url(#path-6-inside-3_754_13071)"/>
<mask id="path-8-inside-4_754_13071" fill="white">
<path fill-rule="evenodd" clip-rule="evenodd" d="M83.6143 22.3947C83.6143 18.8647 81.4743 17.7147 77.3143 16.1147C74.5043 15.0047 73.8643 14.3247 73.8643 13.4047C73.8643 12.4047 74.6443 11.6947 76.4243 11.6947C78.2043 11.6947 79.7343 12.2347 81.2643 13.3047L82.8643 10.4847C81.1943 9.27467 78.8743 8.41467 76.5243 8.41467C72.7843 8.41467 70.1543 10.1647 70.1543 13.5247C70.1543 16.4847 71.6143 17.8447 75.6343 19.4147C78.3343 20.4447 79.9743 21.1247 79.9743 22.5547C79.9743 23.8747 78.8743 24.6247 76.5543 24.6247C74.8143 24.6247 72.8543 23.9847 71.1143 22.7647L69.4443 25.5447C71.3343 26.9347 74.0743 27.9347 76.6043 27.9347C80.2643 27.9347 83.6143 26.5447 83.6143 22.4047"/>
</mask>
<path fill-rule="evenodd" clip-rule="evenodd" d="M83.6143 22.3947C83.6143 18.8647 81.4743 17.7147 77.3143 16.1147C74.5043 15.0047 73.8643 14.3247 73.8643 13.4047C73.8643 12.4047 74.6443 11.6947 76.4243 11.6947C78.2043 11.6947 79.7343 12.2347 81.2643 13.3047L82.8643 10.4847C81.1943 9.27467 78.8743 8.41467 76.5243 8.41467C72.7843 8.41467 70.1543 10.1647 70.1543 13.5247C70.1543 16.4847 71.6143 17.8447 75.6343 19.4147C78.3343 20.4447 79.9743 21.1247 79.9743 22.5547C79.9743 23.8747 78.8743 24.6247 76.5543 24.6247C74.8143 24.6247 72.8543 23.9847 71.1143 22.7647L69.4443 25.5447C71.3343 26.9347 74.0743 27.9347 76.6043 27.9347C80.2643 27.9347 83.6143 26.5447 83.6143 22.4047" fill="#202020"/>
<path d="M77.3143 16.1147L76.9469 17.0448L76.9554 17.048L77.3143 16.1147ZM81.2643 13.3047L80.6912 14.1242L81.5918 14.754L82.1341 13.7982L81.2643 13.3047ZM82.8643 10.4847L83.7341 10.9782L84.1756 10.1999L83.451 9.67489L82.8643 10.4847ZM75.6343 19.4147L75.2705 20.3462L75.2779 20.349L75.6343 19.4147ZM71.1143 22.7647L71.6884 21.9459L70.8097 21.3298L70.2571 22.2497L71.1143 22.7647ZM69.4443 25.5447L68.5871 25.0297L68.118 25.8106L68.8519 26.3503L69.4443 25.5447ZM84.6143 22.3947C84.6143 20.38 83.9825 18.9224 82.6851 17.7803C81.4749 16.7149 79.7296 15.9722 77.6733 15.1813L76.9554 17.048C79.059 17.8571 80.4638 18.4894 81.3636 19.2815C82.1762 19.9969 82.6143 20.8794 82.6143 22.3947H84.6143ZM77.6817 15.1846C76.2873 14.6338 75.5539 14.2336 75.1737 13.9185C74.9973 13.7723 74.9318 13.672 74.9049 13.6175C74.8812 13.5694 74.8643 13.5113 74.8643 13.4047H72.8643C72.8643 13.758 72.9275 14.13 73.1115 14.5028C73.2925 14.8692 73.5626 15.1808 73.8974 15.4583C74.5398 15.9908 75.5314 16.4856 76.9469 17.0447L77.6817 15.1846ZM74.8643 13.4047C74.8643 13.197 74.9277 13.0829 75.0635 12.9845C75.2444 12.8534 75.6454 12.6947 76.4243 12.6947V10.6947C75.4232 10.6947 74.5443 10.8909 73.8901 11.3649C73.1909 11.8715 72.8643 12.6124 72.8643 13.4047H74.8643ZM76.4243 12.6947C77.9717 12.6947 79.3051 13.1548 80.6912 14.1242L81.8374 12.4852C80.1635 11.3145 78.4369 10.6947 76.4243 10.6947V12.6947ZM82.1341 13.7982L83.7341 10.9782L81.9946 9.99119L80.3946 12.8112L82.1341 13.7982ZM83.451 9.67489C81.6251 8.35193 79.1026 7.41467 76.5243 7.41467V9.41467C78.6461 9.41467 80.7635 10.1974 82.2776 11.2945L83.451 9.67489ZM76.5243 7.41467C74.5146 7.41467 72.6838 7.88293 71.3306 8.91436C69.9424 9.97253 69.1543 11.5522 69.1543 13.5247H71.1543C71.1543 12.1372 71.6813 11.1618 72.543 10.505C73.4398 9.82141 74.7941 9.41467 76.5243 9.41467V7.41467ZM69.1543 13.5247C69.1543 15.1959 69.5776 16.547 70.6644 17.6824C71.6931 18.757 73.2414 19.5537 75.2705 20.3462L75.9981 18.4832C74.0073 17.7057 72.8155 17.0373 72.1092 16.2994C71.4611 15.6223 71.1543 14.8135 71.1543 13.5247H69.1543ZM75.2779 20.349C76.6572 20.8752 77.6352 21.2665 78.2785 21.6774C78.8899 22.0679 78.9743 22.3285 78.9743 22.5547H80.9743C80.9743 21.3509 80.2388 20.5564 79.3552 19.9919C78.5034 19.4479 77.3114 18.9842 75.9907 18.4803L75.2779 20.349ZM78.9743 22.5547C78.9743 22.8816 78.8672 23.0727 78.605 23.2363C78.2712 23.4445 77.6364 23.6247 76.5543 23.6247V25.6247C77.7923 25.6247 78.8675 25.4298 79.6636 24.9331C80.5315 24.3917 80.9743 23.5477 80.9743 22.5547H78.9743ZM76.5543 23.6247C75.0469 23.6247 73.2839 23.0645 71.6884 21.9459L70.5402 23.5835C72.4248 24.9048 74.5817 25.6247 76.5543 25.6247V23.6247ZM70.2571 22.2497L68.5871 25.0297L70.3016 26.0596L71.9715 23.2796L70.2571 22.2497ZM68.8519 26.3503C70.8988 27.8557 73.8435 28.9347 76.6043 28.9347V26.9347C74.3052 26.9347 71.7699 26.0137 70.0368 24.7391L68.8519 26.3503ZM76.6043 28.9347C78.5346 28.9347 80.5121 28.5724 82.0373 27.5537C83.6232 26.4944 84.6143 24.7925 84.6143 22.4047H82.6143C82.6143 24.1568 81.9304 25.22 80.9264 25.8906C79.8615 26.6019 78.334 26.9347 76.6043 26.9347V28.9347Z" fill="#202020" mask="url(#path-8-inside-4_754_13071)"/>
<path d="M46.3042 24.7347C46.3042 23.2809 47.4803 22.1047 48.9342 22.1047C50.3881 22.1047 51.5642 23.2809 51.5642 24.7347C51.5642 26.1886 50.3881 27.3647 48.9342 27.3647C47.4803 27.3647 46.3042 26.1886 46.3042 24.7347Z" fill="#202020" stroke="#202020"/>
</svg>
